<svg xmlns="http://www.w3.org/2000/svg" xmlns:xlink="http://www.w3.org/1999/xlink" viewBox="0 0 1024 1024"><defs><style>.cls-1{isolation:isolate;}.cls-2{fill:#fff;}.cls-3{fill:#f7b889;}.cls-4{fill:#f8c79d;}.cls-5{opacity:0.1;mix-blend-mode:multiply;fill:url(#linear-gradient);}.cls-10,.cls-26,.cls-6{opacity:0.15;}.cls-10,.cls-18,.cls-19,.cls-21,.cls-25,.cls-26,.cls-27,.cls-6{mix-blend-mode:overlay;}.cls-6{fill:url(#linear-gradient-2);}.cls-7{fill:#eb986d;}.cls-8{fill:red;}.cls-9{fill:#220f0f;}.cls-11{fill:#f45151;}.cls-12{fill:#e2472b;}.cls-13{fill:blue;}.cls-14{fill:#e4783e;}.cls-15{fill:#2cb34f;}.cls-16{fill:#ccdde7;}.cls-17{fill:#a5ce39;}.cls-18,.cls-19{opacity:0.45;}.cls-18{fill:url(#linear-gradient-3);}.cls-19{fill:url(#linear-gradient-4);}.cls-20{fill:lime;}.cls-21{fill:url(#linear-gradient-5);}.cls-22{fill:#d3eef4;}.cls-23{fill:#badde2;}.cls-24{fill:aqua;}.cls-25,.cls-27{opacity:0.25;}.cls-25{fill:url(#radial-gradient);}.cls-26{fill:url(#linear-gradient-6);}.cls-27{fill:url(#linear-gradient-7);}</style><linearGradient id="linear-gradient" x1="321.5" y1="490" x2="321.5" y2="187.52" gradientUnits="userSpaceOnUse"><stop offset="0" stop-color="#f69878"/><stop offset="1" stop-color="#f69878" stop-opacity="0"/></linearGradient><linearGradient id="linear-gradient-2" x1="321.68" y1="286" x2="321.68" y2="431.12" gradientUnits="userSpaceOnUse"><stop offset="0"/><stop offset="1" stop-opacity="0"/></linearGradient><linearGradient id="linear-gradient-3" x1="657.77" y1="835.05" x2="657.77" y2="786.3" gradientUnits="userSpaceOnUse"><stop offset="0" stop-opacity="0"/><stop offset="1"/></linearGradient><linearGradient id="linear-gradient-4" x1="794.72" y1="835.05" x2="794.72" y2="786.3" xlink:href="#linear-gradient-3"/><linearGradient id="linear-gradient-5" x1="320.89" y1="903.7" x2="320.89" y2="869.42" xlink:href="#linear-gradient-3"/><radialGradient id="radial-gradient" cx="382.93" cy="770.55" r="257.93" gradientTransform="translate(-129.79 -13.8) scale(1.16 0.99)" gradientUnits="userSpaceOnUse"><stop offset="0" stop-color="#fff" stop-opacity="0"/><stop offset="1"/></radialGradient><linearGradient id="linear-gradient-6" x1="824" y1="1024" x2="824" y2="764" gradientUnits="userSpaceOnUse"><stop offset="0" stop-color="#fff"/><stop offset="1"/></linearGradient><linearGradient id="linear-gradient-7" x1="826.3" y1="329.21" x2="961.1" y2="329.21" gradientTransform="matrix(1, 0, 0, 1, 0, 0)" xlink:href="#radial-gradient"/></defs><title>athleteFemaleGreen</title><g class="cls-1"><g id="SkinComplete"><rect class="cls-2" width="1024" height="1024"/><rect class="cls-3" x="624" y="524" width="400" height="240"/><rect class="cls-4" width="643" height="490"/><rect class="cls-5" y="139.59" width="643" height="350.41"/><rect class="cls-4" x="824" y="134" width="200" height="390"/><path class="cls-6" d="M366,299h0a89.81,89.81,0,0,0-19.13,2.07h0a89.33,89.33,0,0,1-19.14,2.07H315.59a89.26,89.26,0,0,1-19.14-2.07h0A89.81,89.81,0,0,0,277.32,299h0a43.74,43.74,0,0,0-33,15c-6.51,7.48-12.32,16.72-11.37,25.21l15.3,137,71.88,5.58,1.52-2.82,1.52,2.82,71.87-5.58,15.31-137c.95-8.49-4.86-17.73-11.38-25.21A43.71,43.71,0,0,0,366,299Z"/><path class="cls-7" d="M442.55,216.37h8.29a18.41,18.41,0,0,1,18.41,18.41v1.43a18.41,18.41,0,0,1-18.41,18.41h-8.29a0,0,0,0,1,0,0V216.37A0,0,0,0,1,442.55,216.37Z"/><path class="cls-4" d="M437.85,216.37h8.29a18.41,18.41,0,0,1,18.41,18.41v1.43a18.41,18.41,0,0,1-18.41,18.41h-8.29a0,0,0,0,1,0,0V216.37a0,0,0,0,1,0,0Z"/><ellipse class="cls-7" cx="451.21" cy="235.5" rx="7.93" ry="4.4" transform="translate(132.36 632.21) rotate(-78.77)"/><path class="cls-7" d="M173.56,216.37h8.29a18.41,18.41,0,0,1,18.41,18.41v1.43a18.41,18.41,0,0,1-18.41,18.41h-8.29a0,0,0,0,1,0,0V216.37a0,0,0,0,1,0,0Z" transform="translate(373.83 471) rotate(-180)"/><path class="cls-4" d="M178.26,216.37h8.29A18.41,18.41,0,0,1,205,234.78v1.43a18.41,18.41,0,0,1-18.41,18.41h-8.29a0,0,0,0,1,0,0V216.37A0,0,0,0,1,178.26,216.37Z" transform="translate(383.22 471) rotate(-180)"/><ellipse class="cls-7" cx="191.61" cy="235.5" rx="4.4" ry="7.93" transform="translate(-42.19 41.82) rotate(-11.23)"/><rect class="cls-4" x="624" y="864.49" width="400" height="159.51"/><rect class="cls-8" x="992" width="32" height="32"/><ellipse class="cls-4" cx="320.36" cy="746.08" rx="73.24" ry="132.26"/><rect class="cls-9" x="343.93" y="213.32" width="14.17" height="21.7" rx="7.09" ry="7.09"/><path class="cls-9" d="M352.79,211.55h0a7.09,7.09,0,0,1,7.09,7.09v10.63a0,0,0,0,1,0,0h-7.09a7.09,7.09,0,0,1-7.09-7.09v-3.54A7.09,7.09,0,0,1,352.79,211.55Z" transform="translate(132.38 573.2) rotate(-90)"/><path class="cls-10" d="M329.57,243.36h0a35.21,35.21,0,0,1-15.49,0h0a2,2,0,0,0-1.6,2.54c1.22,4,4.94,5.35,9.33,5.36h0c4.4,0,8.12-1.36,9.34-5.36A2,2,0,0,0,329.57,243.36Z"/><path class="cls-11" d="M338.33,256.43c-2.75,3.26-7.08,4.93-11.4,6s-9.14,1.79-13.61.25c-2.23-.8-4.73,1.06-3.33,3.1,2.33,3.44,10.4,6.4,19.43,4s13.36-8.39,13.25-12.19C342.6,255.32,339.7,254.78,338.33,256.43Z"/><path class="cls-12" d="M341.94,200.57c4-1.2,8.18-.67,12.21-.1s8.21,1.19,11.71,3.43c1.79,1.16,4.31-.37,3.54-2.49-1.32-3.6-6.64-7.41-14.21-8.45s-13.72,1.15-16,4.25C337.9,199,339.9,201.2,341.94,200.57Z"/><path class="cls-12" d="M299.31,207.52c-4-1.2-8.18-.67-12.21-.1s-8.21,1.19-11.72,3.43c-1.79,1.17-4.3-.37-3.54-2.48,1.33-3.6,6.65-7.42,14.21-8.46s13.73,1.16,16,4.26C303.35,206,301.35,208.16,299.31,207.52Z"/><rect class="cls-9" x="285.36" y="213.32" width="14.17" height="21.7" rx="7.09" ry="7.09" transform="translate(584.89 448.34) rotate(-180)"/><path class="cls-9" d="M290.67,211.55h7.09a0,0,0,0,1,0,0v10.63a7.09,7.09,0,0,1-7.09,7.09h0a7.09,7.09,0,0,1-7.09-7.09v-3.54A7.09,7.09,0,0,1,290.67,211.55Z" transform="translate(70.26 511.09) rotate(-90)"/><circle class="cls-10" cx="350.75" cy="249.42" r="2.56"/><circle class="cls-10" cx="359.38" cy="245.82" r="2.56"/><circle class="cls-10" cx="358.22" cy="255.16" r="2.56"/><circle class="cls-10" cx="292.49" cy="249.42" r="2.56"/><circle class="cls-10" cx="283.86" cy="245.82" r="2.56"/><circle class="cls-10" cx="285.03" cy="255.16" r="2.56"/><g class="cls-10"><path d="M321,5V151.59c-46.33,0-83.91,36.38-84.07,44.26v.05L235.3,213c-1.2,12.75-16.54,22.95-26.23,15.52s-30.16-18.38-57.22,27.74S0,318.87,0,318.87V5Z"/><path d="M321,5V151.59c46.33,0,83.91,36.38,84.07,44.26v.05l1.61,17.1c1.2,12.75,16.54,22.95,26.23,15.52s30.16-18.38,57.22,27.74S642,318.87,642,318.87V5Z"/></g><path class="cls-12" d="M321,0V146.59c-46.33,0-83.91,36.38-84.07,44.26v.05L235.3,208c-1.2,12.75-16.54,22.95-26.23,15.52s-30.16-18.38-57.22,27.74S0,313.87,0,313.87V0Z"/><path class="cls-12" d="M321,0V146.59c46.33,0,83.91,36.38,84.07,44.26v.05l1.61,17.1c1.2,12.75,16.54,22.95,26.23,15.52s30.16-18.38,57.22,27.74S642,313.87,642,313.87V0Z"/><rect class="cls-13" x="992" width="32" height="32"/><rect class="cls-14" x="643" width="381" height="134"/><rect class="cls-15" x="643" y="134" width="181" height="390"/><polygon class="cls-2" points="685.44 439.39 707.95 424.66 745.85 424.66 766.21 445.84 763.57 471.33 735.92 484.58 701.16 478.78 685.44 439.39"/><polygon class="cls-2" points="685.44 264.47 707.95 249.74 745.85 249.74 766.21 270.93 763.57 296.42 735.92 309.66 701.16 303.87 685.44 264.47"/><rect class="cls-2" x="713.32" y="395.74" width="26.58" height="5.41" rx="2.7" ry="2.7"/><rect class="cls-2" x="713.32" y="386.11" width="26.58" height="5.41" rx="2.7" ry="2.7"/><rect class="cls-2" x="713.32" y="405.83" width="26.58" height="5.41" rx="2.7" ry="2.7"/><rect class="cls-2" x="713.32" y="221.15" width="26.58" height="5.41" rx="2.7" ry="2.7"/><rect class="cls-2" x="713.32" y="210.84" width="26.58" height="5.41" rx="2.7" ry="2.7"/><rect class="cls-2" x="713.32" y="231.25" width="26.58" height="5.41" rx="2.7" ry="2.7"/><path class="cls-16" d="M806,315.06l-8.41,15.88-.11,13.64L779,393.74l-11.25,31.05L756,456.55a25.15,25.15,0,0,1-7.8,10.82h0a25.17,25.17,0,0,1-11.82,5.27l-6,1a25.15,25.15,0,0,1-9.7-.34l-4.78-1.11a25.16,25.16,0,0,1-12.13-6.73l-.59-.59a25.08,25.08,0,0,1-5.47-8.21L689.55,437l-11.5-28.5-4-13.8-6-26.11L666.6,353l-.05-26.66h-20.5V483.78l57.24,18H797l13-48,10.5-98.48V319.61Z"/><path class="cls-16" d="M806,139.59l-8.17,15.88-.12,13.64L779,218.27l-11.25,31L756,281.09a25.15,25.15,0,0,1-7.8,10.82h0a25.15,25.15,0,0,1-11.82,5.26l-6,1a25.14,25.14,0,0,1-9.7-.33l-4.78-1.11A25.32,25.32,0,0,1,703.69,290l-.59-.59a25,25,0,0,1-5.47-8.22l-8.08-19.59-11.5-28.5-4-13.8-6-26.1L666.6,177.5l-.05-26.65h-20.5V308.31l57.24,18H797l13-48,10.5-98.49V144.14Z"/><path class="cls-2" d="M692.28,330.68l3.64,22.77a23.6,23.6,0,0,0,5.46,11.72l8.31,9.59a23.6,23.6,0,0,0,17.82,8.13h0a23.59,23.59,0,0,0,14.58-5.05l3.43-2.7a23.55,23.55,0,0,0,5.29-5.84l4.8-7.53a23.4,23.4,0,0,0,2.21-4.42L768.42,329H692.28Z"/><path class="cls-2" d="M692.28,154.72l3.64,22.77a23.6,23.6,0,0,0,5.46,11.72l8.31,9.58a23.58,23.58,0,0,0,17.82,8.14h0a23.59,23.59,0,0,0,14.58-5.05l3.43-2.71a23.37,23.37,0,0,0,5.29-5.84l4.8-7.52a23.79,23.79,0,0,0,2.21-4.43L768.42,153H692.28Z"/><rect class="cls-17" x="624" y="764" width="400" height="109.12"/><rect class="cls-2" x="631.59" y="968.54" width="383.62" height="48.93"/><rect class="cls-16" x="631.59" y="968.54" width="383.62" height="6.96"/><rect class="cls-15" x="624" y="864.42" width="400" height="8.7"/><rect class="cls-15" x="624" y="775.88" width="400" height="26.57"/><path class="cls-18" d="M682.15,786.3a48.75,48.75,0,0,1-48.75,48.75V786.3Z"/><path class="cls-19" d="M770.35,786.3a48.75,48.75,0,0,0,48.75,48.75V786.3Z"/><rect class="cls-20" x="992" width="32" height="32"/><path class="cls-17" d="M180.74,484.58V1024H460V484.58Zm140.37,346.7c-25.08,0-45.41-54.27-45.41-85.91S296,717,321.11,717s45.4-3.3,45.4,28.33S346.18,831.28,321.11,831.28Z"/><path class="cls-21" d="M377.33,885.09c-10.89,12.3-32,20.64-56.22,20.64-24.58,0-45.93-8.57-56.67-21.16A42.95,42.95,0,0,0,299,887.24a67.56,67.56,0,0,1,44.82,0,42.92,42.92,0,0,0,33.53-2.15Z"/><path class="cls-4" d="M620,654.47V823.21H489.65v26.72l-75.46-7.57h0l-2.14-.21a26.33,26.33,0,0,1-23.67-25c-.12-2.59-.22-5.18-.32-7.78V698.72q.39-9.76.93-19.52a36.56,36.56,0,0,1,34.51-34.5l8.12-.44h0l58-3.16v13.38Z"/><path class="cls-4" d="M253.42,698.72V810q-.16,4.1-.35,8.18c-.5,10.53-7.15,20.43-16.56,24.18L162,850.82l-.13-27.61H20.76V654.47H161.13l-.08-16.81,46.76,3.93,11.37,1a36.56,36.56,0,0,1,33.19,34.38Q253,687.82,253.42,698.72Z"/><rect class="cls-17" x="579.98" y="654.47" width="30.07" height="168.74"/><polygon class="cls-4" points="431.62 644.25 431.62 644.26 423.5 644.7 431.62 644.25"/><path class="cls-4" d="M366.51,745.37c0,31.64-20.33,85.91-45.4,85.91S275.7,777,275.7,745.37s0-58.33,45.41-58.33S366.51,713.74,366.51,745.37Z"/><path class="cls-2" d="M321.11,687c-45.41,0-45.41,26.7-45.41,58.33s20.33,85.91,45.41,85.91,45.4-54.27,45.4-85.91S366.51,687,321.11,687Zm0,137.24c-8.19,0-17.83-10.12-25.77-27.06-7.68-16.37-12.64-36.72-12.64-51.85,0-14.73,0-28.65,4.85-37.73,3.12-5.84,10-13.6,33.56-13.6s30.43,7.76,33.55,13.6c4.85,9.08,4.85,23,4.85,37.73,0,15.13-5,35.48-12.64,51.85C338.93,814.16,329.3,824.28,321.11,824.28Z"/><rect class="cls-2" x="282.35" y="905.73" width="77.51" height="77.51" rx="11.58" ry="11.58"/><rect class="cls-17" x="292.07" y="962.46" width="58.06" height="8.14" rx="2.53" ry="2.53"/><rect class="cls-17" x="292.07" y="917.06" width="17.25" height="8.14" rx="1.92" ry="1.92"/><rect class="cls-17" x="314.68" y="917.06" width="35.46" height="8.14" rx="1.92" ry="1.92"/><rect class="cls-2" x="292.07" y="586.23" width="58.06" height="58.06" rx="8.67" ry="8.67" transform="translate(642.21 1230.53) rotate(180)"/><rect class="cls-17" x="299.36" y="595.71" width="43.49" height="6.1" rx="1.89" ry="1.89" transform="translate(642.21 1197.51) rotate(180)"/><rect class="cls-17" x="329.93" y="629.71" width="12.92" height="6.1" rx="1.44" ry="1.44" transform="translate(672.78 1265.51) rotate(180)"/><rect class="cls-17" x="299.36" y="629.71" width="26.56" height="6.1" rx="1.44" ry="1.44" transform="translate(625.28 1265.51) rotate(180)"/><rect class="cls-17" x="30.87" y="654.47" width="29.89" height="168.74"/><path class="cls-15" d="M30.87,654.47V823.21H60.76V654.47ZM53.76,816.21H37.87V661.47H53.76Z"/><path class="cls-15" d="M580,654.47V823.21h30.07V654.47Zm23.07,161.74H587V661.47h16.07Z"/><path class="cls-2" d="M406.31,1006.3H386.62a2083.85,2083.85,0,0,1,0-504.11h19.69A1364.49,1364.49,0,0,0,406.31,1006.3Z"/><path class="cls-2" d="M270.17,754.24a2082,2082,0,0,1-15.3,252.06H235.19a1364.49,1364.49,0,0,0,0-504.11h19.68A2082,2082,0,0,1,270.17,754.24Z"/><rect class="cls-15" x="180.74" y="997.3" width="279.26" height="26.7"/><rect class="cls-15" x="180.74" y="484.58" width="279.26" height="23.16"/><path class="cls-22" d="M480,641.62V849l-65.81-6.6h0l-2.14-.21a26.33,26.33,0,0,1-23.67-25c-.12-2.59-.22-5.18-.32-7.78V698.72q.39-9.76.93-19.52a36.56,36.56,0,0,1,34.51-34.5l8.12-.44h0Z"/><path class="cls-22" d="M253.42,698.72V810q-.16,4.1-.35,8.18c-.5,10.53-7.15,20.43-16.56,24.18L162,850.82l-.13-27.61h-1.15V654.47h.39l-.08-16.81,46.76,3.93,11.37,1a36.56,36.56,0,0,1,33.19,34.38Q253,687.82,253.42,698.72Z"/><rect class="cls-23" x="152.9" y="625.7" width="7.84" height="246.27"/><rect class="cls-23" x="480" y="625.7" width="7.84" height="246.27"/><g class="cls-10"><rect x="145.05" y="625.7" width="7.84" height="246.27" transform="translate(297.95 1497.67) rotate(-180)"/><rect x="487.78" y="625.7" width="7.84" height="246.27" transform="translate(983.4 1497.67) rotate(-180)"/></g><path class="cls-22" d="M366.5,746.29c-.38,31.76-20.56,85-45.39,85-23.12,0-42.2-46.12-45.05-78.12l5.36,16.35,6.94,13.23c13.82,26.35,51.74,25.79,64.76-1l6-12.32Z"/><path class="cls-22" d="M366.51,743.47l-5.16-21.68-24-3.65-16.72-1.22L303,718.14l-24,3.65-3.2,13.46c.48-27,4.88-48.21,45.35-48.21C365.6,687,366.49,712.68,366.51,743.47Z"/><path class="cls-2" d="M321.11,687c-45.41,0-45.41,26.7-45.41,58.33s20.33,85.91,45.41,85.91,45.4-54.27,45.4-85.91S366.51,687,321.11,687Zm0,137.24c-8.19,0-17.83-10.12-25.77-27.06-7.68-16.37-12.64-36.72-12.64-51.85,0-14.73,0-28.65,4.85-37.73,3.12-5.84,10-13.6,33.56-13.6s30.43,7.76,33.55,13.6c4.85,9.08,4.85,23,4.85,37.73,0,15.13-5,35.48-12.64,51.85C338.93,814.16,329.3,824.28,321.11,824.28Z"/><path class="cls-17" d="M-1.86,159.12Q-.93,174,0,189a5111.61,5111.61,0,0,1,642,0q.94-14.92,1.88-29.83A5140.93,5140.93,0,0,0-1.86,159.12Z"/><path class="cls-15" d="M644.14,154.17a5147.16,5147.16,0,0,0-646.33,0L0,189a5111.61,5111.61,0,0,1,642,0ZM1.67,180.67Q1.1,171.43.52,162.18a5137.17,5137.17,0,0,1,641.4,0q-.58,9.24-1.16,18.49A5119.39,5119.39,0,0,0,1.67,180.67Z"/></g><g id="Gradient_Overlay" data-name="Gradient Overlay"><rect class="cls-24" x="992" width="32" height="32"/><rect class="cls-25" x="15.67" y="494.89" width="600.31" height="511.91" rx="161.43" ry="161.43"/><rect class="cls-26" x="624" y="764" width="400" height="260"/><rect class="cls-27" x="826.3" y="147.59" width="181.7" height="363.24"/></g></g></svg>