<svg xmlns="http://www.w3.org/2000/svg" xmlns:xlink="http://www.w3.org/1999/xlink" viewBox="0 0 1024 1024"><defs><style>.cls-1{isolation:isolate;}.cls-2{fill:#ece8f4;}.cls-3{fill:#cdc5e2;}.cls-4{fill:red;}.cls-5{fill:#220f0f;}.cls-6{fill:#fff;}.cls-7{fill:#ba2246;}.cls-8{fill:#7d8c9b;}.cls-23,.cls-9{fill:#475969;}.cls-10{fill:#ccdde7;}.cls-11{fill:#324656;}.cls-12,.cls-29{fill:#00a161;}.cls-13{fill:#abbac3;}.cls-14,.cls-15{opacity:0.5;}.cls-14,.cls-15,.cls-19,.cls-23,.cls-29{mix-blend-mode:multiply;}.cls-14{fill:url(#linear-gradient);}.cls-15{fill:url(#linear-gradient-2);}.cls-16{fill:#7a8997;}.cls-17{fill:#7c8d9c;}.cls-18{fill:#495b6c;}.cls-19,.cls-23,.cls-29{opacity:0.25;}.cls-19{fill:url(#radial-gradient);}.cls-20{fill:#dd2b26;}.cls-21{fill:#f99d28;}.cls-22{fill:#ffca3e;}.cls-24{opacity:0.08;}.cls-25{fill:none;stroke:#000;stroke-miterlimit:10;stroke-width:3px;}.cls-26{fill:#65a8dc;}.cls-27{fill:#a1dadb;}.cls-28{fill:#fcfcfc;}.cls-30{fill:lime;}</style><linearGradient id="linear-gradient" x1="319.57" y1="893.49" x2="319.57" y2="1033.87" gradientUnits="userSpaceOnUse"><stop offset="0" stop-color="#f47d36" stop-opacity="0"/><stop offset="1" stop-color="#f47d36"/></linearGradient><linearGradient id="linear-gradient-2" x1="319.57" y1="3123.79" x2="319.57" y2="3264.16" gradientTransform="matrix(1, 0, 0, -1, 0, 3732.67)" xlink:href="#linear-gradient"/><radialGradient id="radial-gradient" cx="323.02" cy="609.29" r="55.57" gradientUnits="userSpaceOnUse"><stop offset="0" stop-color="#495b6c" stop-opacity="0"/><stop offset="0.22" stop-color="#495b6c" stop-opacity="0.03"/><stop offset="0.41" stop-color="#495b6c" stop-opacity="0.13"/><stop offset="0.58" stop-color="#495b6c" stop-opacity="0.29"/><stop offset="0.75" stop-color="#495b6c" stop-opacity="0.52"/><stop offset="0.91" stop-color="#495b6c" stop-opacity="0.81"/><stop offset="1" stop-color="#495b6c"/></radialGradient></defs><title>animalJ</title><g class="cls-1"><g id="Layer_2" data-name="Layer 2"><g id="SkinComplete"><path class="cls-2" d="M393.33,975.5c0,1,0,1.92,0,2.87,0,.18,0,.36,0,.53,0,1.51,0,3-.06,4.52q-.09,4.33-.28,8.61c-.08,1.77-.17,3.52-.27,5.27q-.27,4.8-.68,9.5c-.1,1.26-.21,2.51-.34,3.76-.43,4.55-.94,9-1.54,13.44H250.6c-.6-4.4-1.11-8.89-1.54-13.44-.13-1.25-.24-2.5-.34-3.76q-.41-4.69-.68-9.5-.16-2.67-.27-5.37-.18-4.14-.28-8.34c0-1.56-.05-3.12-.06-4.69,0-.17,0-.35,0-.53v-1.16c0-.57,0-1.14,0-1.71q0-3.79.07-7.54c0-1.44.07-2.87.11-4.3,1-31.75,5.94-61,13.72-85.31a188.29,188.29,0,0,1,11.25-27.84,120,120,0,0,1,11.31-18.3c10.74-14.09,23.2-22.16,36.5-22.16s25.76,8.07,36.5,22.16a116.36,116.36,0,0,1,10.69,17.12,185.08,185.08,0,0,1,11.87,29c7.78,24.29,12.73,53.56,13.72,85.31,0,1.43.08,2.86.11,4.3,0,1.73.05,3.46.06,5.21C393.33,973.94,393.33,974.72,393.33,975.5Z"/><rect class="cls-3" x="2.51" y="490" width="182.97" height="154"/><rect class="cls-3" width="1024" height="1024"/><rect class="cls-3" width="643" height="490"/><rect class="cls-3" y="139.59" width="643" height="350.41"/><path class="cls-2" d="M401.06,325.05c0-38.07-35.48-68.93-79.25-68.93S242.57,287,242.57,325.05h0a173.92,173.92,0,0,0,.54,28.32l12.38,122.91,64.82,5.58h2.74l64.82-5.58,12.55-124.56a175.66,175.66,0,0,0,.71-25Z"/><rect class="cls-3" x="824" y="134" width="200" height="390"/><rect class="cls-3" x="624" y="864.49" width="400" height="159.51"/><rect class="cls-4" x="992" width="32" height="32"/><path class="cls-2" d="M62.68,574.58l23.18-48.09c3.87-8,10.4-8,14.27,0l23.18,48.09c5.89,12.22,1.46,32.29-7.13,32.29H69.81C61.22,606.87,56.79,586.8,62.68,574.58Z"/><path class="cls-2" d="M393.33,950q0,6.88-.18,13.66c0,1.44-.09,2.87-.15,4.3q-.08,2.63-.21,5.22c-.07,1.74-.16,3.47-.26,5.19l0,.53c-.09,1.51-.18,3-.29,4.52-.19,2.9-.41,5.76-.66,8.61-.15,1.77-.31,3.53-.48,5.27q-.46,4.8-1,9.5c-.15,1.26-.31,2.51-.47,3.76q-.87,6.84-1.93,13.44H253.09q-1.07-6.6-1.93-13.44c-.16-1.25-.32-2.5-.47-3.76q-.56-4.69-1-9.5c-.17-1.74-.33-3.5-.48-5.27q-.37-4.26-.66-8.6c-.11-1.5-.2-3-.29-4.53l0-.53-.06-1.18q-.26-4.58-.41-9.23c-.06-1.43-.11-2.86-.15-4.3q-.18-6.76-.18-13.66a471.82,471.82,0,0,1,5.31-71.65q1.64-10.54,3.73-20.43c1.9-9,4.07-17.64,6.49-25.71q2.31-7.71,4.92-14.75,2-5.33,4.07-10.25,1-2.26,2-4.44,2.1-4.51,4.31-8.63c6.11-11.34,12.91-20.28,20.21-26.3,6.93-5.71,14.3-8.79,21.95-8.79,8.08,0,15.85,3.43,23.11,9.78,7.49,6.54,14.43,16.16,20.61,28.3.51,1,1,2,1.5,3s1,2.14,1.52,3.23a224.1,224.1,0,0,1,10.69,28.84c2.27,7.59,4.34,15.65,6.15,24.11,1.53,7.07,2.89,14.43,4.07,22A471.82,471.82,0,0,1,393.33,950Z"/><path class="cls-2" d="M345.69,195.11c5.62-1.69,11.54-.94,17.22-.14s11.59,1.68,16.53,4.84c2.53,1.64,6.07-.52,5-3.5-1.86-5.08-9.38-10.46-20-11.93s-19.36,1.63-22.55,6C340,193,342.81,196,345.69,195.11Z"/><path class="cls-2" d="M295.56,204.92c-5.62-1.69-11.54-.94-17.23-.14s-11.58,1.68-16.52,4.84c-2.53,1.64-6.08-.52-5-3.51,1.87-5.07,9.38-10.45,20.05-11.92s19.36,1.63,22.54,6C301.26,202.77,298.43,205.82,295.56,204.92Z"/><circle class="cls-2" cx="360.94" cy="251.16" r="2.56"/><circle class="cls-2" cx="369.57" cy="247.56" r="2.56"/><circle class="cls-2" cx="368.41" cy="256.9" r="2.56"/><circle class="cls-2" cx="282.68" cy="251.16" r="2.56"/><circle class="cls-2" cx="274.05" cy="247.56" r="2.56"/><circle class="cls-2" cx="275.22" cy="256.9" r="2.56"/><rect class="cls-5" x="348.5" y="213.11" width="19.99" height="30.6" rx="10" ry="10"/><rect class="cls-5" x="275.88" y="213.11" width="19.99" height="30.6" rx="10" ry="10" transform="translate(571.75 456.82) rotate(180)"/><path class="cls-5" d="M363.71,206.77h0A10.22,10.22,0,0,1,373.92,217V238a0,0,0,0,1,0,0H363.71a10.22,10.22,0,0,1-10.22-10.22V217A10.22,10.22,0,0,1,363.71,206.77Z" transform="translate(141.3 586.11) rotate(-90)"/><path class="cls-5" d="M280.44,206.77h10.22a0,0,0,0,1,0,0v21.06A10.22,10.22,0,0,1,280.44,238h0a10.22,10.22,0,0,1-10.22-10.22V217A10.22,10.22,0,0,1,280.44,206.77Z" transform="translate(58.03 502.84) rotate(-90)"/><rect class="cls-5" x="348.07" y="212.19" width="20.43" height="31.27" rx="10.22" ry="10.22"/><rect class="cls-5" x="275.64" y="212.19" width="20.43" height="31.27" rx="10.22" ry="10.22" transform="translate(571.72 455.65) rotate(180)"/><path class="cls-6" d="M358.51,220.79a3.66,3.66,0,0,0,3.28,4,3.88,3.88,0,1,0-3.28-4Z"/><path class="cls-6" d="M286.4,220.79a3.67,3.67,0,0,0,3.29,4,3.88,3.88,0,0,0,.47-7.71A3.78,3.78,0,0,0,286.4,220.79Z"/><path class="cls-5" d="M326.51,245.79h-9.39a7.11,7.11,0,0,0-6.3,3.81h0a7.12,7.12,0,0,0,2.34,9.22l4.7,3.14a7.12,7.12,0,0,0,7.91,0l4.69-3.14a7.11,7.11,0,0,0,2.35-9.22h0A7.13,7.13,0,0,0,326.51,245.79Z"/><path class="cls-6" d="M358.51,220.79a3.66,3.66,0,0,0,3.28,4,3.88,3.88,0,1,0-3.28-4Z"/><path class="cls-6" d="M286.4,220.79a3.67,3.67,0,0,0,3.29,4,3.88,3.88,0,0,0,.47-7.71A3.78,3.78,0,0,0,286.4,220.79Z"/><polygon class="cls-2" points="551.89 567.91 540.58 561.91 529.28 567.91 517.98 561.91 506.68 567.91 495.38 561.91 484.08 567.91 470.56 562.89 471.01 577.35 564.97 577.34 565.41 562.89 551.89 567.91"/><rect class="cls-2" x="471.01" y="577.35" width="93.96" height="59.41"/><path class="cls-7" d="M307.63,267.37a12.47,12.47,0,0,1,1.82,0c.63,0,1.23.08,1.83.12l3.51.33c2.28.23,4.45.42,6.58.59s4.18.19,6.3.18c.53,0,1.07,0,1.63,0s1.08-.08,1.64-.1c1.17,0,2.26-.21,3.6-.14l.76,0a3.33,3.33,0,0,1,2.35,5.5,20,20,0,0,1-1.66,1.66c-.29.27-.59.52-.9.78s-.64.43-1,.65c-.67.41-1.35.82-2.05,1.2s-1.45.6-2.19.88a23.35,23.35,0,0,1-9.27,1.26,25.54,25.54,0,0,1-8.82-2.14A23.34,23.34,0,0,1,307.9,276a16.83,16.83,0,0,1-1.77-1.41,18.61,18.61,0,0,1-1.68-1.73,3.26,3.26,0,0,1,.33-4.6,3.36,3.36,0,0,1,1.76-.77Z"/><rect class="cls-8" x="624" y="764" width="400" height="260"/><rect class="cls-9" x="829.34" y="139.59" width="194.66" height="377.91"/><path class="cls-10" d="M980,335.12l-48.4-11.38s-28.22,2.88-30.65,8.64a53.46,53.46,0,0,0-2.28,7.15l-19,3.63,1.82,5.46L884,361.37l1.13,12.9-5.47,15.41-.84,16.68-7,11.77-12.33,13.31,13.26,8.75-1.53,1.43,20.48,15.47,18.2-2.27L935.67,456l17.15,10.17,25.33-3.49s4-.91,4.56-12.59,7.43-58.42,7.43-58.42V352.41ZM932.09,408a5.31,5.31,0,0,1-5.77,4.79l-8.63-.81a5.3,5.3,0,0,1-4.78-5.77l2.26-24.29a5.3,5.3,0,0,1,5.77-4.79l8.62.8a5.3,5.3,0,0,1,4.79,5.77Z"/><path class="cls-10" d="M979.73,160.3l-48.4-11.38s-28.22,2.88-30.65,8.65a51.91,51.91,0,0,0-2.27,7.14l-19,3.63,1.82,5.47,2.53,12.75,1.12,12.89-5.47,15.42-.84,16.67-7,11.78-12.34,13.31,13.27,8.74L871,266.8l20.48,15.48L909.64,280l25.79,1.22,17.14,10.16,25.34-3.49s3.94-.91,4.55-12.59,7.43-58.41,7.43-58.41v-39.3Zm-47.89,72.89a5.3,5.3,0,0,1-5.77,4.79l-8.62-.8a5.3,5.3,0,0,1-4.79-5.77l2.26-24.3a5.3,5.3,0,0,1,5.77-4.79l8.62.8a5.3,5.3,0,0,1,4.79,5.77Z"/><rect class="cls-9" x="646.05" y="139.59" width="183.29" height="377.91"/><rect class="cls-11" x="631.59" y="777.8" width="383.62" height="86.62"/><polygon class="cls-9" points="806.71 771.37 726.36 776.3 646.01 771.37 628.07 807.81 647.3 809.83 689.54 818.4 713.64 847.64 726.36 859.56 739.08 847.64 763.18 818.4 805.42 809.83 824.65 807.81 806.71 771.37"/><polygon class="cls-9" points="997.3 771.37 916.95 776.3 836.6 771.37 818.66 807.81 837.89 809.83 880.13 818.4 904.23 847.64 916.95 859.56 929.66 847.64 953.77 818.4 996.01 809.83 1015.24 807.81 997.3 771.37"/><rect class="cls-12" x="39.62" y="646.81" width="555.88" height="185.4"/><rect class="cls-13" x="642.53" y="872.32" width="8.39" height="33.67" rx="4.19" ry="4.19"/><rect class="cls-13" x="659.3" y="872.32" width="8.39" height="33.67" rx="4.19" ry="4.19"/><rect class="cls-13" x="676.08" y="872.32" width="8.39" height="33.67" rx="4.19" ry="4.19"/><rect class="cls-13" x="692.85" y="872.32" width="8.39" height="33.67" rx="4.19" ry="4.19"/><rect class="cls-13" x="751.56" y="872.32" width="8.39" height="33.67" rx="4.19" ry="4.19"/><rect class="cls-13" x="768.33" y="872.32" width="8.39" height="33.67" rx="4.19" ry="4.19"/><rect class="cls-13" x="785.11" y="872.32" width="8.39" height="33.67" rx="4.19" ry="4.19"/><rect class="cls-13" x="801.88" y="872.32" width="8.39" height="33.67" rx="4.19" ry="4.19"/><rect class="cls-13" x="833.08" y="872.32" width="8.39" height="33.67" rx="4.19" ry="4.19"/><rect class="cls-13" x="849.85" y="872.32" width="8.39" height="33.67" rx="4.19" ry="4.19"/><rect class="cls-13" x="866.62" y="872.32" width="8.39" height="33.67" rx="4.19" ry="4.19"/><rect class="cls-13" x="883.4" y="872.32" width="8.39" height="33.67" rx="4.19" ry="4.19"/><rect class="cls-13" x="942.11" y="872.32" width="8.39" height="33.67" rx="4.19" ry="4.19"/><rect class="cls-13" x="958.88" y="872.32" width="8.39" height="33.67" rx="4.19" ry="4.19"/><rect class="cls-13" x="975.65" y="872.32" width="8.39" height="33.67" rx="4.19" ry="4.19"/><rect class="cls-13" x="992.43" y="872.32" width="8.39" height="33.67" rx="4.19" ry="4.19"/><rect class="cls-11" x="625.61" y="898.22" width="398.39" height="125.78"/><rect class="cls-12" x="179.14" y="524" width="280.86" height="454.37"/><rect class="cls-14" x="179.14" y="878.35" width="280.86" height="100.55"/><rect class="cls-15" x="179.14" y="523.47" width="280.86" height="100.55"/><rect class="cls-11" x="9.43" y="432.44" width="622.16" height="49.42"/><rect class="cls-9" x="9.43" y="432.44" width="622.16" height="16.06"/><rect class="cls-11" x="579.88" y="654.47" width="8.48" height="188.74"/><rect class="cls-9" x="588.36" y="654.47" width="24.65" height="188.74" transform="translate(1201.38 1497.67) rotate(180)"/><rect class="cls-9" x="27.29" y="654.47" width="24.65" height="188.74" transform="translate(79.23 1497.67) rotate(180)"/><rect class="cls-11" x="51.94" y="654.47" width="8.48" height="188.74"/><polygon class="cls-11" points="431.88 642.04 399.08 664.08 385.44 725.74 387.27 767.46 399.61 825.71 448.67 830.27 460 843.21 460 654.47 431.88 642.04"/><rect class="cls-16" y="997.3" width="629.1" height="13.26"/><rect class="cls-16" x="176.82" y="494.16" width="288.18" height="13.58"/><rect class="cls-11" x="625.61" y="898.22" width="396.84" height="28.34"/><rect class="cls-17" x="625.61" y="996.31" width="396.84" height="16.21"/><path class="cls-18" d="M281.26,545.1H362a17.27,17.27,0,0,1,17.27,17.27V662.69a22,22,0,0,1-22,22H286a22,22,0,0,1-22-22V562.38A17.27,17.27,0,0,1,281.26,545.1Z"/><rect class="cls-9" x="176.82" y="494.89" width="288.18" height="28.43"/><polygon class="cls-18" points="331.29 856.75 310.92 856.75 310.92 844.92 321.11 822.37 331.29 844.92 331.29 856.75"/><path class="cls-18" d="M438.38,910v61.88l-232.81,6.45V909l10.71-15.12a120.66,120.66,0,0,1,104.83-50.78h0l1.21-.06A120.68,120.68,0,0,1,427.4,894.33Z"/><path class="cls-11" d="M378.44,1003.93H263.77V877.82c0,39.73,114.67,39.73,114.67,0Z"/><polygon class="cls-11" points="207.93 639.15 243.66 663.4 254.69 725.74 252.86 767.46 242.38 826.73 191.46 830.27 179.13 843.21 179.13 654.47 207.93 639.15"/><rect class="cls-9" y="978.37" width="629.1" height="28.43"/><rect class="cls-17" y="967.96" width="629.1" height="10.4"/><rect class="cls-17" x="176.82" y="523.3" width="287.86" height="10.4"/><ellipse class="cls-19" cx="321.65" cy="635.39" rx="31.03" ry="29.34"/><rect class="cls-18" x="354.93" y="795.5" width="20.71" height="9.6" transform="translate(-109.15 59.47) rotate(-8.1)"/><path class="cls-18" d="M373.59,795.78l.93,6.54L357,804.81l-.93-6.53,17.53-2.5m2.55-3.39-3,.42-17.53,2.5-3,.42.42,3,.93,6.54.42,3,3-.43,17.53-2.49,3-.42-.42-3-.93-6.54-.42-3Z"/><rect class="cls-18" x="345.59" y="797.58" width="10.1" height="9.6" transform="translate(-109.57 57.42) rotate(-8.1)"/><path class="cls-18" d="M353.69,798.62l.93,6.53-7,1-.93-6.53,7-1m2.55-3.4-3,.43-7,1-3,.42.43,3,.93,6.54.42,3,3-.43,7-1,3-.42-.42-3-.93-6.54-.42-3Z"/><rect class="cls-6" x="356.43" y="797" width="17.71" height="6.6" transform="translate(-109.15 59.48) rotate(-8.1)"/><rect class="cls-20" x="356.19" y="797.02" width="17.71" height="3.19" transform="translate(-108.92 59.42) rotate(-8.1)"/><rect class="cls-21" x="347.09" y="799.08" width="7.1" height="6.6" transform="translate(-109.59 57.43) rotate(-8.1)"/><rect class="cls-22" x="348.38" y="800.29" width="4.51" height="4.19" rx="2.1" ry="2.1" transform="translate(-109.59 57.43) rotate(-8.1)"/><path class="cls-17" d="M280.58,821.38a16.15,16.15,0,0,1-2.08-.14,14.63,14.63,0,0,1-12.39-16.57l.95-6.51a3.59,3.59,0,0,1,3.52-3l.51,0L293,798.26a3.57,3.57,0,0,1,3,4l-1,6.58a14.68,14.68,0,0,1-14.43,12.49Z"/><path class="cls-18" d="M270.58,797.12h.23l21.86,3.11A1.57,1.57,0,0,1,294,802l-1,6.58a12.66,12.66,0,0,1-12.45,10.78,13.72,13.72,0,0,1-1.8-.12A12.61,12.61,0,0,1,268.09,805l1-6.51a1.58,1.58,0,0,1,1.54-1.33m0-4a5.56,5.56,0,0,0-5.49,4.75l-1,6.51a16.61,16.61,0,0,0,14.09,18.84,17.12,17.12,0,0,0,2.36.16A16.6,16.6,0,0,0,297,809.18l1-6.58a5.57,5.57,0,0,0-4.72-6.32l-21.86-3.11a5.24,5.24,0,0,0-.79,0Z"/><circle class="cls-18" cx="280.2" cy="808.25" r="8.35"/><circle class="cls-6" cx="287.54" cy="805.54" r="2.97"/><circle class="cls-6" cx="275.89" cy="810.13" r="4.59"/><rect class="cls-23" x="631.59" y="769.25" width="383.62" height="26.82"/><circle class="cls-11" cx="357" cy="666.13" r="7.56"/><circle class="cls-11" cx="284.03" cy="666.13" r="7.56"/><polygon class="cls-11" points="677.83 444.37 707.95 424.66 745.85 424.66 766.21 445.84 763.57 471.33 735.92 484.58 701.16 478.78 677.83 444.37"/><polygon class="cls-11" points="680.24 267.87 707.95 249.74 745.85 249.74 766.21 270.93 763.57 296.42 735.92 309.66 701.16 303.87 680.24 267.87"/><path class="cls-11" d="M818.53,317.06v37.69l-15.36,97.57-11.5,42.46H704.3l-55.63-16.25V323.31h10.89l0,29.66v.32l0,.31,1.43,15.67,0,.47.11.46,6,26.11,0,.19.06.19,4,13.8.1.34.14.33,11.49,28.5v0l0,0,8.07,19.59a32,32,0,0,0,7,10.49l.58.59a32.2,32.2,0,0,0,15.5,8.6l4.78,1.11a31.83,31.83,0,0,0,7.28.84,32.31,32.31,0,0,0,5.11-.41l6-1A32.21,32.21,0,0,0,762.51,459l11.83-31.77,0,0v0l11.23-31,18.69-49.1.44-1.18v-1.25l.12-13.64.13-13.94Z"/><path class="cls-11" d="M818.53,141.59v37.7l-15.36,97.57-11.5,42.45H704.3l-55.63-16.24V147.84h10.89l0,29.67v.31l0,.32,1.43,15.66,0,.48.11.46,6,26.1,0,.19.06.19,4,13.8.1.34.14.33,11.49,28.5v0l0,0,8.07,19.59a32.08,32.08,0,0,0,7,10.5l.58.59a32.28,32.28,0,0,0,15.5,8.6l4.78,1.11a32.22,32.22,0,0,0,12.39.42l6-1a32.2,32.2,0,0,0,25.07-20.56l11.83-31.76,0,0v0l11.23-31,18.69-49.11.44-1.17v-1.26l.12-13.64.13-13.94Z"/><path class="cls-13" d="M727.51,385.89a26.55,26.55,0,0,1-20.09-9.17l-8.3-9.58A26.53,26.53,0,0,1,693,353.92l-3.64-22.77a2.42,2.42,0,0,1,0-.47V329a3,3,0,0,1,3-3h76.14a3,3,0,0,1,2.81,4.05l-10.6,28.35a26.72,26.72,0,0,1-2.49,5l-4.8,7.52a26.55,26.55,0,0,1-6,6.59l-3.44,2.7A26.68,26.68,0,0,1,727.51,385.89Z"/><path class="cls-13" d="M768.42,329l-10.6,28.35a23.4,23.4,0,0,1-2.21,4.42l-4.8,7.53a23.55,23.55,0,0,1-5.29,5.84l-3.43,2.7a23.58,23.58,0,0,1-32.4-3.08l-8.31-9.59a23.6,23.6,0,0,1-5.46-11.72l-3.64-22.77V329h76.14m0-6H692.28a6,6,0,0,0-6,6v1.68a6.09,6.09,0,0,0,.08.95L690,354.4a29.56,29.56,0,0,0,6.85,14.7l8.31,9.59a29.59,29.59,0,0,0,40.64,3.87l3.43-2.71a29.31,29.31,0,0,0,6.64-7.32l4.8-7.53a28.76,28.76,0,0,0,2.77-5.55L774,331.1a6,6,0,0,0-5.62-8.1Z"/><path class="cls-13" d="M727.51,209.93a26.59,26.59,0,0,1-20.09-9.17l-8.3-9.59A26.46,26.46,0,0,1,693,178l-3.64-22.77a2.56,2.56,0,0,1,0-.47V153a3,3,0,0,1,3-3h76.14a3,3,0,0,1,2.81,4.06l-10.6,28.34a26.72,26.72,0,0,1-2.49,5l-4.8,7.53a26.51,26.51,0,0,1-6,6.58l-3.44,2.7A26.69,26.69,0,0,1,727.51,209.93Z"/><path class="cls-13" d="M768.42,153l-10.6,28.35a23.79,23.79,0,0,1-2.21,4.43l-4.8,7.52a23.37,23.37,0,0,1-5.29,5.84l-3.43,2.71a23.57,23.57,0,0,1-32.4-3.09l-8.31-9.58a23.6,23.6,0,0,1-5.46-11.72l-3.64-22.77V153h76.14m0-6H692.28a6,6,0,0,0-6,6v1.69a6,6,0,0,0,.08.94L690,178.43a29.59,29.59,0,0,0,6.85,14.71l8.31,9.58a29.56,29.56,0,0,0,40.64,3.87l3.43-2.7a29.36,29.36,0,0,0,6.64-7.33l4.8-7.52a29.13,29.13,0,0,0,2.77-5.56L774,155.14a6,6,0,0,0-5.62-8.11Z"/><g class="cls-24"><rect class="cls-25" x="579.88" y="654.47" width="36.1" height="188.74"/><rect class="cls-25" x="544.43" y="654.47" width="35.45" height="188.74" transform="translate(1124.31 1497.67) rotate(180)"/><rect class="cls-25" x="544.43" y="654.47" width="17.72" height="188.74" transform="translate(1106.59 1497.67) rotate(180)"/><rect class="cls-25" x="491.56" y="654.47" width="52.88" height="188.74" transform="translate(1035.99 1497.67) rotate(180)"/><rect class="cls-25" x="491.56" y="654.47" width="26.44" height="188.74" transform="translate(1009.55 1497.67) rotate(180)"/><rect class="cls-25" x="460" y="654.47" width="31.56" height="188.74"/><rect class="cls-25" x="460" y="654.47" width="15.78" height="188.74"/><rect class="cls-25" x="24.76" y="654.47" width="36.1" height="188.74" transform="translate(85.62 1497.67) rotate(-180)"/><rect class="cls-25" x="60.86" y="654.47" width="35.45" height="188.74"/><rect class="cls-25" x="78.58" y="654.47" width="17.72" height="188.74"/><rect class="cls-25" x="96.31" y="654.47" width="52.88" height="188.74"/><rect class="cls-25" x="122.75" y="654.47" width="26.44" height="188.74"/><rect class="cls-25" x="149.18" y="654.47" width="31.56" height="188.74" transform="translate(329.93 1497.67) rotate(-180)"/><rect class="cls-25" x="164.96" y="654.47" width="15.78" height="188.74" transform="translate(345.71 1497.67) rotate(-180)"/></g><rect class="cls-11" x="650.92" y="518" width="373.08" height="223.18"/><path class="cls-13" d="M903.48,653c0,.49-9.11,32.36-9.11,32.36l44.4,34.15L988,692.72s1-34,1-35.15S978.23,635,978.23,635L939.11,623.7l-23.89,4.12Z"/><path class="cls-13" d="M786,653.31c0,.49-9.1,32.37-9.1,32.37l44.39,34.15L870.52,693s1-34,1-35.15-10.79-22.61-10.79-22.61L821.59,624l-23.88,4.12Z"/><rect class="cls-11" x="263.77" y="921.21" width="114.67" height="39.33"/><rect class="cls-13" x="398.93" y="727.12" width="52.96" height="32.66" rx="16.33" ry="16.33" transform="translate(850.83 1486.91) rotate(180)"/><circle class="cls-18" cx="415.26" cy="743.45" r="12.94"/><circle class="cls-26" cx="415.26" cy="743.45" r="7.21"/><path class="cls-27" d="M409.15,743.45a4.67,4.67,0,0,0,4.68,4.68c2.58,0,2.73-2.09,2.73-4.68s-.15-4.68-2.73-4.68A4.68,4.68,0,0,0,409.15,743.45Z"/><rect class="cls-28" x="430.93" y="733.49" width="4.62" height="19.92" rx="2.31" ry="2.31"/><rect class="cls-28" x="437.86" y="733.49" width="4.62" height="19.92" rx="2.31" ry="2.31"/><rect class="cls-18" x="271.09" y="926.07" width="98.01" height="29.61" rx="6.74" ry="6.74" transform="translate(640.18 1881.75) rotate(-180)"/><circle class="cls-17" cx="285.89" cy="940.88" r="11.73"/><circle class="cls-11" cx="285.89" cy="940.88" r="6.54"/><rect class="cls-17" x="303.09" y="931.85" width="4.18" height="18.05" rx="2.09" ry="2.09"/><rect class="cls-17" x="310.82" y="931.85" width="4.18" height="18.05" rx="2.09" ry="2.09"/><rect class="cls-17" x="318.54" y="931.85" width="4.18" height="18.05" rx="2.09" ry="2.09"/><rect class="cls-17" x="326.26" y="931.85" width="4.18" height="18.05" rx="2.09" ry="2.09"/><rect class="cls-17" x="333.98" y="931.85" width="4.18" height="18.05" rx="2.09" ry="2.09"/><rect class="cls-17" x="341.7" y="931.85" width="4.18" height="18.05" rx="2.09" ry="2.09"/><rect class="cls-17" x="349.42" y="931.85" width="4.18" height="18.05" rx="2.09" ry="2.09"/><rect class="cls-17" x="357.14" y="931.85" width="4.18" height="18.05" rx="2.09" ry="2.09"/><rect class="cls-11" x="296.83" y="559.62" width="49.65" height="5.51" rx="2.76" ry="2.76"/><rect class="cls-11" x="296.83" y="570.46" width="49.65" height="5.51" rx="2.76" ry="2.76"/><rect class="cls-11" x="296.83" y="581.29" width="49.65" height="5.51" rx="2.76" ry="2.76"/><rect class="cls-17" x="331.7" y="983.42" width="28.84" height="8.61" rx="4.31" ry="4.31"/><rect class="cls-17" x="370.54" y="983.42" width="28.84" height="8.61" rx="4.31" ry="4.31"/><rect class="cls-17" x="283.22" y="983.42" width="28.84" height="8.61" rx="4.31" ry="4.31"/><rect class="cls-17" x="244.38" y="983.42" width="28.84" height="8.61" rx="4.31" ry="4.31"/><rect class="cls-11" x="646.05" width="377.95" height="139.59"/><circle class="cls-9" cx="776.23" cy="365.16" r="7.78"/><circle class="cls-9" cx="776.23" cy="190.62" r="7.78"/><rect class="cls-12" x="624" y="926.56" width="398.45" height="41.4"/><rect class="cls-29" x="818.66" y="926.56" width="203.8" height="41.4"/><path class="cls-11" d="M334.8,723.37l-1.18-.21q-1-.18-1.95-.27l-8.57-.75a21.4,21.4,0,0,0-3.58,0l-9.17.76a17.41,17.41,0,0,0-2.05.27l-1.13.2A21.14,21.14,0,0,0,290.25,740h0a21.13,21.13,0,0,0,.35,9.65h0a70.51,70.51,0,0,0,14.23,27l.48.57a21.1,21.1,0,0,0,32.7-.6l.41-.52a70.61,70.61,0,0,0,12.72-25.48l.28-1.06a21.12,21.12,0,0,0,.3-9.52V740A21.12,21.12,0,0,0,334.8,723.37Z"/><rect class="cls-30" x="992" width="32" height="32"/></g></g></g></svg>