<svg xmlns="http://www.w3.org/2000/svg" viewBox="0 0 1024 1024"><defs><style>.cls-1{fill:#a7bbd1;}.cls-2{fill:#05364c;}.cls-3{fill:red;}.cls-4{fill:#6588ae;}.cls-5{fill:#fff;}</style></defs><title>animalBaseI</title><g id="Layer_2" data-name="Layer 2"><g id="SkinComplete"><path class="cls-1" d="M393.33,975.5c0,7.39-.21,14.67-.63,21.8q-.27,4.8-.68,9.5c-.1,1.26-.21,2.51-.34,3.76-.43,4.55-.94,9-1.54,13.44H250.6c-.6-4.4-1.11-8.89-1.54-13.44-.13-1.25-.24-2.5-.34-3.76-.27-3.1-.49-6.22-.67-9.38a.49.49,0,0,1,0-.12c-.42-7.13-.63-14.41-.63-21.8q0-3.59.07-7.13c0-1.58.07-3.15.11-4.71q.21-6.74.66-13.3a333.31,333.31,0,0,1,5.32-41.46A269,269,0,0,1,260.19,882c5.81-19.2,13.36-35.48,22.15-47.67a71.63,71.63,0,0,1,15.78-16.39c.32-.24.63-.46.95-.68a45.9,45.9,0,0,1,4.21-2.59,35.39,35.39,0,0,1,17.09-4.57,35.79,35.79,0,0,1,18,5.08c1.1.63,2.2,1.32,3.28,2.08.32.22.64.44,1,.68a71.63,71.63,0,0,1,15.78,16.39c9,12.42,16.63,29.09,22.49,48.79a274.39,274.39,0,0,1,6.45,26.68,337,337,0,0,1,5.15,40.61q.45,6.57.66,13.3c0,1.56.08,3.13.11,4.71Q393.34,971.91,393.33,975.5Z"/><rect class="cls-2" x="2.51" y="490" width="182.97" height="154"/><rect class="cls-2" width="1024" height="1024"/><rect class="cls-2" width="643" height="490"/><rect class="cls-2" y="139.59" width="643" height="350.41"/><path class="cls-1" d="M401.06,325.05c0-38.07-35.48-68.93-79.25-68.93S242.57,287,242.57,325.05h0a173.92,173.92,0,0,0,.54,28.32l12.38,122.91,64.82,5.58h2.74l64.82-5.58,12.55-124.56a175.66,175.66,0,0,0,.71-25Z"/><rect class="cls-2" x="824" y="134" width="200" height="390"/><rect class="cls-2" x="624" y="864.49" width="400" height="159.51"/><rect class="cls-3" x="992" width="32" height="32"/><ellipse class="cls-1" cx="282.63" cy="230.39" rx="30.72" ry="26.3" transform="translate(-44.47 391.52) rotate(-65.41)"/><path class="cls-1" d="M62.68,574.58l23.18-48.09c3.87-8,10.4-8,14.27,0l23.18,48.09c5.89,12.22,1.46,32.29-7.13,32.29H69.81C61.22,606.87,56.79,586.8,62.68,574.58Z"/><path class="cls-1" d="M393.33,950v.36c0,4.47-.07,8.91-.18,13.3,0,1.58-.1,3.15-.16,4.71-.35,9.88-1,19.55-1.92,28.93q-.46,4.8-1,9.5c-.15,1.26-.31,2.51-.47,3.76q-.87,6.84-1.93,13.44H253.09q-1.07-6.6-1.93-13.44c-.16-1.25-.32-2.5-.47-3.76q-.56-4.69-1-9.5-.33-3.28-.6-6.63-.91-10.93-1.32-22.3c-.06-1.56-.11-3.13-.16-4.71-.11-4.39-.18-8.83-.18-13.3V950c0-15.15.67-29.88,2-44,.94-10.44,2.21-20.54,3.77-30.24a344,344,0,0,1,9.21-41.47c5.45-18.72,12.2-34.73,19.9-47.1.31-.51.62-1,.94-1.5l.89-1.36c10.69-16.08,23.08-25.27,36.3-25.27,13.58,0,26.29,9.71,37.18,26.62l0,0c.31.49.63,1,.93,1.48,7.7,12.37,14.45,28.38,19.9,47.1a346.57,346.57,0,0,1,9.49,43.27c1.49,9.45,2.69,19.28,3.58,29.42C392.69,920.8,393.33,935.2,393.33,950Z"/><path d="M314.66,259.06l5.47,5.81a2.32,2.32,0,0,0,3.37,0l5.47-5.81a2.31,2.31,0,0,0-1.69-3.9H316.34A2.31,2.31,0,0,0,314.66,259.06Z"/><path class="cls-4" d="M312.87,272.6a2.06,2.06,0,0,0-.06-.85,1.59,1.59,0,0,0-.07-.2l-.05-.13-.05-.12c-.06-.15-.22-.33-.2-.33a.73.73,0,0,0-.05-.09h0c.06,0,.22.08.38.13a10.16,10.16,0,0,0,1.1.36,24,24,0,0,0,2.5.61,26.49,26.49,0,0,0,5.15.49,20.18,20.18,0,0,0,5-.61,21.41,21.41,0,0,0,4.7-1.84l.13-.06a2.51,2.51,0,0,1,2.91,4,16.54,16.54,0,0,1-5.87,3.68,20.32,20.32,0,0,1-6.82,1.23,22.61,22.61,0,0,1-6.71-1,19.68,19.68,0,0,1-3.19-1.28,13.59,13.59,0,0,1-1.59-.95,8.37,8.37,0,0,1-.88-.69l-.25-.23-.32-.36a3.53,3.53,0,0,1-.42-.62l-.1-.2a2.67,2.67,0,0,1-.15-.42,2.8,2.8,0,0,1-.1-1,2.5,2.5,0,1,1,5,.46Z"/><path class="cls-1" d="M347.26,195.11c5.62-1.69,11.54-.94,17.22-.14s11.58,1.68,16.53,4.84c2.52,1.64,6.07-.52,5-3.5-1.87-5.08-9.38-10.46-20.05-11.93s-19.36,1.63-22.54,6C341.56,193,344.38,196,347.26,195.11Z"/><path class="cls-1" d="M297.12,194c-5.62-1.69-11.54-.94-17.22-.14s-11.59,1.67-16.53,4.84c-2.52,1.64-6.07-.52-5-3.51,1.87-5.07,9.38-10.46,20.05-11.93s19.36,1.63,22.54,6C302.82,191.85,300,194.9,297.12,194Z"/><rect x="348.5" y="213.11" width="19.99" height="30.6" rx="10" ry="10"/><rect x="275.88" y="213.11" width="19.99" height="30.6" rx="10" ry="10" transform="translate(571.75 456.82) rotate(180)"/><path class="cls-5" d="M358.51,220.79a3.66,3.66,0,0,0,3.28,4,3.88,3.88,0,1,0-3.28-4Z"/><path class="cls-5" d="M286.4,220.79a3.67,3.67,0,0,0,3.29,4,3.88,3.88,0,0,0,.47-7.71A3.78,3.78,0,0,0,286.4,220.79Z"/><polygon class="cls-1" points="551.89 567.91 540.58 561.91 529.28 567.91 517.98 561.91 506.68 567.91 495.38 561.91 484.08 567.91 470.56 562.89 471.01 577.35 564.97 577.34 565.41 562.89 551.89 567.91"/><rect class="cls-1" x="471.01" y="577.35" width="93.96" height="59.41"/><circle class="cls-1" cx="360.94" cy="251.16" r="2.56"/><circle class="cls-1" cx="369.57" cy="247.56" r="2.56"/><circle class="cls-1" cx="368.41" cy="256.9" r="2.56"/><circle class="cls-1" cx="282.68" cy="251.16" r="2.56"/><circle class="cls-1" cx="274.05" cy="247.56" r="2.56"/><circle class="cls-1" cx="275.22" cy="256.9" r="2.56"/><rect class="cls-4" x="643" width="381" height="134"/><polygon class="cls-1" points="685.44 264.47 707.95 249.74 745.85 249.74 766.21 270.93 802.62 281.64 772.27 317.95 731.97 325.06 687.32 319.15 647.96 284.21 685.44 264.47"/><polygon class="cls-1" points="685.44 439.39 707.95 424.66 745.85 424.66 766.21 445.84 802.62 456.56 772.27 492.86 731.97 499.98 687.32 494.07 647.96 459.13 685.44 439.39"/><path class="cls-1" d="M654.75,785.69c0,21.1,31.83,38.21,71.09,38.21s71.09-17.11,71.09-38.21Z"/></g></g></svg>