<svg xmlns="http://www.w3.org/2000/svg" viewBox="0 0 1024 1024"><defs><style>.cls-1{fill:#fff;}.cls-2{fill:#c95a20;}.cls-3{fill:#f6a563;}.cls-4{fill:red;}.cls-5{fill:#220f0f;}.cls-6{fill:#ba2246;}.cls-7{fill:#e08846;}</style></defs><title>animalBaseF</title><g id="Layer_2" data-name="Layer 2"><g id="SkinComplete"><path class="cls-1" d="M393.33,975.5c0,7.39-.21,14.67-.63,21.8-.17,3-.39,6-.64,9,0,.17,0,.34,0,.5-.1,1.26-.21,2.51-.34,3.76-.43,4.55-.94,9-1.54,13.44H250.6c-.6-4.4-1.11-8.89-1.54-13.44-.13-1.25-.24-2.5-.34-3.76,0-.16,0-.33,0-.5q-.37-4.39-.63-8.88a.49.49,0,0,1,0-.12c-.42-7.13-.63-14.41-.63-21.8q0-3.59.07-7.13.17-9.14.77-18a333.31,333.31,0,0,1,5.32-41.46c1.37-7.11,3-14,4.76-20.5q.9-3.27,1.86-6.45a210.35,210.35,0,0,1,7.21-20.2,137.08,137.08,0,0,1,14.94-27.47,70.46,70.46,0,0,1,16.73-17.06h0a42.47,42.47,0,0,1,4.2-2.59c.62-.35,1.25-.67,1.88-1a34.7,34.7,0,0,1,15.21-3.61,35.22,35.22,0,0,1,16.27,4.13c.58.3,1.16.61,1.74,1a46.4,46.4,0,0,1,4.24,2.76,71.63,71.63,0,0,1,15.78,16.39,140.36,140.36,0,0,1,15.8,29.54q3.65,9,6.69,19.25.78,2.63,1.52,5.33c1.86,6.8,3.51,13.94,4.93,21.35a337,337,0,0,1,5.15,40.61q.6,8.86.77,18Q393.34,971.91,393.33,975.5Z"/><rect class="cls-2" x="2.51" y="490" width="182.97" height="154"/><rect class="cls-2" width="1024" height="1024"/><rect class="cls-2" x="624" y="524" width="400" height="240"/><rect class="cls-2" width="643" height="490"/><rect class="cls-2" y="139.59" width="643" height="350.41"/><path class="cls-3" d="M401.06,325.05c0-38.07-35.48-68.93-79.25-68.93S242.57,287,242.57,325.05h0a173.92,173.92,0,0,0,.54,28.32l12.38,122.91,64.82,5.58h2.74l64.82-5.58,12.55-124.56a175.66,175.66,0,0,0,.71-25Z"/><rect class="cls-2" x="824" y="134" width="200" height="390"/><rect class="cls-2" x="624" y="864.49" width="400" height="159.51"/><rect class="cls-4" x="992" width="32" height="32"/><path class="cls-3" d="M62.68,574.58l23.18-48.09c3.87-8,10.4-8,14.27,0l23.18,48.09c5.89,12.22,1.46,32.29-7.13,32.29H69.81C61.22,606.87,56.79,586.8,62.68,574.58Z"/><path class="cls-3" d="M385.89,950v.36q0,9.1-.3,18c-.22,6.89-.58,13.68-1,20.33-.2,2.9-.43,5.76-.68,8.6q-.42,4.8-.91,9.5l-.42,3.76q-.79,6.84-1.74,13.44H260q-.94-6.6-1.74-13.44l-.42-3.76q-.5-4.69-.91-9.5-.21-2.32-.39-4.68-.92-11.67-1.32-23.85c0-.13,0-.27,0-.4q-.28-8.89-.3-18V950c0-13.5.48-26.67,1.4-39.37q.81-11.39,2.08-22.23.42-3.61.89-7.15a386.78,386.78,0,0,1,9-47l.45-1.71c4.47-16.68,9.87-31.14,16-42.71.32-.63.66-1.25,1-1.86.95-1.71,1.9-3.36,2.88-4.93l.75-1.21c9.25-14.55,19.83-22.81,31.08-22.81,11.61,0,22.51,8.8,32,24.23a.75.75,0,0,1,.07.12c1.19,1.93,2.34,4,3.47,6.1.36.65.7,1.32,1,2h0c6,11.69,11.23,26.17,15.58,42.78.15.54.29,1.09.43,1.64a394.13,394.13,0,0,1,8.77,46.63q.38,2.9.72,5.85,1.3,11.25,2.15,23.1C385.43,923.93,385.89,936.81,385.89,950Z"/><rect class="cls-5" x="348.5" y="213.11" width="19.99" height="30.6" rx="10" ry="10"/><rect class="cls-5" x="275.88" y="213.11" width="19.99" height="30.6" rx="10" ry="10" transform="translate(571.75 456.82) rotate(180)"/><path class="cls-5" d="M326.51,245.79h-9.39a7.11,7.11,0,0,0-6.3,3.81h0a7.12,7.12,0,0,0,2.34,9.22l4.7,3.14a7.12,7.12,0,0,0,7.91,0l4.69-3.14a7.11,7.11,0,0,0,2.35-9.22h0A7.13,7.13,0,0,0,326.51,245.79Z"/><path class="cls-3" d="M384.41,199.09a6.39,6.39,0,0,1-1.91-.3,66.15,66.15,0,0,0-19.13-2.52,6.36,6.36,0,0,1,0-12.71,79,79,0,0,1,22.95,3.12,6.35,6.35,0,0,1-1.91,12.41Z"/><path class="cls-3" d="M260,199.09a6.35,6.35,0,0,1-1.91-12.41A79,79,0,0,1,281,183.56a6.36,6.36,0,0,1,0,12.71,66.13,66.13,0,0,0-19.12,2.52A6.39,6.39,0,0,1,260,199.09Z"/><path class="cls-5" d="M363.71,206.77h0A10.22,10.22,0,0,1,373.92,217V238a0,0,0,0,1,0,0H363.71a10.22,10.22,0,0,1-10.22-10.22V217A10.22,10.22,0,0,1,363.71,206.77Z" transform="translate(141.3 586.11) rotate(-90)"/><path class="cls-5" d="M280.44,206.77h10.22a0,0,0,0,1,0,0v21.06A10.22,10.22,0,0,1,280.44,238h0a10.22,10.22,0,0,1-10.22-10.22V217A10.22,10.22,0,0,1,280.44,206.77Z" transform="translate(58.03 502.84) rotate(-90)"/><rect class="cls-5" x="348.07" y="212.19" width="20.43" height="31.27" rx="10.22" ry="10.22"/><rect class="cls-5" x="275.64" y="212.19" width="20.43" height="31.27" rx="10.22" ry="10.22" transform="translate(571.72 455.65) rotate(-180)"/><path class="cls-6" d="M309.22,270.06a13.41,13.41,0,0,1,1.8-.33c.61-.09,1.21-.15,1.82-.23l3.5-.36c2.28-.23,4.45-.46,6.56-.72s4.14-.63,6.23-1.05c.51-.11,1-.23,1.59-.32s1-.29,1.59-.41c1.15-.2,2.17-.66,3.5-.85l.75-.11a3.33,3.33,0,0,1,3.38,4.94,18.88,18.88,0,0,1-1.3,1.95c-.23.32-.48.63-.73.94s-.55.55-.83.82c-.57.54-1.16,1.07-1.77,1.58s-1.3.88-2,1.3a23.39,23.39,0,0,1-8.84,3,25.47,25.47,0,0,1-9.06-.37,23.6,23.6,0,0,1-4.26-1.4,18.23,18.23,0,0,1-2-1,17.34,17.34,0,0,1-2-1.37,3.25,3.25,0,0,1-.57-4.57,3.17,3.17,0,0,1,1.57-1.1Z"/><path class="cls-1" d="M358.51,220.79a3.66,3.66,0,0,0,3.28,4,3.88,3.88,0,1,0-3.28-4Z"/><path class="cls-1" d="M286.4,220.79a3.67,3.67,0,0,0,3.29,4,3.88,3.88,0,0,0,.47-7.71A3.78,3.78,0,0,0,286.4,220.79Z"/><polygon class="cls-3" points="565.41 562.89 564.97 577.34 564.97 636.76 471.01 636.76 471.01 577.35 470.56 562.89 484.08 567.91 495.38 561.91 506.68 567.91 517.98 561.91 529.28 567.91 540.58 561.91 551.89 567.91 565.41 562.89"/><rect class="cls-7" x="643" width="381" height="134"/><polygon class="cls-3" points="685.44 264.47 707.95 249.74 745.85 249.74 766.21 270.93 802.62 281.64 772.27 317.95 731.97 325.06 687.32 319.15 647.96 284.21 685.44 264.47"/><polygon class="cls-3" points="685.44 439.39 707.95 424.66 745.85 424.66 766.21 445.84 802.62 456.56 772.27 492.86 731.97 499.98 687.32 494.07 647.96 459.13 685.44 439.39"/><path class="cls-3" d="M654.75,785.69c0,21.1,31.83,38.21,71.09,38.21s71.09-17.11,71.09-38.21Z"/></g></g></svg>