<svg xmlns="http://www.w3.org/2000/svg" viewBox="0 0 1024 1024"><defs><style>.cls-1{fill:#fff;}.cls-2{fill:#e54325;}.cls-3{fill:#faae73;}.cls-4{fill:red;}.cls-5{fill:#220f0f;}.cls-6{fill:#f6a563;}</style></defs><title>animalBaseH</title><g id="Layer_2" data-name="Layer 2"><g id="SkinComplete"><path class="cls-1" d="M393.33,975.5c0,10.7-.45,21.16-1.31,31.3q-.74,8.78-1.88,17.2H250.6q-1.14-8.41-1.88-17.2c-.86-10.14-1.31-20.6-1.31-31.3q0-3.59.07-7.13c0-1.58.07-3.15.11-4.71,2.31-73.86,26-134.33,57.1-149.77a34.86,34.86,0,0,1,15.68-3.84,35.3,35.3,0,0,1,16.83,4.43c30.55,16.34,53.67,76.23,55.95,149.18,0,1.56.08,3.13.11,4.71,0,.62,0,1.25,0,1.88C393.32,972,393.33,973.74,393.33,975.5Z"/><rect class="cls-2" x="2.51" y="490" width="182.97" height="154"/><rect class="cls-2" width="1024" height="1024"/><rect class="cls-2" width="643" height="490"/><rect class="cls-2" y="139.59" width="643" height="350.41"/><path class="cls-3" d="M401.06,325.05c0-38.07-35.48-68.93-79.25-68.93S242.57,287,242.57,325.05h0a173.92,173.92,0,0,0,.54,28.32l12.38,122.91,64.82,5.58h2.74l64.82-5.58,12.55-124.56a175.66,175.66,0,0,0,.71-25Z"/><rect class="cls-2" x="824" y="134" width="200" height="390"/><rect class="cls-2" x="624" y="864.49" width="400" height="159.51"/><rect class="cls-4" x="992" width="32" height="32"/><path class="cls-3" d="M62.68,574.58l23.18-48.09c3.87-8,10.4-8,14.27,0l23.18,48.09c5.89,12.22,1.46,32.29-7.13,32.29H69.81C61.22,606.87,56.79,586.8,62.68,574.58Z"/><path class="cls-3" d="M393.33,950q0,6.88-.18,13.66c0,1.58-.1,3.15-.16,4.71,0,.63,0,1.25-.07,1.88-.5,12.59-1.48,24.81-2.87,36.55q-1.05,8.79-2.4,17.2H253.09q-1.35-8.4-2.4-17.2c-1.46-12.32-2.46-25.18-2.94-38.43-.06-1.56-.11-3.13-.16-4.71q-.18-6.76-.18-13.66c0-74,16.08-138.15,39.59-169.85,10-13.49,21.34-21.1,33.37-21.1s23.45,7.66,33.47,21.24c9.83,13.3,18.36,32.29,24.94,55.29C387.92,867.47,393.33,907.08,393.33,950Z"/><ellipse class="cls-2" cx="362.5" cy="228.41" rx="26.3" ry="30.72" transform="translate(-62.17 171.55) rotate(-24.59)"/><rect class="cls-5" x="348.5" y="213.11" width="19.99" height="30.6" rx="10" ry="10"/><rect class="cls-5" x="275.88" y="213.11" width="19.99" height="30.6" rx="10" ry="10" transform="translate(571.75 456.82) rotate(180)"/><path class="cls-3" d="M260.8,207.41a56.86,56.86,0,0,1,39.05,5c2.37,1.28,3.31-2.1,1.15-4.09a68.08,68.08,0,0,0-24-14.08c-6.9-2.37-14.9,3.26-17.83,10.78C258.63,206.51,259.39,207.6,260.8,207.41Z"/><path class="cls-3" d="M383.64,208a56.8,56.8,0,0,0-39.17,3.91c-2.41,1.21-3.26-2.2-1-4.12a67.94,67.94,0,0,1,24.36-13.38c7-2.17,14.8,3.68,17.51,11.28C385.84,207.19,385,208.26,383.64,208Z"/><path class="cls-2" d="M321.94,281.44a5.86,5.86,0,0,1,3.69,2.09,2.54,2.54,0,0,1-2.36,4.11l-4.43-.66a2.55,2.55,0,0,1-1-4.63A5.89,5.89,0,0,1,321.94,281.44Z"/><polygon class="cls-1" points="336.72 269.79 336.15 277.91 329.65 270.83 336.72 269.79"/><polygon class="cls-1" points="306.91 269.79 307.48 277.91 313.98 270.83 306.91 269.79"/><path class="cls-5" d="M338.77,269.12a2.23,2.23,0,0,0-2.29-2,124,124,0,0,1-14.7.71,121.11,121.11,0,0,1-14.7-.42,2.28,2.28,0,0,0-.19,4.54,129.47,129.47,0,0,0,14.94.42,130.84,130.84,0,0,0,14.95-.72A2.23,2.23,0,0,0,338.77,269.12Z"/><path class="cls-5" d="M326.51,245.79h-9.39a7.11,7.11,0,0,0-6.3,3.81h0a7.12,7.12,0,0,0,2.34,9.22l4.7,3.14a7.12,7.12,0,0,0,7.91,0l4.69-3.14a7.11,7.11,0,0,0,2.35-9.22h0A7.13,7.13,0,0,0,326.51,245.79Z"/><path class="cls-1" d="M358.51,220.79a3.66,3.66,0,0,0,3.28,4,3.88,3.88,0,1,0-3.28-4Z"/><path class="cls-1" d="M286.4,220.79a3.67,3.67,0,0,0,3.29,4,3.88,3.88,0,0,0,.47-7.71A3.78,3.78,0,0,0,286.4,220.79Z"/><polygon class="cls-3" points="565.41 562.89 564.97 577.34 564.97 636.76 471.01 636.76 471.01 577.35 470.56 562.89 484.08 567.91 495.38 561.91 506.68 567.91 517.98 561.91 529.28 567.91 540.58 561.91 551.89 567.91 565.41 562.89"/><rect class="cls-6" x="643" width="381" height="134"/><polygon class="cls-3" points="685.44 264.47 707.95 249.74 745.85 249.74 766.21 270.93 802.62 281.64 772.27 317.95 731.97 325.06 687.32 319.15 647.96 284.21 685.44 264.47"/><polygon class="cls-3" points="685.44 439.39 707.95 424.66 745.85 424.66 766.21 445.84 802.62 456.56 772.27 492.86 731.97 499.98 687.32 494.07 647.96 459.13 685.44 439.39"/><path class="cls-3" d="M654.75,785.69c0,21.1,31.83,38.21,71.09,38.21s71.09-17.11,71.09-38.21Z"/></g></g></svg>