<svg xmlns="http://www.w3.org/2000/svg" xmlns:xlink="http://www.w3.org/1999/xlink" viewBox="0 0 1024 1024"><defs><style>.cls-1{isolation:isolate;}.cls-2{fill:#fee9ab;}.cls-3{fill:#febe40;}.cls-4{fill:red;}.cls-5{fill:#220f0f;}.cls-6{fill:#dc527c;}.cls-7{fill:#fff;}.cls-8{fill:#55c9e9;}.cls-9{fill:#d3eef4;}.cls-10{fill:#cfe0e9;}.cls-11{opacity:0.15;mix-blend-mode:overlay;}.cls-12{fill:#f69878;}.cls-13{fill:#f37b67;opacity:0.5;}.cls-14{fill:#e4783e;}.cls-15{fill:#2e75bc;}.cls-16{fill:#c9dce6;}.cls-17{fill:#f6a563;}.cls-18{fill:url(#linear-gradient);}.cls-19{fill:url(#linear-gradient-2);}.cls-20{fill:#1f1f1f;}.cls-21{fill:#f9f9f9;}.cls-22{fill:#1a1a1a;}.cls-23{fill:#ccdde7;}.cls-24{fill:url(#linear-gradient-3);}.cls-25{fill:lime;}</style><linearGradient id="linear-gradient" x1="271.06" y1="741.83" x2="199.38" y2="741.83" gradientUnits="userSpaceOnUse"><stop offset="0"/><stop offset="1" stop-opacity="0"/></linearGradient><linearGradient id="linear-gradient-2" x1="364.96" y1="741.83" x2="441.39" y2="741.83" xlink:href="#linear-gradient"/><linearGradient id="linear-gradient-3" x1="819.81" y1="914.06" x2="819.81" y2="780.48" gradientUnits="userSpaceOnUse"><stop offset="0" stop-color="#55c9e9" stop-opacity="0"/><stop offset="0.28" stop-color="#55c9e9" stop-opacity="0.01"/><stop offset="0.42" stop-color="#55c9e9" stop-opacity="0.04"/><stop offset="0.53" stop-color="#55c9e9" stop-opacity="0.1"/><stop offset="0.62" stop-color="#55c9e9" stop-opacity="0.18"/><stop offset="0.71" stop-color="#55c9e9" stop-opacity="0.29"/><stop offset="0.78" stop-color="#55c9e9" stop-opacity="0.42"/><stop offset="0.86" stop-color="#55c9e9" stop-opacity="0.57"/><stop offset="0.92" stop-color="#55c9e9" stop-opacity="0.75"/><stop offset="0.99" stop-color="#55c9e9" stop-opacity="0.95"/><stop offset="1" stop-color="#55c9e9"/></linearGradient></defs><title>animalA</title><g class="cls-1"><g id="Layer_2" data-name="Layer 2"><g id="SkinComplete"><path class="cls-2" d="M393.33,975.5c0,7.39-.21,14.67-.63,21.8q-.27,4.8-.68,9.5-.13,1.68-.3,3.36c0,.13,0,.27,0,.4-.43,4.55-.94,9-1.54,13.44H250.6c-.6-4.4-1.11-8.89-1.54-13.44,0-.13,0-.27,0-.4q-.17-1.68-.3-3.36c-.27-3.1-.49-6.22-.67-9.38a.49.49,0,0,1,0-.12c-.42-7.13-.63-14.41-.63-21.8q0-3.59.07-7.13c0-1.58.07-3.15.11-4.71q.21-6.74.66-13.3a333.31,333.31,0,0,1,5.32-41.46A269,269,0,0,1,260.19,882c4.94-16.33,11.14-30.54,18.28-41.92,1.26-2,2.55-3.92,3.87-5.75q2.25-3.12,4.6-5.88c.44-.52.88-1,1.33-1.52l0,0c.86-1,1.72-1.87,2.59-2.74a59.24,59.24,0,0,1,8.19-6.91h0a42.47,42.47,0,0,1,4.2-2.59A36.14,36.14,0,0,1,317,810.23a31.75,31.75,0,0,1,3.38-.18h.74a35.88,35.88,0,0,1,17.27,5.07,46.4,46.4,0,0,1,4.24,2.76,61,61,0,0,1,8.2,7.22A79.46,79.46,0,0,1,357,832.4c.36.47.72,1,1.06,1.43q.18.23.33.45c1,1.36,2,2.77,2.9,4.24q1.27,2,2.5,4c.64,1.08,1.28,2.19,1.91,3.32l1.15,2.11q1.32,2.49,2.59,5.11a198.21,198.21,0,0,1,11.44,30,274.39,274.39,0,0,1,6.45,26.68,337,337,0,0,1,5.15,40.61q.45,6.57.66,13.3c0,1.56.08,3.13.11,4.71Q393.34,971.91,393.33,975.5Z"/><rect class="cls-3" x="2.51" y="490" width="182.97" height="154"/><rect class="cls-3" width="1024" height="1024"/><rect class="cls-3" width="643" height="490"/><rect class="cls-3" y="139.59" width="643" height="350.41"/><path class="cls-2" d="M401.06,325.05c0-38.07-35.48-68.93-79.25-68.93S242.57,287,242.57,325.05h0a173.92,173.92,0,0,0,.54,28.32l12.38,122.91,64.82,5.58h2.74l64.82-5.58,12.55-124.56a175.66,175.66,0,0,0,.71-25Z"/><rect class="cls-3" x="824" y="134" width="200" height="390"/><rect class="cls-3" x="624" y="864.49" width="400" height="159.51"/><rect class="cls-4" x="992" width="32" height="32"/><path class="cls-2" d="M62.68,574.58l23.18-48.09c3.87-8,10.4-8,14.27,0l23.18,48.09c5.89,12.22,1.46,32.29-7.13,32.29H69.81C61.22,606.87,56.79,586.8,62.68,574.58Z"/><path class="cls-2" d="M393.33,950v.36c0,4.47-.07,8.91-.18,13.3,0,1.58-.1,3.15-.16,4.71-.35,9.88-1,19.55-1.92,28.93q-.46,4.8-1,9.5c-.14,1.13-.27,2.25-.42,3.36,0,.13,0,.27-.05.4q-.87,6.84-1.93,13.44H253.09q-1.07-6.6-1.93-13.44c0-.13,0-.27,0-.4-.15-1.11-.28-2.23-.42-3.36q-.56-4.69-1-9.5-.33-3.28-.6-6.63-.91-10.93-1.32-22.3c-.06-1.56-.11-3.13-.16-4.71-.11-4.39-.18-8.83-.18-13.3V950c0-15.15.67-29.88,2-44,.94-10.44,2.21-20.54,3.77-30.24a344,344,0,0,1,9.21-41.47q2.6-9,5.6-17,2.55-7,5.4-13.22a141.77,141.77,0,0,1,9.84-18.34h0c.29-.46.59-.91.88-1.35,9.77-14.7,21-23.64,32.92-25.06a27.26,27.26,0,0,1,3.38-.21c.25,0,.5,0,.74,0,13.31.34,25.77,10,36.46,26.63.31.49.63,1,.93,1.48,1.41,2.26,2.78,4.64,4.13,7.13l1,1.87c.24.46.48.93.71,1.4.32.63.64,1.26.95,1.9.57,1.17,1.14,2.37,1.7,3.58.47,1,.95,2.09,1.42,3.16q3.28,7.53,6.21,16,2,5.79,3.8,12c.14.46.28.92.4,1.38a348.22,348.22,0,0,1,9.09,41.89c1.49,9.45,2.69,19.28,3.58,29.42C392.69,920.8,393.33,935.2,393.33,950Z"/><path class="cls-5" d="M314.66,259.06l5.47,5.81a2.32,2.32,0,0,0,3.37,0l5.47-5.81a2.31,2.31,0,0,0-1.69-3.9H316.34A2.31,2.31,0,0,0,314.66,259.06Z"/><path class="cls-6" d="M312.87,272.6a2.06,2.06,0,0,0-.06-.85,1.59,1.59,0,0,0-.07-.2l-.05-.13-.05-.12c-.06-.15-.22-.33-.2-.33a.73.73,0,0,0-.05-.09h0c.06,0,.22.08.38.13a10.16,10.16,0,0,0,1.1.36,24,24,0,0,0,2.5.61,26.49,26.49,0,0,0,5.15.49,20.18,20.18,0,0,0,5-.61,21.41,21.41,0,0,0,4.7-1.84l.13-.06a2.51,2.51,0,0,1,2.91,4,16.54,16.54,0,0,1-5.87,3.68,20.32,20.32,0,0,1-6.82,1.23,22.61,22.61,0,0,1-6.71-1,19.68,19.68,0,0,1-3.19-1.28,13.59,13.59,0,0,1-1.59-.95,8.37,8.37,0,0,1-.88-.69l-.25-.23-.32-.36a3.53,3.53,0,0,1-.42-.62l-.1-.2a2.67,2.67,0,0,1-.15-.42,2.8,2.8,0,0,1-.1-1,2.5,2.5,0,1,1,5,.46Z"/><rect class="cls-5" x="348.5" y="213.11" width="19.99" height="30.6" rx="10" ry="10"/><path class="cls-5" d="M361,210.61h0a10,10,0,0,1,10,10v15a0,0,0,0,1,0,0H361a10,10,0,0,1-10-10v-5A10,10,0,0,1,361,210.61Z" transform="translate(137.9 584.11) rotate(-90)"/><path class="cls-2" d="M345.69,195.11c5.62-1.69,11.54-.94,17.22-.14s11.59,1.68,16.53,4.84c2.53,1.64,6.07-.52,5-3.5-1.86-5.08-9.38-10.46-20-11.93s-19.36,1.63-22.55,6C340,193,342.81,196,345.69,195.11Z"/><path class="cls-2" d="M295.56,204.92c-5.62-1.69-11.54-.94-17.23-.14s-11.58,1.68-16.52,4.84c-2.53,1.64-6.08-.52-5-3.51,1.87-5.07,9.38-10.45,20.05-11.92s19.36,1.63,22.54,6C301.26,202.77,298.43,205.82,295.56,204.92Z"/><rect class="cls-5" x="275.88" y="213.11" width="19.99" height="30.6" rx="10" ry="10" transform="translate(571.75 456.82) rotate(180)"/><path class="cls-5" d="M283.38,210.61h10a0,0,0,0,1,0,0v15a10,10,0,0,1-10,10h0a10,10,0,0,1-10-10v-5A10,10,0,0,1,283.38,210.61Z" transform="translate(60.27 506.48) rotate(-90)"/><circle class="cls-2" cx="360.94" cy="251.16" r="2.56"/><circle class="cls-2" cx="369.57" cy="247.56" r="2.56"/><circle class="cls-2" cx="368.41" cy="256.9" r="2.56"/><circle class="cls-2" cx="282.68" cy="251.16" r="2.56"/><circle class="cls-2" cx="274.05" cy="247.56" r="2.56"/><circle class="cls-2" cx="275.22" cy="256.9" r="2.56"/><path class="cls-7" d="M358.51,220.79a3.66,3.66,0,0,0,3.28,4,3.88,3.88,0,1,0-3.28-4Z"/><path class="cls-7" d="M286.4,220.79a3.67,3.67,0,0,0,3.29,4,3.88,3.88,0,0,0,.47-7.71A3.78,3.78,0,0,0,286.4,220.79Z"/><polygon class="cls-2" points="551.89 567.91 540.58 561.91 529.28 567.91 517.98 561.91 506.68 567.91 495.38 561.91 484.08 567.91 470.56 562.89 471.01 577.35 564.97 577.34 565.41 562.89 551.89 567.91"/><rect class="cls-2" x="471.01" y="577.35" width="93.96" height="59.41"/><rect class="cls-8" x="174.57" y="494.89" width="275.91" height="515.27"/><rect class="cls-9" x="629.1" y="767.18" width="394.9" height="246.93"/><rect class="cls-10" x="631.59" y="987.53" width="383.62" height="36.47"/><rect class="cls-8" x="631.59" y="987.53" width="383.62" height="6.96"/><g class="cls-11"><rect x="164.96" y="654.47" width="7.84" height="188.74" transform="translate(337.77 1497.67) rotate(-180)"/><rect x="467.85" y="654.47" width="7.84" height="188.74" transform="translate(943.55 1497.67) rotate(-180)"/></g><path class="cls-12" d="M366.51,745.37c0,31.64-20.33,85.91-45.4,85.91S275.7,777,275.7,745.37,296,717,321.11,717,366.51,713.74,366.51,745.37Z"/><path class="cls-13" d="M364.05,767.18c-6.13,29.92-23,64.1-42.94,64.1s-36.82-34.18-42.95-64.1c7.67,27.58,24,55.75,42.95,55.75S356.38,794.76,364.05,767.18Z"/><rect class="cls-9" x="177.97" y="507.74" width="269.11" height="489.56"/><rect class="cls-10" x="705.4" y="548.73" width="285.42" height="178.39"/><rect class="cls-7" x="826.55" y="153.03" width="182.54" height="361.07"/><rect class="cls-14" x="656" y="34.77" width="316.94" height="92.48"/><rect class="cls-8" x="9.43" y="432.44" width="622.16" height="49.42"/><rect class="cls-15" x="9.43" y="432.44" width="622.16" height="4.64"/><rect class="cls-15" x="293.24" y="442.33" width="59.86" height="28.08" rx="2.43" ry="2.43"/><rect class="cls-9" x="268.16" y="447.02" width="46.4" height="18.71" rx="4.45" ry="4.45"/><rect class="cls-8" x="271.77" y="450.32" width="39.18" height="12.1" rx="1.92" ry="1.92"/><rect class="cls-16" x="643" y="145.1" width="175.65" height="366.9"/><rect class="cls-7" x="697.98" y="376.04" width="56.45" height="27.03" rx="9.24" ry="9.24"/><rect class="cls-7" x="697.98" y="200.52" width="56.45" height="27.03" rx="9.24" ry="9.24"/><path class="cls-17" d="M703.84,500.28l-59.29-19V324.81h18.5L663.1,353c0,.11,0,.21,0,.31L664.54,369a3.85,3.85,0,0,0,.08.47l6,26.1a1.05,1.05,0,0,0,.05.19l4,13.8c0,.11.07.23.11.34l11.5,28.5L694.39,458a28.55,28.55,0,0,0,6.24,9.36l.59.59A28.61,28.61,0,0,0,715,475.57l4.78,1.11a28.41,28.41,0,0,0,6.49.75,28.89,28.89,0,0,0,4.55-.37l6-1a28.71,28.71,0,0,0,22.35-18.33L771.06,426l11.26-31.08,18.46-49.12a3.55,3.55,0,0,0,.23-1.2l.11-13.64v-.16l-.43-11.6L821,322.58V355l-14.44,98-12.27,47.19Z"/><path class="cls-16" d="M804.34,323.36l13.19,2.19v29.24l-14.37,97.6-11.54,44.39H704.39l-56.34-18.1V328.31h11.51l0,24.67c0,.21,0,.41,0,.62l1.43,15.67a7.21,7.21,0,0,0,.15.93l6,26.11c0,.13.06.25.1.38l4,13.8c.07.22.15.45.24.67l11.49,28.5,0,0,8.07,19.59a32,32,0,0,0,7,10.49l.58.59a32.2,32.2,0,0,0,15.5,8.6l4.78,1.11a31.83,31.83,0,0,0,7.28.84,32.31,32.31,0,0,0,5.11-.41l6-1A32.21,32.21,0,0,0,762.51,459l11.83-31.77,0-.06,11.23-31L804.06,347a7,7,0,0,0,.45-2.4l.11-13.64v-.32l-.28-7.32m-7.31-8.3.59,15.88-.11,13.64L779,393.74l-11.25,31.05L756,456.55a25.23,25.23,0,0,1-19.62,16.09l-6,1a25.58,25.58,0,0,1-4,.32,25,25,0,0,1-5.7-.66l-4.78-1.11a25.16,25.16,0,0,1-12.13-6.73l-.59-.59a25.08,25.08,0,0,1-5.47-8.21L689.55,437l-11.5-28.5-4-13.8-6-26.11L666.6,353l-.05-31.66h-25.5V483.78l62.24,20H797l13-50,14.5-98.48V319.61L797,315.06Z"/><path class="cls-17" d="M703.84,324.81l-59.29-19.05V145.34h18.5l.05,32.16c0,.11,0,.21,0,.32l1.43,15.66a3.55,3.55,0,0,0,.08.47l6,26.11a1.21,1.21,0,0,0,.05.18l4,13.8a3.38,3.38,0,0,0,.11.34l11.5,28.5,8.09,19.62a28.61,28.61,0,0,0,6.24,9.35l.59.59A28.71,28.71,0,0,0,715,300.11l4.78,1.11a28.87,28.87,0,0,0,11,.38l6-1a28.72,28.72,0,0,0,22.35-18.32l11.83-31.77,11.26-31.08,18.7-49.1a3.61,3.61,0,0,0,.22-1.22l.12-13.64a1.48,1.48,0,0,0,0-.21l-.6-11.54L821,147.11v32.47l-14.44,98-12.27,47.19Z"/><path class="cls-16" d="M804.47,147.92l13.06,2.16v29.24l-14.37,97.6-11.54,44.39H704.39l-56.34-18.1V148.84h11.51l0,28.67q0,.31,0,.63l1.43,15.66a7.36,7.36,0,0,0,.15.94l6,26.1c0,.13.06.25.1.38l4,13.8c.07.23.15.45.24.67l11.49,28.5,0,.05,8.07,19.59a32.08,32.08,0,0,0,7,10.5l.58.59a32.28,32.28,0,0,0,15.5,8.6l4.78,1.11a32.22,32.22,0,0,0,12.39.42l6-1a32.2,32.2,0,0,0,25.07-20.56l11.83-31.76,0-.06,11.23-31,18.69-49.11a7,7,0,0,0,.45-2.43l.12-13.64c0-.14,0-.28,0-.42l-.38-7.19M797,139.59l.83,15.88-.12,13.64L779,218.27l-11.25,31L756,281.09a25.2,25.2,0,0,1-19.62,16.08l-6,1a25.25,25.25,0,0,1-9.7-.33l-4.78-1.11A25.32,25.32,0,0,1,703.69,290l-.59-.59a25,25,0,0,1-5.47-8.22l-8.08-19.59-11.5-28.5-4-13.8-6-26.1L666.6,177.5l-.05-35.65h-25.5V308.31l62.24,20H797l13-50,14.5-98.49V144.14L797,139.59Z"/><polygon class="cls-8" points="614.28 654.21 459.65 654.21 459.65 654.47 445.83 654.47 428.62 681.05 422.17 725.5 423.38 763.65 432.45 812.23 457.05 819.12 460 843.21 460 843.21 485.19 843.21 485.19 828.99 614.28 828.99 614.28 654.21"/><rect class="cls-8" x="267.94" y="804.02" width="27.27" height="15.91"/><rect class="cls-8" x="267.94" y="824.12" width="27.27" height="15.91"/><polygon class="cls-8" points="212.12 681.05 194.91 654.47 180.74 654.47 180.74 654.47 179.38 654.47 179.38 654.21 24.76 654.21 24.76 828.99 155.55 828.99 155.55 843.21 180.74 843.21 180.74 843.21 183.69 819.12 208.29 812.23 217.36 763.65 218.57 725.5 212.12 681.05"/><path class="cls-8" d="M317,758.52h4.12a0,0,0,0,1,0,0V966.31a2.06,2.06,0,0,1-2.06,2.06h0a2.06,2.06,0,0,1-2.06-2.06V758.52a0,0,0,0,1,0,0Z"/><rect class="cls-7" x="282.99" y="545.38" width="78.37" height="23.74" rx="6.41" ry="6.41"/><rect class="cls-8" x="180.39" y="494.89" width="264.26" height="12.85"/><rect class="cls-8" x="5.44" y="997.3" width="614.17" height="12.86"/><polygon class="cls-18" points="218.57 725.5 217.36 763.65 214 781.65 199.65 743.38 215.16 702.01 218.57 725.5"/><polygon class="cls-19" points="441.09 743.38 426.74 781.65 423.38 763.65 422.17 725.5 425.58 702.01 441.09 743.38"/><rect class="cls-7" x="281.99" y="581.96" width="78.37" height="84.47" rx="9.59" ry="9.59"/><rect class="cls-8" x="292.05" y="596.73" width="57.02" height="6.11"/><path class="cls-20" d="M349.74,628.69l-5.27,2.53.27-18.7-9.09.4.14,27.3,8.33-.18,6.46-3.81Z"/><path class="cls-20" d="M322.1,632.55l-.14-2.93,9.88-9.39-.08-7.44-19.19.22,0,8.2,9.13-.67-8.37,7.58,1,10.19,1.94,1.86,15.12.05-.23-8.2Z"/><path class="cls-20" d="M310.67,617.79l-10,.27.17-5.36-8.24.26v5.41l-2.57,0-.13,6.92,2.79-.09V640l4.74-.08,4.43.08,9.93-15.24Zm-10.82,13.39.27-6.21,4.21,0Z"/><rect class="cls-10" x="594.67" y="650.26" width="19.61" height="178.73"/><rect class="cls-10" x="24.76" y="650.26" width="22.05" height="178.73"/><path class="cls-21" d="M401.87,727.12H422.5a16.33,16.33,0,0,1,16.33,16.33v0a16.33,16.33,0,0,1-16.33,16.33H401.87a0,0,0,0,1,0,0V727.12A0,0,0,0,1,401.87,727.12Z" transform="translate(840.7 1486.91) rotate(-180)"/><rect class="cls-7" x="444.65" y="727.12" width="11.64" height="32.52"/><rect class="cls-22" x="350.84" y="823.09" width="28.12" height="30.31" rx="3.44" ry="3.44" transform="translate(796.01 1644.45) rotate(175.39)"/><rect class="cls-7" x="355.6" y="845.86" width="20.46" height="2.19" transform="translate(798.55 1661.77) rotate(175.39)"/><path class="cls-7" d="M358.1,834.28l0-.45-.1-1.51-1,.08-2.25.19-2.41,1.63v.06l.5,2.83,2-1.1.36,7.22,3.5-.37Z"/><path class="cls-7" d="M367.38,839.09l-3.51.48,3.05-3.13-.35-2.16-.29-1.75-.8-.67-5.84.35.19,2.07.1,1.09,3.51-.42.12,1.12-2.26,2.45L360,839.94l.21,2.87,3.61-.27,3.8-.28Z"/><path class="cls-7" d="M376.15,839.62,376,837l-1.08.1-.17-2.77-.19-2.93-1.83.15-1.71.08-1.53,2.7-1.93,3.42.61,2.66,3.85-.34.06,2.07,3.18-.3-.14-2.09Zm-5.66-2.17,1.57-2.52.05,2.4Z"/><path class="cls-7" d="M375.23,805.25a2.71,2.71,0,0,0,2.3-3.06l0-.29-.93-6.54,0-.29a2.71,2.71,0,0,0-3.06-2.3l-.29,0-16.93,2.41h0l-3,.43-7,1-.29,0a2.69,2.69,0,0,0-2.29,3.06l0,.29.93,6.54,0,.29a2.7,2.7,0,0,0,3.06,2.29l.29,0,6.43-.91h0l2.82-.4.75-.11h0l16.93-2.41Z"/><path class="cls-8" d="M350,799.68l.6-.08,2.87-.4.09-1.56-2,.28-3.2.44-.32,5.26-.19,3.26,1.73-.24.2-3.52,2.19-.31.86-.12.1-1.56-.15,0-2.91.4.06-.86Z"/><path class="cls-8" d="M358.55,796.94l-2.19.31-3.12,8.88,1.84-.25.7-2.16,2.65-.37.47,2,1.74-.25Zm-2.29,5.25,1.05-3.49h.09l.71,3.24Z"/><path class="cls-8" d="M365.27,799.48l-.38-.05-.54,0c-.59,0-.94-.21-1-.68s.3-1,1-1.12a1.27,1.27,0,0,1,.28-.06,1.79,1.79,0,0,1,1.76.5l1.09-1.28a3.44,3.44,0,0,0-3-.76,4.3,4.3,0,0,0-.84.2,2.7,2.7,0,0,0-2,2.91,2.15,2.15,0,0,0,2.29,1.94l.56,0c.55,0,1,.23,1.07.72.1.69-.41,1.27-1.41,1.41a1.89,1.89,0,0,1-1.91-.73l-1.17,1.22a3.24,3.24,0,0,0,3.29,1,3.48,3.48,0,0,0,2.62-1.67,2.73,2.73,0,0,0,.34-1.7A2.12,2.12,0,0,0,365.27,799.48Z"/><path class="cls-8" d="M368.3,795.59l-.1,1.56,2.19-.3-.41,7,1.72-.24.41-7,2.19-.3.1-1.57Z"/><path class="cls-7" d="M639.77,894.45a2.46,2.46,0,0,0,2.49,2.42h.27l6-.07h.27a2.46,2.46,0,0,0,2.43-2.49V894L651,878.51h0l0-2.73-.07-6.45v-.27a2.46,2.46,0,0,0-2.48-2.43h-.27l-6,.07h-.27a2.46,2.46,0,0,0-2.42,2.49v.27l.07,5.9h0l0,2.58v.69h0l.18,15.54Z"/><path class="cls-9" d="M649,873.12l-.06-2.76-8-1.42,0,1.66,3.32.58,0,1.94,0,1,1.47.27,0-1.26,0-1.68,1.75.32,0,1.36.05,2,1.47.27Z"/><path class="cls-9" d="M649.11,878.07,641,874.15l0,1.77,2,.89.06,2.55-1.94.23,0,1.68,7.95-1.08Zm-4.63,1.15,0-1.79,3.18,1.39v.09Z"/><path class="cls-9" d="M646.78,882.86c-1.28,0-1.86.78-2.09,1.95l-.1.53c-.1.52-.32.92-.8.93-.67,0-1.16-.53-1.18-1.49a1.8,1.8,0,0,1,.9-1.73l-1-1.24a3.08,3.08,0,0,0-1.35,3A3,3,0,0,0,644,888c1.24,0,1.84-.85,2.09-2.08l.1-.51c.12-.55.3-.86.76-.87s1,.49,1,1.32a1.69,1.69,0,0,1-.67,1.61l1.1,1.18a3.3,3.3,0,0,0,1-2.76C649.37,884,648.23,882.82,646.78,882.86Z"/><path class="cls-9" d="M649.36,889.55l-1.47-.26.05,2.1-6.55-1.16,0,1.66,6.54,1.16,0,2.1,1.47.26Z"/><path class="cls-23" d="M315.36,773.35l-5.37,4a2.31,2.31,0,0,0-.18,3.54l2.81,2.58a2.31,2.31,0,0,0,3.71-.86l2.55-6.61A2.3,2.3,0,0,0,315.36,773.35Z"/><path class="cls-7" d="M328.2,909.94a4.91,4.91,0,0,1-3.8-1.79,4.83,4.83,0,0,1-1-4.09,6.4,6.4,0,0,1-.84-.39,4.94,4.94,0,0,1-2.81.9h-3.1a4.89,4.89,0,0,1-2.07-.46,4.91,4.91,0,0,1-2.06.46h-3.1a3.44,3.44,0,0,1-.46,0l-.51,0h-2.31a7.8,7.8,0,0,1-2.5-.4,8.84,8.84,0,0,1-3.56.71,8.54,8.54,0,0,1-3.14-.57,4.8,4.8,0,0,1-1.55.26h-2.23a7.38,7.38,0,0,1-3.75-1,4.92,4.92,0,0,1-2.93,1h-3.1a5,5,0,0,1-2.29-.57,13.28,13.28,0,0,1-4.88.88c-6.52,0-10.73-4.37-10.73-11.13a27.78,27.78,0,0,1,.74-6c2.36-10.58,9.26-12.16,13.17-12.16a11.12,11.12,0,0,1,4.32.82,5,5,0,0,1,3.65-1.63h3.1a4.91,4.91,0,0,1,4.83,5.82,7.38,7.38,0,0,1,2.47,1.16,9.81,9.81,0,0,1,5.09-1.44,8.66,8.66,0,0,1,2.75.44,5.19,5.19,0,0,1,1.05-.11h3.1a4.69,4.69,0,0,1,1.24.16,4.61,4.61,0,0,1,1.23-.16h3.12a5.38,5.38,0,0,1,.9.08,8.77,8.77,0,0,1,2.67-.41,8.38,8.38,0,0,1,3.54.79,8.77,8.77,0,0,1,3.7-.79,8.08,8.08,0,0,1,3.71.87,5,5,0,0,1,2.24-.54h3.1a4.57,4.57,0,0,1,1,.1,9.12,9.12,0,0,1,2.8-.43,8.83,8.83,0,0,1,1.71.17,7.1,7.1,0,0,1,.2-.76,6.88,6.88,0,0,1,6.89-5.06,6.22,6.22,0,0,1,6.52,5.68l.84,0a10.55,10.55,0,0,1,4.87,1.11,5,5,0,0,1,2.67-.78h3.1a4.85,4.85,0,0,1,1,.1,9,9,0,0,1,2.78-.43c4.71,0,7.87,3.39,7.87,8.44a16.48,16.48,0,0,1-.36,3l-.54,2.73a5,5,0,0,1,.79,2.68,4.91,4.91,0,0,1-.15,1.22l-.46,2.27a5,5,0,0,1-4.82,3.94h-2.24a7.2,7.2,0,0,1-3.74-1,5,5,0,0,1-2.93,1h-3.1a5,5,0,0,1-2.28-.56,11.44,11.44,0,0,1-4.46.87,10.81,10.81,0,0,1-4.23-.8,4.79,4.79,0,0,1-2.13.49h-2.19a7.34,7.34,0,0,1-3.65-.91,9.75,9.75,0,0,1-4.57,1.22l-.22,1.12a4.91,4.91,0,0,1-4.82,3.94Z"/><path class="cls-7" d="M347.75,876.33a4.56,4.56,0,0,1,4.9,4.52,5.82,5.82,0,0,1-.19,1.47,10.34,10.34,0,0,1,2.65-.34,8.49,8.49,0,0,1,5,1.49,3.27,3.27,0,0,1,2.51-1.16h3.1a3.31,3.31,0,0,1,1.08.18,6.94,6.94,0,0,1,2.7-.51c3.79,0,6.23,2.67,6.23,6.8a16.37,16.37,0,0,1-.36,2.81l-.65,3.27a3.41,3.41,0,0,1,.9,2.28,3.68,3.68,0,0,1-.1.82l-.48,2.34a3.31,3.31,0,0,1-3.21,2.63h-2.24a5.16,5.16,0,0,1-3.89-1.56,3.34,3.34,0,0,1-2.79,1.56h-3.09a3.28,3.28,0,0,1-2.15-.81,9.42,9.42,0,0,1-4.59,1.12,8.9,8.9,0,0,1-4.33-1,3.2,3.2,0,0,1-2,.72h-2.19a5.34,5.34,0,0,1-3.61-1.25,8,8,0,0,1-4.79,1.56,7.12,7.12,0,0,1-1.14-.08l-.51,2.52a3.28,3.28,0,0,1-3.21,2.62h-3.1a3.25,3.25,0,0,1-3.21-3.91l.29-1.53a4.93,4.93,0,0,1-2.88-1.33,3.28,3.28,0,0,1-2.67,1.4h-3.1a3.27,3.27,0,0,1-2.07-.74,3.28,3.28,0,0,1-2.06.74h-3.1a2,2,0,0,1-.44,0,3.07,3.07,0,0,1-.53,0h-2.31a5.85,5.85,0,0,1-2.57-.56,7.3,7.3,0,0,1-6.62.15,3.24,3.24,0,0,1-1.56.41h-2.23a5.17,5.17,0,0,1-3.9-1.56,3.32,3.32,0,0,1-2.79,1.56h-3.09a3.35,3.35,0,0,1-2.13-.79,11.23,11.23,0,0,1-5,1.1c-5.6,0-9.09-3.64-9.09-9.49a26,26,0,0,1,.7-5.62c2-9,7.39-10.89,11.57-10.89a9.18,9.18,0,0,1,4.9,1.32,3.27,3.27,0,0,1,3.07-2.12h3.1a3.27,3.27,0,0,1,3.21,3.92l-.33,1.62a5.94,5.94,0,0,1,4.31,1.9,8.07,8.07,0,0,1,5.2-1.9,6.83,6.83,0,0,1,2.69.53,2.92,2.92,0,0,1,1.11-.2h3.1a3.22,3.22,0,0,1,1.24.24,3.28,3.28,0,0,1,1.23-.24h3.12a3.41,3.41,0,0,1,1,.15,6.72,6.72,0,0,1,2.57-.48,6.38,6.38,0,0,1,3.52,1,6.88,6.88,0,0,1,3.72-1,6.22,6.22,0,0,1,3.74,1.18,3.34,3.34,0,0,1,2.21-.85h3.1a3.09,3.09,0,0,1,1.05.18A7,7,0,0,1,339,882a7.26,7.26,0,0,1,3.23.77,4.6,4.6,0,0,1-.05-.64,6.35,6.35,0,0,1,.3-1.88,5.24,5.24,0,0,1,5.32-3.9m0-3.28a8.53,8.53,0,0,0-8.27,5.67l-.53,0a10.63,10.63,0,0,0-2.9.39,6.36,6.36,0,0,0-.87-.06h-3.1a6.45,6.45,0,0,0-2.22.39,9.83,9.83,0,0,0-3.73-.72,10.45,10.45,0,0,0-3.69.65,10,10,0,0,0-3.55-.65,10.32,10.32,0,0,0-2.79.38,6.81,6.81,0,0,0-.78-.05H312.2a6.42,6.42,0,0,1-2.47,0h-3.1a5.86,5.86,0,0,0-.94.07,10.45,10.45,0,0,0-2.86-.4,11.53,11.53,0,0,0-5,1.18,7.61,7.61,0,0,0-.81-.4,6.54,6.54,0,0,0-6.55-6.32h-3.1a6.55,6.55,0,0,0-4,1.39,13.11,13.11,0,0,0-3.95-.58c-4.4,0-12.17,1.74-14.77,13.45a29.13,29.13,0,0,0-.78,6.33c0,7.64,5,12.77,12.37,12.77a15.36,15.36,0,0,0,4.82-.75,6.7,6.7,0,0,0,2.35.43h3.09a6.45,6.45,0,0,0,3-.73,9.21,9.21,0,0,0,3.67.73h2.23a6.28,6.28,0,0,0,1.5-.17,10.79,10.79,0,0,0,6.82-.13,9.63,9.63,0,0,0,2.43.3h2.31a4.1,4.1,0,0,0,.5,0,3.7,3.7,0,0,0,.47,0h3.1a6.47,6.47,0,0,0,2.05-.33,6.66,6.66,0,0,0,2.08.33h3.1a6.47,6.47,0,0,0,2-.3,6.57,6.57,0,0,0,6.51,5.68h3.1a6.56,6.56,0,0,0,6.41-5.17,11.09,11.09,0,0,0,3.2-.92,9.24,9.24,0,0,0,3.65.71h2.19a6.51,6.51,0,0,0,2.15-.36,12.64,12.64,0,0,0,4.21.68,13.06,13.06,0,0,0,4.42-.74,6.53,6.53,0,0,0,2.32.42h3.09a6.5,6.5,0,0,0,3-.74,9,9,0,0,0,3.67.74h2.24a6.58,6.58,0,0,0,6.42-5.23l.47-2.3a6.47,6.47,0,0,0,.17-1.53,6.54,6.54,0,0,0-.7-2.95l.4-2v-.06l0-.14a17.73,17.73,0,0,0,.39-3.25c0-5.93-3.91-10.08-9.51-10.08a10.61,10.61,0,0,0-2.89.39,6.65,6.65,0,0,0-.89-.06h-3.1a6.7,6.7,0,0,0-2.73.59,12.43,12.43,0,0,0-4.29-.91,7.84,7.84,0,0,0-7.88-5.66Z"/><path d="M374.75,894.86a3.41,3.41,0,0,1,.9,2.28,3.68,3.68,0,0,1-.1.82l-.48,2.34a3.31,3.31,0,0,1-3.21,2.63h-2.24a5.16,5.16,0,0,1-3.89-1.56,3.34,3.34,0,0,1-2.79,1.56h-3.09a3.28,3.28,0,0,1-2.15-.81,9.42,9.42,0,0,1-4.59,1.12,8.9,8.9,0,0,1-4.33-1,3.2,3.2,0,0,1-2,.72h-2.19a5.34,5.34,0,0,1-3.61-1.25,8,8,0,0,1-4.79,1.56,7.12,7.12,0,0,1-1.14-.08l-.51,2.52a3.28,3.28,0,0,1-3.21,2.62h-3.1a3.25,3.25,0,0,1-3.21-3.91l.29-1.53a4.93,4.93,0,0,1-2.88-1.33,3.28,3.28,0,0,1-2.67,1.4h-3.1a3.27,3.27,0,0,1-2.07-.74,3.28,3.28,0,0,1-2.06.74h-3.1a2,2,0,0,1-.44,0,3.07,3.07,0,0,1-.53,0h-2.31a5.85,5.85,0,0,1-2.57-.56,7.3,7.3,0,0,1-6.62.15,3.24,3.24,0,0,1-1.56.41h-2.23a5.17,5.17,0,0,1-3.9-1.56,3.32,3.32,0,0,1-2.79,1.56h-3.09a3.35,3.35,0,0,1-2.13-.79,11.23,11.23,0,0,1-5,1.1c-5.6,0-9.09-3.64-9.09-9.49a26,26,0,0,1,.7-5.62c2-9,7.39-10.89,11.57-10.89a9.18,9.18,0,0,1,4.9,1.32,3.27,3.27,0,0,1,3.07-2.12h3.1a3.27,3.27,0,0,1,3.21,3.92l-.33,1.62a5.94,5.94,0,0,1,4.31,1.9,8.07,8.07,0,0,1,5.2-1.9,6.83,6.83,0,0,1,2.69.53,2.92,2.92,0,0,1,1.11-.2h3.1a3.22,3.22,0,0,1,1.24.24,3.28,3.28,0,0,1,1.23-.24h3.12a3.41,3.41,0,0,1,1,.15,6.72,6.72,0,0,1,2.57-.48,6.38,6.38,0,0,1,3.52,1,6.86,6.86,0,0,1,3.72-1,6.22,6.22,0,0,1,3.74,1.18,3.34,3.34,0,0,1,2.21-.85h3.1a3.09,3.09,0,0,1,1.05.18A7,7,0,0,1,339,882a7.26,7.26,0,0,1,3.23.77,4.6,4.6,0,0,1-.05-.64,6.35,6.35,0,0,1,.3-1.88,5.24,5.24,0,0,1,5.32-3.9,4.56,4.56,0,0,1,4.9,4.52,5.82,5.82,0,0,1-.19,1.47,10.34,10.34,0,0,1,2.65-.34,8.49,8.49,0,0,1,5,1.49,3.27,3.27,0,0,1,2.51-1.16h3.1a3.31,3.31,0,0,1,1.08.18,6.94,6.94,0,0,1,2.7-.51c3.79,0,6.23,2.67,6.23,6.8a16.37,16.37,0,0,1-.36,2.81Z"/><path class="cls-8" d="M279.38,896.16a3.8,3.8,0,0,1-2.81,1c-2,0-2.93-1.13-2.93-3.5a6.64,6.64,0,0,1,.07-.9c0-.32.11-.7.2-1.12l.59-3,0-.15c.75-3.74,2-5.1,4.6-5.1,1.81,0,2.72.91,2.88,2.83l2.91-1.22a5.2,5.2,0,0,0-5.55-4.44c-4,0-6.67,2.33-8,7,0,0,0,0,0,0-.13.41-.24.85-.34,1.3q-.21.92-.33,1.68a19.32,19.32,0,0,0-.29,3.23c0,4.09,2,6.22,5.82,6.22a7.26,7.26,0,0,0,5.8-2.49,8.71,8.71,0,0,0,1.36-2.2L280.64,894A5.37,5.37,0,0,1,279.38,896.16Z"/><path class="cls-8" d="M295.69,890.89a11.19,11.19,0,0,0,.3-2.1,6,6,0,0,0,0-.62c-.16-1.92-1.1-2.91-2.91-2.91-2,0-3.25,1.16-4,3.39h-.38l1.8-8.94h-3.1l-2,9.95-1.71,8.58-.28,1.4h3.1l0-.19,1.49-7.38a7.42,7.42,0,0,1,1.06-2.62l.23-.34a2.44,2.44,0,0,1,2.11-1.24c.79,0,1.2.3,1.3,1a2.49,2.49,0,0,1,0,.49,13.58,13.58,0,0,1-.21,1.91l-1.16,5.79a3.49,3.49,0,0,0-.11.78c0,1.21.59,1.75,1.89,1.75h2.23l.51-2.5h-1.42Z"/><path class="cls-8" d="M309.73,885.58h-3.1l-.49,2.43h-.35a2.69,2.69,0,0,0-1.42-2.42,3.47,3.47,0,0,0-1.54-.33,4.71,4.71,0,0,0-3.91,2,11.28,11.28,0,0,0-1.93,4.92,19.15,19.15,0,0,0-.35,3.31c0,3.08,1.21,4.48,3.42,4.48,1.91,0,3.09-1,4-3.45h.35l-.11.56a3.88,3.88,0,0,0-.11.87c0,1.15.59,1.69,1.89,1.69h2.31l.52-2.5h-1.54Zm-4.07,4.77-.57,2.83a8.41,8.41,0,0,1-1.23,2.83,2.68,2.68,0,0,1-2.32,1.34,1.64,1.64,0,0,1-1.75-1.88,13.6,13.6,0,0,1,.27-2l.46-2.23c.45-2.26,1.31-3.37,3.07-3.37A1.94,1.94,0,0,1,305.66,890.35Z"/><path class="cls-8" d="M328.69,890.92a12.37,12.37,0,0,0,.29-2.13c0-2.32-.89-3.53-2.85-3.53s-3.21,1.16-4,3.39h-.36a4.11,4.11,0,0,0-.65-2.41,2.56,2.56,0,0,0-2.23-1,3.3,3.3,0,0,0-1.89.54,5.26,5.26,0,0,0-1.93,2.85h-.38l.62-3.07h-3.1l-2.8,14.06h3.1L314,892a7.62,7.62,0,0,1,1.3-2.86,2.5,2.5,0,0,1,1.66-1.22l.28,0c.89,0,1.26.43,1.26,1.54a7.33,7.33,0,0,1-.16,1.48l-1.38,6.9-.37,1.85h3.1l1.39-7,.14-.7a7.83,7.83,0,0,1,1.3-2.86c.62-.89,1.15-1.24,1.91-1.24.91,0,1.29.43,1.29,1.54a12.06,12.06,0,0,1-.21,1.78l-1.19,5.92a3.21,3.21,0,0,0-.11.78c0,1.21.6,1.75,1.89,1.75h2.23l.52-2.53h-1.43Z"/><path class="cls-8" d="M341.6,886.51a3,3,0,0,0-2.65-1.25,3.78,3.78,0,0,0-1.2.17c-1.25.36-2.11,1.39-2.84,3.28h-.35l.62-3.13h-3.1L328.2,905h3.1l1.56-7.81h.35a2.71,2.71,0,0,0,3,2.75c3.07,0,5-2.51,5.85-6.93a19,19,0,0,0,.35-3.31A5.63,5.63,0,0,0,341.6,886.51ZM339,891.75l-.46,2.24c-.46,2.26-1.32,3.36-3.07,3.36a2,2,0,0,1-2.08-2.5l.57-2.8a8.35,8.35,0,0,1,1.24-2.83,2.67,2.67,0,0,1,2.32-1.35c1.15,0,1.75.7,1.75,1.89A14.38,14.38,0,0,1,339,891.75Z"/><path class="cls-8" d="M347.75,879.6a2,2,0,0,0-2.18,1.57,3.19,3.19,0,0,0-.16.94c0,.78.59,1.24,1.62,1.24a2,2,0,0,0,2.18-1.56,3.25,3.25,0,0,0,.16-.95C349.37,880.06,348.78,879.6,347.75,879.6Zm.41,6h-3.1l-.39,1.94-1.9,9.51a4,4,0,0,0-.11.89c0,1.21.59,1.72,1.89,1.72h2.21l.51-2.53h-1.43l1.76-8.73Z"/><path class="cls-8" d="M359.88,889.63c-.28-2.93-1.86-4.37-4.77-4.37a5.81,5.81,0,0,0-5.59,3.55,12.51,12.51,0,0,0-1,2.92,14.84,14.84,0,0,0-.27,2.85c0,3.61,1.59,5.39,4.82,5.39a6.83,6.83,0,0,0,1.87-.24h0l.9-.36c2-.94,3.15-3,3.75-5.86a14.84,14.84,0,0,0,.27-2.85C359.93,890.29,359.91,890,359.88,889.63Zm-3.16,1.74-.51,2.64c-.46,2.43-1.27,3.42-2.83,3.42-1.37,0-2-.72-2-2.31a6,6,0,0,1,.14-1.27l.51-2.64a8.44,8.44,0,0,1,.55-1.89,2.31,2.31,0,0,1,2.28-1.53,1.77,1.77,0,0,1,2,1.85,3.48,3.48,0,0,1,0,.47A6.48,6.48,0,0,1,356.72,891.37Z"/><path class="cls-8" d="M372.38,889.83a7.1,7.1,0,0,0,.1-1,5.65,5.65,0,0,0-.19-1.56,2.55,2.55,0,0,0-2.75-2c-2,0-3.26,1.16-4,3.39h-.38l.62-3.07h-3.09l-.78,3.92-1.59,7.94-.44,2.2h3.1l.8-4,.74-3.69a7.45,7.45,0,0,1,1.29-2.86,1.58,1.58,0,0,1,.12-.15h0a2.32,2.32,0,0,1,2-1.08,1.23,1.23,0,0,1,1.06.4,1.79,1.79,0,0,1,.29,1.14,12.31,12.31,0,0,1-.22,1.91l-.25,1.26-.91,4.53a4.17,4.17,0,0,0-.1.78c0,1.21.59,1.75,1.88,1.75h2.24l.51-2.5h-1.43l1.24-6.2C372.25,890.62,372.33,890.23,372.38,889.83Z"/><path class="cls-7" d="M811.6,869.06a2.46,2.46,0,0,0-2.48-2.43h-.27l-6,.07h-.27a2.46,2.46,0,0,0-2.42,2.49v.27l.18,15.53h0l0,2.72.08,6.46v.27a2.46,2.46,0,0,0,2.49,2.42h.27l6-.07h.27a2.46,2.46,0,0,0,2.43-2.49V894l-.07-5.9h0l0-2.58v-.7h0l-.18-15.53Z"/><path class="cls-9" d="M810.41,892.92l-3.31-.58L807,889.4l-1.47-.26.07,2.93-1.76-.32-.07-3.33-1.47-.27.11,5,8,1.42Z"/><path class="cls-9" d="M810.3,887.59l-2-.89-.05-2.55,1.94-.23,0-1.68-8,1.08,0,2.12,8.07,3.92Zm-6.55-2.9v-.09l3.15-.31,0,1.79Z"/><path class="cls-9" d="M807.37,875.53c-1.25,0-1.85.85-2.09,2.08l-.11.51c-.11.55-.3.86-.75.87s-1-.49-1-1.32a1.69,1.69,0,0,1,.67-1.61l-1.1-1.18a3.34,3.34,0,0,0-1,2.76c0,1.84,1.19,3.05,2.64,3,1.28,0,1.86-.78,2.08-1.95l.11-.53c.1-.52.32-.92.8-.93.66,0,1.15.53,1.18,1.49a1.81,1.81,0,0,1-.9,1.73l1,1.24a3.08,3.08,0,0,0,1.35-3A3,3,0,0,0,807.37,875.53Z"/><path class="cls-9" d="M810,871.62l-6.54-1.16,0-2.1-1.47-.26.11,5,0,.84,1.47.26,0-1.1,0-1,5.64,1,.9.16v-.16Z"/><rect class="cls-24" x="626.62" y="780.48" width="386.38" height="133.58"/><path class="cls-8" d="M349.68,552.47a4.56,4.56,0,0,0-4.47,2.93l1.7.77a2.44,2.44,0,0,1,2.54-1.93c1.24,0,1.83.7,1.83,2.18a6.25,6.25,0,0,1-.17,1.26l-.37,1.89c-.47,2.4-1.26,3.28-2.89,3.28-1.13,0-1.7-.57-1.8-1.77l-1.82.76a3.26,3.26,0,0,0,3.47,2.78c2.74,0,4.45-1.74,5.23-5.2a14.15,14.15,0,0,0,.39-3.07C353.32,553.8,352.07,552.47,349.68,552.47Z"/><path class="cls-8" d="M343.27,552.67l-1,4.73a4.6,4.6,0,0,1-.8,1.85,1.5,1.5,0,0,1-1.32.77c-.59,0-.84-.27-.84-1a7.52,7.52,0,0,1,.14-1.19l.72-3.62a2.63,2.63,0,0,0,.07-.49c0-.75-.37-1.09-1.18-1.09h-1.4l-.32,1.57h.89l-.77,3.9a7.63,7.63,0,0,0-.18,1.31c0,1.45.59,2.2,1.83,2.2a2.61,2.61,0,0,0,2.52-2.11h.24l-1.13,5.58h1.94l2.49-12.45Z"/><path class="cls-8" d="M334.78,552.47c-1.2,0-1.94.62-2.53,2.15H332l.07-.35a2.42,2.42,0,0,0,.07-.54c0-.72-.37-1.06-1.18-1.06h-1.45l-.32,1.57h1l-1.44,7.21h1.93l.3-1.51h.22a1.69,1.69,0,0,0,1.85,1.71c1.92,0,3.15-1.56,3.65-4.32a11.81,11.81,0,0,0,.22-2.07C336.91,553.34,336.16,552.47,334.78,552.47Zm0,4-.29,1.4c-.29,1.41-.82,2.1-1.92,2.1a1.21,1.21,0,0,1-1.29-1.54l.35-1.77a5.42,5.42,0,0,1,.77-1.77,1.68,1.68,0,0,1,1.45-.84c.72,0,1.09.44,1.09,1.18A9.15,9.15,0,0,1,334.78,556.52Z"/><path class="cls-8" d="M327,552.67l-.95,4.8a4.75,4.75,0,0,1-.81,1.78A1.46,1.46,0,0,1,324,560c-.56,0-.79-.27-.79-1a4.45,4.45,0,0,1,.1-.92l1.09-5.47h-1.94l-.95,4.8a5,5,0,0,1-.81,1.78,1.41,1.41,0,0,1-1.2.77c-.57,0-.8-.27-.8-1a6.54,6.54,0,0,1,.13-1.11l.74-3.7a2,2,0,0,0,.07-.49c0-.75-.37-1.09-1.18-1.09h-1.4l-.32,1.58h.9l-.78,3.87a7.85,7.85,0,0,0-.18,1.33c0,1.45.55,2.2,1.78,2.2s2-.72,2.51-2.11h.22c0,1.39.6,2.11,1.8,2.11s1.9-.72,2.39-2.11h.23l-.39,1.91h1.94l1.75-8.78Z"/><path class="cls-8" d="M315.26,549.31l-1,4.88h-.22a1.69,1.69,0,0,0-1.85-1.72c-1.92,0-3.15,1.56-3.65,4.32a11.81,11.81,0,0,0-.22,2.07c0,1.92.75,2.79,2.13,2.79,1.2,0,1.94-.62,2.53-2.15h.22l-.39,2h1.93l2.43-12.14ZM314,555.66l-.35,1.76a5.47,5.47,0,0,1-.77,1.76,1.68,1.68,0,0,1-1.45.84,1,1,0,0,1-1.09-1.17,9.07,9.07,0,0,1,.16-1.25l.29-1.4c.29-1.41.82-2.1,1.92-2.1A1.22,1.22,0,0,1,314,555.66Z"/><path class="cls-8" d="M305.44,562.85a1.24,1.24,0,0,0-1.36,1,2,2,0,0,0-.11.58c0,.49.37.78,1,.78a1.27,1.27,0,0,0,1.37-1,2.35,2.35,0,0,0,.1-.59C306.45,563.14,306.08,562.85,305.44,562.85ZM307,552.67h-1.38l-.32,1.58h.89l-1.45,7.2h1.94l1.43-7.15a2.41,2.41,0,0,0,.06-.55C308.16,553,307.79,552.67,307,552.67Z"/><path class="cls-8" d="M301.64,552.47c-2.31,0-3.57,1.53-4.09,4a9.16,9.16,0,0,0-.17,1.78c0,2.25,1,3.36,3,3.36,2.31,0,3.57-1.53,4.09-4a9.33,9.33,0,0,0,.17-1.79C304.65,553.58,303.66,552.47,301.64,552.47Zm1,3.82-.32,1.65c-.29,1.51-.79,2.13-1.77,2.13s-1.26-.45-1.26-1.44a4.07,4.07,0,0,1,.08-.79l.32-1.65c.29-1.52.79-2.14,1.77-2.14s1.26.45,1.26,1.45A4.07,4.07,0,0,1,302.65,556.29Z"/><path class="cls-8" d="M295.5,552.67l-1,4.8a4.75,4.75,0,0,1-.81,1.78,1.5,1.5,0,0,1-1.31.77c-.59,0-.84-.27-.84-1a7.45,7.45,0,0,1,.13-1.19l.72-3.62a2,2,0,0,0,.07-.49c0-.75-.37-1.09-1.18-1.09h-1.39l-.32,1.57h.89l-.78,3.86a8.08,8.08,0,0,0-.18,1.35c0,1.45.59,2.2,1.83,2.2s2-.72,2.53-2.11h.23l-.38,1.91h1.93l1.75-8.78Z"/><rect class="cls-7" x="192.6" y="722.58" width="11.64" height="32.52" transform="translate(396.83 1477.67) rotate(-180)"/><rect class="cls-7" x="174.7" y="722.58" width="11.64" height="32.52" transform="translate(361.04 1477.67) rotate(-180)"/><circle class="cls-9" cx="281.58" cy="822.33" r="8.1"/><circle class="cls-22" cx="281.58" cy="824.74" r="3.52"/><circle class="cls-22" cx="281.58" cy="818.03" r="1.68"/><circle class="cls-22" cx="277.1" cy="820.24" r="1.68"/><circle class="cls-22" cx="286.06" cy="820.24" r="1.68"/><circle class="cls-9" cx="418.2" cy="743.45" r="12.7"/><circle class="cls-22" cx="421.98" cy="743.45" r="5.52"/><circle class="cls-22" cx="411.45" cy="743.45" r="2.64"/><circle class="cls-22" cx="414.92" cy="750.48" r="2.64"/><circle class="cls-22" cx="414.92" cy="736.42" r="2.64"/><rect class="cls-25" x="992" width="32" height="32"/><rect class="cls-8" x="626.62" y="780.48" width="386.38" height="12.89"/></g></g></g></svg>