<svg xmlns="http://www.w3.org/2000/svg" viewBox="0 0 1024 1024"><defs><style>.cls-1{fill:#fff;}.cls-2{fill:#65342e;}.cls-3{fill:#995f5b;}.cls-4{fill:red;}.cls-5{fill:#f7a3a0;}.cls-6{fill:#44211e;}.cls-7{fill:#220f0f;}.cls-8{fill:#dd2b26;}.cls-9{fill:#7f5453;}</style></defs><title>animalBaseE</title><g id="Layer_2" data-name="Layer 2"><g id="SkinComplete"><path class="cls-1" d="M393.33,975.5a361.92,361.92,0,0,1-3.19,48.5H250.6a361.92,361.92,0,0,1-3.19-48.5q0-6,.18-11.84c2.68-85.86,34.24-153.61,72.78-153.61,18.82,0,36,16.16,48.92,42.69q1.95,4,3.76,8.3c11.43,27.05,18.86,62.9,20.1,102.62Q393.33,969.53,393.33,975.5Z"/><rect class="cls-2" x="2.51" y="490" width="182.97" height="154"/><rect class="cls-2" width="1024" height="1024"/><rect class="cls-2" width="643" height="490"/><rect class="cls-2" y="139.59" width="643" height="350.41"/><path class="cls-3" d="M401.06,325.05c0-38.07-35.48-68.93-79.25-68.93S242.57,287,242.57,325.05h0a173.92,173.92,0,0,0,.54,28.32l12.38,122.91,64.82,5.58h2.74l64.82-5.58,12.55-124.56a175.66,175.66,0,0,0,.71-25Z"/><rect class="cls-2" x="824" y="134" width="200" height="390"/><rect class="cls-2" x="624" y="864.49" width="400" height="159.51"/><rect class="cls-4" x="992" width="32" height="32"/><path class="cls-5" d="M62.68,574.58l23.18-48.09c3.87-8,10.4-8,14.27,0l23.18,48.09c5.89,12.22,1.46,32.29-7.13,32.29H69.81C61.22,606.87,56.79,586.8,62.68,574.58Z"/><path class="cls-3" d="M393.33,950q0,6.88-.18,13.66a460.73,460.73,0,0,1-5.5,60.34H253.09a460.73,460.73,0,0,1-5.5-60.34q-.18-6.76-.18-13.66c0-33.4,3.28-64.79,9-92.1,1.31-6.25,2.76-12.29,4.33-18.08,13.21-48.87,35-80.77,59.59-80.77,26.48,0,49.67,36.92,62.45,92.17q2.16,9.31,3.9,19.29A463.23,463.23,0,0,1,393.33,950Z"/><rect class="cls-6" x="348.5" y="213.11" width="19.99" height="30.6" rx="10" ry="10"/><rect class="cls-6" x="275.88" y="213.11" width="19.99" height="30.6" rx="10" ry="10"/><path class="cls-7" d="M260.8,207.79a56.86,56.86,0,0,1,39.05,5c2.37,1.29,3.31-2.09,1.15-4.08a67.93,67.93,0,0,0-24-14.08c-6.9-2.37-14.9,3.25-17.83,10.77C258.63,206.88,259.39,208,260.8,207.79Z"/><path class="cls-7" d="M383.64,208a56.8,56.8,0,0,0-39.17,3.91c-2.41,1.21-3.26-2.2-1-4.12a67.94,67.94,0,0,1,24.36-13.38c7-2.17,14.8,3.68,17.51,11.28C385.84,207.19,385,208.26,383.64,208Z"/><path class="cls-2" d="M322.94,281.44a5.84,5.84,0,0,0-3.69,2.09,2.54,2.54,0,0,0,2.36,4.11L326,287a2.55,2.55,0,0,0,1-4.63A5.86,5.86,0,0,0,322.94,281.44Z"/><path class="cls-7" d="M326.51,245.79h-9.39a7.11,7.11,0,0,0-6.3,3.81h0a7.12,7.12,0,0,0,2.34,9.22l4.7,3.14a7.12,7.12,0,0,0,7.91,0l4.69-3.14a7.11,7.11,0,0,0,2.35-9.22h0A7.13,7.13,0,0,0,326.51,245.79Z"/><path class="cls-7" d="M308.71,274.63a2,2,0,0,1-.7-3.88c.57-.21,14.19-5.21,27.56-.53a2,2,0,0,1-1.32,3.78c-12-4.19-24.71.45-24.84.5A1.89,1.89,0,0,1,308.71,274.63Z"/><path d="M299,290.2v-1.74a22.73,22.73,0,0,1,7.79-17.17c.59-.52,1.2-1,1.84-1.47l.93-.62a22.92,22.92,0,0,1,11.66-3.58h1.25a22.92,22.92,0,0,1,11.67,3.58c.31.2.62.41.92.63a23.24,23.24,0,0,1,1.85,1.46,22.76,22.76,0,0,1,7.78,17.17v1.74Z"/><ellipse class="cls-8" cx="321.81" cy="281.75" rx="9.45" ry="6.61"/><path class="cls-1" d="M342.76,290.2a6.66,6.66,0,0,0-6.67-6.66H307.54a6.65,6.65,0,0,0-6.67,6.66Z"/><path class="cls-1" d="M309.53,269.2a22.92,22.92,0,0,1,11.66-3.58h1.25a22.92,22.92,0,0,1,11.67,3.58c-2.2,1.9-6.88,1.89-12.29,1.89S311.74,271.1,309.53,269.2Z"/><polygon class="cls-1" points="328.22 270.17 334.11 276.05 334.11 269.49 334.11 269.2 328.22 270.17"/><polygon class="cls-1" points="315.42 270.17 309.54 276.05 309.54 269.49 309.54 269.2 315.42 270.17"/><path class="cls-1" d="M358.51,220.79a3.66,3.66,0,0,0,3.28,4,3.88,3.88,0,1,0-3.28-4Z"/><path class="cls-1" d="M286.4,220.79a3.67,3.67,0,0,0,3.29,4,3.88,3.88,0,0,0,.47-7.71A3.78,3.78,0,0,0,286.4,220.79Z"/><polygon class="cls-3" points="565.41 562.89 564.97 577.34 564.97 636.76 471.01 636.76 471.01 577.35 470.56 562.89 484.08 567.91 495.38 561.91 506.68 567.91 517.98 561.91 529.28 567.91 540.58 561.91 551.89 567.91 565.41 562.89"/><rect class="cls-9" x="643" width="381" height="134"/><polygon class="cls-3" points="685.44 264.47 707.95 249.74 745.85 249.74 766.21 270.93 802.62 281.64 772.27 317.95 731.97 325.06 687.32 319.15 647.96 284.21 685.44 264.47"/><polygon class="cls-3" points="685.44 439.39 707.95 424.66 745.85 424.66 766.21 445.84 802.62 456.56 772.27 492.86 731.97 499.98 687.32 494.07 647.96 459.13 685.44 439.39"/><path class="cls-3" d="M654.75,785.69c0,21.1,31.83,38.21,71.09,38.21s71.09-17.11,71.09-38.21Z"/></g></g></svg>