<svg xmlns="http://www.w3.org/2000/svg" xmlns:xlink="http://www.w3.org/1999/xlink" viewBox="0 0 1024 1024"><defs><style>.cls-1{isolation:isolate;}.cls-2{fill:#a7bbd1;}.cls-3{fill:#05364c;}.cls-4{fill:red;}.cls-5{fill:#e4783e;}.cls-6{fill:#e97424;}.cls-7{fill:#fff;}.cls-8{fill:#ccdde7;}.cls-9{fill:#252525;}.cls-10{fill:#1a1a1a;}.cls-11,.cls-12{opacity:0.45;}.cls-11,.cls-12,.cls-17,.cls-18,.cls-20{mix-blend-mode:overlay;}.cls-11,.cls-23{fill:url(#linear-gradient);}.cls-12,.cls-24{fill:url(#linear-gradient-2);}.cls-13{fill:#febe40;}.cls-14{fill:url(#linear-gradient-3);}.cls-15{fill:#abbfcf;}.cls-16{fill:url(#radial-gradient);}.cls-17{opacity:0.15;}.cls-18,.cls-22,.cls-23,.cls-24{opacity:0.25;}.cls-19{opacity:0.5;}.cls-20{opacity:0.75;}.cls-21{fill:#999;}.cls-22,.cls-25{fill:#191919;}.cls-22,.cls-23,.cls-24,.cls-25{mix-blend-mode:multiply;}.cls-25{opacity:0.13;}</style><linearGradient id="linear-gradient" x1="657.77" y1="835.05" x2="657.77" y2="786.3" gradientUnits="userSpaceOnUse"><stop offset="0" stop-opacity="0"/><stop offset="1"/></linearGradient><linearGradient id="linear-gradient-2" x1="794.72" y1="835.05" x2="794.72" y2="786.3" xlink:href="#linear-gradient"/><linearGradient id="linear-gradient-3" x1="258.3" y1="987.83" x2="316.29" y2="987.64" xlink:href="#linear-gradient"/><radialGradient id="radial-gradient" cx="321.11" cy="871.96" r="84.19" gradientTransform="translate(0 316.77) scale(1 0.64)" gradientUnits="userSpaceOnUse"><stop offset="0" stop-color="#badde2"/><stop offset="0.17" stop-color="#badde2" stop-opacity="0.99"/><stop offset="0.31" stop-color="#badde2" stop-opacity="0.94"/><stop offset="0.43" stop-color="#badde2" stop-opacity="0.87"/><stop offset="0.55" stop-color="#badde2" stop-opacity="0.76"/><stop offset="0.67" stop-color="#badde2" stop-opacity="0.62"/><stop offset="0.78" stop-color="#badde2" stop-opacity="0.45"/><stop offset="0.88" stop-color="#badde2" stop-opacity="0.25"/><stop offset="0.99" stop-color="#badde2" stop-opacity="0.03"/><stop offset="1" stop-color="#badde2" stop-opacity="0"/></radialGradient></defs><title>animalI</title><g class="cls-1"><g id="Layer_2" data-name="Layer 2"><g id="SkinComplete"><path class="cls-2" d="M393.33,975.5c0,7.39-.21,14.67-.63,21.8q-.27,4.8-.68,9.5c-.1,1.26-.21,2.51-.34,3.76-.43,4.55-.94,9-1.54,13.44H250.6c-.6-4.4-1.11-8.89-1.54-13.44-.13-1.25-.24-2.5-.34-3.76-.27-3.1-.49-6.22-.67-9.38a.49.49,0,0,1,0-.12c-.42-7.13-.63-14.41-.63-21.8q0-3.59.07-7.13c0-1.58.07-3.15.11-4.71q.21-6.74.66-13.3a333.31,333.31,0,0,1,5.32-41.46A269,269,0,0,1,260.19,882c5.81-19.2,13.36-35.48,22.15-47.67a71.63,71.63,0,0,1,15.78-16.39c.32-.24.63-.46.95-.68a45.9,45.9,0,0,1,4.21-2.59,35.39,35.39,0,0,1,17.09-4.57,35.79,35.79,0,0,1,18,5.08c1.1.63,2.2,1.32,3.28,2.08.32.22.64.44,1,.68a71.63,71.63,0,0,1,15.78,16.39c9,12.42,16.63,29.09,22.49,48.79a274.39,274.39,0,0,1,6.45,26.68,337,337,0,0,1,5.15,40.61q.45,6.57.66,13.3c0,1.56.08,3.13.11,4.71Q393.34,971.91,393.33,975.5Z"/><rect class="cls-3" x="2.51" y="490" width="182.97" height="154"/><rect class="cls-3" width="1024" height="1024"/><rect class="cls-3" width="643" height="490"/><rect class="cls-3" y="139.59" width="643" height="350.41"/><path class="cls-2" d="M401.06,325.05c0-38.07-35.48-68.93-79.25-68.93S242.57,287,242.57,325.05h0a173.92,173.92,0,0,0,.54,28.32l12.38,122.91,64.82,5.58h2.74l64.82-5.58,12.55-124.56a175.66,175.66,0,0,0,.71-25Z"/><rect class="cls-3" x="824" y="134" width="200" height="390"/><rect class="cls-3" x="624" y="864.49" width="400" height="159.51"/><rect class="cls-4" x="992" width="32" height="32"/><ellipse class="cls-2" cx="282.63" cy="230.39" rx="30.72" ry="26.3" transform="translate(-44.47 391.52) rotate(-65.41)"/><rect class="cls-5" x="643" width="381" height="134"/><rect class="cls-6" x="643" y="134" width="181" height="390"/><polygon class="cls-7" points="685.44 439.39 707.95 424.66 745.85 424.66 766.21 445.84 763.57 471.33 735.92 484.58 701.16 478.78 685.44 439.39"/><polygon class="cls-7" points="685.44 264.47 707.95 249.74 745.85 249.74 766.21 270.93 763.57 296.42 735.92 309.66 701.16 303.87 685.44 264.47"/><rect class="cls-7" x="713.32" y="395.74" width="26.58" height="5.41" rx="2.7" ry="2.7"/><rect class="cls-7" x="713.32" y="386.11" width="26.58" height="5.41" rx="2.7" ry="2.7"/><rect class="cls-7" x="713.32" y="405.83" width="26.58" height="5.41" rx="2.7" ry="2.7"/><rect class="cls-7" x="713.32" y="221.15" width="26.58" height="5.41" rx="2.7" ry="2.7"/><rect class="cls-7" x="713.32" y="210.84" width="26.58" height="5.41" rx="2.7" ry="2.7"/><rect class="cls-7" x="713.32" y="231.25" width="26.58" height="5.41" rx="2.7" ry="2.7"/><path class="cls-8" d="M806,315.06l-8.41,15.88-.11,13.64L779,393.74l-11.25,31.05L756,456.55a25.15,25.15,0,0,1-7.8,10.82h0a25.17,25.17,0,0,1-11.82,5.27l-6,1a25.15,25.15,0,0,1-9.7-.34l-4.78-1.11a25.16,25.16,0,0,1-12.13-6.73l-.59-.59a25.08,25.08,0,0,1-5.47-8.21L689.55,437l-11.5-28.5-4-13.8-6-26.11L666.6,353l-.05-26.66h-20.5V483.78l57.24,18H797l13-48,10.5-98.48V319.61Z"/><path class="cls-8" d="M806,139.59l-8.17,15.88-.12,13.64L779,218.27l-11.25,31L756,281.09a25.15,25.15,0,0,1-7.8,10.82h0a25.15,25.15,0,0,1-11.82,5.26l-6,1a25.14,25.14,0,0,1-9.7-.33l-4.78-1.11A25.32,25.32,0,0,1,703.69,290l-.59-.59a25,25,0,0,1-5.47-8.22l-8.08-19.59-11.5-28.5-4-13.8-6-26.1L666.6,177.5l-.05-26.65h-20.5V308.31l57.24,18H797l13-48,10.5-98.49V144.14Z"/><path class="cls-7" d="M692.28,330.68l3.64,22.77a23.6,23.6,0,0,0,5.46,11.72l8.31,9.59a23.6,23.6,0,0,0,17.82,8.13h0a23.59,23.59,0,0,0,14.58-5.05l3.43-2.7a23.55,23.55,0,0,0,5.29-5.84l4.8-7.53a23.4,23.4,0,0,0,2.21-4.42L768.42,329H692.28Z"/><path class="cls-7" d="M692.28,154.72l3.64,22.77a23.6,23.6,0,0,0,5.46,11.72l8.31,9.58a23.58,23.58,0,0,0,17.82,8.14h0a23.59,23.59,0,0,0,14.58-5.05l3.43-2.71a23.37,23.37,0,0,0,5.29-5.84l4.8-7.52a23.79,23.79,0,0,0,2.21-4.43L768.42,153H692.28Z"/><rect class="cls-9" x="624" y="764" width="400" height="109.12"/><rect class="cls-10" x="624" y="864.42" width="400" height="8.7"/><rect class="cls-10" x="624" y="775.88" width="400" height="26.57"/><path class="cls-11" d="M682.15,786.3a48.75,48.75,0,0,1-48.75,48.75V786.3Z"/><path class="cls-12" d="M770.35,786.3a48.75,48.75,0,0,0,48.75,48.75V786.3Z"/><path class="cls-2" d="M62.68,574.58l23.18-48.09c3.87-8,10.4-8,14.27,0l23.18,48.09c5.89,12.22,1.46,32.29-7.13,32.29H69.81C61.22,606.87,56.79,586.8,62.68,574.58Z"/><path class="cls-2" d="M393.33,950v.36c0,4.47-.07,8.91-.18,13.3,0,1.58-.1,3.15-.16,4.71-.35,9.88-1,19.55-1.92,28.93q-.46,4.8-1,9.5c-.15,1.26-.31,2.51-.47,3.76q-.87,6.84-1.93,13.44H253.09q-1.07-6.6-1.93-13.44c-.16-1.25-.32-2.5-.47-3.76q-.56-4.69-1-9.5-.33-3.28-.6-6.63-.91-10.93-1.32-22.3c-.06-1.56-.11-3.13-.16-4.71-.11-4.39-.18-8.83-.18-13.3V950c0-15.15.67-29.88,2-44,.94-10.44,2.21-20.54,3.77-30.24a344,344,0,0,1,9.21-41.47c5.45-18.72,12.2-34.73,19.9-47.1.31-.51.62-1,.94-1.5l.89-1.36c10.69-16.08,23.08-25.27,36.3-25.27,13.58,0,26.29,9.71,37.18,26.62l0,0c.31.49.63,1,.93,1.48,7.7,12.37,14.45,28.38,19.9,47.1a346.57,346.57,0,0,1,9.49,43.27c1.49,9.45,2.69,19.28,3.58,29.42C392.69,920.8,393.33,935.2,393.33,950Z"/><path class="cls-13" d="M175.74,484.58V1024H465V484.58Zm98.49,260.79c0-31.63,20.33-28.33,45.4-28.33S365,713.74,365,745.37c0,11.65-2.75,26.36-7.49,40.3a2.41,2.41,0,0,1-.08.25c-4,11.76-9.44,23-15.81,31.29S328,831,320.2,831.26h0a5.06,5.06,0,0,1-.55,0c-7.78,0-15.11-5.23-21.51-13.39s-11.8-19.09-15.88-30.71C277.19,772.8,274.23,757.44,274.23,745.37Z"/><rect class="cls-6" x="172.9" y="654.47" width="7.84" height="188.74" transform="translate(353.64 1497.67) rotate(-180)"/><rect class="cls-6" x="460" y="654.47" width="7.84" height="188.74" transform="translate(927.84 1497.67) rotate(-180)"/><polygon class="cls-14" points="291.02 968.77 268.5 984.65 293.85 1006.8 246.63 1006.8 252.39 968.77 291.02 968.77"/><path class="cls-15" d="M332.54,975.25H311.23a6.63,6.63,0,0,0-6.63,6.63v11.41a6.63,6.63,0,0,0,6.63,6.63h21.31a6.63,6.63,0,0,0,6.63-6.63V981.88A6.63,6.63,0,0,0,332.54,975.25Zm-24.45,7.14a3.43,3.43,0,0,1,3.43-3.42h20.73a3.42,3.42,0,0,1,3.42,3.42v10.38a3.42,3.42,0,0,1-3.42,3.43H311.52a3.43,3.43,0,0,1-3.43-3.43Z"/><rect class="cls-15" x="314.68" y="977.86" width="4.63" height="19.44"/><path class="cls-15" d="M317,977.86h0a2.31,2.31,0,0,1,2.31,2.31V997.3a0,0,0,0,1,0,0h-4.63a0,0,0,0,1,0,0V980.18A2.31,2.31,0,0,1,317,977.86Z" transform="translate(1304.57 670.59) rotate(90)"/><rect class="cls-13" x="180.74" y="968.37" width="279.26" height="38.43"/><rect class="cls-13" x="180.74" y="494.89" width="279.26" height="38.43"/><path class="cls-16" d="M431.62,852.78v9.35a11.8,11.8,0,0,1-2.23,6.85c-26.89,37.44-65.45,60.91-108.29,60.91S239.71,906.42,212.82,869a11.8,11.8,0,0,1-2.23-6.85V853a11.62,11.62,0,0,1,17.2-10.17l.32.17a35.26,35.26,0,0,1,16.46,18.77A42.88,42.88,0,0,0,299,887.24a67.56,67.56,0,0,1,44.82,0,42.86,42.86,0,0,0,54.38-25.43,35.44,35.44,0,0,1,16.22-19l.18-.1A11.5,11.5,0,0,1,431.62,852.78Z"/><rect class="cls-6" x="180.74" y="997.3" width="279.26" height="13.26"/><rect class="cls-6" x="180.74" y="494.16" width="279.26" height="13.58"/><rect class="cls-13" x="205.31" y="834.28" width="229.44" height="116.08"/><g class="cls-17"><rect x="164.96" y="654.47" width="7.84" height="188.74" transform="translate(337.77 1497.67) rotate(-180)"/><rect x="467.85" y="654.47" width="7.84" height="188.74" transform="translate(943.55 1497.67) rotate(-180)"/></g><g class="cls-18"><path class="cls-19" d="M364.05,767.18c-6.13,29.92-23,64.1-42.94,64.1s-36.82-34.18-42.95-64.1c7.67,27.58,24,55.75,42.95,55.75S356.38,794.76,364.05,767.18Z"/></g><path d="M314.66,259.06l5.47,5.81a2.32,2.32,0,0,0,3.37,0l5.47-5.81a2.31,2.31,0,0,0-1.69-3.9H316.34A2.31,2.31,0,0,0,314.66,259.06Z"/><path class="cls-20" d="M312.87,272.6a2.06,2.06,0,0,0-.06-.85,1.59,1.59,0,0,0-.07-.2l-.05-.13-.05-.12c-.06-.15-.22-.33-.2-.33a.73.73,0,0,0-.05-.09h0c.06,0,.22.08.38.13a10.16,10.16,0,0,0,1.1.36,24,24,0,0,0,2.5.61,26.49,26.49,0,0,0,5.15.49,20.18,20.18,0,0,0,5-.61,21.41,21.41,0,0,0,4.7-1.84l.13-.06a2.51,2.51,0,0,1,2.91,4,16.54,16.54,0,0,1-5.87,3.68,20.32,20.32,0,0,1-6.82,1.23,22.61,22.61,0,0,1-6.71-1,19.68,19.68,0,0,1-3.19-1.28,13.59,13.59,0,0,1-1.59-.95,8.37,8.37,0,0,1-.88-.69l-.25-.23-.32-.36a3.53,3.53,0,0,1-.42-.62l-.1-.2a2.67,2.67,0,0,1-.15-.42,2.8,2.8,0,0,1-.1-1,2.5,2.5,0,1,1,5,.46Z"/><path class="cls-2" d="M347.26,195.11c5.62-1.69,11.54-.94,17.22-.14s11.58,1.68,16.53,4.84c2.52,1.64,6.07-.52,5-3.5-1.87-5.08-9.38-10.46-20.05-11.93s-19.36,1.63-22.54,6C341.56,193,344.38,196,347.26,195.11Z"/><path class="cls-2" d="M297.12,194c-5.62-1.69-11.54-.94-17.22-.14s-11.59,1.67-16.53,4.84c-2.52,1.64-6.07-.52-5-3.51,1.87-5.07,9.38-10.46,20.05-11.93s19.36,1.63,22.54,6C302.82,191.85,300,194.9,297.12,194Z"/><rect x="348.5" y="213.11" width="19.99" height="30.6" rx="10" ry="10"/><rect x="275.88" y="213.11" width="19.99" height="30.6" rx="10" ry="10" transform="translate(571.75 456.82) rotate(-180)"/><path class="cls-7" d="M358.51,220.79a3.66,3.66,0,0,0,3.28,4,3.88,3.88,0,1,0-3.28-4Z"/><path class="cls-7" d="M286.4,220.79a3.67,3.67,0,0,0,3.29,4,3.88,3.88,0,0,0,.47-7.71A3.78,3.78,0,0,0,286.4,220.79Z"/><polygon class="cls-2" points="551.89 567.91 540.58 561.91 529.28 567.91 517.98 561.91 506.68 567.91 495.38 561.91 484.08 567.91 470.56 562.89 471.01 577.35 564.97 577.34 565.41 562.89 551.89 567.91"/><rect class="cls-2" x="471.01" y="577.35" width="93.96" height="59.41"/><rect class="cls-21" x="624" y="764" width="400" height="260"/><rect class="cls-22" x="631.59" y="786.3" width="383.62" height="16.15"/><path class="cls-23" d="M682.15,786.3a48.75,48.75,0,0,1-48.75,48.75V786.3Z"/><path class="cls-24" d="M770.35,786.3a48.75,48.75,0,0,0,48.75,48.75V786.3Z"/><rect class="cls-25" x="631.59" y="912.37" width="383.62" height="31.87"/><rect class="cls-25" x="631.59" y="912.37" width="383.62" height="12.09"/><circle class="cls-2" cx="360.94" cy="251.16" r="2.56"/><circle class="cls-2" cx="369.57" cy="247.56" r="2.56"/><circle class="cls-2" cx="368.41" cy="256.9" r="2.56"/><circle class="cls-2" cx="282.68" cy="251.16" r="2.56"/><circle class="cls-2" cx="274.05" cy="247.56" r="2.56"/><circle class="cls-2" cx="275.22" cy="256.9" r="2.56"/></g></g></g></svg>