<svg xmlns="http://www.w3.org/2000/svg" xmlns:xlink="http://www.w3.org/1999/xlink" viewBox="0 0 1024 1024.04"><defs><style>.cls-1{isolation:isolate;}.cls-2{fill:#fff;}.cls-3{fill:#ff7bac;}.cls-4{fill:red;}.cls-5{fill:#f2c09a;}.cls-6{fill:#220f0f;}.cls-7{fill:#ba2246;}.cls-8{fill:#d3eef4;}.cls-9{fill:#badde2;}.cls-10{fill:url(#linear-gradient);}.cls-11{fill:#abbfcf;}.cls-12{fill:url(#radial-gradient);}.cls-13,.cls-14,.cls-15,.cls-24,.cls-25{mix-blend-mode:overlay;}.cls-13{fill:url(#linear-gradient-2);}.cls-14{opacity:0.15;}.cls-15,.cls-17,.cls-18,.cls-19,.cls-24,.cls-25{opacity:0.25;}.cls-16{opacity:0.5;}.cls-17{fill:#191919;}.cls-17,.cls-18,.cls-19{mix-blend-mode:multiply;}.cls-18,.cls-24{fill:url(#linear-gradient-3);}.cls-19,.cls-25{fill:url(#linear-gradient-4);}.cls-20{fill:#e4783e;}.cls-21{fill:#2e75bc;}.cls-22{fill:#ccdde7;}.cls-23{fill:#195c86;}.cls-26{fill:lime;}.cls-27{fill:#753524;}.cls-28{fill:#551c20;}.cls-29{fill:#c31f44;opacity:0.8;}</style><linearGradient id="linear-gradient" x1="258.3" y1="987.83" x2="316.29" y2="987.64" gradientUnits="userSpaceOnUse"><stop offset="0" stop-opacity="0"/><stop offset="1"/></linearGradient><radialGradient id="radial-gradient" cx="321.11" cy="871.96" r="84.19" gradientTransform="translate(0 316.77) scale(1 0.64)" gradientUnits="userSpaceOnUse"><stop offset="0" stop-color="#badde2"/><stop offset="0.17" stop-color="#badde2" stop-opacity="0.99"/><stop offset="0.31" stop-color="#badde2" stop-opacity="0.94"/><stop offset="0.43" stop-color="#badde2" stop-opacity="0.87"/><stop offset="0.55" stop-color="#badde2" stop-opacity="0.76"/><stop offset="0.67" stop-color="#badde2" stop-opacity="0.62"/><stop offset="0.78" stop-color="#badde2" stop-opacity="0.45"/><stop offset="0.88" stop-color="#badde2" stop-opacity="0.25"/><stop offset="0.99" stop-color="#badde2" stop-opacity="0.03"/><stop offset="1" stop-color="#badde2" stop-opacity="0"/></radialGradient><linearGradient id="linear-gradient-2" x1="320.89" y1="903.7" x2="320.89" y2="869.42" xlink:href="#linear-gradient"/><linearGradient id="linear-gradient-3" x1="657.77" y1="835.05" x2="657.77" y2="786.3" xlink:href="#linear-gradient"/><linearGradient id="linear-gradient-4" x1="794.72" y1="835.05" x2="794.72" y2="786.3" xlink:href="#linear-gradient"/></defs><title>animalD</title><g class="cls-1"><g id="Layer_2" data-name="Layer 2"><g id="SkinComplete"><path class="cls-2" d="M393.33,975.5c0,7.39-.21,14.68-.63,21.81q-.27,4.8-.68,9.49c-.1,1.26-.21,2.51-.34,3.76-.43,4.55-.94,9-1.54,13.44v0H250.6v0c-.6-4.4-1.11-8.89-1.54-13.44-.13-1.25-.24-2.5-.34-3.76q-.41-4.63-.67-9.38a.37.37,0,0,1,0-.11c-.42-7.13-.63-14.42-.63-21.81q0-3.59.07-7.13.17-9.14.77-18a333.31,333.31,0,0,1,5.32-41.46q2.06-10.67,4.77-20.51.89-3.27,1.85-6.44c5.81-19.2,13.36-35.48,22.15-47.67a70.36,70.36,0,0,1,16.74-17.07,42.47,42.47,0,0,1,4.2-2.59,35.39,35.39,0,0,1,17.09-4.57,35.79,35.79,0,0,1,18,5.08,48.47,48.47,0,0,1,4.24,2.75h0a71.63,71.63,0,0,1,15.78,16.39c9,12.42,16.63,29.1,22.49,48.79.52,1.75,1,3.52,1.51,5.32q2.81,10.22,4.94,21.36a337,337,0,0,1,5.15,40.61q.6,8.86.77,18Q393.34,971.91,393.33,975.5Z"/><rect class="cls-3" x="2.51" y="490" width="182.97" height="154"/><rect class="cls-3" width="1024" height="1024"/><rect class="cls-3" x="624" y="524" width="400" height="240"/><rect class="cls-3" width="643" height="490"/><rect class="cls-3" y="139.59" width="643" height="350.41"/><path class="cls-2" d="M401.06,325.05c0-38.07-35.48-68.93-79.25-68.93S242.57,287,242.57,325.05h0a173.92,173.92,0,0,0,.54,28.32l12.38,122.91,64.82,5.58h2.74l64.82-5.58,12.55-124.56a175.66,175.66,0,0,0,.71-25Z"/><rect class="cls-3" x="824" y="134" width="200" height="390"/><rect class="cls-3" x="624" y="864.49" width="400" height="159.51"/><rect class="cls-4" x="992" width="32" height="32"/><path class="cls-5" d="M62.68,574.58l23.18-48.09c3.87-8,10.4-8,14.27,0l23.18,48.09c5.89,12.22,1.46,32.29-7.13,32.29H69.81C61.22,606.87,56.79,586.8,62.68,574.58Z"/><path class="cls-2" d="M385.89,950v.35q0,9.1-.3,18-.48,14.83-1.73,28.94c-.27,3.2-.58,6.36-.91,9.49l-.42,3.76q-.78,6.84-1.74,13.44a.06.06,0,0,1,0,0H260a.06.06,0,0,1,0,0q-1-6.6-1.74-13.44l-.42-3.76c-.33-3.13-.64-6.29-.91-9.49-.81-9.26-1.39-18.79-1.71-28.53,0-.14,0-.27,0-.41q-.3-8.89-.3-18V950c0-13.5.48-26.67,1.4-39.38q.81-11.39,2.09-22.24c.28-2.4.57-4.78.89-7.14a384.93,384.93,0,0,1,9-47c4.56-17.4,10.11-32.45,16.43-44.41,0,0,0,0,0,0,.32-.63.66-1.25,1-1.85,10.06-18.35,22-29,34.7-29,13.08,0,25.27,11.19,35.5,30.45.36.66.7,1.32,1,2,6,11.69,11.23,26.17,15.58,42.78a390.54,390.54,0,0,1,9.2,48.27q.38,2.9.71,5.84,1.32,11.26,2.16,23.12C385.43,923.94,385.89,936.82,385.89,950Z"/><rect class="cls-6" x="348.5" y="213.11" width="19.99" height="30.6" rx="10" ry="10"/><rect class="cls-6" x="275.88" y="213.11" width="19.99" height="30.6" rx="10" ry="10" transform="translate(571.75 456.82) rotate(-180)"/><path class="cls-6" d="M326.51,245.79h-9.39a7.11,7.11,0,0,0-6.3,3.81h0a7.12,7.12,0,0,0,2.34,9.22l4.7,3.14a7.12,7.12,0,0,0,7.91,0l4.69-3.14a7.11,7.11,0,0,0,2.35-9.22h0A7.13,7.13,0,0,0,326.51,245.79Z"/><path class="cls-2" d="M384.41,199.09a6.39,6.39,0,0,1-1.91-.3,66.15,66.15,0,0,0-19.13-2.52,6.36,6.36,0,0,1,0-12.71,79,79,0,0,1,22.95,3.12,6.35,6.35,0,0,1-1.91,12.41Z"/><path class="cls-2" d="M260,199.09a6.35,6.35,0,0,1-1.91-12.41A79,79,0,0,1,281,183.56a6.36,6.36,0,0,1,0,12.71,66.13,66.13,0,0,0-19.12,2.52A6.39,6.39,0,0,1,260,199.09Z"/><path class="cls-6" d="M363.71,206.77h0A10.22,10.22,0,0,1,373.92,217V238a0,0,0,0,1,0,0H363.71a10.22,10.22,0,0,1-10.22-10.22V217A10.22,10.22,0,0,1,363.71,206.77Z" transform="translate(141.3 586.11) rotate(-90)"/><path class="cls-6" d="M280.44,206.77h10.22a0,0,0,0,1,0,0v21.06A10.22,10.22,0,0,1,280.44,238h0a10.22,10.22,0,0,1-10.22-10.22V217A10.22,10.22,0,0,1,280.44,206.77Z" transform="translate(58.03 502.84) rotate(-90)"/><rect class="cls-6" x="348.07" y="212.19" width="20.43" height="31.27" rx="10.22" ry="10.22"/><rect class="cls-6" x="275.64" y="212.19" width="20.43" height="31.27" rx="10.22" ry="10.22" transform="translate(571.72 455.65) rotate(180)"/><path class="cls-7" d="M309.22,270.06a13.41,13.41,0,0,1,1.8-.33c.61-.09,1.21-.15,1.82-.23l3.5-.36c2.28-.23,4.45-.46,6.56-.72s4.14-.63,6.23-1.05c.51-.11,1-.23,1.59-.32s1-.29,1.59-.41c1.15-.2,2.17-.66,3.5-.85l.75-.11a3.33,3.33,0,0,1,3.38,4.94,18.88,18.88,0,0,1-1.3,1.95c-.23.32-.48.63-.73.94s-.55.55-.83.82c-.57.54-1.16,1.07-1.77,1.58s-1.3.88-2,1.3a23.39,23.39,0,0,1-8.84,3,25.47,25.47,0,0,1-9.06-.37,23.6,23.6,0,0,1-4.26-1.4,18.23,18.23,0,0,1-2-1,17.34,17.34,0,0,1-2-1.37,3.25,3.25,0,0,1-.57-4.57,3.17,3.17,0,0,1,1.57-1.1Z"/><path class="cls-2" d="M358.51,220.79a3.66,3.66,0,0,0,3.28,4,3.88,3.88,0,1,0-3.28-4Z"/><path class="cls-2" d="M286.4,220.79a3.67,3.67,0,0,0,3.29,4,3.88,3.88,0,0,0,.47-7.71A3.78,3.78,0,0,0,286.4,220.79Z"/><polygon class="cls-2" points="565.41 562.89 564.97 577.34 564.97 636.76 471.01 636.76 471.01 577.35 470.56 562.89 484.08 567.91 495.38 561.91 506.68 567.91 517.98 561.91 529.28 567.91 540.58 561.91 551.89 567.91 565.41 562.89"/><path class="cls-8" d="M175.74,484.58V1024H465V484.58Zm107.65,301.7-.54-1.6-.4-1.24c-.12-.35-.23-.69-.33-1-.33-1-.64-2-.94-3.08-.35-1.2-.69-2.4-1-3.59l-.39-1.48a3,3,0,0,1-.08-.32c-.15-.59-.3-1.19-.44-1.79s-.26-1.06-.38-1.59-.3-1.32-.44-2c-.09-.45-.19-.9-.27-1.34l0-.06a111.61,111.61,0,0,1-2.46-21.81C275.7,713.74,296,717,321.11,717s45.4-3.3,45.4,28.33a111.61,111.61,0,0,1-2.46,21.81s0,0,0,.06-.06.33-.1.5c-.15.75-.32,1.5-.49,2.26l-.12.55c-.12.53-.25,1.06-.38,1.59-.17.7-.34,1.41-.52,2.11l-.39,1.48a152.57,152.57,0,0,1-5.12,15.77q-1.07,2.78-2.25,5.48l-.69,1.56q-1.12,2.49-2.34,4.89l-.72,1.41c-.37.7-.74,1.4-1.12,2.08s-.63,1.13-1,1.68c-.18.33-.37.65-.56,1-.93,1.59-1.9,3.12-2.9,4.57l-.72,1-.54.75c-.24.34-.49.67-.74,1l0,.05-.72.93c-.92,1.18-1.87,2.3-2.83,3.34-.28.31-.57.62-.86.92a39.33,39.33,0,0,1-2.92,2.76c-.19.17-.39.34-.58.49a30.76,30.76,0,0,1-3,2.24c-.34.22-.68.43-1,.63s-.43.26-.65.37l-.52.28L330,829l-.84.4c-.33.16-.67.3-1,.43a1.62,1.62,0,0,1-.28.11,7.64,7.64,0,0,1-.8.29l-.22.08c-.36.12-.72.23-1.08.32h0c-.35.09-.71.18-1.07.25l-.17,0c-.32.07-.63.12-1,.16l-.17,0c-.35,0-.69.08-1,.11h-.05c-.38,0-.77,0-1.16,0s-.78,0-1.16,0h-.05c-.35,0-.69-.06-1-.11l-.16,0c-.32,0-.64-.09-1-.16l-.17,0c-.36-.07-.72-.16-1.07-.25h0c-.36-.09-.72-.2-1.08-.32s-.61-.2-.91-.33-.33-.12-.5-.19-.61-.25-.91-.39-.49-.23-.74-.36l-.3-.15c-.23-.12-.46-.24-.69-.38s-.47-.25-.7-.4a7.47,7.47,0,0,1-.64-.4c-.16-.09-.33-.2-.49-.31a31.46,31.46,0,0,1-2.72-2c-.2-.15-.39-.32-.58-.49a47,47,0,0,1-5.77-6c-.28-.33-.55-.67-.82-1s-.37-.47-.54-.71c-.84-1.09-1.66-2.23-2.46-3.41l-.9-1.36c-.6-.94-1.2-1.9-1.78-2.88-.19-.31-.38-.63-.56-1s-.44-.76-.65-1.14-.34-.6-.5-.9c-.32-.57-.62-1.14-.93-1.72l-.72-1.41q-1.21-2.4-2.34-4.89c-.48-1.07-.95-2.14-1.41-3.23-.75-1.79-1.47-3.61-2.15-5.44,0,0,0,0,0,0C284.23,788.67,283.8,787.48,283.39,786.28Z"/><rect class="cls-9" x="172.9" y="654.47" width="7.84" height="188.74" transform="translate(353.64 1497.67) rotate(-180)"/><rect class="cls-9" x="460" y="654.47" width="7.84" height="188.74" transform="translate(927.84 1497.67) rotate(-180)"/><polygon class="cls-10" points="291.02 968.77 268.5 984.65 293.85 1006.8 246.63 1006.8 252.39 968.77 291.02 968.77"/><path class="cls-11" d="M332.54,975.25H311.23a6.63,6.63,0,0,0-6.63,6.63v11.41a6.63,6.63,0,0,0,6.63,6.63h21.31a6.63,6.63,0,0,0,6.63-6.63V981.88A6.63,6.63,0,0,0,332.54,975.25Zm-24.45,7.14a3.43,3.43,0,0,1,3.43-3.42h20.73a3.42,3.42,0,0,1,3.42,3.42v10.38a3.42,3.42,0,0,1-3.42,3.43H311.52a3.43,3.43,0,0,1-3.43-3.43Z"/><rect class="cls-11" x="314.68" y="977.86" width="4.63" height="19.44"/><path class="cls-11" d="M317,977.86h0a2.31,2.31,0,0,1,2.31,2.31V997.3a0,0,0,0,1,0,0h-4.63a0,0,0,0,1,0,0V980.18A2.31,2.31,0,0,1,317,977.86Z" transform="translate(1304.57 670.59) rotate(90)"/><rect class="cls-8" x="180.74" y="968.37" width="279.26" height="38.43"/><rect class="cls-8" x="180.74" y="494.89" width="279.26" height="38.43"/><path class="cls-12" d="M431.62,852.78v9.35a11.8,11.8,0,0,1-2.23,6.85c-26.89,37.44-65.45,60.91-108.29,60.91S239.71,906.42,212.82,869a11.8,11.8,0,0,1-2.23-6.85V853a11.62,11.62,0,0,1,17.2-10.17l.32.17a35.26,35.26,0,0,1,16.46,18.77A42.88,42.88,0,0,0,299,887.24a67.56,67.56,0,0,1,44.82,0,42.86,42.86,0,0,0,54.38-25.43,35.44,35.44,0,0,1,16.22-19l.18-.1A11.5,11.5,0,0,1,431.62,852.78Z"/><rect class="cls-9" x="180.74" y="997.3" width="279.26" height="13.26"/><rect class="cls-9" x="180.74" y="494.16" width="279.26" height="13.58"/><rect class="cls-8" x="205.31" y="834.28" width="229.44" height="116.08"/><path class="cls-13" d="M377.33,885.09c-10.89,12.3-32,20.64-56.22,20.64-24.58,0-45.93-8.57-56.67-21.16A42.95,42.95,0,0,0,299,887.24a67.56,67.56,0,0,1,44.82,0,42.92,42.92,0,0,0,33.53-2.15Z"/><g class="cls-14"><rect x="164.96" y="654.47" width="7.84" height="188.74" transform="translate(337.77 1497.67) rotate(-180)"/><rect x="467.85" y="654.47" width="7.84" height="188.74" transform="translate(943.55 1497.67) rotate(-180)"/></g><g class="cls-15"><path class="cls-16" d="M364.05,767.18c-6.13,29.92-23,64.1-42.94,64.1s-36.82-34.18-42.95-64.1c7.67,27.58,24,55.75,42.95,55.75S356.38,794.76,364.05,767.18Z"/></g><rect class="cls-17" x="631.59" y="786.3" width="383.62" height="16.15"/><path class="cls-18" d="M682.15,786.3a48.75,48.75,0,0,1-48.75,48.75V786.3Z"/><path class="cls-19" d="M770.35,786.3a48.75,48.75,0,0,0,48.75,48.75V786.3Z"/><rect class="cls-20" x="643" width="381" height="134"/><rect class="cls-21" x="643" y="134" width="181" height="390"/><polygon class="cls-2" points="685.44 439.39 707.95 424.66 745.85 424.66 766.21 445.84 763.57 471.33 735.92 484.58 701.16 478.78 685.44 439.39"/><polygon class="cls-2" points="685.44 264.47 707.95 249.74 745.85 249.74 766.21 270.93 763.57 296.42 735.92 309.66 701.16 303.87 685.44 264.47"/><rect class="cls-2" x="713.32" y="395.74" width="26.58" height="5.41" rx="2.7" ry="2.7"/><rect class="cls-2" x="713.32" y="386.11" width="26.58" height="5.41" rx="2.7" ry="2.7"/><rect class="cls-2" x="713.32" y="405.83" width="26.58" height="5.41" rx="2.7" ry="2.7"/><rect class="cls-2" x="713.32" y="221.15" width="26.58" height="5.41" rx="2.7" ry="2.7"/><rect class="cls-2" x="713.32" y="210.84" width="26.58" height="5.41" rx="2.7" ry="2.7"/><rect class="cls-2" x="713.32" y="231.25" width="26.58" height="5.41" rx="2.7" ry="2.7"/><path class="cls-22" d="M806,315.06l-8.41,15.88-.11,13.64L779,393.74l-11.25,31.05L756,456.55a25.15,25.15,0,0,1-7.8,10.82h0a25.17,25.17,0,0,1-11.82,5.27l-6,1a25.15,25.15,0,0,1-9.7-.34l-4.78-1.11a25.16,25.16,0,0,1-12.13-6.73l-.59-.59a25.08,25.08,0,0,1-5.47-8.21L689.55,437l-11.5-28.5-4-13.8-6-26.11L666.6,353l-.05-26.66h-20.5V483.78l57.24,18H797l13-48,10.5-98.48V319.61Z"/><path class="cls-22" d="M806,139.59l-8.17,15.88-.12,13.64L779,218.27l-11.25,31L756,281.09a25.15,25.15,0,0,1-7.8,10.82h0a25.15,25.15,0,0,1-11.82,5.26l-6,1a25.14,25.14,0,0,1-9.7-.33l-4.78-1.11A25.32,25.32,0,0,1,703.69,290l-.59-.59a25,25,0,0,1-5.47-8.22l-8.08-19.59-11.5-28.5-4-13.8-6-26.1L666.6,177.5l-.05-26.65h-20.5V308.31l57.24,18H797l13-48,10.5-98.49V144.14Z"/><path class="cls-2" d="M692.28,330.68l3.64,22.77a23.6,23.6,0,0,0,5.46,11.72l8.31,9.59a23.6,23.6,0,0,0,17.82,8.13h0a23.59,23.59,0,0,0,14.58-5.05l3.43-2.7a23.55,23.55,0,0,0,5.29-5.84l4.8-7.53a23.4,23.4,0,0,0,2.21-4.42L768.42,329H692.28Z"/><path class="cls-2" d="M692.28,154.72l3.64,22.77a23.6,23.6,0,0,0,5.46,11.72l8.31,9.58a23.58,23.58,0,0,0,17.82,8.14h0a23.59,23.59,0,0,0,14.58-5.05l3.43-2.71a23.37,23.37,0,0,0,5.29-5.84l4.8-7.52a23.79,23.79,0,0,0,2.21-4.43L768.42,153H692.28Z"/><rect class="cls-21" x="624" y="764" width="400" height="109.12"/><rect class="cls-2" x="631.59" y="968.54" width="383.62" height="48.93"/><rect class="cls-22" x="631.59" y="968.54" width="383.62" height="6.96"/><rect class="cls-23" x="624" y="864.42" width="400" height="8.7"/><rect class="cls-23" x="624" y="786.3" width="400" height="16.15"/><path class="cls-24" d="M682.15,786.3a48.75,48.75,0,0,1-48.75,48.75V786.3Z"/><path class="cls-25" d="M770.35,786.3a48.75,48.75,0,0,0,48.75,48.75V786.3Z"/><rect class="cls-26" x="992" width="32" height="32"/><path class="cls-27" d="M980,329.53l-48.4-11.38s-28.22,2.88-30.65,8.64a53.46,53.46,0,0,0-2.28,7.15l-19,3.63,1.82,5.46L884,355.78l1.13,12.9-5.47,15.41-.84,16.68-7,11.77-12.33,13.31,13.26,8.75L871.2,436l20.48,15.47,18.2-2.27,25.79,1.21,17.15,10.17,25.33-3.49s4-.91,4.56-12.59,7.43-58.42,7.43-58.42V346.82Zm-47.89,72.89a5.31,5.31,0,0,1-5.77,4.79l-8.63-.81a5.3,5.3,0,0,1-4.78-5.77l2.26-24.29a5.3,5.3,0,0,1,5.77-4.79l8.62.8a5.3,5.3,0,0,1,4.79,5.77Z"/><path class="cls-28" d="M903.48,647.45c0,.49-9.11,32.36-9.11,32.36L938.77,714,988,687.13s1-34,1-35.15-10.78-22.62-10.78-22.62l-39.12-11.25-23.89,4.12Z"/><path class="cls-28" d="M786,647.72c0,.49-9.1,32.37-9.1,32.37l44.39,34.15,49.27-26.84s1-34,1-35.15-10.79-22.61-10.79-22.61l-39.12-11.26-23.88,4.12Z"/><path class="cls-27" d="M979.73,154.71l-48.4-11.38s-28.22,2.88-30.65,8.65a51.91,51.91,0,0,0-2.27,7.14l-19,3.63,1.82,5.47L883.75,181l1.12,12.89-5.47,15.42L878.56,226l-7,11.78L859.22,251l13.27,8.74L871,261.21l20.48,15.48,18.21-2.28,25.79,1.22,17.14,10.16,25.34-3.49s3.94-.91,4.55-12.59,7.43-58.41,7.43-58.41V172ZM931.84,227.6a5.3,5.3,0,0,1-5.77,4.79l-8.62-.8a5.3,5.3,0,0,1-4.79-5.77l2.26-24.3a5.3,5.3,0,0,1,5.77-4.79l8.62.8a5.3,5.3,0,0,1,4.79,5.77Z"/><path class="cls-29" d="M353.47,860.66a22.87,22.87,0,0,0-32.36,0,22.89,22.89,0,0,0-32.37,0h0a22.89,22.89,0,0,0,0,32.37l16.18,16.18,16.19,16.18,16.18-16.18L353.47,893A22.89,22.89,0,0,0,353.47,860.66Z"/></g></g></g></svg>