<svg xmlns="http://www.w3.org/2000/svg" xmlns:xlink="http://www.w3.org/1999/xlink" viewBox="0 0 1024 1024"><defs><style>.cls-1{isolation:isolate;}.cls-2{fill:#fff;}.cls-3{fill:#e54325;}.cls-4{fill:#faae73;}.cls-5{fill:red;}.cls-6{fill:#220f0f;}.cls-7{fill:#c7b299;}.cls-8{fill:#4c0d08;}.cls-9{fill:#736357;}.cls-10,.cls-17,.cls-18{opacity:0.25;}.cls-10,.cls-17,.cls-19,.cls-20{mix-blend-mode:overlay;}.cls-10{fill:url(#radial-gradient);}.cls-11{fill:#61150d;}.cls-12{fill:#abbfcf;}.cls-13{fill:url(#linear-gradient);}.cls-14{fill:#ee826a;}.cls-15{fill:#998675;}.cls-16{fill:#7f3116;}.cls-18{fill:#51221e;mix-blend-mode:multiply;}.cls-19,.cls-20{opacity:0.3;}.cls-19{fill:url(#linear-gradient-2);}.cls-20{fill:url(#linear-gradient-3);}.cls-21{fill:blue;}</style><radialGradient id="radial-gradient" cx="296.28" cy="899.86" r="75.75" gradientTransform="matrix(0.98, 0.17, -0.23, 1.32, 214.88, -336.1)" gradientUnits="userSpaceOnUse"><stop offset="0"/><stop offset="0.87" stop-opacity="0.13"/><stop offset="1" stop-opacity="0"/></radialGradient><linearGradient id="linear-gradient" x1="268.86" y1="987.59" x2="342.41" y2="988.55" gradientUnits="userSpaceOnUse"><stop offset="0" stop-opacity="0"/><stop offset="1"/></linearGradient><linearGradient id="linear-gradient-2" x1="657.77" y1="835.05" x2="657.77" y2="786.3" xlink:href="#linear-gradient"/><linearGradient id="linear-gradient-3" x1="794.72" y1="835.05" x2="794.72" y2="786.3" xlink:href="#linear-gradient"/></defs><title>animalH</title><g class="cls-1"><g id="Layer_2" data-name="Layer 2"><g id="SkinComplete"><path class="cls-2" d="M393.33,975.5c0,10.7-.45,21.16-1.31,31.3q-.74,8.78-1.88,17.2H250.6q-1.14-8.41-1.88-17.2c-.86-10.14-1.31-20.6-1.31-31.3q0-3.59.07-7.13c0-1.58.07-3.15.11-4.71,2.31-73.86,26-134.33,57.1-149.77a34.86,34.86,0,0,1,15.68-3.84,35.3,35.3,0,0,1,16.83,4.43c30.55,16.34,53.67,76.23,55.95,149.18,0,1.56.08,3.13.11,4.71,0,.62,0,1.25,0,1.88C393.32,972,393.33,973.74,393.33,975.5Z"/><rect class="cls-3" x="2.51" y="490" width="182.97" height="154"/><rect class="cls-3" width="1024" height="1024"/><rect class="cls-3" width="643" height="490"/><rect class="cls-3" y="139.59" width="643" height="350.41"/><path class="cls-4" d="M401.06,325.05c0-38.07-35.48-68.93-79.25-68.93S242.57,287,242.57,325.05h0a173.92,173.92,0,0,0,.54,28.32l12.38,122.91,64.82,5.58h2.74l64.82-5.58,12.55-124.56a175.66,175.66,0,0,0,.71-25Z"/><rect class="cls-3" x="824" y="134" width="200" height="390"/><rect class="cls-3" x="624" y="864.49" width="400" height="159.51"/><rect class="cls-5" x="992" width="32" height="32"/><path class="cls-4" d="M62.68,574.58l23.18-48.09c3.87-8,10.4-8,14.27,0l23.18,48.09c5.89,12.22,1.46,32.29-7.13,32.29H69.81C61.22,606.87,56.79,586.8,62.68,574.58Z"/><path class="cls-4" d="M393.33,950q0,6.88-.18,13.66c0,1.58-.1,3.15-.16,4.71,0,.63,0,1.25-.07,1.88-.5,12.59-1.48,24.81-2.87,36.55q-1.05,8.79-2.4,17.2H253.09q-1.35-8.4-2.4-17.2c-1.46-12.32-2.46-25.18-2.94-38.43-.06-1.56-.11-3.13-.16-4.71q-.18-6.76-.18-13.66c0-74,16.08-138.15,39.59-169.85,10-13.49,21.34-21.1,33.37-21.1s23.45,7.66,33.47,21.24c9.83,13.3,18.36,32.29,24.94,55.29C387.92,867.47,393.33,907.08,393.33,950Z"/><ellipse class="cls-3" cx="362.5" cy="228.41" rx="26.3" ry="30.72" transform="translate(-62.17 171.55) rotate(-24.59)"/><rect class="cls-6" x="348.5" y="213.11" width="19.99" height="30.6" rx="10" ry="10"/><rect class="cls-6" x="275.88" y="213.11" width="19.99" height="30.6" rx="10" ry="10" transform="translate(571.75 456.82) rotate(180)"/><path class="cls-4" d="M260.8,207.41a56.86,56.86,0,0,1,39.05,5c2.37,1.28,3.31-2.1,1.15-4.09a68.08,68.08,0,0,0-24-14.08c-6.9-2.37-14.9,3.26-17.83,10.78C258.63,206.51,259.39,207.6,260.8,207.41Z"/><path class="cls-4" d="M383.64,208a56.8,56.8,0,0,0-39.17,3.91c-2.41,1.21-3.26-2.2-1-4.12a67.94,67.94,0,0,1,24.36-13.38c7-2.17,14.8,3.68,17.51,11.28C385.84,207.19,385,208.26,383.64,208Z"/><path class="cls-3" d="M321.94,281.44a5.86,5.86,0,0,1,3.69,2.09,2.54,2.54,0,0,1-2.36,4.11l-4.43-.66a2.55,2.55,0,0,1-1-4.63A5.89,5.89,0,0,1,321.94,281.44Z"/><polygon class="cls-2" points="336.72 269.79 336.15 277.91 329.65 270.83 336.72 269.79"/><polygon class="cls-2" points="306.91 269.79 307.48 277.91 313.98 270.83 306.91 269.79"/><path class="cls-6" d="M338.77,269.12a2.23,2.23,0,0,0-2.29-2,124,124,0,0,1-14.7.71,121.11,121.11,0,0,1-14.7-.42,2.28,2.28,0,0,0-.19,4.54,129.47,129.47,0,0,0,14.94.42,130.84,130.84,0,0,0,14.95-.72A2.23,2.23,0,0,0,338.77,269.12Z"/><path class="cls-6" d="M326.51,245.79h-9.39a7.11,7.11,0,0,0-6.3,3.81h0a7.12,7.12,0,0,0,2.34,9.22l4.7,3.14a7.12,7.12,0,0,0,7.91,0l4.69-3.14a7.11,7.11,0,0,0,2.35-9.22h0A7.13,7.13,0,0,0,326.51,245.79Z"/><path class="cls-2" d="M358.51,220.79a3.66,3.66,0,0,0,3.28,4,3.88,3.88,0,1,0-3.28-4Z"/><path class="cls-2" d="M286.4,220.79a3.67,3.67,0,0,0,3.29,4,3.88,3.88,0,0,0,.47-7.71A3.78,3.78,0,0,0,286.4,220.79Z"/><polygon class="cls-4" points="565.41 562.89 564.97 577.34 564.97 636.76 471.01 636.76 471.01 577.35 470.56 562.89 484.08 567.91 495.38 561.91 506.68 567.91 517.98 561.91 529.28 567.91 540.58 561.91 551.89 567.91 565.41 562.89"/><path class="cls-7" d="M170,490v534H451V490ZM281.42,769.51l-8-24.43L279,721.79l24-3.65,17.69-1.22,16.72,1.22,24,3.65,5.54,23.29-7.77,24.37-5.28,10.84-.72,1.48c-13,26.76-50.94,27.32-64.76,1L287,780.15Z"/><rect class="cls-8" x="643" width="381" height="134"/><rect class="cls-9" x="643" y="134" width="181" height="390"/><rect class="cls-8" x="128.74" y="654.47" width="35.33" height="188.74" transform="translate(292.81 1497.67) rotate(-180)"/><rect class="cls-8" x="476.67" y="654.47" width="35.33" height="188.74"/><polygon class="cls-10" points="328.25 970.25 312.37 933.73 321.7 846.33 340.08 808.57 394.18 846.33 394.18 970.25 328.25 970.25"/><rect class="cls-11" y="968.37" width="629.1" height="38.43"/><rect class="cls-11" x="178.1" y="494.89" width="272.9" height="38.43"/><path class="cls-12" d="M336,971.44H307.82a8.76,8.76,0,0,0-8.76,8.75v15.07a8.76,8.76,0,0,0,8.76,8.75H336a8.75,8.75,0,0,0,8.75-8.75V980.19A8.75,8.75,0,0,0,336,971.44Zm4.13,23.13a4.52,4.52,0,0,1-4.51,4.53H308.2a4.53,4.53,0,0,1-4.53-4.53v-13.7a4.52,4.52,0,0,1,4.53-4.52h27.37a4.51,4.51,0,0,1,4.51,4.52Z"/><rect class="cls-12" x="312.37" y="974.89" width="6.11" height="25.66"/><path class="cls-12" d="M315.42,974.89h0a3.05,3.05,0,0,1,3.05,3.05v22.61a0,0,0,0,1,0,0h-6.11a0,0,0,0,1,0,0V977.95A3.05,3.05,0,0,1,315.42,974.89Z" transform="translate(1303.15 672.3) rotate(90)"/><polygon class="cls-13" points="300.83 968.63 276.95 984.56 303.83 1006.76 253.77 1006.76 259.88 968.63 300.83 968.63"/><polygon class="cls-14" points="161.4 738.07 162.34 746.03 176.18 742.05 171.15 732.2 161.4 738.07"/><path class="cls-11" d="M980,334.64l-48.4-11.38s-28.22,2.88-30.65,8.64a53.46,53.46,0,0,0-2.28,7.15l-19,3.63,1.82,5.46L884,360.89l1.13,12.9-5.47,15.41-.84,16.68-7,11.77L859.47,431l13.26,8.75-1.53,1.43,20.48,15.47,18.2-2.27,25.79,1.21,17.15,10.17,25.33-3.49s4-.91,4.56-12.59,7.43-58.42,7.43-58.42V351.93Zm-47.89,72.89a5.31,5.31,0,0,1-5.77,4.79l-8.63-.81a5.3,5.3,0,0,1-4.78-5.77l2.26-24.29a5.3,5.3,0,0,1,5.77-4.79l8.62.8a5.3,5.3,0,0,1,4.79,5.77Z"/><path class="cls-11" d="M903.48,653c0,.49-9.11,32.36-9.11,32.36l44.4,34.15L988,692.72s1-34,1-35.15S978.23,635,978.23,635L939.11,623.7l-23.89,4.12Z"/><path class="cls-8" d="M786,653.31c0,.49-9.1,32.37-9.1,32.37l44.39,34.15L870.52,693s1-34,1-35.15-10.79-22.61-10.79-22.61L821.59,624l-23.88,4.12Z"/><path class="cls-11" d="M979.73,160.3l-48.4-11.38s-28.22,2.88-30.65,8.65a51.91,51.91,0,0,0-2.27,7.14l-19,3.63,1.82,5.47,2.53,12.75,1.12,12.89-5.47,15.42-.84,16.67-7,11.78-12.34,13.31,13.27,8.74L871,266.8l20.48,15.48L909.64,280l25.79,1.22,17.14,10.16,25.34-3.49s3.94-.91,4.55-12.59,7.43-58.41,7.43-58.41v-39.3Zm-47.89,72.89a5.3,5.3,0,0,1-5.77,4.79l-8.62-.8a5.3,5.3,0,0,1-4.79-5.77l2.26-24.3a5.3,5.3,0,0,1,5.77-4.79l8.62.8a5.3,5.3,0,0,1,4.79,5.77Z"/><rect class="cls-8" x="713.32" y="394.74" width="26.58" height="5.41" rx="2.7" ry="2.7"/><rect class="cls-8" x="713.32" y="405.83" width="26.58" height="5.41" rx="2.7" ry="2.7"/><rect class="cls-8" x="713.32" y="416.93" width="26.58" height="5.41" rx="2.7" ry="2.7"/><rect class="cls-8" x="713.32" y="220.15" width="26.58" height="5.41" rx="2.7" ry="2.7"/><rect class="cls-8" x="713.32" y="231.25" width="26.58" height="5.41" rx="2.7" ry="2.7"/><rect class="cls-8" x="713.32" y="242.34" width="26.58" height="5.41" rx="2.7" ry="2.7"/><path class="cls-8" d="M806,315.06l-8.41,15.88-.11,13.64L779,393.74l-11.25,31.05L756,456.55a25.15,25.15,0,0,1-7.8,10.82h0a25.17,25.17,0,0,1-11.82,5.27l-6,1a25.15,25.15,0,0,1-9.7-.34l-4.78-1.11a25.16,25.16,0,0,1-12.13-6.73l-.59-.59a25.08,25.08,0,0,1-5.47-8.21L689.55,437l-11.5-28.5-4-13.8-6-26.11L666.6,353l-.05-26.66h-20.5V483.78l57.24,18H797l13-48,10.5-98.48V319.61Z"/><path class="cls-8" d="M806,139.59l-8.41,15.88-.11,13.64L779,218.27l-11.25,31L756,281.09a25.15,25.15,0,0,1-7.8,10.82h0a25.15,25.15,0,0,1-11.82,5.26l-6,1a25.14,25.14,0,0,1-9.7-.33l-4.78-1.11A25.32,25.32,0,0,1,703.69,290l-.59-.59a25,25,0,0,1-5.47-8.22l-8.08-19.59-11.5-28.5-4-13.8-6-26.1L666.6,177.5l-.05-26.65h-20.5V308.31l57.24,18H797l13-48,10.5-98.49V144.14Z"/><rect class="cls-9" x="149.18" y="654.47" width="31.56" height="188.74" transform="translate(329.93 1497.67) rotate(-180)"/><polygon class="cls-15" points="194.91 654.47 212.12 681.05 218.57 725.5 217.36 763.65 208.29 812.23 183.69 819.12 180.74 843.21 180.74 654.47 194.91 654.47"/><rect class="cls-9" x="460" y="654.47" width="31.56" height="188.74"/><rect class="cls-11" x="598.21" y="666.56" width="22.53" height="150.49"/><rect class="cls-16" x="598.21" y="809.13" width="22.53" height="7.92"/><rect class="cls-16" x="598.21" y="793.29" width="22.53" height="7.92"/><rect class="cls-16" x="598.21" y="777.45" width="22.53" height="7.92"/><rect class="cls-16" x="598.21" y="761.61" width="22.53" height="7.92"/><rect class="cls-16" x="598.21" y="745.77" width="22.53" height="7.92"/><rect class="cls-16" x="598.21" y="729.93" width="22.53" height="7.92"/><rect class="cls-16" x="598.21" y="714.09" width="22.53" height="7.92"/><rect class="cls-16" x="598.21" y="698.25" width="22.53" height="7.92"/><rect class="cls-16" x="598.21" y="682.4" width="22.53" height="7.92"/><rect class="cls-16" x="598.21" y="666.56" width="22.53" height="7.92"/><rect class="cls-11" x="598.21" y="658.64" width="22.53" height="7.92"/><polygon class="cls-15" points="445.83 654.47 428.62 681.05 422.17 725.5 423.38 763.65 432.45 812.23 457.05 819.12 460 843.21 460 654.47 445.83 654.47"/><path class="cls-8" d="M353.12,781.77,321.7,846.33l-33.34-63.59C302.18,809.09,340.1,808.53,353.12,781.77Z"/><g class="cls-17"><path d="M320.63,721.93l16.17,1.18,20.47,3.12,4.43,18.65-7.24,22.71-32.93,67.66-35.48-67.69-7.44-22.7L283,726.23l20.46-3.12,17.13-1.18m0-5L303,718.14l-24,3.65-5.54,23.29,8,24.43,40.28,76.82,37.42-76.88,7.77-24.37-5.54-23.29-24-3.65-16.72-1.22Z"/></g><g class="cls-17"><path d="M320.64,716.92l16.72,1.22,24,3.65,5.54,23.29-7.77,24.37L321.7,846.33l-40.28-76.82-8-24.43L279,721.79l24-3.65,17.69-1.22m0-5-.36,0-17.68,1.22-.21,0-.2,0-24,3.65-3.33.5-.78,3.28-5.54,23.29-.33,1.38.44,1.34,8,24.43.13.39.2.37,40.27,76.82,4.6,8.77,4.33-8.9,37.41-76.88.16-.33.11-.34,7.77-24.37.42-1.32-.32-1.36-5.54-23.29-.78-3.28-3.33-.5-24-3.65-.19,0-.2,0L321,711.93l-.35,0Z"/></g><circle class="cls-15" cx="332.7" cy="872.7" r="3.7"/><circle class="cls-15" cx="329.14" cy="901.63" r="3.7"/><circle class="cls-15" cx="325.58" cy="930.57" r="3.7"/><polygon class="cls-8" points="794.72 589.87 798.59 637.35 846.08 641.9 854.71 629.43 859.26 594.42 829.77 575.48 794.72 579.31 794.72 589.87"/><polygon class="cls-8" points="761.18 619.84 794.72 656.05 788.04 688.43 753.75 674.28 743.2 637.35 761.18 619.84"/><rect class="cls-11" x="15.17" y="666.56" width="27.41" height="150.49"/><rect class="cls-16" x="15.17" y="809.13" width="27.41" height="7.92"/><rect class="cls-16" x="15.17" y="793.29" width="27.41" height="7.92"/><rect class="cls-16" x="15.17" y="777.45" width="27.41" height="7.92"/><rect class="cls-16" x="15.17" y="761.61" width="27.41" height="7.92"/><rect class="cls-16" x="15.17" y="745.77" width="27.41" height="7.92"/><rect class="cls-16" x="15.17" y="729.93" width="27.41" height="7.92"/><rect class="cls-16" x="15.17" y="714.09" width="27.41" height="7.92"/><rect class="cls-16" x="15.17" y="698.25" width="27.41" height="7.92"/><rect class="cls-16" x="15.17" y="682.4" width="27.41" height="7.92"/><rect class="cls-16" x="15.17" y="666.56" width="27.41" height="7.92"/><rect class="cls-11" x="15.17" y="658.64" width="27.41" height="7.92"/><rect class="cls-18" x="409.41" y="735.57" width="168.74" height="6.53" transform="translate(-245.06 1232.61) rotate(-90)"/><rect class="cls-15" x="624" y="764" width="400" height="109.12"/><rect class="cls-9" x="624" y="864.42" width="400" height="8.7"/><rect class="cls-9" x="624" y="775.88" width="400" height="26.57"/><path class="cls-19" d="M682.15,786.3a48.75,48.75,0,0,1-48.75,48.75V786.3Z"/><path class="cls-20" d="M770.35,786.3a48.75,48.75,0,0,0,48.75,48.75V786.3Z"/><rect class="cls-21" x="992" width="32" height="32"/><rect class="cls-11" x="629.1" y="991.91" width="394.9" height="29.13"/></g></g></g></svg>