<svg xmlns="http://www.w3.org/2000/svg" viewBox="0 0 1024 1024"><defs><style>.cls-1{fill:#fff;}.cls-2{fill:#666;}.cls-3{fill:#e6e6e6;}.cls-4{fill:red;}.cls-5{fill:#f7a3a0;}.cls-6{fill:#220f0f;}.cls-7{fill:#abbfcf;}</style></defs><title>animalBaseC</title><g id="Layer_2" data-name="Layer 2"><g id="SkinComplete"><path class="cls-1" d="M393.33,975.5c0,1,0,1.92,0,2.87q-.1,14.57-1.3,28.43c-.09,1.17-.2,2.34-.31,3.5q-.66,7-1.57,13.7H250.6q-.91-6.74-1.57-13.7c-.11-1.16-.22-2.33-.31-3.5q-1.18-13.84-1.3-28.43c0-1,0-1.91,0-2.87q0-6,.18-11.84.33-10.23,1.18-20.08c.8-9.29,1.94-18.3,3.4-27s3.17-16.72,5.18-24.51c.38-1.49.77-3,1.18-4.43q2.25-8.16,4.91-15.64,2.32-6.62,5-12.67c7-16.14,15.46-29,24.9-37.56,8.36-7.59,17.5-11.76,27.06-11.76s18.7,4.17,27.06,11.76c9.77,8.85,18.5,22.35,25.65,39.31q2.22,5.25,4.22,10.92c1.85,5.2,3.55,10.67,5.11,16.36.34,1.23.67,2.46,1,3.71.44,1.69.86,3.39,1.27,5.12,1.79,7.52,3.32,15.39,4.58,23.55,1.14,7.37,2.06,15,2.73,22.8q.86,9.84,1.18,20.08Q393.33,969.53,393.33,975.5Z"/><rect class="cls-2" x="2.51" y="490" width="182.97" height="154"/><rect class="cls-2" width="1024" height="1024"/><rect class="cls-2" width="643" height="490"/><rect class="cls-2" y="139.59" width="643" height="350.41"/><path class="cls-3" d="M401.06,325.05c0-38.07-35.48-68.93-79.25-68.93S242.57,287,242.57,325.05h0a173.92,173.92,0,0,0,.54,28.32l12.38,122.91,64.82,5.58h2.74l64.82-5.58,12.55-124.56a175.66,175.66,0,0,0,.71-25Z"/><rect class="cls-2" x="824" y="134" width="200" height="390"/><rect class="cls-2" x="624" y="864.49" width="400" height="159.51"/><rect class="cls-4" x="992" width="32" height="32"/><path class="cls-5" d="M62.68,574.58l23.18-48.09c3.87-8,10.4-8,14.27,0l23.18,48.09c5.89,12.22,1.46,32.29-7.13,32.29H69.81C61.22,606.87,56.79,586.8,62.68,574.58Z"/><path class="cls-3" d="M393.33,950q0,6.88-.18,13.66-.21,7.44-.62,14.71c-.55,9.74-1.39,19.24-2.48,28.43-.14,1.17-.29,2.34-.43,3.5q-.89,7-2,13.7H253.09q-1.08-6.72-2-13.7c-.14-1.16-.29-2.33-.43-3.5-1.09-9.19-1.93-18.69-2.48-28.43q-.42-7.26-.62-14.71-.18-6.76-.18-13.66,0-3.22,0-6.42c.15-11.85.71-23.43,1.66-34.64q.7-8.57,1.72-16.83c.28-2.35.58-4.67.9-7q.92-6.66,2-13.09.78-4.54,1.64-9c2.05-10.45,4.45-20.33,7.17-29.55q1-3.45,2.09-6.76,1.78-5.58,3.76-10.79c6.4-17,14-30.89,22.46-40.68a64.43,64.43,0,0,1,7.55-7.45c6.93-5.71,14.3-8.79,21.95-8.79,8.08,0,15.85,3.43,23.11,9.78a65.55,65.55,0,0,1,7.45,7.73c8.37,10.11,15.87,24.23,22.15,41.43.88,2.38,1.72,4.83,2.55,7.33.49,1.47,1,3,1.43,4.49A333.6,333.6,0,0,1,387,872q.56,3.24,1.07,6.56.58,3.78,1.1,7.65.4,2.91.75,5.86,1.36,11.11,2.19,22.78c.66,9.34,1.07,18.92,1.19,28.69Q393.34,946.78,393.33,950Z"/><ellipse class="cls-3" cx="362.5" cy="228.41" rx="26.3" ry="30.72" transform="translate(-62.17 171.55) rotate(-24.59)"/><rect class="cls-6" x="348.5" y="213.11" width="19.99" height="30.6" rx="10" ry="10"/><rect class="cls-6" x="275.88" y="213.11" width="19.99" height="30.6" rx="10" ry="10" transform="translate(571.75 456.82) rotate(180)"/><path class="cls-6" d="M383.68,216.91a56.87,56.87,0,0,0-39.05,5c-2.36,1.28-3.31-2.1-1.15-4.09a68.17,68.17,0,0,1,24-14.08c6.9-2.37,14.9,3.26,17.84,10.78C385.85,216,385.09,217.1,383.68,216.91Z"/><path class="cls-6" d="M260.84,208A56.82,56.82,0,0,1,300,211.94c2.4,1.21,3.25-2.2,1-4.12a67.82,67.82,0,0,0-24.35-13.38c-7-2.17-14.8,3.68-17.52,11.28C258.65,207.19,259.44,208.26,260.84,208Z"/><path class="cls-2" d="M322.94,281.44a5.84,5.84,0,0,0-3.69,2.09,2.54,2.54,0,0,0,2.36,4.11L326,287a2.55,2.55,0,0,0,1-4.63A5.86,5.86,0,0,0,322.94,281.44Z"/><path class="cls-6" d="M308.87,274.44l-1.83-.12a2.51,2.51,0,0,1,.3-5h0c11.68.82,25.45-.31,27.27-3.3a2,2,0,0,1,3-.67,2.7,2.7,0,0,1,.54,3.46C334.41,275.11,316.62,274.86,308.87,274.44Z"/><path class="cls-6" d="M326.51,245.79h-9.39a7.11,7.11,0,0,0-6.3,3.81h0a7.12,7.12,0,0,0,2.34,9.22l4.7,3.14a7.12,7.12,0,0,0,7.91,0l4.69-3.14a7.11,7.11,0,0,0,2.35-9.22h0A7.13,7.13,0,0,0,326.51,245.79Z"/><path class="cls-1" d="M358.51,220.79a3.66,3.66,0,0,0,3.28,4,3.88,3.88,0,1,0-3.28-4Z"/><path class="cls-1" d="M286.4,220.79a3.67,3.67,0,0,0,3.29,4,3.88,3.88,0,0,0,.47-7.71A3.78,3.78,0,0,0,286.4,220.79Z"/><polygon class="cls-3" points="565.41 562.89 564.97 577.34 564.97 636.76 471.01 636.76 471.01 577.35 470.56 562.89 484.08 567.91 495.38 561.91 506.68 567.91 517.98 561.91 529.28 567.91 540.58 561.91 551.89 567.91 565.41 562.89"/><rect class="cls-7" x="643" width="381" height="134"/><polygon class="cls-3" points="685.44 264.47 707.95 249.74 745.85 249.74 766.21 270.93 802.62 281.64 772.27 317.95 731.97 325.06 687.32 319.15 647.96 284.21 685.44 264.47"/><polygon class="cls-3" points="685.44 439.39 707.95 424.66 745.85 424.66 766.21 445.84 802.62 456.56 772.27 492.86 731.97 499.98 687.32 494.07 647.96 459.13 685.44 439.39"/><path class="cls-3" d="M654.75,785.69c0,21.1,31.83,38.21,71.09,38.21s71.09-17.11,71.09-38.21Z"/></g></g></svg>