<svg xmlns="http://www.w3.org/2000/svg" xmlns:xlink="http://www.w3.org/1999/xlink" viewBox="0 0 1024 1024"><defs><style>.cls-1{isolation:isolate;}.cls-2{fill:#fff;}.cls-3{fill:#f58c6a;}.cls-4{fill:#f69878;}.cls-15,.cls-5{opacity:0.15;}.cls-15,.cls-22,.cls-23,.cls-24,.cls-29,.cls-30,.cls-39,.cls-44,.cls-5{mix-blend-mode:overlay;}.cls-5{fill:url(#linear-gradient);}.cls-6{fill:#f37b67;}.cls-7{fill:url(#linear-gradient-2);}.cls-8{fill:url(#linear-gradient-3);}.cls-9{fill:red;}.cls-10,.cls-22,.cls-43{opacity:0.1;}.cls-10,.cls-18{mix-blend-mode:multiply;}.cls-10{fill:url(#linear-gradient-4);}.cls-11{fill:#998675;}.cls-12{fill:#c7b299;}.cls-13{fill:#7f7269;}.cls-14{fill:#324656;}.cls-16{fill:#9badb8;}.cls-17{fill:#576a7b;}.cls-18,.cls-23,.cls-24,.cls-27,.cls-29,.cls-30,.cls-44{opacity:0.25;}.cls-19{fill:#e97424;}.cls-20{fill:url(#linear-gradient-5);}.cls-21{fill:#ccdde7;}.cls-23{fill:url(#linear-gradient-6);}.cls-24{fill:url(#linear-gradient-7);}.cls-25{fill:lime;}.cls-26,.cls-27{fill:#ee4042;}.cls-28{fill:#220f0f;}.cls-30,.cls-42{fill:none;stroke-miterlimit:10;}.cls-30{stroke:#000;stroke-linecap:round;stroke-width:5px;}.cls-31{fill:blue;}.cls-32{fill:#7d8c9b;}.cls-33{fill:#7c8d9c;}.cls-34{fill:#495b6c;}.cls-35{fill:#abbac3;}.cls-36{fill:#475969;}.cls-37{fill:#7a8997;}.cls-38{fill:#475869;}.cls-39{opacity:0.5;fill:url(#linear-gradient-8);}.cls-40{fill:#e0a96c;}.cls-41{opacity:0.4;}.cls-42{stroke:#7d8c9b;stroke-width:3px;}.cls-44{fill:url(#linear-gradient-9);}</style><linearGradient id="linear-gradient" x1="321.68" y1="286" x2="321.68" y2="431.12" gradientUnits="userSpaceOnUse"><stop offset="0"/><stop offset="1" stop-opacity="0"/></linearGradient><linearGradient id="linear-gradient-2" x1="438.5" y1="235.5" x2="507.96" y2="235.5" gradientUnits="userSpaceOnUse"><stop offset="0" stop-color="#f69878"/><stop offset="1" stop-color="#f37b67"/></linearGradient><linearGradient id="linear-gradient-3" x1="202" y1="235.5" x2="152.85" y2="235.5" gradientTransform="translate(383.22 471) rotate(180)" xlink:href="#linear-gradient-2"/><linearGradient id="linear-gradient-4" x1="321.5" y1="490" x2="321.5" y2="187.52" gradientUnits="userSpaceOnUse"><stop offset="0" stop-color="#f69878"/><stop offset="1" stop-color="#f69878" stop-opacity="0"/></linearGradient><linearGradient id="linear-gradient-5" x1="824" y1="1024" x2="824" y2="764" gradientUnits="userSpaceOnUse"><stop offset="0" stop-color="#0d3543"/><stop offset="1" stop-color="#344d59"/></linearGradient><linearGradient id="linear-gradient-6" x1="657.77" y1="835.05" x2="657.77" y2="786.3" gradientUnits="userSpaceOnUse"><stop offset="0" stop-opacity="0"/><stop offset="1"/></linearGradient><linearGradient id="linear-gradient-7" x1="794.72" y1="835.05" x2="794.72" y2="786.3" xlink:href="#linear-gradient-6"/><linearGradient id="linear-gradient-8" x1="824" y1="1088.13" x2="824" y2="828.13" xlink:href="#linear-gradient"/><linearGradient id="linear-gradient-9" x1="9439" y1="9475.63" x2="9439" y2="9348.44" gradientTransform="matrix(1, 0, 0, -1, -9323.46, 10135.17)" gradientUnits="userSpaceOnUse"><stop offset="0"/><stop offset="1" stop-color="#fff"/></linearGradient></defs><title>cyborg</title><g class="cls-1"><g id="Layer_10" data-name="Layer 10"><rect class="cls-2" width="1024" height="1024"/><rect class="cls-3" x="624" y="524" width="400" height="240"/><rect class="cls-4" width="643" height="490"/><path class="cls-5" d="M366,299h0a89.81,89.81,0,0,0-19.13,2.07h0a89.33,89.33,0,0,1-19.14,2.07H315.59a89.26,89.26,0,0,1-19.14-2.07h0A89.81,89.81,0,0,0,277.32,299h0a43.74,43.74,0,0,0-33,15c-6.51,7.48-12.32,16.72-11.37,25.21l15.3,137,71.88,5.58,1.52-2.82,1.52,2.82,71.87-5.58,15.31-137c.95-8.49-4.86-17.73-11.38-25.21A43.71,43.71,0,0,0,366,299Z"/><rect class="cls-4" x="824" y="134" width="200" height="390"/><path class="cls-6" d="M442.55,216.37h8.29a18.41,18.41,0,0,1,18.41,18.41v1.43a18.41,18.41,0,0,1-18.41,18.41h-8.29a0,0,0,0,1,0,0V216.37A0,0,0,0,1,442.55,216.37Z"/><path class="cls-7" d="M437.85,216.37h8.29a18.41,18.41,0,0,1,18.41,18.41v1.43a18.41,18.41,0,0,1-18.41,18.41h-8.29a0,0,0,0,1,0,0V216.37A0,0,0,0,1,437.85,216.37Z"/><ellipse class="cls-6" cx="451.21" cy="235.5" rx="7.93" ry="4.4" transform="translate(132.36 632.21) rotate(-78.77)"/><path class="cls-6" d="M173.56,216.37h8.29a18.41,18.41,0,0,1,18.41,18.41v1.43a18.41,18.41,0,0,1-18.41,18.41h-8.29a0,0,0,0,1,0,0V216.37A0,0,0,0,1,173.56,216.37Z" transform="translate(373.83 471) rotate(-180)"/><path class="cls-8" d="M178.26,216.37h8.29A18.41,18.41,0,0,1,205,234.78v1.43a18.41,18.41,0,0,1-18.41,18.41h-8.29a0,0,0,0,1,0,0V216.37A0,0,0,0,1,178.26,216.37Z" transform="translate(383.22 471) rotate(-180)"/><ellipse class="cls-6" cx="191.61" cy="235.5" rx="4.4" ry="7.93" transform="translate(-42.19 41.82) rotate(-11.23)"/><polygon class="cls-4" points="579.88 654.47 544.43 654.47 491.56 654.47 460 654.47 460 654.47 445.83 654.47 428.62 681.05 422.17 725.5 423.38 763.65 432.45 812.23 457.05 819.12 460 823.21 460 823.21 491.56 823.21 544.43 823.21 579.88 823.21 615.98 823.21 615.98 654.47 579.88 654.47"/><polygon class="cls-4" points="212.12 681.05 194.91 654.47 180.74 654.47 180.74 654.47 149.18 654.47 96.31 654.47 60.86 654.47 24.76 654.47 24.76 823.21 60.86 823.21 96.31 823.21 149.18 823.21 180.74 823.21 180.74 823.21 183.69 819.12 208.29 812.23 217.36 763.65 218.57 725.5 212.12 681.05"/><rect class="cls-4" x="624" y="864.49" width="400" height="159.51"/><rect class="cls-9" x="992" width="32" height="32"/><rect class="cls-10" y="139.59" width="643" height="350.41"/><ellipse class="cls-4" cx="320.36" cy="746.08" rx="73.24" ry="132.26"/><rect class="cls-11" x="160.83" y="490" width="319.17" height="534"/><path class="cls-12" d="M321.65,830c-21.35,0-38.71,15.94-38.71,35.52s17.36,35.53,38.71,35.53,38.71-15.94,38.71-35.53S343,830,321.65,830Z"/><rect class="cls-11" x="155.81" y="654.47" width="68.39" height="188.74" transform="translate(380.01 1497.67) rotate(-180)"/><rect class="cls-11" x="416.54" y="654.47" width="67.38" height="188.74" transform="translate(900.46 1497.67) rotate(-180)"/><rect class="cls-13" x="152.9" y="654.47" width="7.84" height="188.74" transform="translate(313.64 1497.67) rotate(-180)"/><rect class="cls-13" x="480" y="654.47" width="7.84" height="188.74" transform="translate(967.84 1497.67) rotate(-180)"/><rect class="cls-14" x="160.83" y="610.05" width="107.26" height="274.19"/><g class="cls-15"><rect x="145.05" y="654.47" width="7.84" height="188.74" transform="translate(297.95 1497.67) rotate(-180)"/><rect x="487.78" y="654.47" width="7.84" height="188.74" transform="translate(983.4 1497.67) rotate(-180)"/></g><rect class="cls-16" x="251.01" y="647.31" width="42.44" height="258.47"/><rect class="cls-17" x="257.53" y="647.31" width="29.4" height="258.47"/><rect class="cls-16" x="240.16" y="828.47" width="64.14" height="29.4" transform="translate(-570.94 1115.4) rotate(-90)"/><rect class="cls-14" x="266.99" y="815.89" width="10.49" height="29.4" transform="translate(-558.36 1102.82) rotate(-90)"/><rect class="cls-14" x="260.45" y="840.25" width="23.56" height="29.4" transform="translate(-582.72 1127.18) rotate(-90)"/><g class="cls-18"><path class="cls-17" d="M283.93,814.09v58.15h-23.4V814.09h23.4m3-3h-29.4v64.15h29.4V811.09Z"/></g><rect class="cls-16" x="240.16" y="695.01" width="64.14" height="29.4" transform="translate(981.94 437.48) rotate(90)"/><rect class="cls-14" x="266.99" y="707.59" width="10.49" height="29.4" transform="translate(994.52 450.06) rotate(90)"/><rect class="cls-14" x="260.45" y="683.23" width="23.56" height="29.4" transform="translate(970.16 425.7) rotate(90)"/><g class="cls-18"><path class="cls-17" d="M283.93,680.64v58.15h-23.4V680.64h23.4m3-3h-29.4v64.15h29.4V677.64Z"/></g><path class="cls-13" d="M357.25,746l-3.84-19.57a5.34,5.34,0,0,0-4-4.45L332.8,719l-.38-.05-11.58-1-.35,0-.34,0-12.25,1-.39.05L290.89,722a5.34,5.34,0,0,0-4,4.45L283.06,746a7.31,7.31,0,0,0,.11,3.19l5.54,20.52a6.86,6.86,0,0,0,.32.9l4.8,11.11c5.27,12.19,15.2,19.47,26.55,19.47,11.57,0,21.91-7.83,27-20.44l4.16-10.35a5.57,5.57,0,0,0,.25-.79l5.39-20.47A7.08,7.08,0,0,0,357.25,746Zm-10.1,21.83L343,778.21c-4.58,11.4-13.59,17.14-22.62,17.14-8.77,0-17.53-5.41-22.25-16.32l-4.81-11.11-5.54-20.53,3.83-19.56,16.62-3.06,12.26-1,11.59,1,16.62,3.06,3.83,19.56Z"/><path class="cls-4" d="M352.53,747.39l-5.38,20.48L343,778.21c-4.58,11.4-13.59,17.14-22.62,17.14-8.77,0-17.53-5.41-22.25-16.32l-4.81-11.11-5.54-20.53,3.83-19.56,16.62-3.06,12.26-1,11.59,1,16.62,3.06Z"/><polygon class="cls-11" points="312.7 891.76 349.19 867.89 330.24 860.24 313.28 871.34 312.7 891.76"/><path class="cls-11" d="M328.52,889.18a4.82,4.82,0,0,1-4-2.19l-17-26a48.49,48.49,0,0,1-5.84-12.5L295,826.61a1,1,0,0,1,.41-1.13,1.1,1.1,0,0,1,.55-.16,1,1,0,0,1,.65.24L314,840.45a48.43,48.43,0,0,1,9.12,10.36l17,25.94a4.85,4.85,0,0,1-1.4,6.71l-7.54,4.93A4.81,4.81,0,0,1,328.52,889.18Z"/><path class="cls-12" d="M295.94,826.32l17.42,14.89a47.52,47.52,0,0,1,8.94,10.15l17,25.94a3.85,3.85,0,0,1-1.11,5.32l-7.54,4.93a3.79,3.79,0,0,1-2.1.63,3.84,3.84,0,0,1-3.22-1.74l-17-25.94a47.89,47.89,0,0,1-5.73-12.25l-6.66-21.93m0-2A2,2,0,0,0,294,826.9l6.66,21.93a49.68,49.68,0,0,0,6,12.76l17,25.94a5.81,5.81,0,0,0,4.89,2.65,5.87,5.87,0,0,0,3.2-.95l7.53-4.94a5.83,5.83,0,0,0,1.69-8.08l-17-26a49.38,49.38,0,0,0-9.31-10.57L297.24,824.8a2,2,0,0,0-1.3-.48Z"/><circle class="cls-12" cx="316.42" cy="857.62" r="5.56"/><circle class="cls-12" cx="323.94" cy="869.11" r="4.42"/><rect class="cls-19" x="643" width="381" height="134"/><rect class="cls-20" x="624" y="764" width="400" height="260"/><polygon class="cls-2" points="685.44 439.39 707.95 424.66 745.85 424.66 766.21 445.84 763.57 471.33 735.92 484.58 701.16 478.78 685.44 439.39"/><polygon class="cls-2" points="685.44 264.47 707.95 249.74 745.85 249.74 766.21 270.93 763.57 296.42 735.92 309.66 701.16 303.87 685.44 264.47"/><rect class="cls-2" x="713.32" y="395.74" width="26.58" height="5.41" rx="2.7" ry="2.7"/><rect class="cls-2" x="713.32" y="386.11" width="26.58" height="5.41" rx="2.7" ry="2.7"/><rect class="cls-2" x="713.32" y="405.83" width="26.58" height="5.41" rx="2.7" ry="2.7"/><rect class="cls-2" x="713.32" y="221.15" width="26.58" height="5.41" rx="2.7" ry="2.7"/><rect class="cls-2" x="713.32" y="210.84" width="26.58" height="5.41" rx="2.7" ry="2.7"/><rect class="cls-2" x="713.32" y="231.25" width="26.58" height="5.41" rx="2.7" ry="2.7"/><path class="cls-21" d="M806,315.06l-8.41,15.88-.11,13.64L779,393.74l-11.25,31.05L756,456.55a25.15,25.15,0,0,1-7.8,10.82h0a25.17,25.17,0,0,1-11.82,5.27l-6,1a25.15,25.15,0,0,1-9.7-.34l-4.78-1.11a25.16,25.16,0,0,1-12.13-6.73l-.59-.59a25.08,25.08,0,0,1-5.47-8.21L689.55,437l-11.5-28.5-4-13.8-6-26.11L666.6,353l-.05-26.66h-20.5V483.78l57.24,18H797l13-48,10.5-98.48V319.61Z"/><path class="cls-21" d="M806,139.59l-8.17,15.88-.12,13.64L779,218.27l-11.25,31L756,281.09a25.15,25.15,0,0,1-7.8,10.82h0a25.15,25.15,0,0,1-11.82,5.26l-6,1a25.14,25.14,0,0,1-9.7-.33l-4.78-1.11A25.32,25.32,0,0,1,703.69,290l-.59-.59a25,25,0,0,1-5.47-8.22l-8.08-19.59-11.5-28.5-4-13.8-6-26.1L666.6,177.5l-.05-26.65h-20.5V308.31l57.24,18H797l13-48,10.5-98.49V144.14Z"/><rect class="cls-22" x="631.59" y="786.3" width="383.62" height="16.15"/><path class="cls-2" d="M692.28,330.68l3.64,22.77a23.6,23.6,0,0,0,5.46,11.72l8.31,9.59a23.6,23.6,0,0,0,17.82,8.13h0a23.59,23.59,0,0,0,14.58-5.05l3.43-2.7a23.55,23.55,0,0,0,5.29-5.84l4.8-7.53a23.4,23.4,0,0,0,2.21-4.42L768.42,329H692.28Z"/><path class="cls-2" d="M692.28,154.72l3.64,22.77a23.6,23.6,0,0,0,5.46,11.72l8.31,9.58a23.58,23.58,0,0,0,17.82,8.14h0a23.59,23.59,0,0,0,14.58-5.05l3.43-2.71a23.37,23.37,0,0,0,5.29-5.84l4.8-7.52a23.79,23.79,0,0,0,2.21-4.43L768.42,153H692.28Z"/><path class="cls-23" d="M682.15,786.3a48.75,48.75,0,0,1-48.75,48.75V786.3Z"/><path class="cls-24" d="M770.35,786.3a48.75,48.75,0,0,0,48.75,48.75V786.3Z"/><rect class="cls-25" x="992" width="32" height="32"/><polygon class="cls-26" points="356.06 210.97 367.53 186.66 370.25 196.13 364.42 203.73 362.41 222.54 356.06 210.97"/><polygon class="cls-27" points="276.3 238.37 299.31 252.26 289.61 254 282.65 247.43 264.14 243.5 276.3 238.37"/><ellipse class="cls-28" cx="287.04" cy="220.5" rx="8.96" ry="9.35"/><ellipse class="cls-28" cx="356.43" cy="220.5" rx="8.96" ry="9.35"/><g class="cls-29"><path d="M333.81,242.61c-1.57,5.14-6.35,6.87-12,6.87V237.76l9.95,1.59A2.56,2.56,0,0,1,333.81,242.61Z"/><path d="M309.84,242.61c1.57,5.14,6.35,6.87,12,6.87V237.76l-9.95,1.59A2.56,2.56,0,0,0,309.84,242.61Z"/></g><path class="cls-15" d="M321.74,275.26a5.93,5.93,0,0,0-3.7,2.09,2.55,2.55,0,0,0,2.36,4.12l4.43-.67a2.54,2.54,0,0,0,1.05-4.63A6,6,0,0,0,321.74,275.26Z"/><path class="cls-15" d="M321.62,3.39V156H274.27a34.46,34.46,0,0,0-34,28.64.17.17,0,0,1,0,.07c-.09.45-.15.9-.21,1.35h-.81l6.93,64.32.14,1.33a6.09,6.09,0,0,1-6.05,6.73h-3.12a19.3,19.3,0,0,1-15.62-8c-6.26-8.66-14.95-17.48-18.8-26.29a20.22,20.22,0,0,0-21.69-11.6,6,6,0,0,0-1.84.63l-1.39.74a5.58,5.58,0,0,0-1.64,1.25c-4.27,4.75-10,21.42-18.73,32.95s-53,33.69-69.35,41.06l-29,13.47-.43.19-21,7.87a6,6,0,0,1-1,.28l-25.16,4.87L11,316l-4.11.49A6.2,6.2,0,0,1,0,310.28V9.6A6.21,6.21,0,0,1,6.2,3.39Z"/><path class="cls-28" d="M321.62,0V163.71h-7.07c-19.17,0-19.7-5.71-35.75-7.69a100.93,100.93,0,0,0-12.46-.67c-20.78,0-25.21,18.63-26,29.31a.17.17,0,0,1,0,.07,55.3,55.3,0,0,0-.15,6.06l6.2,57.54a5.94,5.94,0,0,1-.14,2.07,6.09,6.09,0,0,1-5.91,4.67h-3.12a19.3,19.3,0,0,1-15.62-8c-6.26-8.66-14.95-17.48-18.8-26.29a20.21,20.21,0,0,0-21.69-11.6,5.74,5.74,0,0,0-1.84.63l-1.39.74a5.73,5.73,0,0,0-1.64,1.24c-4.27,4.76-10,21.43-18.73,33s-53,33.69-69.35,41.06l-29,13.47a3.25,3.25,0,0,1-.43.18l-21,7.88a7.08,7.08,0,0,1-1,.28l-25.16,4.87-.45.07L6.93,313A6.2,6.2,0,0,1,0,306.88V6.2A6.21,6.21,0,0,1,6.2,0Z"/><path class="cls-15" d="M321.62,3.39V156H369a34.46,34.46,0,0,1,34,28.64.17.17,0,0,0,0,.07c.09.45.15.9.21,1.35H404l-6.93,64.32-.14,1.33a6.09,6.09,0,0,0,6,6.73h3.12a19.3,19.3,0,0,0,15.62-8c6.26-8.66,14.95-17.48,18.8-26.29a20.22,20.22,0,0,1,21.69-11.6,6,6,0,0,1,1.84.63l1.39.74a5.58,5.58,0,0,1,1.64,1.25c4.27,4.75,9.95,21.42,18.73,32.95s53,33.69,69.35,41.06l29,13.47.43.19,21,7.87a6,6,0,0,0,1,.28l25.16,4.87.45.07,4.11.49a6.2,6.2,0,0,0,6.93-6.16V9.6A6.21,6.21,0,0,0,637,3.39Z"/><path class="cls-28" d="M321.62,0V163.71h7.07c19.17,0,19.7-5.71,35.75-7.69a100.93,100.93,0,0,1,12.46-.67c20.78,0,25.21,18.63,26.05,29.31a.17.17,0,0,0,0,.07,55.3,55.3,0,0,1,.15,6.06l-6.2,57.54a5.94,5.94,0,0,0,.14,2.07,6.09,6.09,0,0,0,5.91,4.67h3.12a19.3,19.3,0,0,0,15.62-8c6.26-8.66,14.95-17.48,18.8-26.29a20.21,20.21,0,0,1,21.69-11.6,5.74,5.74,0,0,1,1.84.63l1.39.74a5.73,5.73,0,0,1,1.64,1.24c4.27,4.76,9.95,21.43,18.73,33s53,33.69,69.35,41.06l29,13.47a3.25,3.25,0,0,0,.43.18l21,7.88a7.08,7.08,0,0,0,1,.28l25.16,4.87.45.07,4.11.48a6.2,6.2,0,0,0,6.93-6.16V6.2A6.21,6.21,0,0,0,637,0Z"/><path class="cls-28" d="M298.65,210.05a5.84,5.84,0,0,1-2.18-.43c-5.6-2.29-11.41-4.67-20.92-4.2a5.76,5.76,0,0,1-.55-11.5c11.15-.54,18.31,2,25.84,5.05a5.76,5.76,0,0,1-2.19,11.08Z"/><path class="cls-28" d="M344.81,210.05A5.75,5.75,0,0,1,342.63,199c7.53-3.09,14.67-5.59,25.84-5.05a5.76,5.76,0,0,1-.56,11.5c-9.54-.47-15.32,1.91-20.92,4.2A5.76,5.76,0,0,1,344.81,210.05Z"/><path class="cls-30" d="M307.74,266.45s29.32.4,33.22-6"/><rect class="cls-31" x="992" width="32" height="32"/><polygon class="cls-26" points="351.82 231.98 366.26 259.16 367.53 247.91 361.59 240.05 365.02 223.12 351.82 231.98"/><path class="cls-28" d="M329.71,207.49h44.23a0,0,0,0,1,0,0v9.13a22.11,22.11,0,0,1-22.11,22.11h0a22.11,22.11,0,0,1-22.11-22.11v-9.13A0,0,0,0,1,329.71,207.49Z" transform="translate(40.65 -53.88) rotate(9.29)"/><rect class="cls-28" x="372.24" y="214.52" width="39.48" height="8.6"/><rect class="cls-28" x="269.13" y="175.14" width="84.94" height="8.6" transform="translate(274.38 -178.21) rotate(54.12)"/><rect class="cls-32" x="624" y="764" width="400" height="260"/><rect class="cls-33" x="826.86" y="134" width="197.14" height="199.6"/><rect class="cls-34" x="870.82" y="552.53" width="151.63" height="206.73"/><path class="cls-35" d="M903.48,653c0,.49-9.11,32.36-9.11,32.36l44.4,34.15L988,692.72s1-34,1-35.15S978.23,635,978.23,635L939.11,623.7l-23.89,4.12Z"/><rect class="cls-34" x="642.53" y="872.32" width="8.39" height="33.67" rx="4.19" ry="4.19"/><rect class="cls-34" x="659.3" y="872.32" width="8.39" height="33.67" rx="4.19" ry="4.19"/><rect class="cls-34" x="676.08" y="872.32" width="8.39" height="33.67" rx="4.19" ry="4.19"/><rect class="cls-34" x="692.85" y="872.32" width="8.39" height="33.67" rx="4.19" ry="4.19"/><rect class="cls-34" x="751.56" y="872.32" width="8.39" height="33.67" rx="4.19" ry="4.19"/><rect class="cls-34" x="768.33" y="872.32" width="8.39" height="33.67" rx="4.19" ry="4.19"/><rect class="cls-34" x="785.11" y="872.32" width="8.39" height="33.67" rx="4.19" ry="4.19"/><rect class="cls-34" x="801.88" y="872.32" width="8.39" height="33.67" rx="4.19" ry="4.19"/><rect class="cls-34" x="833.08" y="872.32" width="8.39" height="33.67" rx="4.19" ry="4.19"/><rect class="cls-34" x="849.85" y="872.32" width="8.39" height="33.67" rx="4.19" ry="4.19"/><rect class="cls-34" x="866.62" y="872.32" width="8.39" height="33.67" rx="4.19" ry="4.19"/><rect class="cls-34" x="883.4" y="872.32" width="8.39" height="33.67" rx="4.19" ry="4.19"/><rect class="cls-34" x="942.11" y="872.32" width="8.39" height="33.67" rx="4.19" ry="4.19"/><rect class="cls-34" x="958.88" y="872.32" width="8.39" height="33.67" rx="4.19" ry="4.19"/><rect class="cls-34" x="975.65" y="872.32" width="8.39" height="33.67" rx="4.19" ry="4.19"/><rect class="cls-34" x="992.43" y="872.32" width="8.39" height="33.67" rx="4.19" ry="4.19"/><rect class="cls-36" x="625.61" y="898.22" width="398.39" height="125.78"/><rect class="cls-37" y="997.3" width="629.1" height="13.26"/><rect class="cls-37" y="494.16" width="629.1" height="13.58"/><rect class="cls-14" x="625.61" y="898.22" width="398.39" height="28.34"/><rect class="cls-14" x="625.61" y="980.09" width="398.39" height="32.43"/><rect class="cls-34" x="205.57" y="517.5" width="239.27" height="92.55"/><rect class="cls-36" y="494.89" width="629.1" height="28.43"/><path class="cls-34" d="M444.83,880.62V985.78H205.57v-103l21.34-2.52a108.7,108.7,0,0,1,53.71,7.27h0a108.65,108.65,0,0,0,81.11.32l4.56-1.81a108.87,108.87,0,0,1,47.26-7.46Z"/><path class="cls-34" d="M321.65,607.62c-30.61,0-55.51,22.86-55.51,50.94S291,709.5,321.65,709.5s55.51-22.85,55.51-50.94S352.26,607.62,321.65,607.62Z"/><path class="cls-14" d="M378.44,1023.79H263.77V897.68c0,39.73,114.67,39.73,114.67,0Z"/><polygon class="cls-34" points="211.42 606.63 211.42 630.04 254.69 658.56 386.71 658.56 431.88 631.45 431.88 596.47 211.42 596.47 211.42 606.63"/><rect class="cls-36" y="978.37" width="629.1" height="28.43"/><rect class="cls-33" y="967.96" width="629.1" height="10.4"/><rect class="cls-33" y="523.3" width="628.41" height="10.4"/><polygon class="cls-34" points="898.8 200.56 892.44 217.65 892.44 237.81 885.21 252.93 872.45 265.34 859.22 256.63 871.56 243.32 878.56 231.54 879.4 214.87 884.87 199.45 883.75 186.56 881.22 173.81 879.4 168.34 894.56 165.45 896.61 169.66 898.8 200.56"/><polygon class="cls-34" points="885.9 273.16 900 263.53 945.79 265.34 959.88 277.85 934.52 329.99 888.49 324.82 885.9 273.16"/><polygon class="cls-38" points="726.36 776.3 726.36 859.56 713.64 847.64 689.54 818.4 647.3 809.83 628.07 797.81 646.01 771.37 726.36 776.3"/><polygon class="cls-36" points="806.71 771.37 726.36 776.3 646.01 771.37 628.07 797.81 647.3 809.83 689.54 818.4 713.64 847.64 726.36 859.56 739.08 847.64 763.18 818.4 805.42 809.83 824.65 797.81 806.71 771.37"/><polygon class="cls-36" points="997.3 771.37 916.95 776.3 836.6 771.37 818.66 797.81 837.89 809.83 880.13 818.4 904.23 847.64 916.95 859.56 929.66 847.64 953.77 818.4 996.01 809.83 1015.24 797.81 997.3 771.37"/><circle class="cls-16" cx="421.72" cy="890.07" r="2.39"/><circle class="cls-16" cx="221.3" cy="890.07" r="2.39"/><circle class="cls-16" cx="418.72" cy="900.07" r="2.39"/><circle class="cls-16" cx="224.3" cy="900.07" r="2.39"/><rect class="cls-17" x="318.53" y="634.79" width="64.59" height="25.03" rx="12.52" ry="12.52" transform="translate(998.13 296.49) rotate(90)"/><rect class="cls-34" x="325.24" y="639.22" width="56.71" height="16.17" rx="8.09" ry="8.09" transform="translate(1000.9 293.71) rotate(90)"/><rect class="cls-16" x="336.35" y="643.16" width="28.94" height="8.29" rx="4.15" ry="4.15"/><rect class="cls-16" x="336.35" y="626.58" width="28.94" height="8.29" rx="4.15" ry="4.15"/><rect class="cls-16" x="336.35" y="659.75" width="28.94" height="8.29" rx="4.15" ry="4.15"/><rect class="cls-17" x="259.1" y="634.79" width="64.59" height="25.03" rx="12.52" ry="12.52" transform="translate(938.7 355.91) rotate(90)"/><rect class="cls-34" x="260.26" y="639.22" width="56.71" height="16.17" rx="8.09" ry="8.09" transform="translate(935.92 358.69) rotate(90)"/><rect class="cls-16" x="276.92" y="643.16" width="28.94" height="8.29" rx="4.15" ry="4.15"/><rect class="cls-16" x="276.92" y="626.58" width="28.94" height="8.29" rx="4.15" ry="4.15"/><rect class="cls-16" x="276.92" y="659.75" width="28.94" height="8.29" rx="4.15" ry="4.15"/><rect class="cls-33" x="286.54" y="543.4" width="70.23" height="39.63" rx="6.72" ry="6.72"/><rect class="cls-14" x="296.83" y="549.62" width="49.65" height="5.51" rx="2.76" ry="2.76"/><rect class="cls-14" x="296.83" y="560.46" width="49.65" height="5.51" rx="2.76" ry="2.76"/><rect class="cls-14" x="296.83" y="571.29" width="49.65" height="5.51" rx="2.76" ry="2.76"/><rect class="cls-25" x="992" width="32" height="32"/><rect class="cls-39" x="624" y="764" width="400" height="260"/><rect class="cls-33" x="646.05" y="139.59" width="183.29" height="377.91"/><polygon class="cls-14" points="677.83 444.37 707.95 424.66 745.85 424.66 766.21 445.84 763.57 471.33 735.92 484.58 701.16 478.78 677.83 444.37"/><polygon class="cls-14" points="680.24 267.87 707.95 249.74 745.85 249.74 766.21 270.93 763.57 296.42 735.92 309.66 701.16 303.87 680.24 267.87"/><path class="cls-14" d="M818.53,317.06v37.69l-15.36,97.57-11.5,42.46H704.3l-55.63-16.25V323.31h10.89l0,29.66v.32l0,.31,1.43,15.67,0,.47.11.46,6,26.11,0,.19.06.19,4,13.8.1.34.14.33,11.49,28.5v0l0,0,8.07,19.59a32,32,0,0,0,7,10.49l.58.59a32.2,32.2,0,0,0,15.5,8.6l4.78,1.11a31.83,31.83,0,0,0,7.28.84,32.31,32.31,0,0,0,5.11-.41l6-1A32.21,32.21,0,0,0,762.51,459l11.83-31.77,0,0v0l11.23-31,18.69-49.1.44-1.18v-1.25l.12-13.64.13-13.94Z"/><path class="cls-14" d="M818.53,141.59v37.7l-15.36,97.57-11.5,42.45H704.3l-55.63-16.24V147.84h10.89l0,29.67v.31l0,.32,1.43,15.66,0,.48.11.46,6,26.1,0,.19.06.19,4,13.8.1.34.14.33,11.49,28.5v0l0,0,8.07,19.59a32.08,32.08,0,0,0,7,10.5l.58.59a32.28,32.28,0,0,0,15.5,8.6l4.78,1.11a32.22,32.22,0,0,0,12.39.42l6-1a32.2,32.2,0,0,0,25.07-20.56l11.83-31.76,0,0v0l11.23-31,18.69-49.11.44-1.17v-1.26l.12-13.64.13-13.94Z"/><path class="cls-35" d="M727.51,385.89a26.55,26.55,0,0,1-20.09-9.17l-8.3-9.58A26.53,26.53,0,0,1,693,353.92l-3.64-22.77a2.42,2.42,0,0,1,0-.47V329a3,3,0,0,1,3-3h76.14a3,3,0,0,1,2.81,4.05l-10.6,28.35a26.72,26.72,0,0,1-2.49,5l-4.8,7.52a26.55,26.55,0,0,1-6,6.59l-3.44,2.7A26.68,26.68,0,0,1,727.51,385.89Z"/><path class="cls-35" d="M768.42,329l-10.6,28.35a23.4,23.4,0,0,1-2.21,4.42l-4.8,7.53a23.55,23.55,0,0,1-5.29,5.84l-3.43,2.7a23.58,23.58,0,0,1-32.4-3.08l-8.31-9.59a23.6,23.6,0,0,1-5.46-11.72l-3.64-22.77V329h76.14m0-6H692.28a6,6,0,0,0-6,6v1.68a6.09,6.09,0,0,0,.08.95L690,354.4a29.56,29.56,0,0,0,6.85,14.7l8.31,9.59a29.59,29.59,0,0,0,40.64,3.87l3.43-2.71a29.31,29.31,0,0,0,6.64-7.32l4.8-7.53a28.76,28.76,0,0,0,2.77-5.55L774,331.1a6,6,0,0,0-5.62-8.1Z"/><path class="cls-35" d="M727.51,209.93a26.59,26.59,0,0,1-20.09-9.17l-8.3-9.59A26.46,26.46,0,0,1,693,178l-3.64-22.77a2.56,2.56,0,0,1,0-.47V153a3,3,0,0,1,3-3h76.14a3,3,0,0,1,2.81,4.06l-10.6,28.34a26.72,26.72,0,0,1-2.49,5l-4.8,7.53a26.51,26.51,0,0,1-6,6.58l-3.44,2.7A26.69,26.69,0,0,1,727.51,209.93Z"/><path class="cls-35" d="M768.42,153l-10.6,28.35a23.79,23.79,0,0,1-2.21,4.43l-4.8,7.52a23.37,23.37,0,0,1-5.29,5.84l-3.43,2.71a23.57,23.57,0,0,1-32.4-3.09l-8.31-9.58a23.6,23.6,0,0,1-5.46-11.72l-3.64-22.77V153h76.14m0-6H692.28a6,6,0,0,0-6,6v1.69a6,6,0,0,0,.08.94L690,178.43a29.59,29.59,0,0,0,6.85,14.71l8.31,9.58a29.56,29.56,0,0,0,40.64,3.87l3.43-2.7a29.36,29.36,0,0,0,6.64-7.33l4.8-7.52a29.13,29.13,0,0,0,2.77-5.56L774,155.14a6,6,0,0,0-5.62-8.11Z"/><rect class="cls-40" x="646.05" width="377.95" height="139.59"/><circle class="cls-36" cx="776.23" cy="365.16" r="7.78"/><circle class="cls-36" cx="776.23" cy="190.62" r="7.78"/><rect class="cls-25" x="992" width="32" height="32"/><rect class="cls-13" x="643" y="134" width="181" height="390"/><polygon class="cls-2" points="685.44 439.39 707.95 424.66 745.85 424.66 766.21 445.84 763.57 471.33 735.92 484.58 701.16 478.78 685.44 439.39"/><polygon class="cls-2" points="685.44 264.47 707.95 249.74 745.85 249.74 766.21 270.93 763.57 296.42 735.92 309.66 701.16 303.87 685.44 264.47"/><rect class="cls-2" x="713.32" y="395.74" width="26.58" height="5.41" rx="2.7" ry="2.7"/><rect class="cls-2" x="713.32" y="386.11" width="26.58" height="5.41" rx="2.7" ry="2.7"/><rect class="cls-2" x="713.32" y="405.83" width="26.58" height="5.41" rx="2.7" ry="2.7"/><rect class="cls-2" x="713.32" y="221.15" width="26.58" height="5.41" rx="2.7" ry="2.7"/><rect class="cls-2" x="713.32" y="210.84" width="26.58" height="5.41" rx="2.7" ry="2.7"/><rect class="cls-2" x="713.32" y="231.25" width="26.58" height="5.41" rx="2.7" ry="2.7"/><path class="cls-2" d="M692.28,330.68l3.64,22.77a23.6,23.6,0,0,0,5.46,11.72l8.31,9.59a23.6,23.6,0,0,0,17.82,8.13h0a23.59,23.59,0,0,0,14.58-5.05l3.43-2.7a23.55,23.55,0,0,0,5.29-5.84l4.8-7.53a23.4,23.4,0,0,0,2.21-4.42L768.42,329H692.28Z"/><path class="cls-2" d="M692.28,154.72l3.64,22.77a23.6,23.6,0,0,0,5.46,11.72l8.31,9.58a23.58,23.58,0,0,0,17.82,8.14h0a23.59,23.59,0,0,0,14.58-5.05l3.43-2.71a23.37,23.37,0,0,0,5.29-5.84l4.8-7.52a23.79,23.79,0,0,0,2.21-4.43L768.42,153H692.28Z"/><polygon class="cls-2" points="677.83 444.37 707.95 424.66 745.85 424.66 766.21 445.84 763.57 471.33 735.92 484.58 701.16 478.78 677.83 444.37"/><polygon class="cls-2" points="680.24 267.87 707.95 249.74 745.85 249.74 766.21 270.93 763.57 296.42 735.92 309.66 701.16 303.87 680.24 267.87"/><path class="cls-21" d="M818.53,317.06v37.69l-15.36,97.57-11.5,42.46H704.3l-55.63-16.25V323.31h10.89l0,29.66v.32l0,.31,1.43,15.67,0,.47.11.46,6,26.11,0,.19.06.19,4,13.8.1.34.14.33,11.49,28.5v0l0,0,8.07,19.59a32,32,0,0,0,7,10.49l.58.59a32.2,32.2,0,0,0,15.5,8.6l4.78,1.11a31.83,31.83,0,0,0,7.28.84,32.31,32.31,0,0,0,5.11-.41l6-1A32.21,32.21,0,0,0,762.51,459l11.83-31.77,0,0v0l11.23-31,18.69-49.1.44-1.18v-1.25l.12-13.64.13-13.94Z"/><path class="cls-21" d="M818.53,141.59v37.7l-15.36,97.57-11.5,42.45H704.3l-55.63-16.24V147.84h10.89l0,29.67v.31l0,.32,1.43,15.66,0,.48.11.46,6,26.1,0,.19.06.19,4,13.8.1.34.14.33,11.49,28.5v0l0,0,8.07,19.59a32.08,32.08,0,0,0,7,10.5l.58.59a32.28,32.28,0,0,0,15.5,8.6l4.78,1.11a32.22,32.22,0,0,0,12.39.42l6-1a32.2,32.2,0,0,0,25.07-20.56l11.83-31.76,0,0v0l11.23-31,18.69-49.11.44-1.17v-1.26l.12-13.64.13-13.94Z"/><rect class="cls-16" x="354.73" y="929.73" width="51.06" height="15.9"/><rect class="cls-14" x="386.09" y="929.73" width="8.35" height="15.9"/><rect class="cls-14" x="361.5" y="929.73" width="18.75" height="15.9"/><g class="cls-18"><path class="cls-17" d="M402.78,932.73v9.9h-45v-9.9h45m3-3h-51v15.9h51v-15.9Z"/></g><rect class="cls-16" x="236.43" y="929.73" width="51.06" height="15.9" transform="translate(523.92 1875.37) rotate(-180)"/><rect class="cls-14" x="247.78" y="929.73" width="8.35" height="15.9" transform="translate(503.9 1875.37) rotate(-180)"/><rect class="cls-14" x="261.96" y="929.73" width="18.75" height="15.9" transform="translate(542.67 1875.37) rotate(-180)"/><g class="cls-18"><path class="cls-17" d="M284.49,932.73v9.9H239.43v-9.9h45.06m3-3H236.43v15.9h51.06v-15.9Z"/></g><rect class="cls-34" x="42.81" y="574.05" width="136.33" height="350.6"/><rect class="cls-36" x="27.29" y="654.47" width="24.65" height="188.74" transform="translate(79.23 1497.67) rotate(180)"/><rect class="cls-32" x="51.94" y="654.47" width="8.48" height="188.74"/><polygon class="cls-34" points="207.93 639.15 243.66 663.4 254.69 725.74 252.86 767.46 242.38 826.73 191.46 830.27 179.13 843.21 179.13 654.47 207.93 639.15"/><g class="cls-41"><rect class="cls-42" x="24.76" y="654.47" width="36.1" height="188.74" transform="translate(85.62 1497.67) rotate(-180)"/><rect class="cls-42" x="60.86" y="654.47" width="35.45" height="188.74"/><rect class="cls-42" x="96.31" y="654.47" width="52.88" height="188.74"/><rect class="cls-42" x="149.18" y="654.47" width="31.56" height="188.74" transform="translate(329.93 1497.67) rotate(-180)"/></g><g class="cls-18"><path class="cls-14" d="M95.78,712.64l9.39-10.46a2.15,2.15,0,0,0,.55-1.47l-.22-11.36a2.15,2.15,0,0,0-2.51-2.07l-7.18,1.26a2.15,2.15,0,0,0-1.76,2.25l.67,9.78a2.14,2.14,0,0,1-.64,1.67l-7.83,7.7a2.14,2.14,0,0,1-2,.56l-6.81-1.64a2.13,2.13,0,0,1-1.63-2.07v-1.43a2.14,2.14,0,0,1,1-1.84l5.51-3.28a2.15,2.15,0,0,0,1-2.08l-.78-6.82a2.14,2.14,0,0,0-2.13-1.89H71.4a2.12,2.12,0,0,1-1.75-.92l-3.34-4.79a2.12,2.12,0,0,0-1.75-.92H60.49a2.14,2.14,0,0,1-2.1-1.71l-.92-4.51a2.14,2.14,0,0,1,1.7-2.54l4.94-.91a2.07,2.07,0,0,0,1.18-.65L67,670.68a2.15,2.15,0,0,0,0-2.85l-3.71-4.3a2.14,2.14,0,0,1-.52-1.39v-2.62H21V820.15H63.37v-15a2.09,2.09,0,0,1,.63-1.51l.66-.67a2.13,2.13,0,0,0-.61-3.45,2.16,2.16,0,0,1-1.2-1.48l-1.45-3.64a2.14,2.14,0,0,1,1-2.32L67,789.5a2.23,2.23,0,0,1,1.39-.25l9.49,1.5a2.11,2.11,0,0,0,1.37-.24l4.36-2.42a2.13,2.13,0,0,0,.9-2.78L81.1,778a2.14,2.14,0,0,0-2-1.22l-11.07.5a2.53,2.53,0,0,0-.6.11l-9.51,3.26a2.15,2.15,0,0,1-2.07-.39L52,777a2.14,2.14,0,0,1-.69-2.18l2.34-8.92a2.14,2.14,0,0,1,3.33-1.18l.66.49a2.13,2.13,0,0,0,2.36.1L65.53,762a2.07,2.07,0,0,0,.7-.68l3.36-5.25a2.13,2.13,0,0,0-.38-2.75l-5.7-5.07a2.1,2.1,0,0,1-.72-1.59v-15.5a2.11,2.11,0,0,0-.54-1.41l-5-5.59a2.15,2.15,0,0,1,.17-3l6.3-5.69a2.14,2.14,0,0,1,2.35-.34l5.1,2.44a2.16,2.16,0,0,0,.49.16l12.76,2.64a2.17,2.17,0,0,0,1.73-.39l9.31-7.07A3.83,3.83,0,0,0,95.78,712.64Z"/><path class="cls-14" d="M106.88,744.87l-10.21,1.82a7.64,7.64,0,0,0-6.24,8.41l.65,5.5a7.64,7.64,0,0,0,7,6.72l8.53.69a7.63,7.63,0,0,0,8.19-6.64l1-8A7.63,7.63,0,0,0,106.88,744.87Z"/><path class="cls-14" d="M98.18,734a2.59,2.59,0,0,0-2.36-.19l-3.68,1.57a2.57,2.57,0,0,0-1.22,3.65l1.75,3a2.57,2.57,0,0,0,3.11,1.12l5.82-2.16a2.57,2.57,0,0,0,.47-4.58Z"/><path class="cls-14" d="M125.2,756.46l-4.37,3.33a2.15,2.15,0,0,0,.36,3.65l3,1.45a2.15,2.15,0,0,0,3-1.34l1.39-4.77A2.15,2.15,0,0,0,125.2,756.46Z"/><path class="cls-14" d="M158.14,677.29a2.17,2.17,0,0,0-3.15-1l-4.2,2.67a2.16,2.16,0,0,0,1,4l5.47.39a2.16,2.16,0,0,0,2.14-3Z"/><path class="cls-14" d="M180.71,708.07a6.4,6.4,0,1,0,9.34,2.94A6.4,6.4,0,0,0,180.71,708.07Z"/><path class="cls-14" d="M167.38,716.63a3.85,3.85,0,0,0,1.79,7.09h0a3.85,3.85,0,1,0-1.79-7.09Z"/><path class="cls-14" d="M126.32,717l1.6-.59a1.48,1.48,0,0,0,.49-2.48L127,712.61a1.48,1.48,0,0,0-2.48.92l-.23,1.85A1.48,1.48,0,0,0,126.32,717Z"/></g><g class="cls-43"><circle class="cls-16" cx="198.63" cy="686.7" r="5.39"/><circle class="cls-16" cx="198.63" cy="707.07" r="5.39"/><circle class="cls-16" cx="198.63" cy="666.34" r="5.39"/><circle class="cls-16" cx="198.63" cy="645.98" r="5.39"/><circle class="cls-16" cx="198.63" cy="625.61" r="5.39"/><circle class="cls-16" cx="198.63" cy="727.43" r="5.39"/><circle class="cls-16" cx="198.63" cy="747.8" r="5.39"/><circle class="cls-16" cx="198.63" cy="768.16" r="5.39"/><circle class="cls-16" cx="198.63" cy="788.52" r="5.39"/><circle class="cls-16" cx="198.63" cy="808.89" r="5.39"/><circle class="cls-16" cx="198.63" cy="829.25" r="5.39"/><circle class="cls-16" cx="198.63" cy="849.62" r="5.39"/><circle class="cls-16" cx="198.63" cy="869.98" r="5.39"/></g><rect class="cls-44" x="-84.46" y="659.53" width="400" height="127.19" transform="translate(-607.59 838.67) rotate(-90)"/><g class="cls-18"><path class="cls-14" d="M1003.87,978.57a2.13,2.13,0,0,1-1.51-.62l-.67-.67a2.14,2.14,0,0,0-3.45.62,2.15,2.15,0,0,1-1.48,1.19l-6.64,1.45a2.14,2.14,0,0,1-2.32-1l-2.6-4.61a2.1,2.1,0,0,1-.25-1.39l1.49-9.49a2.07,2.07,0,0,0-.24-1.36l-2.42-4.37a2.13,2.13,0,0,0-2.78-.89l-7.28,3.44a2.14,2.14,0,0,0-1.22,2l.5,11.07a2.36,2.36,0,0,0,.11.6l3.26,9.52a2.16,2.16,0,0,1-.39,2.07L972.73,990a2.14,2.14,0,0,1-2.18.69l-8.91-2.34a2.14,2.14,0,0,1-1.19-3.33l.49-.66a2.15,2.15,0,0,0,.11-2.36l-3.34-5.57a2.16,2.16,0,0,0-.68-.7l-5.25-3.36a2.14,2.14,0,0,0-2.75.38l-5.06,5.7a2.14,2.14,0,0,1-1.6.72H896.88a2.11,2.11,0,0,0-1.42.54l-5.59,5a2.14,2.14,0,0,1-3-.17l-5.69-6.3a2.14,2.14,0,0,1-.34-2.35l2.44-5.1a2.84,2.84,0,0,0,.17-.49l2.63-12.76a2.16,2.16,0,0,0-.39-1.72l-7.07-9.31a2.68,2.68,0,0,0-.28-.3l-10.46-9.39a2.15,2.15,0,0,0-1.47-.55l-11.36.23A2.14,2.14,0,0,0,853,939l1.26,7.18a2.13,2.13,0,0,0,2.25,1.76l9.78-.66a2.07,2.07,0,0,1,1.67.63l7.71,7.83a2.16,2.16,0,0,1,.55,2l-1.64,6.81a2.14,2.14,0,0,1-2.07,1.64h-1.43a2.12,2.12,0,0,1-1.83-1l-3.29-5.51a2.12,2.12,0,0,0-2.08-1l-6.82.78a2.12,2.12,0,0,0-1.89,2.12v9.08a2.12,2.12,0,0,1-.92,1.75l-4.79,3.34a2.12,2.12,0,0,0-.92,1.75v4.07a2.14,2.14,0,0,1-1.71,2.1l-4.51.93a2.13,2.13,0,0,1-2.53-1.71l-.92-4.94a2.1,2.1,0,0,0-.65-1.18L836.37,975a2.14,2.14,0,0,0-2.85-.05l-4.29,3.71a2.18,2.18,0,0,1-1.4.52H814.31a2.3,2.3,0,0,1-.74-.13l-1.81-.67a2.14,2.14,0,0,1-1.35-2.47l1.11-4.91a2.15,2.15,0,0,0,.05-.67L810,953.59a2.26,2.26,0,0,0-.19-.72l-3.22-6.81a2.13,2.13,0,0,0-2.81-1l-9.35,4.21a2.14,2.14,0,0,0-.82,3.24l5.46,7.24a2.12,2.12,0,0,1,.26,2.14l-4.1,9.41a2.14,2.14,0,0,1-3,1l-3.62-1.95a2.13,2.13,0,0,1-.9-2.83l2.76-5.51a2.14,2.14,0,0,0-.91-2.84l-5.54-2.95a2.12,2.12,0,0,0-2.37.24L776.29,961a2.15,2.15,0,0,1-2.77,0L770.13,958a2.13,2.13,0,0,0-3.11.34l-3.62,4.85a2.14,2.14,0,0,0,.44,3l6.63,4.91a2.14,2.14,0,0,1,0,3.4l-4.45,3.5a2.13,2.13,0,0,1-2.75-.1l-3.43-3.1a2.13,2.13,0,0,0-2.69-.14l-5.53,4a2.11,2.11,0,0,1-1.26.41H706.67a2.15,2.15,0,0,1-1.75-.9l-8.45-11.93a1.87,1.87,0,0,1-.22-.39L692,956.24a2.15,2.15,0,0,1-.08-1.48l2.92-9.58a2.14,2.14,0,0,0-.32-1.88l-6.55-9a2.13,2.13,0,0,0-3.47,0l-6.22,8.82a2.14,2.14,0,0,0-.18,2.14l4,8.57a2.14,2.14,0,0,1-.36,2.36l-9.18,9.94a2.12,2.12,0,0,1-2.52.46l-6.89-3.44a2.14,2.14,0,0,0-2.56.5l-8.1,9.19a2.13,2.13,0,0,1-2.94.24l-2.83-2.29a2.13,2.13,0,0,0-2.81.11l-8.75,8.23-3.65.58v41.21h387.25V978.57Z"/><path class="cls-14" d="M668.91,946.28a2.63,2.63,0,0,0-3.66-.44l-2.29,1.8a2.6,2.6,0,0,0-.81,3l1,2.51a2.6,2.6,0,0,0,3.13,1.52l1.86-.54a2.59,2.59,0,0,0,1.84-2.89l-.57-3.77A2.65,2.65,0,0,0,668.91,946.28Z"/><path class="cls-14" d="M764.84,935.91a4.84,4.84,0,0,0-2.31,6.44l2.31,4.91A4.83,4.83,0,0,0,770,950l5-.8a4.84,4.84,0,0,0,4.06-5.06l-.2-3.58a4.84,4.84,0,0,0-4.48-4.55l-7.07-.53A4.86,4.86,0,0,0,764.84,935.91Z"/><path class="cls-14" d="M794.43,932.83l-3.64,1.24a2.63,2.63,0,0,0-1.73,3l.38,1.91a2.62,2.62,0,0,0,2.82,2.1l2.72-.25a2.63,2.63,0,0,0,2.34-2.13l.54-2.9a2.62,2.62,0,0,0-3.43-3Z"/><path class="cls-14" d="M885.62,934.1l-5.23.86a1.53,1.53,0,0,0-.83,2.6L882,940a1.53,1.53,0,0,0,2.23-.09l2.81-3.25A1.53,1.53,0,0,0,885.62,934.1Z"/><path class="cls-14" d="M949.81,950.21l-2.32.79a3.06,3.06,0,0,0-1.76,4.25L947.6,959a3.07,3.07,0,0,0,3.77,1.53l.69-.25a3.07,3.07,0,0,1,3.9,1.83l1.62,4.42a3.1,3.1,0,0,1,.18,1.35,3.05,3.05,0,0,0,2.94,3.36l1.2,0a3,3,0,0,0,3.15-2.83l.13-1.81a12.59,12.59,0,0,0-5.61-11.4L957.66,954l-5.16-3.45A3.05,3.05,0,0,0,949.81,950.21Z"/><path class="cls-14" d="M994,970a1.43,1.43,0,0,0,2-.08l1.4-1.53a1.42,1.42,0,0,0-.75-2.35,1.42,1.42,0,0,1-.94-2.1l1-1.71a1.42,1.42,0,0,0-1.58-2.08l-.12,0a1.46,1.46,0,0,0-.85.61l-3.12,4.9a1.43,1.43,0,0,0,.24,1.82Z"/><path class="cls-14" d="M680.91,837.77l7-1.9a10.2,10.2,0,0,0,2-18.87l-1.06-.55a10.21,10.21,0,0,0-9.14-.16l-4.36,2.1A4.48,4.48,0,0,1,670,817.3l-4-4.57a4.47,4.47,0,0,0-7.84,2.93v14.86a4.47,4.47,0,0,0,2.72,4.11l5,2.14A22.86,22.86,0,0,0,680.91,837.77Z"/><path class="cls-14" d="M675.41,814.38l3.2-1.89a2,2,0,0,0,.16-3.41l-1-.72a2,2,0,0,0-2.75.34l-2.2,2.61a2,2,0,0,0,.27,2.9h0A2.05,2.05,0,0,0,675.41,814.38Z"/><path class="cls-14" d="M668,843.2l-4.34-1.53a3.38,3.38,0,0,0-4.25,1.88l-1,2.26a3.38,3.38,0,0,0,1.22,4.12l3.14,2.14a3.39,3.39,0,0,0,4.61-.76l2.16-2.87A3.39,3.39,0,0,0,668,843.2Z"/><path class="cls-14" d="M838.5,864.52l-2.16,5.1a7.64,7.64,0,0,0,2.74,9.28l7.08,4.81a7.63,7.63,0,0,0,10.4-1.72l4.85-6.46a7.63,7.63,0,0,0-3.56-11.78l-9.77-3.46A7.63,7.63,0,0,0,838.5,864.52Z"/><path class="cls-14" d="M883.4,239.82l5,2.13a22.77,22.77,0,0,0,14.92,1l7-1.9a10.21,10.21,0,0,0,5.73-4.1l1,13a4.93,4.93,0,0,1-.12,1.71l-4.72,18.84v0a4.34,4.34,0,0,0,2.78,5l43.18,16.24a4.83,4.83,0,0,0,6.89.4l12.18-11a4.85,4.85,0,0,0,1.57-3.07l2.57-23.43,2.78-48.54L986.69,179a4.84,4.84,0,0,0-1.49-4l-21.32-20.19a4.86,4.86,0,0,0-4.53-1.18l-24,6.13a4.36,4.36,0,0,1-1,.14l-33.08,1.59a4.85,4.85,0,0,0-2.46,8.87l12.79,33.17a4.82,4.82,0,0,1,2.12,3.49l1.32,17.21a10.33,10.33,0,0,0-2.73-2.11l-1.06-.55a10.19,10.19,0,0,0-9.13-.16l-4.37,2.1a4.47,4.47,0,0,1-5.3-1.09l-4-4.57a4.47,4.47,0,0,0-6.84.12h0a4.52,4.52,0,0,0-1,2.82V235.7A4.48,4.48,0,0,0,883.4,239.82Z"/><path class="cls-14" d="M895.55,219.39a2,2,0,0,0,2.31.17l3.2-1.89a2,2,0,0,0,.16-3.4l-1-.73a2,2,0,0,0-2.75.34l-2.2,2.61A2,2,0,0,0,895.55,219.39Z"/><path class="cls-14" d="M882.1,255.11l3.14,2.14a3.4,3.4,0,0,0,4.62-.76l2.15-2.87a3.39,3.39,0,0,0-1.57-5.23l-4.35-1.54a3.39,3.39,0,0,0-4.25,1.88l-1,2.26A3.39,3.39,0,0,0,882.1,255.11Z"/><path class="cls-14" d="M298.21,910.41l-4.53-3.6A5.31,5.31,0,0,0,286,908a5.3,5.3,0,0,1-8.46.5l-1.21-1.43a5.33,5.33,0,0,1-1.16-4.46l1.45-7.27a5.3,5.3,0,0,0-8.39-5.26l-9.64,7.26a5.31,5.31,0,0,0-1.87,5.82l5.76,18.29a5.35,5.35,0,0,0,.62,1.3l11.1,17a5.31,5.31,0,0,0,7.51,1.43l12.18-8.66a5.27,5.27,0,0,0,2-2.79l4.13-13.7A5.29,5.29,0,0,0,298.21,910.41Z"/><path class="cls-14" d="M285,880.74l2.54-3.81a2.57,2.57,0,0,0,.25-2.36l-1.45-3.72a2.57,2.57,0,0,0-3.61-1.33l-3.07,1.67a2.56,2.56,0,0,0-1.21,3.08l2,5.87A2.57,2.57,0,0,0,285,880.74Z"/><path class="cls-14" d="M849,856.82l6.12,1a2.57,2.57,0,0,0,2.67-3.75l-2.18-4a2.53,2.53,0,0,0-2-1.33l-4-.46a2.57,2.57,0,0,0-2.86,2.57l0,3.49A2.56,2.56,0,0,0,849,856.82Z"/><path class="cls-14" d="M863,889.7a2.16,2.16,0,0,0,3.28.33l3.57-3.47a2.15,2.15,0,0,0-1.79-3.68l-5.43.73a2.16,2.16,0,0,0-1.5,3.36Z"/><path class="cls-14" d="M989.8,882l-4.23-2.61a2.16,2.16,0,0,0-3.13,2.64l2,5.09a2.16,2.16,0,0,0,3.62.63l2.19-2.49A2.16,2.16,0,0,0,989.8,882Z"/><path class="cls-14" d="M373.7,900.73a2.59,2.59,0,0,0-2-1.33l-4-.46a2.56,2.56,0,0,0-2.86,2.57l0,3.5a2.57,2.57,0,0,0,2.15,2.51l6.12,1a2.57,2.57,0,0,0,2.67-3.76Z"/><path class="cls-14" d="M458.86,747.35a6.37,6.37,0,0,0-4.13-5.2L435,734.94a6.38,6.38,0,0,0-8.41,4.61l-1.22,5.52a6.37,6.37,0,0,0,8.38,7.37,6.37,6.37,0,0,1,7.65,2.74l3.43,5.79a6.37,6.37,0,0,0,8.6,2.31l3.18-1.79a6.37,6.37,0,0,0,3.2-6.33Z"/><path class="cls-14" d="M450.43,735a1.48,1.48,0,0,0,1.9-1.68l-.33-1.84a1.49,1.49,0,0,0-2.54-.77L448.17,732a1.49,1.49,0,0,0,.64,2.46Z"/><path class="cls-14" d="M391.68,848.64l-.7,1.74a1.49,1.49,0,0,0,1.52,2l1.69-.15a1.49,1.49,0,0,0,1.12-2.28l-1-1.58A1.48,1.48,0,0,0,391.68,848.64Z"/><path class="cls-14" d="M395.33,857.67l-3.06.65a5.5,5.5,0,0,1-6.31-3.51l-.15-.39a5.46,5.46,0,0,0-2.56-3l-5.51-3a5.51,5.51,0,0,0-7.55,2.41l-1.13,2.31a5.5,5.5,0,0,0,4,7.85l.61.11a5.49,5.49,0,0,1,4.08,3.08l1.58,3.36a5.52,5.52,0,0,0,5.64,3.12l9.91-1.2a5.62,5.62,0,0,0,1.6-.45l2.22-1a5.5,5.5,0,0,0-3.4-10.4Z"/><path class="cls-14" d="M373.78,867.55a1.86,1.86,0,1,0-3.18,1.61A1.85,1.85,0,0,0,373.78,867.55Z"/><path class="cls-14" d="M382.51,616.94l2.7-20.16a5.34,5.34,0,0,0,0-1.44l-2.66-19a5.31,5.31,0,0,0-4.19-4.46l-11.83-2.41a5.3,5.3,0,0,0-5.3,8.36l4.42,5.94a5.3,5.3,0,0,1,.88,4.52l-.48,1.82a5.3,5.3,0,0,1-7.86,3.18,5.3,5.3,0,0,0-7.49,2.21l-2.54,5.2a5.3,5.3,0,0,0,.84,5.89l9.61,10.6a5.32,5.32,0,0,0,3,1.66l14.72,2.58A5.3,5.3,0,0,0,382.51,616.94Z"/><path class="cls-14" d="M352.22,585,351,581.69a2.57,2.57,0,0,0-3.59-1.39l-3.55,1.85a2.56,2.56,0,0,0-1.36,1.94l-.61,4.54a2.58,2.58,0,0,0,3.84,2.56l5.36-3.11A2.57,2.57,0,0,0,352.22,585Z"/><path class="cls-14" d="M279.63,631.25l5.09-3.54a2.56,2.56,0,0,0,.86-3.19l-1.47-3.16a2.57,2.57,0,0,0-3.69-1.1L277,622.39a2.56,2.56,0,0,0-1.2,2L275.6,629A2.57,2.57,0,0,0,279.63,631.25Z"/><path class="cls-14" d="M394.86,528.73l-3.48-4.45a6.37,6.37,0,0,0-9.57-.55l-14.7,15a6.36,6.36,0,0,0-1.5,6.48l2.48,7.45a6.39,6.39,0,0,0,5.62,4.35l3.64.24a6.36,6.36,0,0,0,6.77-5.78l.61-6.7a6.38,6.38,0,0,1,5.72-5.76A6.38,6.38,0,0,0,394.86,528.73Z"/><path class="cls-14" d="M367.89,530.37l1.25-1.15a1.49,1.49,0,0,0-.47-2.49l-1.75-.66a1.49,1.49,0,0,0-2,1.79l.49,1.8A1.49,1.49,0,0,0,367.89,530.37Z"/><path class="cls-14" d="M236.5,589.46l1.59-.58a1.49,1.49,0,0,0,.5-2.49l-1.37-1.27a1.49,1.49,0,0,0-2.49.92l-.22,1.85A1.48,1.48,0,0,0,236.5,589.46Z"/><path class="cls-14" d="M256.47,593.23a5.49,5.49,0,0,1,2.35-4.53l.51-.36a5.5,5.5,0,0,0,.26-8.83l-2-1.59a5.51,5.51,0,0,0-7.85,1.06l-3.7,5a5.5,5.5,0,0,0-1,3.78l0,.43a5.49,5.49,0,0,1-4.19,5.88l-3,.72a5.51,5.51,0,0,0,1.4,10.86l2.43-.05a5.39,5.39,0,0,0,1.64-.29l9.47-3.18a5.5,5.5,0,0,0,3.74-5.24Z"/><path class="cls-14" d="M261.5,594.5a1.86,1.86,0,0,0,3.56.09h0a1.86,1.86,0,1,0-3.56-.09Z"/><path class="cls-14" d="M865.79,224.82A1.58,1.58,0,0,0,867,224l1.41-2.5a1.61,1.61,0,0,0-1.64-2.37l-3.83.56a1.61,1.61,0,0,0-1.38,1.55l-.05,2.18a1.6,1.6,0,0,0,1.76,1.64Z"/><path class="cls-14" d="M842.94,240.81l3.28-6.93,1.95-7.95,1.52,1a3.32,3.32,0,0,0,5-3.63l-1.2-4.48a3.32,3.32,0,0,1,.54-2.83l.7-.94a3.32,3.32,0,0,1,5.31,0,3.3,3.3,0,0,0,4.86.45L867.6,213a3.29,3.29,0,0,0,.88-3.61L865.35,201a3.35,3.35,0,0,0-1.37-1.67l-6.64-4.1.27-.58,1.75-7.16L865,179l-2-7.18-18-1.17-13.31,25.18-4.21,39,7.71,11.81Z"/><path class="cls-14" d="M950,674.43h0a18.59,18.59,0,0,0-22.36-4.93l-6.85,3.28a18.44,18.44,0,0,1-3.54,1.27l-56,13.94,40.9,29.38,70.27,2.3,30.53-28.22-3.46-12.1-34.18,1.81A18.6,18.6,0,0,1,950,674.43Z"/><path class="cls-14" d="M944.7,645.12l-1.48.15a6.44,6.44,0,0,0-5.27,9l2.64,6.1a6.44,6.44,0,0,0,12.24-3.74l-1.15-6.24A6.45,6.45,0,0,0,944.7,645.12Z"/><path class="cls-14" d="M912.7,589.76v4.84c0,.78.24,8.37.43,14.14a5.63,5.63,0,0,0,6.7,5.35l8.17-1.6a5.64,5.64,0,0,1,4.78,1.28l2.52,2.2a5.61,5.61,0,0,0,4.54,1.32l10.1-1.53a5.61,5.61,0,0,1,5.88,3,5.66,5.66,0,0,0,5,3.11h7.78a5.64,5.64,0,0,0,5.6-5L975.78,603a5.65,5.65,0,0,0-1.14-4.06l-11.35-14.72a5.61,5.61,0,0,0-3.85-2.15l-27.57-3a5.78,5.78,0,0,0-2.67.36l-12.92,5.08A5.63,5.63,0,0,0,912.7,589.76Z"/><path class="cls-14" d="M633.25,406.9c.41,2.9,8.28,54.62,9.75,64.29a3.25,3.25,0,0,0,1.6,2.33l36.06,20.75a4,4,0,0,0,.51.24l44.42,16.12a3.17,3.17,0,0,0,1.26.19l51.51-2.4a3.24,3.24,0,0,0,2.41-1.24l23.88-30.26a3.26,3.26,0,0,0,.68-1.57l9.15-65.93,9.91-65.57a3.24,3.24,0,0,0-.24-1.79L818.49,329a1.68,1.68,0,0,0-.15-.3l-2.44-4.35a3.26,3.26,0,0,0-4.1-1.41l-12.6,5.24a3.26,3.26,0,0,0-2,2.45l-1.38,7.93a3.3,3.3,0,0,0,.07,1.43l3.18,11.55a3.19,3.19,0,0,1,0,1.81l-5.28,17.47a3.23,3.23,0,0,0,.12,2.23l4,9.36a3.25,3.25,0,0,1-1,3.83l-15,12a3.28,3.28,0,0,0-1.22,2.55v18.39a3.27,3.27,0,0,1-1.57,2.79l-17.73,10.8A3.26,3.26,0,0,0,760,436.3l5,20.59a3.24,3.24,0,0,1-.38,2.47l-6.3,10.38a3.2,3.2,0,0,1-2.05,1.48l-26,6.07a3.26,3.26,0,0,0-2.4,2.3,3.27,3.27,0,0,1-5.61,1.28l-11.34-13a3.27,3.27,0,0,0-2.31-1.11l-16.3-.71a3.27,3.27,0,0,1-3.13-3.32l.38-20.06a3.26,3.26,0,0,0-1.41-2.75l-12.39-8.5a3.28,3.28,0,0,1-1.38-2.18l-7.48-46.74a1.36,1.36,0,0,1,0-.2l-1.67-17.08a3.26,3.26,0,0,0-1.28-2.29l-6.11-4.61a3.27,3.27,0,0,1-1.18-3.47l6-22a3.3,3.3,0,0,1,.4-.9l4.15-6.44a3.25,3.25,0,0,0-1.85-4.9l-14.1-4a3.26,3.26,0,0,0-3,.61c-2.75,2.25-8.67,7.23-7.18,7.23C643,324.45,632.8,403.71,633.25,406.9Z"/><path class="cls-14" d="M728.1,427.68a3.94,3.94,0,0,0-5-5.39l-12.09,5a4,4,0,0,0-2.43,3.61l0,4.82a20,20,0,0,0,4.22,12.48l3.89,5a9,9,0,0,0,10.54,2.8h0a9,9,0,0,0,5.51-7.5l.09-1a9,9,0,0,0-3-7.49l-3.17-2.85a3.93,3.93,0,0,1-.9-4.68Z"/><path class="cls-14" d="M735.36,436.8l.25-1.06a1.79,1.79,0,0,0-1.2-2.12l-2.87-.92a1.81,1.81,0,0,0-2.27,1.21h0a1.79,1.79,0,0,0,.65,1.94l2.61,2A1.8,1.8,0,0,0,735.36,436.8Z"/><path class="cls-14" d="M700.77,432.65l-2.17,0a3,3,0,0,0-2.94,2.38l-.68,3.28a3,3,0,0,0,2.18,3.5l3.06.78a3,3,0,0,0,3.73-3.05l-.22-4A3,3,0,0,0,700.77,432.65Z"/></g></g></g></svg>