<svg xmlns="http://www.w3.org/2000/svg" viewBox="0 0 1024 1024"><defs><style>.cls-1{fill:#fee9ab;}.cls-2{fill:#febe40;}.cls-3{fill:red;}.cls-4{fill:#220f0f;}.cls-5{fill:#dc527c;}.cls-6{fill:#fff;}.cls-7{fill:#fee7a3;}</style></defs><title>animalBaseA</title><g id="Layer_2" data-name="Layer 2"><g id="SkinComplete"><path class="cls-1" d="M393.33,975.5c0,7.39-.21,14.67-.63,21.8q-.27,4.8-.68,9.5-.13,1.68-.3,3.36c0,.13,0,.27,0,.4-.43,4.55-.94,9-1.54,13.44H250.6c-.6-4.4-1.11-8.89-1.54-13.44,0-.13,0-.27,0-.4q-.17-1.68-.3-3.36c-.27-3.1-.49-6.22-.67-9.38a.49.49,0,0,1,0-.12c-.42-7.13-.63-14.41-.63-21.8q0-3.59.07-7.13c0-1.58.07-3.15.11-4.71q.21-6.74.66-13.3a333.31,333.31,0,0,1,5.32-41.46A269,269,0,0,1,260.19,882c4.94-16.33,11.14-30.54,18.28-41.92,1.26-2,2.55-3.92,3.87-5.75q2.25-3.12,4.6-5.88c.44-.52.88-1,1.33-1.52l0,0c.86-1,1.72-1.87,2.59-2.74a59.24,59.24,0,0,1,8.19-6.91h0a42.47,42.47,0,0,1,4.2-2.59A36.14,36.14,0,0,1,317,810.23a31.75,31.75,0,0,1,3.38-.18h.74a35.88,35.88,0,0,1,17.27,5.07,46.4,46.4,0,0,1,4.24,2.76,61,61,0,0,1,8.2,7.22A79.46,79.46,0,0,1,357,832.4c.36.47.72,1,1.06,1.43q.18.23.33.45c1,1.36,2,2.77,2.9,4.24q1.27,2,2.5,4c.64,1.08,1.28,2.19,1.91,3.32l1.15,2.11q1.32,2.49,2.59,5.11a198.21,198.21,0,0,1,11.44,30,274.39,274.39,0,0,1,6.45,26.68,337,337,0,0,1,5.15,40.61q.45,6.57.66,13.3c0,1.56.08,3.13.11,4.71Q393.34,971.91,393.33,975.5Z"/><rect class="cls-2" x="2.51" y="490" width="182.97" height="154"/><rect class="cls-2" width="1024" height="1024"/><rect class="cls-2" width="643" height="490"/><rect class="cls-2" y="139.59" width="643" height="350.41"/><path class="cls-1" d="M401.06,325.05c0-38.07-35.48-68.93-79.25-68.93S242.57,287,242.57,325.05h0a173.92,173.92,0,0,0,.54,28.32l12.38,122.91,64.82,5.58h2.74l64.82-5.58,12.55-124.56a175.66,175.66,0,0,0,.71-25Z"/><rect class="cls-2" x="824" y="134" width="200" height="390"/><rect class="cls-2" x="624" y="864.49" width="400" height="159.51"/><rect class="cls-3" x="992" width="32" height="32"/><path class="cls-1" d="M62.68,574.58l23.18-48.09c3.87-8,10.4-8,14.27,0l23.18,48.09c5.89,12.22,1.46,32.29-7.13,32.29H69.81C61.22,606.87,56.79,586.8,62.68,574.58Z"/><path class="cls-1" d="M393.33,950v.36c0,4.47-.07,8.91-.18,13.3,0,1.58-.1,3.15-.16,4.71-.35,9.88-1,19.55-1.92,28.93q-.46,4.8-1,9.5c-.14,1.13-.27,2.25-.42,3.36,0,.13,0,.27-.05.4q-.87,6.84-1.93,13.44H253.09q-1.07-6.6-1.93-13.44c0-.13,0-.27,0-.4-.15-1.11-.28-2.23-.42-3.36q-.56-4.69-1-9.5-.33-3.28-.6-6.63-.91-10.93-1.32-22.3c-.06-1.56-.11-3.13-.16-4.71-.11-4.39-.18-8.83-.18-13.3V950c0-15.15.67-29.88,2-44,.94-10.44,2.21-20.54,3.77-30.24a344,344,0,0,1,9.21-41.47q2.6-9,5.6-17,2.55-7,5.4-13.22a141.77,141.77,0,0,1,9.84-18.34h0c.29-.46.59-.91.88-1.35,9.77-14.7,21-23.64,32.92-25.06a27.26,27.26,0,0,1,3.38-.21c.25,0,.5,0,.74,0,13.31.34,25.77,10,36.46,26.63.31.49.63,1,.93,1.48,1.41,2.26,2.78,4.64,4.13,7.13l1,1.87c.24.46.48.93.71,1.4.32.63.64,1.26.95,1.9.57,1.17,1.14,2.37,1.7,3.58.47,1,.95,2.09,1.42,3.16q3.28,7.53,6.21,16,2,5.79,3.8,12c.14.46.28.92.4,1.38a348.22,348.22,0,0,1,9.09,41.89c1.49,9.45,2.69,19.28,3.58,29.42C392.69,920.8,393.33,935.2,393.33,950Z"/><path class="cls-4" d="M314.66,259.06l5.47,5.81a2.32,2.32,0,0,0,3.37,0l5.47-5.81a2.31,2.31,0,0,0-1.69-3.9H316.34A2.31,2.31,0,0,0,314.66,259.06Z"/><path class="cls-5" d="M312.87,272.6a2.06,2.06,0,0,0-.06-.85,1.59,1.59,0,0,0-.07-.2l-.05-.13-.05-.12c-.06-.15-.22-.33-.2-.33a.73.73,0,0,0-.05-.09h0c.06,0,.22.08.38.13a10.16,10.16,0,0,0,1.1.36,24,24,0,0,0,2.5.61,26.49,26.49,0,0,0,5.15.49,20.18,20.18,0,0,0,5-.61,21.41,21.41,0,0,0,4.7-1.84l.13-.06a2.51,2.51,0,0,1,2.91,4,16.54,16.54,0,0,1-5.87,3.68,20.32,20.32,0,0,1-6.82,1.23,22.61,22.61,0,0,1-6.71-1,19.68,19.68,0,0,1-3.19-1.28,13.59,13.59,0,0,1-1.59-.95,8.37,8.37,0,0,1-.88-.69l-.25-.23-.32-.36a3.53,3.53,0,0,1-.42-.62l-.1-.2a2.67,2.67,0,0,1-.15-.42,2.8,2.8,0,0,1-.1-1,2.5,2.5,0,1,1,5,.46Z"/><rect class="cls-4" x="348.5" y="213.11" width="19.99" height="30.6" rx="10" ry="10"/><path class="cls-4" d="M361,210.61h0a10,10,0,0,1,10,10v15a0,0,0,0,1,0,0H361a10,10,0,0,1-10-10v-5a10,10,0,0,1,10-10Z" transform="translate(137.9 584.11) rotate(-90)"/><path class="cls-1" d="M345.69,195.11c5.62-1.69,11.54-.94,17.22-.14s11.59,1.68,16.53,4.84c2.53,1.64,6.07-.52,5-3.5-1.86-5.08-9.38-10.46-20-11.93s-19.36,1.63-22.55,6C340,193,342.81,196,345.69,195.11Z"/><path class="cls-1" d="M295.56,204.92c-5.62-1.69-11.54-.94-17.23-.14s-11.58,1.68-16.52,4.84c-2.53,1.64-6.08-.52-5-3.51,1.87-5.07,9.38-10.45,20.05-11.92s19.36,1.63,22.54,6C301.26,202.77,298.43,205.82,295.56,204.92Z"/><rect class="cls-4" x="275.88" y="213.11" width="19.99" height="30.6" rx="10" ry="10" transform="translate(571.75 456.82) rotate(180)"/><path class="cls-4" d="M283.38,210.61h10a0,0,0,0,1,0,0v15a10,10,0,0,1-10,10h0a10,10,0,0,1-10-10v-5a10,10,0,0,1,10-10Z" transform="translate(60.27 506.48) rotate(-90)"/><circle class="cls-1" cx="360.94" cy="251.16" r="2.56"/><circle class="cls-1" cx="369.57" cy="247.56" r="2.56"/><circle class="cls-1" cx="368.41" cy="256.9" r="2.56"/><circle class="cls-1" cx="282.68" cy="251.16" r="2.56"/><circle class="cls-1" cx="274.05" cy="247.56" r="2.56"/><circle class="cls-1" cx="275.22" cy="256.9" r="2.56"/><path class="cls-6" d="M358.51,220.79a3.66,3.66,0,0,0,3.28,4,3.88,3.88,0,1,0-3.28-4Z"/><path class="cls-6" d="M286.4,220.79a3.67,3.67,0,0,0,3.29,4,3.88,3.88,0,0,0,.47-7.71A3.78,3.78,0,0,0,286.4,220.79Z"/><polygon class="cls-1" points="551.89 567.91 540.58 561.91 529.28 567.91 517.98 561.91 506.68 567.91 495.38 561.91 484.08 567.91 470.56 562.89 471.01 577.35 564.97 577.34 565.41 562.89 551.89 567.91"/><rect class="cls-1" x="471.01" y="577.35" width="93.96" height="59.41"/><rect class="cls-7" x="643" width="381" height="134"/><polygon class="cls-1" points="685.44 264.47 707.95 249.74 745.85 249.74 766.21 270.93 802.62 281.64 772.27 317.95 731.97 325.06 687.32 319.15 647.96 284.21 685.44 264.47"/><polygon class="cls-1" points="685.44 439.39 707.95 424.66 745.85 424.66 766.21 445.84 802.62 456.56 772.27 492.86 731.97 499.98 687.32 494.07 647.96 459.13 685.44 439.39"/><path class="cls-1" d="M654.75,785.69c0,21.1,31.83,38.21,71.09,38.21s71.09-17.11,71.09-38.21Z"/></g></g></svg>