<svg xmlns="http://www.w3.org/2000/svg" viewBox="0 0 1024 1024"><defs><style>.cls-1{fill:#ece8f4;}.cls-2{fill:#cdc5e2;}.cls-3{fill:red;}.cls-4{fill:#220f0f;}.cls-5{fill:#fff;}.cls-6{fill:#ba2246;}.cls-7{fill:#d8d3e5;}</style></defs><title>animalBaseJ</title><g id="Layer_2" data-name="Layer 2"><g id="SkinComplete"><path class="cls-1" d="M393.33,975.5c0,1,0,1.92,0,2.87,0,.18,0,.36,0,.53,0,1.51,0,3-.06,4.52q-.09,4.33-.28,8.61c-.08,1.77-.17,3.52-.27,5.27q-.27,4.8-.68,9.5c-.1,1.26-.21,2.51-.34,3.76-.43,4.55-.94,9-1.54,13.44H250.6c-.6-4.4-1.11-8.89-1.54-13.44-.13-1.25-.24-2.5-.34-3.76q-.41-4.69-.68-9.5-.16-2.67-.27-5.37-.18-4.14-.28-8.34c0-1.56-.05-3.12-.06-4.69,0-.17,0-.35,0-.53v-1.16c0-.57,0-1.14,0-1.71q0-3.79.07-7.54c0-1.44.07-2.87.11-4.3,1-31.75,5.94-61,13.72-85.31a188.29,188.29,0,0,1,11.25-27.84,120,120,0,0,1,11.31-18.3c10.74-14.09,23.2-22.16,36.5-22.16s25.76,8.07,36.5,22.16a116.36,116.36,0,0,1,10.69,17.12,185.08,185.08,0,0,1,11.87,29c7.78,24.29,12.73,53.56,13.72,85.31,0,1.43.08,2.86.11,4.3,0,1.73.05,3.46.06,5.21C393.33,973.94,393.33,974.72,393.33,975.5Z"/><rect class="cls-2" x="2.51" y="490" width="182.97" height="154"/><rect class="cls-2" width="1024" height="1024"/><rect class="cls-2" width="643" height="490"/><rect class="cls-2" y="139.59" width="643" height="350.41"/><path class="cls-1" d="M401.06,325.05c0-38.07-35.48-68.93-79.25-68.93S242.57,287,242.57,325.05h0a173.92,173.92,0,0,0,.54,28.32l12.38,122.91,64.82,5.58h2.74l64.82-5.58,12.55-124.56a175.66,175.66,0,0,0,.71-25Z"/><rect class="cls-2" x="824" y="134" width="200" height="390"/><rect class="cls-2" x="624" y="864.49" width="400" height="159.51"/><rect class="cls-3" x="992" width="32" height="32"/><path class="cls-1" d="M62.68,574.58l23.18-48.09c3.87-8,10.4-8,14.27,0l23.18,48.09c5.89,12.22,1.46,32.29-7.13,32.29H69.81C61.22,606.87,56.79,586.8,62.68,574.58Z"/><path class="cls-1" d="M393.33,950q0,6.88-.18,13.66c0,1.44-.09,2.87-.15,4.3q-.08,2.63-.21,5.22c-.07,1.74-.16,3.47-.26,5.19l0,.53c-.09,1.51-.18,3-.29,4.52-.19,2.9-.41,5.76-.66,8.61-.15,1.77-.31,3.53-.48,5.27q-.46,4.8-1,9.5c-.15,1.26-.31,2.51-.47,3.76q-.87,6.84-1.93,13.44H253.09q-1.07-6.6-1.93-13.44c-.16-1.25-.32-2.5-.47-3.76q-.56-4.69-1-9.5c-.17-1.74-.33-3.5-.48-5.27q-.37-4.26-.66-8.6c-.11-1.5-.2-3-.29-4.53l0-.53-.06-1.18q-.26-4.58-.41-9.23c-.06-1.43-.11-2.86-.15-4.3q-.18-6.76-.18-13.66a471.82,471.82,0,0,1,5.31-71.65q1.64-10.54,3.73-20.43c1.9-9,4.07-17.64,6.49-25.71q2.31-7.71,4.92-14.75,2-5.33,4.07-10.25,1-2.26,2-4.44,2.1-4.51,4.31-8.63c6.11-11.34,12.91-20.28,20.21-26.3,6.93-5.71,14.3-8.79,21.95-8.79,8.08,0,15.85,3.43,23.11,9.78,7.49,6.54,14.43,16.16,20.61,28.3.51,1,1,2,1.5,3s1,2.14,1.52,3.23a224.1,224.1,0,0,1,10.69,28.84c2.27,7.59,4.34,15.65,6.15,24.11,1.53,7.07,2.89,14.43,4.07,22A471.82,471.82,0,0,1,393.33,950Z"/><path class="cls-1" d="M345.69,195.11c5.62-1.69,11.54-.94,17.22-.14s11.59,1.68,16.53,4.84c2.53,1.64,6.07-.52,5-3.5-1.86-5.08-9.38-10.46-20-11.93s-19.36,1.63-22.55,6C340,193,342.81,196,345.69,195.11Z"/><path class="cls-1" d="M295.56,204.92c-5.62-1.69-11.54-.94-17.23-.14s-11.58,1.68-16.52,4.84c-2.53,1.64-6.08-.52-5-3.51,1.87-5.07,9.38-10.45,20.05-11.92s19.36,1.63,22.54,6C301.26,202.77,298.43,205.82,295.56,204.92Z"/><circle class="cls-1" cx="360.94" cy="251.16" r="2.56"/><circle class="cls-1" cx="369.57" cy="247.56" r="2.56"/><circle class="cls-1" cx="368.41" cy="256.9" r="2.56"/><circle class="cls-1" cx="282.68" cy="251.16" r="2.56"/><circle class="cls-1" cx="274.05" cy="247.56" r="2.56"/><circle class="cls-1" cx="275.22" cy="256.9" r="2.56"/><rect class="cls-4" x="348.5" y="213.11" width="19.99" height="30.6" rx="10" ry="10"/><rect class="cls-4" x="275.88" y="213.11" width="19.99" height="30.6" rx="10" ry="10" transform="translate(571.75 456.82) rotate(180)"/><path class="cls-4" d="M363.71,206.77h0A10.22,10.22,0,0,1,373.92,217V238a0,0,0,0,1,0,0H363.71a10.22,10.22,0,0,1-10.22-10.22V217a10.22,10.22,0,0,1,10.22-10.22Z" transform="translate(141.3 586.11) rotate(-90)"/><path class="cls-4" d="M280.44,206.77h10.22a0,0,0,0,1,0,0v21.06A10.22,10.22,0,0,1,280.44,238h0a10.22,10.22,0,0,1-10.22-10.22V217A10.22,10.22,0,0,1,280.44,206.77Z" transform="translate(58.03 502.84) rotate(-90)"/><rect class="cls-4" x="348.07" y="212.19" width="20.43" height="31.27" rx="10.22" ry="10.22"/><rect class="cls-4" x="275.64" y="212.19" width="20.43" height="31.27" rx="10.22" ry="10.22" transform="translate(571.72 455.65) rotate(-180)"/><path class="cls-5" d="M358.51,220.79a3.66,3.66,0,0,0,3.28,4,3.88,3.88,0,1,0-3.28-4Z"/><path class="cls-5" d="M286.4,220.79a3.67,3.67,0,0,0,3.29,4,3.88,3.88,0,0,0,.47-7.71A3.78,3.78,0,0,0,286.4,220.79Z"/><path class="cls-4" d="M326.51,245.79h-9.39a7.11,7.11,0,0,0-6.3,3.81h0a7.12,7.12,0,0,0,2.34,9.22l4.7,3.14a7.12,7.12,0,0,0,7.91,0l4.69-3.14a7.11,7.11,0,0,0,2.35-9.22h0A7.13,7.13,0,0,0,326.51,245.79Z"/><path class="cls-5" d="M358.51,220.79a3.66,3.66,0,0,0,3.28,4,3.88,3.88,0,1,0-3.28-4Z"/><path class="cls-5" d="M286.4,220.79a3.67,3.67,0,0,0,3.29,4,3.88,3.88,0,0,0,.47-7.71A3.78,3.78,0,0,0,286.4,220.79Z"/><polygon class="cls-1" points="551.89 567.91 540.58 561.91 529.28 567.91 517.98 561.91 506.68 567.91 495.38 561.91 484.08 567.91 470.56 562.89 471.01 577.35 564.97 577.34 565.41 562.89 551.89 567.91"/><rect class="cls-1" x="471.01" y="577.35" width="93.96" height="59.41"/><path class="cls-6" d="M307.63,267.37a12.47,12.47,0,0,1,1.82,0c.63,0,1.23.08,1.83.12l3.51.33c2.28.23,4.45.42,6.58.59s4.18.19,6.3.18c.53,0,1.07,0,1.63,0s1.08-.08,1.64-.1c1.17,0,2.26-.21,3.6-.14l.76,0a3.33,3.33,0,0,1,2.35,5.5,20,20,0,0,1-1.66,1.66c-.29.27-.59.52-.9.78s-.64.43-1,.65c-.67.41-1.35.82-2.05,1.2s-1.45.6-2.19.88a23.35,23.35,0,0,1-9.27,1.26,25.54,25.54,0,0,1-8.82-2.14A23.34,23.34,0,0,1,307.9,276a16.83,16.83,0,0,1-1.77-1.41,18.61,18.61,0,0,1-1.68-1.73,3.26,3.26,0,0,1,.33-4.6,3.36,3.36,0,0,1,1.76-.77Z"/><rect class="cls-7" x="643" width="381" height="134"/><polygon class="cls-1" points="685.44 264.47 707.95 249.74 745.85 249.74 766.21 270.93 802.62 281.64 772.27 317.95 731.97 325.06 687.32 319.15 647.96 284.21 685.44 264.47"/><polygon class="cls-1" points="685.44 439.39 707.95 424.66 745.85 424.66 766.21 445.84 802.62 456.56 772.27 492.86 731.97 499.98 687.32 494.07 647.96 459.13 685.44 439.39"/><path class="cls-1" d="M654.75,785.69c0,21.1,31.83,38.21,71.09,38.21s71.09-17.11,71.09-38.21Z"/></g></g></svg>