<svg xmlns="http://www.w3.org/2000/svg" xmlns:xlink="http://www.w3.org/1999/xlink" viewBox="0 0 1024 1024"><defs><style>.cls-1{isolation:isolate;}.cls-2{fill:#fff;}.cls-3{fill:#c95a20;}.cls-4{fill:#f6a563;}.cls-5{fill:red;}.cls-6{fill:#220f0f;}.cls-7{fill:#ba2246;}.cls-8{fill:#e4783e;}.cls-9{fill:#28be7f;}.cls-10{fill:#ccdde7;}.cls-11{fill:#65dcb4;}.cls-12,.cls-13{opacity:0.45;}.cls-12,.cls-13,.cls-18{mix-blend-mode:overlay;}.cls-12{fill:url(#linear-gradient);}.cls-13{fill:url(#linear-gradient-2);}.cls-14{fill:lime;}.cls-15{fill:#f8c79d;}.cls-16{fill:#d3eef4;}.cls-17{fill:#badde2;}.cls-18{opacity:0.15;}</style><linearGradient id="linear-gradient" x1="657.77" y1="835.05" x2="657.77" y2="786.3" gradientUnits="userSpaceOnUse"><stop offset="0" stop-opacity="0"/><stop offset="1"/></linearGradient><linearGradient id="linear-gradient-2" x1="794.72" y1="835.05" x2="794.72" y2="786.3" xlink:href="#linear-gradient"/></defs><title>animalF</title><g class="cls-1"><g id="Layer_2" data-name="Layer 2"><g id="SkinComplete"><path class="cls-2" d="M393.33,975.5c0,7.39-.21,14.67-.63,21.8-.17,3-.39,6-.64,9,0,.17,0,.34,0,.5-.1,1.26-.21,2.51-.34,3.76-.43,4.55-.94,9-1.54,13.44H250.6c-.6-4.4-1.11-8.89-1.54-13.44-.13-1.25-.24-2.5-.34-3.76,0-.16,0-.33,0-.5q-.37-4.39-.63-8.88a.49.49,0,0,1,0-.12c-.42-7.13-.63-14.41-.63-21.8q0-3.59.07-7.13.17-9.14.77-18a333.31,333.31,0,0,1,5.32-41.46c1.37-7.11,3-14,4.76-20.5q.9-3.27,1.86-6.45a210.35,210.35,0,0,1,7.21-20.2,137.08,137.08,0,0,1,14.94-27.47,70.46,70.46,0,0,1,16.73-17.06h0a42.47,42.47,0,0,1,4.2-2.59c.62-.35,1.25-.67,1.88-1a34.7,34.7,0,0,1,15.21-3.61,35.22,35.22,0,0,1,16.27,4.13c.58.3,1.16.61,1.74,1a46.4,46.4,0,0,1,4.24,2.76,71.63,71.63,0,0,1,15.78,16.39,140.36,140.36,0,0,1,15.8,29.54q3.65,9,6.69,19.25.78,2.63,1.52,5.33c1.86,6.8,3.51,13.94,4.93,21.35a337,337,0,0,1,5.15,40.61q.6,8.86.77,18Q393.34,971.91,393.33,975.5Z"/><rect class="cls-3" x="2.51" y="490" width="182.97" height="154"/><rect class="cls-3" width="1024" height="1024"/><rect class="cls-3" x="624" y="524" width="400" height="240"/><rect class="cls-3" width="643" height="490"/><rect class="cls-3" y="139.59" width="643" height="350.41"/><path class="cls-4" d="M401.06,325.05c0-38.07-35.48-68.93-79.25-68.93S242.57,287,242.57,325.05h0a173.92,173.92,0,0,0,.54,28.32l12.38,122.91,64.82,5.58h2.74l64.82-5.58,12.55-124.56a175.66,175.66,0,0,0,.71-25Z"/><rect class="cls-3" x="824" y="134" width="200" height="390"/><rect class="cls-3" x="624" y="864.49" width="400" height="159.51"/><rect class="cls-5" x="992" width="32" height="32"/><path class="cls-4" d="M62.68,574.58l23.18-48.09c3.87-8,10.4-8,14.27,0l23.18,48.09c5.89,12.22,1.46,32.29-7.13,32.29H69.81C61.22,606.87,56.79,586.8,62.68,574.58Z"/><path class="cls-4" d="M385.89,950v.36q0,9.1-.3,18c-.22,6.89-.58,13.68-1,20.33-.2,2.9-.43,5.76-.68,8.6q-.42,4.8-.91,9.5l-.42,3.76q-.79,6.84-1.74,13.44H260q-.94-6.6-1.74-13.44l-.42-3.76q-.5-4.69-.91-9.5-.21-2.32-.39-4.68-.92-11.67-1.32-23.85c0-.13,0-.27,0-.4q-.28-8.89-.3-18V950c0-13.5.48-26.67,1.4-39.37q.81-11.39,2.08-22.23.42-3.61.89-7.15a386.78,386.78,0,0,1,9-47l.45-1.71c4.47-16.68,9.87-31.14,16-42.71.32-.63.66-1.25,1-1.86.95-1.71,1.9-3.36,2.88-4.93l.75-1.21c9.25-14.55,19.83-22.81,31.08-22.81,11.61,0,22.51,8.8,32,24.23a.75.75,0,0,1,.07.12c1.19,1.93,2.34,4,3.47,6.1.36.65.7,1.32,1,2h0c6,11.69,11.23,26.17,15.58,42.78.15.54.29,1.09.43,1.64a394.13,394.13,0,0,1,8.77,46.63q.38,2.9.72,5.85,1.3,11.25,2.15,23.1C385.43,923.93,385.89,936.81,385.89,950Z"/><rect class="cls-6" x="348.5" y="213.11" width="19.99" height="30.6" rx="10" ry="10"/><rect class="cls-6" x="275.88" y="213.11" width="19.99" height="30.6" rx="10" ry="10" transform="translate(571.75 456.82) rotate(-180)"/><path class="cls-6" d="M326.51,245.79h-9.39a7.11,7.11,0,0,0-6.3,3.81h0a7.12,7.12,0,0,0,2.34,9.22l4.7,3.14a7.12,7.12,0,0,0,7.91,0l4.69-3.14a7.11,7.11,0,0,0,2.35-9.22h0A7.13,7.13,0,0,0,326.51,245.79Z"/><path class="cls-4" d="M384.41,199.09a6.39,6.39,0,0,1-1.91-.3,66.15,66.15,0,0,0-19.13-2.52,6.36,6.36,0,0,1,0-12.71,79,79,0,0,1,22.95,3.12,6.35,6.35,0,0,1-1.91,12.41Z"/><path class="cls-4" d="M260,199.09a6.35,6.35,0,0,1-1.91-12.41A79,79,0,0,1,281,183.56a6.36,6.36,0,0,1,0,12.71,66.13,66.13,0,0,0-19.12,2.52A6.39,6.39,0,0,1,260,199.09Z"/><path class="cls-6" d="M363.71,206.77h0A10.22,10.22,0,0,1,373.92,217V238a0,0,0,0,1,0,0H363.71a10.22,10.22,0,0,1-10.22-10.22V217A10.22,10.22,0,0,1,363.71,206.77Z" transform="translate(141.3 586.11) rotate(-90)"/><path class="cls-6" d="M280.44,206.77h10.22a0,0,0,0,1,0,0v21.06A10.22,10.22,0,0,1,280.44,238h0a10.22,10.22,0,0,1-10.22-10.22V217A10.22,10.22,0,0,1,280.44,206.77Z" transform="translate(58.03 502.84) rotate(-90)"/><rect class="cls-6" x="348.07" y="212.19" width="20.43" height="31.27" rx="10.22" ry="10.22"/><rect class="cls-6" x="275.64" y="212.19" width="20.43" height="31.27" rx="10.22" ry="10.22" transform="translate(571.72 455.65) rotate(180)"/><path class="cls-7" d="M309.22,270.06a13.41,13.41,0,0,1,1.8-.33c.61-.09,1.21-.15,1.82-.23l3.5-.36c2.28-.23,4.45-.46,6.56-.72s4.14-.63,6.23-1.05c.51-.11,1-.23,1.59-.32s1-.29,1.59-.41c1.15-.2,2.17-.66,3.5-.85l.75-.11a3.33,3.33,0,0,1,3.38,4.94,18.88,18.88,0,0,1-1.3,1.95c-.23.32-.48.63-.73.94s-.55.55-.83.82c-.57.54-1.16,1.07-1.77,1.58s-1.3.88-2,1.3a23.39,23.39,0,0,1-8.84,3,25.47,25.47,0,0,1-9.06-.37,23.6,23.6,0,0,1-4.26-1.4,18.23,18.23,0,0,1-2-1,17.34,17.34,0,0,1-2-1.37,3.25,3.25,0,0,1-.57-4.57,3.17,3.17,0,0,1,1.57-1.1Z"/><path class="cls-2" d="M358.51,220.79a3.66,3.66,0,0,0,3.28,4,3.88,3.88,0,1,0-3.28-4Z"/><path class="cls-2" d="M286.4,220.79a3.67,3.67,0,0,0,3.29,4,3.88,3.88,0,0,0,.47-7.71A3.78,3.78,0,0,0,286.4,220.79Z"/><polygon class="cls-4" points="565.41 562.89 564.97 577.34 564.97 636.76 471.01 636.76 471.01 577.35 470.56 562.89 484.08 567.91 495.38 561.91 506.68 567.91 517.98 561.91 529.28 567.91 540.58 561.91 551.89 567.91 565.41 562.89"/><rect class="cls-8" x="643" width="381" height="134"/><rect class="cls-9" x="643" y="134" width="181" height="390"/><polygon class="cls-2" points="685.44 439.39 707.95 424.66 745.85 424.66 766.21 445.84 763.57 471.33 735.92 484.58 701.16 478.78 685.44 439.39"/><polygon class="cls-2" points="685.44 264.47 707.95 249.74 745.85 249.74 766.21 270.93 763.57 296.42 735.92 309.66 701.16 303.87 685.44 264.47"/><rect class="cls-2" x="713.32" y="395.74" width="26.58" height="5.41" rx="2.7" ry="2.7"/><rect class="cls-2" x="713.32" y="386.11" width="26.58" height="5.41" rx="2.7" ry="2.7"/><rect class="cls-2" x="713.32" y="405.83" width="26.58" height="5.41" rx="2.7" ry="2.7"/><rect class="cls-2" x="713.32" y="221.15" width="26.58" height="5.41" rx="2.7" ry="2.7"/><rect class="cls-2" x="713.32" y="210.84" width="26.58" height="5.41" rx="2.7" ry="2.7"/><rect class="cls-2" x="713.32" y="231.25" width="26.58" height="5.41" rx="2.7" ry="2.7"/><path class="cls-10" d="M806,315.06l-8.41,15.88-.11,13.64L779,393.74l-11.25,31.05L756,456.55a25.15,25.15,0,0,1-7.8,10.82h0a25.17,25.17,0,0,1-11.82,5.27l-6,1a25.15,25.15,0,0,1-9.7-.34l-4.78-1.11a25.16,25.16,0,0,1-12.13-6.73l-.59-.59a25.08,25.08,0,0,1-5.47-8.21L689.55,437l-11.5-28.5-4-13.8-6-26.11L666.6,353l-.05-26.66h-20.5V483.78l57.24,18H797l13-48,10.5-98.48V319.61Z"/><path class="cls-10" d="M806,139.59l-8.17,15.88-.12,13.64L779,218.27l-11.25,31L756,281.09a25.15,25.15,0,0,1-7.8,10.82h0a25.15,25.15,0,0,1-11.82,5.26l-6,1a25.14,25.14,0,0,1-9.7-.33l-4.78-1.11A25.32,25.32,0,0,1,703.69,290l-.59-.59a25,25,0,0,1-5.47-8.22l-8.08-19.59-11.5-28.5-4-13.8-6-26.1L666.6,177.5l-.05-26.65h-20.5V308.31l57.24,18H797l13-48,10.5-98.49V144.14Z"/><path class="cls-2" d="M692.28,330.68l3.64,22.77a23.6,23.6,0,0,0,5.46,11.72l8.31,9.59a23.6,23.6,0,0,0,17.82,8.13h0a23.59,23.59,0,0,0,14.58-5.05l3.43-2.7a23.55,23.55,0,0,0,5.29-5.84l4.8-7.53a23.4,23.4,0,0,0,2.21-4.42L768.42,329H692.28Z"/><path class="cls-2" d="M692.28,154.72l3.64,22.77a23.6,23.6,0,0,0,5.46,11.72l8.31,9.58a23.58,23.58,0,0,0,17.82,8.14h0a23.59,23.59,0,0,0,14.58-5.05l3.43-2.71a23.37,23.37,0,0,0,5.29-5.84l4.8-7.52a23.79,23.79,0,0,0,2.21-4.43L768.42,153H692.28Z"/><rect class="cls-11" x="624" y="764" width="400" height="109.12"/><rect class="cls-2" x="631.59" y="968.54" width="383.62" height="48.93"/><rect class="cls-10" x="631.59" y="968.54" width="383.62" height="6.96"/><rect class="cls-9" x="624" y="864.42" width="400" height="8.7"/><rect class="cls-9" x="624" y="775.88" width="400" height="26.57"/><path class="cls-12" d="M682.15,786.3a48.75,48.75,0,0,1-48.75,48.75V786.3Z"/><path class="cls-13" d="M770.35,786.3a48.75,48.75,0,0,0,48.75,48.75V786.3Z"/><rect class="cls-14" x="992" width="32" height="32"/><path class="cls-11" d="M180.74,484.58V1024H460V484.58ZM284.66,789.82c-.13-.36-.27-.73-.4-1.1l-.63-1.76-.28-.81-.16-.46a2.09,2.09,0,0,0-.08-.23c-.36-1.09-.72-2.19-1.07-3.29-.11-.35-.22-.71-.32-1.06-.19-.6-.36-1.2-.54-1.79-.35-1.2-.68-2.4-1-3.59,0-.06,0-.12-.05-.17-.17-.64-.33-1.27-.49-1.91s-.25-1-.37-1.51c0-.19-.1-.39-.14-.58l-.24-1c-.12-.53-.24-1.06-.35-1.59l-.24-1.12c0-.17-.07-.34-.11-.51a.28.28,0,0,1,0-.09.14.14,0,0,1,0-.06c0-.13-.05-.25-.07-.37-.12-.59-.24-1.18-.35-1.76-.47-2.48-.86-4.92-1.17-7.3-.11-.87-.22-1.74-.31-2.59-.07-.67-.14-1.34-.2-2-.24-2.71-.36-5.32-.36-7.79,0-11.91,2.88-18.86,7.81-22.91a17.37,17.37,0,0,1,2.57-1.75c7.93-4.49,19.72-3.76,33-3.68h3.11c14,0,26.49-1,34.6,4.07a16.85,16.85,0,0,1,1.9,1.36,17.13,17.13,0,0,1,3.9,4.54c2.31,3.83,3.68,9.1,3.89,16.34,0,.66,0,1.34,0,2,0,.3,0,.61,0,.92,0,.49,0,1,0,1.49s0,1.12-.07,1.69,0,.94-.08,1.42-.07,1.05-.12,1.59-.08,1-.13,1.54c0,0,0,.09,0,.13-.05.52-.1,1.05-.17,1.58q-.18,1.65-.42,3.33-.09.71-.21,1.41c-.32,2.08-.69,4.2-1.13,6.34,0,.12-.05.24-.07.37a.14.14,0,0,1,0,.06,3.82,3.82,0,0,1-.09.44.13.13,0,0,1,0,.06c-.07.37-.16.75-.24,1.13l-.12.56-.09.4-.12.53c0,.06,0,.12,0,.19s-.1.43-.16.65-.14.63-.22.94c-.21.87-.42,1.74-.65,2.61-.09.32-.17.65-.26,1s-.12.47-.19.71l-.18.66-.12.42c-.09.33-.18.67-.28,1s-.27.94-.42,1.42c0,0,0,0,0,0a.93.93,0,0,1,0,.13q-.26.88-.54,1.77c-.17.56-.35,1.13-.53,1.69l0,.08c-.06.19-.12.39-.19.58-.12.4-.26.8-.39,1.19l-.08.23c-.14.43-.29.86-.44,1.29-.36,1-.73,2.05-1.11,3.07,0,.12-.09.23-.13.35l-.42,1.1,0,.07-.33.84c-.27.69-.54,1.38-.82,2.06l-.38.9c-.53,1.27-1.08,2.53-1.65,3.77l-.11.23c-.07.17-.15.34-.23.5-.39.85-.79,1.68-1.2,2.51-.14.29-.28.58-.43.87-.33.65-.65,1.28-1,1.92-.1.19-.2.39-.31.58-.23.43-.46.86-.7,1.29s-.45.8-.68,1.2c-.1.19-.22.38-.33.57l-.48.82-.15.26-.19.31c-.53.88-1.07,1.74-1.61,2.58l0,0a.36.36,0,0,1-.07.1c-.13.22-.27.43-.41.63l-.21.31a3.62,3.62,0,0,1-.22.32h0l-.72,1c-.25.36-.51.71-.76,1.06l-.31.42-.07.09-.55.72c-.11.15-.22.3-.34.44-.66.84-1.32,1.65-2,2.42-.27.31-.55.62-.83.92s-.67.73-1,1.07l-.16.17-.78.78-.27.26-.85.78-.14.13-.68.59c-.47.4-.94.79-1.42,1.15-.31.24-.63.48-.94.7s-.76.53-1.15.78-.68.43-1,.63l-.6.34-.25.14-.32.17-.41.2-.64.31c-.29.14-.57.26-.86.37l-.26.11a.85.85,0,0,1-.17.06,7.64,7.64,0,0,1-.8.29,1.73,1.73,0,0,1-.32.11c-.24.08-.47.15-.71.21a1.58,1.58,0,0,1-.31.09c-.33.09-.67.17-1,.24l-.11,0-.12,0-.24,0-.71.12h-.08l-.28,0c-.25,0-.5.06-.75.08h-.15c-.38,0-.77,0-1.16,0s-.78,0-1.16,0h-.05c-.35,0-.69-.06-1-.11l-.21,0c-.23,0-.45-.06-.68-.11l-.23,0-.17,0-.43-.1a3.69,3.69,0,0,1-.45-.11,5.12,5.12,0,0,1-.56-.15,2.72,2.72,0,0,1-.38-.11l-.23-.07a4.56,4.56,0,0,1-.52-.18,1.76,1.76,0,0,1-.3-.1l-.4-.15-.32-.13-.24-.1a3.76,3.76,0,0,1-.37-.16l-.36-.16-.17-.08-.51-.25-.3-.15-.15-.08c-.23-.11-.45-.24-.68-.37l-.35-.2-.24-.14-.49-.31-.21-.13-.25-.16-1.05-.72-.49-.36-.41-.31c-.29-.22-.57-.44-.84-.67l-.11-.09-.21-.17-.28-.24-.77-.68-.78-.72-.12-.11-.21-.2h0l-.29-.29-.52-.52a.86.86,0,0,1-.13-.14c-.27-.26-.53-.54-.79-.82l-.23-.25-.57-.63c-.14-.16-.29-.32-.43-.49s-.23-.26-.34-.4l-.24-.29-.4-.48-.09-.11a4,4,0,0,1-.26-.32l-.62-.78-.06-.08c-.12-.15-.23-.29-.33-.44h0c-.19-.24-.38-.49-.56-.74l-.76-1.05a2.48,2.48,0,0,1-.19-.26l-.11-.16c-.28-.39-.56-.79-.83-1.2l-.66-1-.21-.32c-.51-.79-1-1.6-1.51-2.42l-.21-.34-.09-.16-.39-.65-.25-.43-.12-.22-.11-.18c-.06-.13-.13-.25-.2-.37l-.4-.71-.24-.44c-1.13-2-2.2-4.18-3.23-6.37-.14-.3-.28-.59-.41-.89,0-.1-.1-.21-.14-.31-.35-.76-.7-1.53-1-2.31l-.42-1c-.13-.31-.27-.63-.39-.94s-.18-.43-.27-.65c-.58-1.4-1.13-2.82-1.66-4.25Z"/><rect class="cls-11" x="579.98" y="654.47" width="30.07" height="168.74"/><polygon class="cls-15" points="431.62 644.25 431.62 644.26 423.5 644.7 431.62 644.25"/><path class="cls-2" d="M366.42,733.78c0-.47,0-.93,0-1.4,0-1.62-.11-3.21-.21-4.78s-.21-3.14-.37-4.66c0-.43-.09-.85-.14-1.27l-.12-1c0-.1,0-.19,0-.28-.06-.43-.11-.85-.18-1.27,0-.1,0-.2-.05-.3-.16-1.09-.35-2.17-.57-3.22-.05-.22-.09-.44-.14-.65s-.1-.48-.16-.71c-.16-.71-.34-1.41-.53-2.1l-.33-1.12c-.1-.35-.21-.69-.33-1-.26-.78-.54-1.55-.84-2.3-.13-.32-.26-.63-.4-.94s-.3-.69-.46-1l-.39-.8c-.39-.75-.8-1.48-1.24-2.2-.13-.21-.25-.41-.39-.61l-.25-.39-.41-.58a27.82,27.82,0,0,0-2.29-2.81c-.19-.21-.4-.43-.6-.63l-.24-.23a7.27,7.27,0,0,0-.57-.54c-.22-.22-.45-.42-.68-.62l-.59-.5c-.56-.46-1.14-.91-1.76-1.33-.21-.16-.43-.3-.65-.44s-.55-.36-.83-.54-.5-.3-.76-.44c-.43-.26-.88-.5-1.33-.73l-1-.52c-.49-.23-1-.46-1.51-.67s-.74-.31-1.12-.45l-.78-.29-.81-.29-.35-.11-1-.32a52.14,52.14,0,0,0-5.81-1.39l-1.66-.28c-.57-.09-1.14-.17-1.72-.24-1.21-.16-2.47-.29-3.77-.39-.89-.08-1.8-.13-2.73-.17s-1.81-.08-2.74-.1-1.57,0-2.37,0-1.87,0-2.77,0l-1.36,0-1.42.06-1,.06-1.45.11-1.53.14c-.71.07-1.41.15-2.09.24s-1.16.15-1.72.24l-1.09.18c-1.18.2-2.32.43-3.41.69l-.68.17-1.11.29-.84.24-1.11.34-.33.11-1,.34a34,34,0,0,0-8,4c-.22.15-.43.31-.64.47s-.46.33-.68.51l-.57.45a27.28,27.28,0,0,0-4.3,4.44c-.18.22-.35.45-.51.68s-.33.45-.48.68-.36.54-.54.82-.36.58-.53.88a31.26,31.26,0,0,0-1.6,3.1q-.24.52-.45,1c-.15.36-.29.71-.42,1.08s-.22.58-.32.88-.31.88-.44,1.33-.23.75-.34,1.14c-.22.76-.42,1.54-.6,2.33s-.31,1.41-.45,2.13q-.15.75-.27,1.5c-.07.39-.13.78-.19,1.17l-.09.65c-.06.37-.11.75-.15,1.13s-.1.76-.14,1.14-.09.77-.13,1.16c-.07.78-.14,1.56-.2,2.35-.13,1.63-.23,3.3-.3,5l0,1.07c-.05,1.24-.08,2.49-.1,3.76-.06,3.3-.06,6.68-.06,10.12,0,2.47.12,5.08.36,7.79.06.66.13,1.33.2,2,.09.85.2,1.72.31,2.59.31,2.38.7,4.82,1.17,7.3.11.58.23,1.17.35,1.76,0,.12.05.24.07.37a.14.14,0,0,0,0,.06.28.28,0,0,0,0,.09c0,.17.07.34.11.51.07.37.15.75.24,1.12.11.53.23,1.06.35,1.59l.24,1c0,.19.09.39.14.58.12.51.24,1,.37,1.51s.32,1.27.49,1.91c0,.05,0,.11.05.17.32,1.19.65,2.39,1,3.59.18.59.35,1.19.54,1.79.1.35.21.71.32,1.06.35,1.1.71,2.2,1.07,3.29a2.09,2.09,0,0,1,.08.23l.16.46.28.81.63,1.76c.13.37.27.74.4,1.1l0,0c.53,1.43,1.08,2.85,1.66,4.25.09.22.17.43.27.65s.26.63.39.94l.42,1c.33.78.68,1.55,1,2.31,0,.1.09.21.14.31.13.3.27.59.41.89,1,2.19,2.1,4.32,3.23,6.37l.24.44.4.71c.07.12.14.24.2.37l.11.18.12.22.25.43.39.65.09.16.21.34c.49.82,1,1.63,1.51,2.42l.21.32.66,1c.27.41.55.81.83,1.2l.11.16a2.48,2.48,0,0,0,.19.26l.76,1.05c.18.25.37.5.56.74h0c.1.15.21.29.33.44l.06.08.62.78a4,4,0,0,0,.26.32l.09.11.4.48.24.29c.11.14.23.27.34.4s.29.33.43.49l.57.63.23.25c.26.28.52.56.79.82a.86.86,0,0,0,.13.14l.52.52.29.29h0l.21.2.12.11.78.72.77.68.28.24.21.17.11.09c.27.23.55.45.84.67l.41.31.49.36,1.05.72.25.16.21.13.49.31.24.14.35.2c.23.13.45.26.68.37l.15.08.3.15.51.25.17.08.36.16a3,3,0,0,0,.37.16l.24.1.32.13.4.15a1.76,1.76,0,0,0,.3.1,4.56,4.56,0,0,0,.52.18l.23.07a2.38,2.38,0,0,0,.38.11,5.12,5.12,0,0,0,.56.15,3.69,3.69,0,0,0,.45.11l.43.1.17,0,.23,0c.23,0,.45.08.68.11l.21,0c.35,0,.69.08,1,.11H320c.38,0,.77,0,1.16,0s.78,0,1.16,0h.15c.25,0,.5,0,.75-.08l.28,0h.08l.71-.12.24,0,.12,0,.11,0c.34-.07.67-.15,1-.24a1.58,1.58,0,0,0,.31-.09c.24-.06.47-.13.71-.21a1.73,1.73,0,0,0,.32-.11,7.64,7.64,0,0,0,.8-.29.85.85,0,0,0,.17-.06l.26-.11c.29-.11.58-.24.86-.37l.64-.31.41-.2.32-.17.25-.14.6-.34c.35-.2.69-.41,1-.63s.77-.51,1.15-.78.63-.46.94-.7c.48-.36.95-.75,1.42-1.15l.68-.59.14-.13.85-.78.27-.26.78-.78.16-.17c.34-.34.68-.7,1-1.07s.55-.61.83-.92c.68-.77,1.34-1.58,2-2.42.12-.14.23-.29.34-.44l.55-.72.07-.09.31-.42c.25-.35.51-.7.76-1.06l.72-1h0a3.62,3.62,0,0,0,.22-.32l.21-.31c.14-.2.28-.41.41-.63a.36.36,0,0,0,.07-.1l0,0c.54-.84,1.08-1.7,1.61-2.58.07-.1.13-.21.19-.31l.15-.26.48-.82c.11-.19.23-.38.33-.57.23-.4.46-.8.68-1.2s.47-.86.7-1.29c.11-.19.21-.39.31-.58.34-.64.66-1.27,1-1.92l.43-.87c.41-.83.81-1.66,1.2-2.51.08-.17.16-.33.23-.5l.11-.23c.57-1.24,1.12-2.5,1.65-3.77l.38-.9c.28-.68.55-1.37.82-2.06l.33-.84,0-.07.42-1.1c0-.12.09-.23.13-.35.38-1,.75-2,1.11-3.07.15-.43.3-.86.44-1.29l.08-.23c.13-.4.27-.8.39-1.19.07-.19.13-.39.19-.58l0-.08c.18-.56.36-1.13.53-1.69s.37-1.18.54-1.77a.93.93,0,0,0,0-.13s0,0,0,0c.15-.48.28-1,.42-1.42s.19-.67.28-1l.12-.42.18-.66c.07-.24.13-.48.19-.71s.17-.66.26-1c.23-.87.44-1.74.65-2.61.08-.31.15-.63.22-.94s.11-.44.16-.65,0-.13,0-.19l.12-.53.09-.4.12-.56.24-1.13a.13.13,0,0,0,0-.06,3.82,3.82,0,0,0,.09-.44.14.14,0,0,0,0-.06c0-.13.05-.25.07-.37.44-2.14.81-4.26,1.13-6.34l.21-1.41q.24-1.68.42-3.33c.06-.53.12-1.06.17-1.58,0,0,0-.09,0-.13,0-.52.09-1,.13-1.54l.12-1.59c0-.48.06-.95.08-1.42s.06-1.14.07-1.69l0-1.49c0-.31,0-.62,0-.92v-1.91C366.51,740.17,366.5,736.93,366.42,733.78Zm-45.31,90.5c-2.73,0-5.62-1.13-8.56-3.26a37.92,37.92,0,0,1-7.39-7.36,84.92,84.92,0,0,1-9.82-16.44c-1.49-3.17-2.88-6.5-4.15-9.9-.66-1.8-1.3-3.62-1.9-5.46-4.13-12.61-6.59-25.84-6.59-36.49,0-8.11,0-16,.81-22.91.05-.47.11-.93.18-1.39a39.57,39.57,0,0,1,3.86-13.43c3.12-5.84,10-13.6,33.56-13.6s30.43,7.76,33.55,13.6a40.31,40.31,0,0,1,3.9,13.73c.05.36.1.72.13,1.09.82,6.94.82,14.8.82,22.91,0,10.89-2.57,24.48-6.88,37.35-.07.23-.14.46-.23.68a130.49,130.49,0,0,1-5.53,13.82,83.68,83.68,0,0,1-10.23,17,37.43,37.43,0,0,1-7,6.84C326.73,823.15,323.84,824.28,321.11,824.28Z"/><rect class="cls-2" x="282.35" y="905.73" width="77.51" height="77.51" rx="11.58" ry="11.58"/><rect class="cls-11" x="292.07" y="962.46" width="58.06" height="8.14" rx="2.53" ry="2.53"/><rect class="cls-11" x="292.07" y="917.06" width="17.25" height="8.14" rx="1.92" ry="1.92"/><rect class="cls-11" x="314.68" y="917.06" width="35.46" height="8.14" rx="1.92" ry="1.92"/><rect class="cls-2" x="292.07" y="586.23" width="58.06" height="58.06" rx="8.67" ry="8.67" transform="translate(642.21 1230.53) rotate(180)"/><rect class="cls-11" x="299.36" y="595.71" width="43.49" height="6.1" rx="1.89" ry="1.89" transform="translate(642.21 1197.51) rotate(180)"/><rect class="cls-11" x="329.93" y="629.71" width="12.92" height="6.1" rx="1.44" ry="1.44" transform="translate(672.78 1265.51) rotate(180)"/><rect class="cls-11" x="299.36" y="629.71" width="26.56" height="6.1" rx="1.44" ry="1.44" transform="translate(625.28 1265.51) rotate(180)"/><rect class="cls-11" x="30.87" y="654.47" width="29.89" height="168.74"/><path class="cls-9" d="M30.87,654.47V823.21H60.76V654.47ZM53.76,816.21H37.87V661.47H53.76Z"/><path class="cls-9" d="M580,654.47V823.21h30.07V654.47Zm23.07,161.74H587V661.47h16.07Z"/><path class="cls-2" d="M406.31,1006.3H386.62a2083.85,2083.85,0,0,1,0-504.11h19.69A1364.49,1364.49,0,0,0,406.31,1006.3Z"/><path class="cls-2" d="M270.17,754.24a2082,2082,0,0,1-15.3,252.06H235.19a1364.49,1364.49,0,0,0,0-504.11h19.68A2082,2082,0,0,1,270.17,754.24Z"/><rect class="cls-9" x="180.74" y="997.3" width="279.26" height="26.7"/><rect class="cls-9" x="180.74" y="484.58" width="279.26" height="23.16"/><path class="cls-16" d="M480,641.62V849l-65.81-6.6h0l-2.14-.21a26.33,26.33,0,0,1-23.67-25c-.12-2.59-.22-5.18-.32-7.78V698.72q.39-9.76.93-19.52a36.56,36.56,0,0,1,34.51-34.5l8.12-.44h0Z"/><path class="cls-16" d="M253.42,698.72V810q-.16,4.1-.35,8.18c-.5,10.53-7.15,20.43-16.56,24.18L162,850.82l-.13-27.61h-1.15V654.47h.39l-.08-16.81,46.76,3.93,11.37,1a36.56,36.56,0,0,1,33.19,34.38Q253,687.82,253.42,698.72Z"/><rect class="cls-17" x="152.9" y="644" width="7.84" height="209.67"/><rect class="cls-17" x="480" y="644" width="7.84" height="209.67"/><g class="cls-18"><rect x="145.05" y="644" width="7.84" height="209.67" transform="translate(297.95 1497.67) rotate(-180)"/><rect x="487.78" y="644" width="7.84" height="209.67" transform="translate(983.4 1497.67) rotate(-180)"/></g><path class="cls-16" d="M366.5,746.29c-.38,31.76-20.56,85-45.39,85-23.12,0-42.2-46.12-45.05-78.12l5.36,16.35,6.94,13.23c13.82,26.35,51.74,25.79,64.76-1l6-12.32Z"/><path class="cls-16" d="M366.51,743.47l-5.16-21.68-24-3.65-16.72-1.22L303,718.14l-24,3.65-3.2,13.46c.48-27,4.88-48.21,45.35-48.21C365.6,687,366.49,712.68,366.51,743.47Z"/><path class="cls-2" d="M366.42,733.78c0-.47,0-.93,0-1.4,0-1.62-.11-3.21-.21-4.78s-.21-3.14-.37-4.66c0-.43-.09-.85-.14-1.27l-.12-1c0-.1,0-.19,0-.28-.06-.43-.11-.85-.18-1.27,0-.1,0-.2-.05-.3-.16-1.09-.35-2.17-.57-3.22-.05-.22-.09-.44-.14-.65s-.1-.48-.16-.71c-.16-.71-.34-1.41-.53-2.1l-.33-1.12c-.1-.35-.21-.69-.33-1-.26-.78-.54-1.55-.84-2.3-.13-.32-.26-.63-.4-.94s-.3-.69-.46-1l-.39-.8c-.39-.75-.8-1.48-1.24-2.2-.13-.21-.25-.41-.39-.61l-.25-.39-.41-.58a27.82,27.82,0,0,0-2.29-2.81c-.19-.21-.4-.43-.6-.63l-.24-.23a7.27,7.27,0,0,0-.57-.54c-.22-.22-.45-.42-.68-.62l-.59-.5c-.56-.46-1.14-.91-1.76-1.33-.21-.16-.43-.3-.65-.44s-.55-.36-.83-.54-.5-.3-.76-.44c-.43-.26-.88-.5-1.33-.73l-1-.52c-.49-.23-1-.46-1.51-.67s-.74-.31-1.12-.45l-.78-.29-.81-.29-.35-.11-1-.32a52.14,52.14,0,0,0-5.81-1.39l-1.66-.28c-.57-.09-1.14-.17-1.72-.24-1.21-.16-2.47-.29-3.77-.39-.89-.08-1.8-.13-2.73-.17s-1.81-.08-2.74-.1-1.57,0-2.37,0-1.87,0-2.77,0l-1.36,0-1.42.06-1,.06-1.45.11-1.53.14c-.71.07-1.41.15-2.09.24s-1.16.15-1.72.24l-1.09.18c-1.18.2-2.32.43-3.41.69l-.68.17-1.11.29-.84.24-1.11.34-.33.11-1,.34a34,34,0,0,0-8,4c-.22.15-.43.31-.64.47s-.46.33-.68.51l-.57.45a27.28,27.28,0,0,0-4.3,4.44c-.18.22-.35.45-.51.68s-.33.45-.48.68-.36.54-.54.82-.36.58-.53.88a31.26,31.26,0,0,0-1.6,3.1q-.24.52-.45,1c-.15.36-.29.71-.42,1.08s-.22.58-.32.88-.31.88-.44,1.33-.23.75-.34,1.14c-.22.76-.42,1.54-.6,2.33s-.31,1.41-.45,2.13q-.15.75-.27,1.5c-.07.39-.13.78-.19,1.17l-.09.65c-.06.37-.11.75-.15,1.13s-.1.76-.14,1.14-.09.77-.13,1.16c-.07.78-.14,1.56-.2,2.35-.13,1.63-.23,3.3-.3,5l0,1.07c-.05,1.24-.08,2.49-.1,3.76-.06,3.3-.06,6.68-.06,10.12,0,2.47.12,5.08.36,7.79.06.66.13,1.33.2,2,.09.85.2,1.72.31,2.59.31,2.38.7,4.82,1.17,7.3.11.58.23,1.17.35,1.76,0,.12.05.24.07.37a.14.14,0,0,0,0,.06.28.28,0,0,0,0,.09c0,.17.07.34.11.51.07.37.15.75.24,1.12.11.53.23,1.06.35,1.59l.24,1c0,.19.09.39.14.58.12.51.24,1,.37,1.51s.32,1.27.49,1.91c0,.05,0,.11.05.17.32,1.19.65,2.39,1,3.59.18.59.35,1.19.54,1.79.1.35.21.71.32,1.06.35,1.1.71,2.2,1.07,3.29a2.09,2.09,0,0,1,.08.23l.16.46.28.81.63,1.76c.13.37.27.74.4,1.1l0,0c.53,1.43,1.08,2.85,1.66,4.25.09.22.17.43.27.65s.26.63.39.94l.42,1c.33.78.68,1.55,1,2.31,0,.1.09.21.14.31.13.3.27.59.41.89,1,2.19,2.1,4.32,3.23,6.37l.24.44.4.71c.07.12.14.24.2.37l.11.18.12.22.25.43.39.65.09.16.21.34c.49.82,1,1.63,1.51,2.42l.21.32.66,1c.27.41.55.81.83,1.2l.11.16a2.48,2.48,0,0,0,.19.26l.76,1.05c.18.25.37.5.56.74h0c.1.15.21.29.33.44l.06.08.62.78a4,4,0,0,0,.26.32l.09.11.4.48.24.29c.11.14.23.27.34.4s.29.33.43.49l.57.63.23.25c.26.28.52.56.79.82a.86.86,0,0,0,.13.14l.52.52.29.29h0l.21.2.12.11.78.72.77.68.28.24.21.17.11.09c.27.23.55.45.84.67l.41.31.49.36,1.05.72.25.16.21.13.49.31.24.14.35.2c.23.13.45.26.68.37l.15.08.3.15.51.25.17.08.36.16a3,3,0,0,0,.37.16l.24.1.32.13.4.15a1.76,1.76,0,0,0,.3.1,4.56,4.56,0,0,0,.52.18l.23.07a2.38,2.38,0,0,0,.38.11,5.12,5.12,0,0,0,.56.15,3.69,3.69,0,0,0,.45.11l.43.1.17,0,.23,0c.23,0,.45.08.68.11l.21,0c.35,0,.69.08,1,.11H320c.38,0,.77,0,1.16,0s.78,0,1.16,0h.15c.25,0,.5,0,.75-.08l.28,0h.08l.71-.12.24,0,.12,0,.11,0c.34-.07.67-.15,1-.24a1.58,1.58,0,0,0,.31-.09c.24-.06.47-.13.71-.21a1.73,1.73,0,0,0,.32-.11,7.64,7.64,0,0,0,.8-.29.85.85,0,0,0,.17-.06l.26-.11c.29-.11.58-.24.86-.37l.64-.31.41-.2.32-.17.25-.14.6-.34c.35-.2.69-.41,1-.63s.77-.51,1.15-.78.63-.46.94-.7c.48-.36.95-.75,1.42-1.15l.68-.59.14-.13.85-.78.27-.26.78-.78.16-.17c.34-.34.68-.7,1-1.07s.55-.61.83-.92c.68-.77,1.34-1.58,2-2.42.12-.14.23-.29.34-.44l.55-.72.07-.09.31-.42c.25-.35.51-.7.76-1.06l.72-1h0a3.62,3.62,0,0,0,.22-.32l.21-.31c.14-.2.28-.41.41-.63a.36.36,0,0,0,.07-.1l0,0c.54-.84,1.08-1.7,1.61-2.58.07-.1.13-.21.19-.31l.15-.26.48-.82c.11-.19.23-.38.33-.57.23-.4.46-.8.68-1.2s.47-.86.7-1.29c.11-.19.21-.39.31-.58.34-.64.66-1.27,1-1.92l.43-.87c.41-.83.81-1.66,1.2-2.51.08-.17.16-.33.23-.5l.11-.23c.57-1.24,1.12-2.5,1.65-3.77l.38-.9c.28-.68.55-1.37.82-2.06l.33-.84,0-.07.42-1.1c0-.12.09-.23.13-.35.38-1,.75-2,1.11-3.07.15-.43.3-.86.44-1.29l.08-.23c.13-.4.27-.8.39-1.19.07-.19.13-.39.19-.58l0-.08c.18-.56.36-1.13.53-1.69s.37-1.18.54-1.77a.93.93,0,0,0,0-.13s0,0,0,0c.15-.48.28-1,.42-1.42s.19-.67.28-1l.12-.42.18-.66c.07-.24.13-.48.19-.71s.17-.66.26-1c.23-.87.44-1.74.65-2.61.08-.31.15-.63.22-.94s.11-.44.16-.65,0-.13,0-.19l.12-.53.09-.4.12-.56.24-1.13a.13.13,0,0,0,0-.06,3.82,3.82,0,0,0,.09-.44.14.14,0,0,0,0-.06c0-.13.05-.25.07-.37.44-2.14.81-4.26,1.13-6.34l.21-1.41q.24-1.68.42-3.33c.06-.53.12-1.06.17-1.58,0,0,0-.09,0-.13,0-.52.09-1,.13-1.54l.12-1.59c0-.48.06-.95.08-1.42s.06-1.14.07-1.69l0-1.49c0-.31,0-.62,0-.92v-1.91C366.51,740.17,366.5,736.93,366.42,733.78Zm-45.31,90.5c-2.73,0-5.62-1.13-8.56-3.26a37.92,37.92,0,0,1-7.39-7.36,84.92,84.92,0,0,1-9.82-16.44c-1.49-3.17-2.88-6.5-4.15-9.9-.66-1.8-1.3-3.62-1.9-5.46-4.13-12.61-6.59-25.84-6.59-36.49,0-8.11,0-16,.81-22.91.05-.47.11-.93.18-1.39a39.57,39.57,0,0,1,3.86-13.43c3.12-5.84,10-13.6,33.56-13.6s30.43,7.76,33.55,13.6a40.31,40.31,0,0,1,3.9,13.73c.05.36.1.72.13,1.09.82,6.94.82,14.8.82,22.91,0,10.89-2.57,24.48-6.88,37.35-.07.23-.14.46-.23.68a130.49,130.49,0,0,1-5.53,13.82,83.68,83.68,0,0,1-10.23,17,37.43,37.43,0,0,1-7,6.84C326.73,823.15,323.84,824.28,321.11,824.28Z"/></g></g></g></svg>