<svg xmlns="http://www.w3.org/2000/svg" xmlns:xlink="http://www.w3.org/1999/xlink" viewBox="0 0 1024 1024"><defs><style>.cls-1{isolation:isolate;}.cls-2{fill:#fee7a3;}.cls-3{fill:#f7931e;}.cls-4{fill:red;}.cls-5{fill:#220f0f;}.cls-6{fill:#c1272d;}.cls-7{fill:#dd2b26;}.cls-8{fill:#fff;}.cls-13,.cls-9{fill:#475969;}.cls-10{fill:#324656;}.cls-11{fill:#abbac3;}.cls-12{fill:#7c8d9c;}.cls-13,.cls-14,.cls-27{opacity:0.25;}.cls-13,.cls-14,.cls-20,.cls-27,.cls-36,.cls-37{mix-blend-mode:multiply;}.cls-14{fill:#a6b6bf;}.cls-15{fill:lime;}.cls-16{fill:#7d8c9b;}.cls-17{fill:#495b6c;}.cls-18{fill:#7a8997;}.cls-19{fill:#9badb8;}.cls-20,.cls-34,.cls-35,.cls-36,.cls-37{opacity:0.5;}.cls-20{fill:url(#radial-gradient);}.cls-21{fill:#576a7b;}.cls-22{opacity:0.4;}.cls-23,.cls-32{fill:none;stroke-miterlimit:10;stroke-width:3px;}.cls-23{stroke:#7d8c9b;}.cls-24,.cls-26,.cls-34,.cls-35{mix-blend-mode:screen;}.cls-25{fill:url(#linear-gradient);}.cls-26{fill:url(#linear-gradient-2);}.cls-27{fill:url(#radial-gradient-2);}.cls-28{fill:#3b6bb4;}.cls-29{fill:#f99d28;}.cls-30{fill:#ffca3e;}.cls-31{opacity:0.08;}.cls-32{stroke:#000;}.cls-33{fill:#fcfcfc;}.cls-34{fill:url(#linear-gradient-3);}.cls-35{fill:url(#linear-gradient-4);}.cls-36{fill:url(#linear-gradient-5);}.cls-37{fill:url(#linear-gradient-6);}</style><radialGradient id="radial-gradient" cx="321.88" cy="609.29" r="55.57" gradientUnits="userSpaceOnUse"><stop offset="0" stop-color="#495b6c" stop-opacity="0"/><stop offset="0.22" stop-color="#495b6c" stop-opacity="0.03"/><stop offset="0.41" stop-color="#495b6c" stop-opacity="0.13"/><stop offset="0.58" stop-color="#495b6c" stop-opacity="0.29"/><stop offset="0.75" stop-color="#495b6c" stop-opacity="0.52"/><stop offset="0.91" stop-color="#495b6c" stop-opacity="0.81"/><stop offset="1" stop-color="#495b6c"/></radialGradient><linearGradient id="linear-gradient" x1="321.65" y1="684.72" x2="321.65" y2="517.5" gradientUnits="userSpaceOnUse"><stop offset="0" stop-color="#abbac3"/><stop offset="1" stop-color="#abbac3" stop-opacity="0"/></linearGradient><linearGradient id="linear-gradient-2" x1="321.98" y1="978.37" x2="321.98" y2="822.37" gradientUnits="userSpaceOnUse"><stop offset="0" stop-color="#abbac3" stop-opacity="0"/><stop offset="1" stop-color="#abbac3"/></linearGradient><radialGradient id="radial-gradient-2" cx="323.02" cy="609.29" r="55.57" xlink:href="#radial-gradient"/><linearGradient id="linear-gradient-3" x1="385.44" y1="742.62" x2="460" y2="742.62" gradientUnits="userSpaceOnUse"><stop offset="0" stop-color="#495b6c"/><stop offset="1" stop-color="#495b6c" stop-opacity="0"/></linearGradient><linearGradient id="linear-gradient-4" x1="179.14" y1="741.18" x2="254.7" y2="741.18" gradientUnits="userSpaceOnUse"><stop offset="0" stop-color="#495b6c" stop-opacity="0"/><stop offset="1" stop-color="#495b6c"/></linearGradient><linearGradient id="linear-gradient-5" x1="319.57" y1="892.96" x2="319.57" y2="1033.34" xlink:href="#linear-gradient-4"/><linearGradient id="linear-gradient-6" x1="319.57" y1="3124.32" x2="319.57" y2="3264.69" gradientTransform="matrix(1, 0, 0, -1, 0, 3732.67)" xlink:href="#linear-gradient-4"/></defs><title>animalB</title><g class="cls-1"><g id="Layer_2" data-name="Layer 2"><g id="SkinComplete"><path class="cls-2" d="M393.33,975.5c0,1,0,1.92,0,2.87,0,1.69,0,3.37-.07,5q-.09,4.33-.28,8.61c-.08,1.77-.17,3.52-.27,5.27q-.27,4.8-.68,9.5c-.1,1.26-.21,2.51-.34,3.76-.43,4.55-.94,9-1.54,13.44H250.6c-.6-4.4-1.11-8.89-1.54-13.44-.13-1.25-.24-2.5-.34-3.76q-.41-4.69-.68-9.5-.16-2.67-.27-5.37-.18-4.14-.28-8.34c0-1.73-.06-3.47-.07-5.22v-1.16c0-.57,0-1.14,0-1.71q0-3.79.07-7.54c0-1.44.07-2.87.11-4.3,1-32,6-61.45,13.9-85.84a185.81,185.81,0,0,1,11.07-27.3h0q2.63-5.14,5.44-9.72c1.89-3.06,3.85-5.93,5.87-8.58,10.74-14.09,23.2-22.16,36.5-22.16s25.76,8.07,36.5,22.16a103.33,103.33,0,0,1,5.94,8.7q2.46,4,4.75,8.42h0a185,185,0,0,1,11.68,28.49c7.89,24.39,12.9,53.86,13.9,85.84,0,1.43.08,2.86.11,4.3,0,1.73.05,3.46.06,5.21C393.33,973.94,393.33,974.72,393.33,975.5Z"/><rect class="cls-3" x="2.51" y="490" width="182.97" height="154"/><rect class="cls-3" width="1024" height="1024"/><rect class="cls-2" x="624" y="524" width="400" height="240"/><rect class="cls-3" width="643" height="490"/><rect class="cls-3" y="139.59" width="643" height="350.41"/><path class="cls-2" d="M401.06,325.05c0-38.07-35.48-68.93-79.25-68.93S242.57,287,242.57,325.05h0a173.92,173.92,0,0,0,.54,28.32l12.38,122.91,64.82,5.58h2.74l64.82-5.58,12.55-124.56a175.66,175.66,0,0,0,.71-25Z"/><rect class="cls-3" x="824" y="134" width="200" height="390"/><rect class="cls-3" x="624" y="864.49" width="400" height="159.51"/><rect class="cls-4" x="992" width="32" height="32"/><path class="cls-2" d="M62.68,574.58l23.18-48.09c3.87-8,10.4-8,14.27,0l23.18,48.09c5.89,12.22,1.46,32.29-7.13,32.29H69.81C61.22,606.87,56.79,586.8,62.68,574.58Z"/><path class="cls-2" d="M393.33,950q0,6.88-.18,13.66c0,1.44-.09,2.87-.15,4.3q-.08,2.63-.21,5.22c-.07,1.74-.16,3.47-.26,5.19s-.2,3.38-.32,5c-.19,2.9-.41,5.76-.66,8.61-.15,1.77-.31,3.53-.48,5.27q-.46,4.8-1,9.5c-.15,1.26-.31,2.51-.47,3.76q-.87,6.84-1.93,13.44H253.09q-1.07-6.6-1.93-13.44c-.16-1.25-.32-2.5-.47-3.76q-.56-4.69-1-9.5c-.17-1.74-.33-3.5-.48-5.27q-.37-4.26-.66-8.6c-.12-1.68-.22-3.36-.32-5.06l-.06-1.18q-.26-4.58-.41-9.23c-.06-1.43-.11-2.86-.15-4.3q-.18-6.76-.18-13.66a470.33,470.33,0,0,1,5.4-72.18q1.59-10.26,3.63-19.89h0c1.3-6.24,2.75-12.26,4.31-18,.7-2.61,1.43-5.16,2.18-7.67,13.36-44.54,34.11-73.16,57.43-73.16,16.41,0,31.54,14.16,43.72,38.08.51,1,1,2,1.5,3s1,2.14,1.52,3.23a224.1,224.1,0,0,1,10.69,28.84Q378.94,836,380,840q2.12,7.86,3.93,16.29s0,0,0,0c1.5,6.9,2.83,14.08,4,21.49A470.33,470.33,0,0,1,393.33,950Z"/><path class="cls-5" d="M313.68,258.88l6.22,6.6a2.64,2.64,0,0,0,3.83,0l6.21-6.6a2.62,2.62,0,0,0-1.91-4.43H315.6A2.63,2.63,0,0,0,313.68,258.88Z"/><path class="cls-6" d="M311.27,270c1.64.27,3.5.58,5.23.8s3.51.37,5.23.42a33.56,33.56,0,0,0,5-.27,30.51,30.51,0,0,0,4.78-1.15l.25-.08a2.51,2.51,0,0,1,2.2,4.44,18,18,0,0,1-6,2.77,25,25,0,0,1-6.41.71,29.76,29.76,0,0,1-6.21-.82,28.2,28.2,0,0,1-3-.87,22.08,22.08,0,0,1-2.91-1.28,2.51,2.51,0,0,1,1.57-4.7Z"/><rect class="cls-5" x="348.5" y="213.11" width="19.99" height="30.6" rx="10" ry="10"/><rect class="cls-5" x="275.88" y="213.11" width="19.99" height="30.6" rx="10" ry="10" transform="translate(571.75 456.82) rotate(180)"/><path d="M340.06,268.45v1.39a18.18,18.18,0,0,1-6.23,13.72q-.7.62-1.47,1.17c-.25.17-.49.34-.75.5a17,17,0,0,1-2.34,1.26,18,18,0,0,1-7,1.6h-1a18.11,18.11,0,0,1-7-1.6,17.58,17.58,0,0,1-2.34-1.26c-.25-.16-.49-.33-.73-.51a18.42,18.42,0,0,1-1.48-1.16,18.2,18.2,0,0,1-6.22-13.72v-1.39Z"/><ellipse class="cls-7" cx="321.81" cy="282.81" rx="7.55" ry="5.28"/><path class="cls-8" d="M331.61,285.23a17,17,0,0,1-2.34,1.26,18,18,0,0,1-7,1.6h-1a18.11,18.11,0,0,1-7-1.6,17.58,17.58,0,0,1-2.34-1.26c1.76-1.52,5.5-1.51,9.82-1.51S329.85,283.71,331.61,285.23Z"/><polygon class="cls-8" points="331.87 268.45 335.58 277.53 338.53 268.45 331.87 268.45"/><polygon class="cls-8" points="311.74 268.45 308.03 277.53 305.07 268.45 311.74 268.45"/><rect class="cls-8" x="308.15" y="268.45" width="27.32" height="5.56"/><path class="cls-2" d="M268.66,199.67a6.18,6.18,0,0,1-2.34-11.9c8.08-3.31,15.75-6,27.75-5.42a6.18,6.18,0,0,1-.6,12.35c-10.24-.5-16.45,2.05-22.47,4.51A6.06,6.06,0,0,1,268.66,199.67Z"/><path class="cls-2" d="M373.8,199.67a6.18,6.18,0,0,0,2.35-11.9c-8.09-3.31-15.76-6-27.75-5.42a6.18,6.18,0,1,0,.6,12.35c10.24-.5,16.45,2.05,22.46,4.51A6.06,6.06,0,0,0,373.8,199.67Z"/><path class="cls-8" d="M358.51,220.79a3.66,3.66,0,0,0,3.28,4,3.88,3.88,0,1,0-3.28-4Z"/><path class="cls-8" d="M286.4,220.79a3.67,3.67,0,0,0,3.29,4,3.88,3.88,0,0,0,.47-7.71A3.78,3.78,0,0,0,286.4,220.79Z"/><polygon class="cls-2" points="551.89 567.91 540.58 561.91 529.28 567.91 517.98 561.91 506.68 567.91 495.38 561.91 484.08 567.91 470.56 562.89 471.01 577.35 564.97 577.34 565.41 562.89 551.89 567.91"/><rect class="cls-2" x="471.01" y="577.35" width="93.96" height="59.41"/><rect class="cls-8" x="624" y="764" width="400" height="260"/><rect class="cls-9" x="646.05" y="139.59" width="183.29" height="377.91"/><rect class="cls-10" x="631.59" y="777.8" width="383.62" height="86.62"/><polygon class="cls-9" points="806.71 771.37 726.36 776.3 646.01 771.37 628.07 807.81 647.3 809.83 689.54 818.4 713.64 847.64 726.36 859.56 739.08 847.64 763.18 818.4 805.42 809.83 824.65 807.81 806.71 771.37"/><polygon class="cls-9" points="997.3 771.37 916.95 776.3 836.6 771.37 818.66 807.81 837.89 809.83 880.13 818.4 904.23 847.64 916.95 859.56 929.66 847.64 953.77 818.4 996.01 809.83 1015.24 807.81 997.3 771.37"/><rect class="cls-11" x="642.53" y="872.32" width="8.39" height="33.67" rx="4.19" ry="4.19"/><rect class="cls-11" x="659.3" y="872.32" width="8.39" height="33.67" rx="4.19" ry="4.19"/><rect class="cls-11" x="676.08" y="872.32" width="8.39" height="33.67" rx="4.19" ry="4.19"/><rect class="cls-11" x="692.85" y="872.32" width="8.39" height="33.67" rx="4.19" ry="4.19"/><rect class="cls-11" x="751.56" y="872.32" width="8.39" height="33.67" rx="4.19" ry="4.19"/><rect class="cls-11" x="768.33" y="872.32" width="8.39" height="33.67" rx="4.19" ry="4.19"/><rect class="cls-11" x="785.11" y="872.32" width="8.39" height="33.67" rx="4.19" ry="4.19"/><rect class="cls-11" x="801.88" y="872.32" width="8.39" height="33.67" rx="4.19" ry="4.19"/><rect class="cls-11" x="833.08" y="872.32" width="8.39" height="33.67" rx="4.19" ry="4.19"/><rect class="cls-11" x="849.85" y="872.32" width="8.39" height="33.67" rx="4.19" ry="4.19"/><rect class="cls-11" x="866.62" y="872.32" width="8.39" height="33.67" rx="4.19" ry="4.19"/><rect class="cls-11" x="883.4" y="872.32" width="8.39" height="33.67" rx="4.19" ry="4.19"/><rect class="cls-11" x="942.11" y="872.32" width="8.39" height="33.67" rx="4.19" ry="4.19"/><rect class="cls-11" x="958.88" y="872.32" width="8.39" height="33.67" rx="4.19" ry="4.19"/><rect class="cls-11" x="975.65" y="872.32" width="8.39" height="33.67" rx="4.19" ry="4.19"/><rect class="cls-11" x="992.43" y="872.32" width="8.39" height="33.67" rx="4.19" ry="4.19"/><rect class="cls-10" x="625.61" y="898.22" width="398.39" height="125.78"/><rect class="cls-10" x="9.43" y="432.44" width="622.16" height="49.42"/><rect class="cls-9" x="9.43" y="432.44" width="622.16" height="16.06"/><rect class="cls-10" x="625.61" y="898.22" width="396.84" height="28.34"/><rect class="cls-12" x="625.61" y="996.31" width="396.84" height="16.21"/><rect class="cls-13" x="631.59" y="769.25" width="383.62" height="26.82"/><polygon class="cls-10" points="677.83 444.37 707.95 424.66 745.85 424.66 766.21 445.84 763.57 471.33 735.92 484.58 701.16 478.78 677.83 444.37"/><polygon class="cls-10" points="680.24 267.87 707.95 249.74 745.85 249.74 766.21 270.93 763.57 296.42 735.92 309.66 701.16 303.87 680.24 267.87"/><path class="cls-10" d="M818.53,317.06v37.69l-15.36,97.57-11.5,42.46H704.3l-55.63-16.25V323.31h10.89l0,29.66v.32l0,.31,1.43,15.67,0,.47.11.46,6,26.11,0,.19.06.19,4,13.8.1.34.14.33,11.49,28.5v0l0,0,8.07,19.59a32,32,0,0,0,7,10.49l.58.59a32.2,32.2,0,0,0,15.5,8.6l4.78,1.11a31.83,31.83,0,0,0,7.28.84,32.31,32.31,0,0,0,5.11-.41l6-1A32.21,32.21,0,0,0,762.51,459l11.83-31.77,0,0v0l11.23-31,18.69-49.1.44-1.18v-1.25l.12-13.64.13-13.94Z"/><path class="cls-10" d="M818.53,141.59v37.7l-15.36,97.57-11.5,42.45H704.3l-55.63-16.24V147.84h10.89l0,29.67v.31l0,.32,1.43,15.66,0,.48.11.46,6,26.1,0,.19.06.19,4,13.8.1.34.14.33,11.49,28.5v0l0,0,8.07,19.59a32.08,32.08,0,0,0,7,10.5l.58.59a32.28,32.28,0,0,0,15.5,8.6l4.78,1.11a32.22,32.22,0,0,0,12.39.42l6-1a32.2,32.2,0,0,0,25.07-20.56l11.83-31.76,0,0v0l11.23-31,18.69-49.11.44-1.17v-1.26l.12-13.64.13-13.94Z"/><path class="cls-11" d="M727.51,385.89a26.55,26.55,0,0,1-20.09-9.17l-8.3-9.58A26.53,26.53,0,0,1,693,353.92l-3.64-22.77a2.42,2.42,0,0,1,0-.47V329a3,3,0,0,1,3-3h76.14a3,3,0,0,1,2.81,4.05l-10.6,28.35a26.12,26.12,0,0,1-2.49,5l-4.8,7.52a26.55,26.55,0,0,1-6,6.59l-3.44,2.7A26.68,26.68,0,0,1,727.51,385.89Z"/><path class="cls-11" d="M768.42,329l-10.6,28.35a23.4,23.4,0,0,1-2.21,4.42l-4.8,7.53a23.55,23.55,0,0,1-5.29,5.84l-3.43,2.7a23.58,23.58,0,0,1-32.4-3.08l-8.31-9.59a23.6,23.6,0,0,1-5.46-11.72l-3.64-22.77V329h76.14m0-6H692.28a6,6,0,0,0-6,6v1.68a6.09,6.09,0,0,0,.08.95L690,354.4a29.56,29.56,0,0,0,6.85,14.7l8.31,9.59a29.59,29.59,0,0,0,40.64,3.87l3.43-2.71a29.31,29.31,0,0,0,6.64-7.32l4.8-7.53a28.76,28.76,0,0,0,2.77-5.55L774,331.1a6,6,0,0,0-5.62-8.1Z"/><path class="cls-11" d="M727.51,209.93a26.59,26.59,0,0,1-20.09-9.17l-8.3-9.59A26.46,26.46,0,0,1,693,178l-3.64-22.77a2.56,2.56,0,0,1,0-.47V153a3,3,0,0,1,3-3h76.14a3,3,0,0,1,2.81,4.06l-10.6,28.34a26.12,26.12,0,0,1-2.49,5l-4.8,7.53a26.51,26.51,0,0,1-6,6.58l-3.44,2.7A26.69,26.69,0,0,1,727.51,209.93Z"/><path class="cls-11" d="M768.42,153l-10.6,28.35a23.79,23.79,0,0,1-2.21,4.43l-4.8,7.52a23.37,23.37,0,0,1-5.29,5.84l-3.43,2.71a23.57,23.57,0,0,1-32.4-3.09l-8.31-9.58a23.6,23.6,0,0,1-5.46-11.72l-3.64-22.77V153h76.14m0-6H692.28a6,6,0,0,0-6,6v1.69a6,6,0,0,0,.08.94L690,178.43a29.59,29.59,0,0,0,6.85,14.71l8.31,9.58a29.56,29.56,0,0,0,40.64,3.87l3.43-2.7a29.36,29.36,0,0,0,6.64-7.33l4.8-7.52a29.13,29.13,0,0,0,2.77-5.56L774,155.14a6,6,0,0,0-5.62-8.11Z"/><rect class="cls-10" x="650.92" y="518" width="373.08" height="223.18"/><path class="cls-11" d="M903.48,653c0,.49-9.11,32.36-9.11,32.36l44.4,34.15L988,692.72s1-34,1-35.15S978.23,635,978.23,635L939.11,623.7l-23.89,4.12Z"/><path class="cls-11" d="M786,653.31c0,.49-9.1,32.37-9.1,32.37l44.39,34.15L870.52,693s1-34,1-35.15-10.79-22.61-10.79-22.61L821.59,624l-23.88,4.12Z"/><rect class="cls-10" x="646.05" width="377.95" height="139.59"/><circle class="cls-9" cx="776.23" cy="365.16" r="7.78"/><circle class="cls-9" cx="776.23" cy="190.62" r="7.78"/><rect class="cls-8" x="624" y="926.56" width="398.45" height="41.4"/><rect class="cls-14" x="818.66" y="926.56" width="203.8" height="41.4"/><rect class="cls-15" x="992" width="32" height="32"/><rect class="cls-11" y="648.12" width="624" height="375.88"/><rect class="cls-8" x="194.22" y="524" width="265.78" height="454.37"/><rect class="cls-16" x="579.88" y="654.47" width="8.48" height="188.74"/><rect class="cls-9" x="588.36" y="654.47" width="24.65" height="188.74" transform="translate(1201.38 1497.67) rotate(180)"/><rect class="cls-9" x="27.29" y="654.47" width="24.65" height="188.74" transform="translate(79.23 1497.67) rotate(180)"/><rect class="cls-16" x="51.94" y="654.47" width="8.48" height="188.74"/><polygon class="cls-17" points="431.88 642.04 399.08 664.08 385.44 725.74 387.27 767.46 399.61 825.71 448.67 830.27 460 843.21 460 654.47 431.88 642.04"/><rect class="cls-18" y="997.3" width="629.1" height="13.26"/><rect class="cls-18" x="194.22" y="494.16" width="265.78" height="13.58"/><rect class="cls-19" x="205.57" y="517.5" width="239.27" height="92.55"/><rect class="cls-9" x="194.22" y="494.89" width="265.78" height="28.43"/><polygon class="cls-11" points="444.83 843.21 444.83 978.37 205.57 978.37 205.57 845.36 254.7 839.56 321.11 843.06 389.08 839.56 444.83 843.21"/><path class="cls-11" d="M321.65,815.49c-22.21,0-40.29,16.58-40.29,37s18.08,37,40.29,37,40.29-16.59,40.29-37S343.86,815.49,321.65,815.49Z"/><path class="cls-19" d="M378.44,1003.93H263.77V877.82c0,39.73,114.67,39.73,114.67,0Z"/><polygon class="cls-17" points="207.93 639.15 243.66 663.4 254.69 725.74 252.86 767.46 242.38 826.73 191.46 830.27 179.13 843.21 179.13 654.47 207.93 639.15"/><polygon class="cls-19" points="211.42 606.63 211.42 634.85 254.69 658.56 386.71 658.56 431.88 636.26 431.88 596.47 211.42 596.47 211.42 606.63"/><rect class="cls-9" y="978.37" width="629.1" height="28.43"/><rect class="cls-12" y="967.96" width="629.1" height="10.4"/><rect class="cls-12" x="194.22" y="523.3" width="265.49" height="10.4"/><circle class="cls-12" cx="320.51" cy="658.56" r="65.67"/><ellipse class="cls-20" cx="320.51" cy="635.39" rx="31.03" ry="29.34"/><rect class="cls-19" x="356.43" y="797" width="17.71" height="6.6" transform="translate(-109.15 59.48) rotate(-8.1)"/><rect class="cls-19" x="347.09" y="799.08" width="7.1" height="6.6" transform="translate(810.87 1547.34) rotate(171.9)"/><circle class="cls-17" cx="357" cy="666.13" r="7.56"/><circle class="cls-17" cx="284.03" cy="666.13" r="7.56"/><circle class="cls-19" cx="421.72" cy="860.07" r="2.39"/><circle class="cls-19" cx="221.3" cy="860.07" r="2.39"/><circle class="cls-19" cx="418.72" cy="900.07" r="2.39"/><circle class="cls-19" cx="224.3" cy="900.07" r="2.39"/><circle class="cls-19" cx="416.72" cy="940.07" r="2.39"/><circle class="cls-19" cx="226.3" cy="940.07" r="2.39"/><path class="cls-21" d="M321.11,824.34c-16.54,0-30,12.61-30,28.12s13.44,28.12,30,28.12,30-12.62,30-28.12S337.64,824.34,321.11,824.34Z"/><g class="cls-22"><rect class="cls-23" x="579.88" y="654.47" width="36.1" height="188.74"/><rect class="cls-23" x="544.43" y="654.47" width="35.45" height="188.74" transform="translate(1124.31 1497.67) rotate(180)"/><rect class="cls-23" x="491.56" y="654.47" width="52.88" height="188.74" transform="translate(1035.99 1497.67) rotate(180)"/><rect class="cls-23" x="460" y="654.47" width="31.56" height="188.74"/><rect class="cls-23" x="24.76" y="654.47" width="36.1" height="188.74" transform="translate(85.62 1497.67) rotate(-180)"/><rect class="cls-23" x="60.86" y="654.47" width="35.45" height="188.74"/><rect class="cls-23" x="96.31" y="654.47" width="52.88" height="188.74"/><rect class="cls-23" x="149.18" y="654.47" width="31.56" height="188.74" transform="translate(329.93 1497.67) rotate(-180)"/></g><rect class="cls-15" x="992" width="32" height="32"/><rect class="cls-8" x="39.62" y="646.81" width="555.88" height="185.4"/><rect class="cls-8" x="179.14" y="524" width="280.86" height="454.37"/><rect class="cls-16" x="579.88" y="654.47" width="8.48" height="188.74"/><rect class="cls-9" x="588.36" y="654.47" width="24.65" height="188.74" transform="translate(1201.38 1497.67) rotate(180)"/><rect class="cls-9" x="27.29" y="654.47" width="24.65" height="188.74" transform="translate(79.23 1497.67) rotate(180)"/><rect class="cls-16" x="51.94" y="654.47" width="8.48" height="188.74"/><polygon class="cls-17" points="431.88 642.04 399.08 664.08 385.44 725.74 387.27 767.46 399.61 825.71 448.67 830.27 460 843.21 460 654.47 431.88 642.04"/><rect class="cls-18" y="997.3" width="629.1" height="13.26"/><rect class="cls-18" x="179.14" y="494.16" width="280.57" height="13.58"/><path class="cls-19" d="M357.29,684.72H286a22,22,0,0,1-22-22V517.5H379.32V662.69A22,22,0,0,1,357.29,684.72Z"/><g class="cls-24"><path class="cls-25" d="M264,517.5H379.32a0,0,0,0,1,0,0V662.69a22,22,0,0,1-22,22H286a22,22,0,0,1-22-22V517.5A0,0,0,0,1,264,517.5Z"/></g><rect class="cls-9" x="179.14" y="494.89" width="280.57" height="28.43"/><polygon class="cls-11" points="331.29 856.75 310.92 856.75 310.92 844.92 321.11 822.37 331.29 844.92 331.29 856.75"/><path class="cls-11" d="M438.38,910v61.88l-232.81,6.45V909l10.71-15.12a120.66,120.66,0,0,1,104.83-50.78h0l1.21-.06A120.68,120.68,0,0,1,427.4,894.33Z"/><path class="cls-26" d="M427.4,894.33a120.66,120.66,0,0,0-97-51.47l-9.25-20.49-9.3,20.57a120.63,120.63,0,0,0-95.53,50.9L205.57,909v69.41l232.81-6.45V910Z"/><path class="cls-19" d="M378.44,1003.93H263.77V877.82c0,39.73,114.67,39.73,114.67,0Z"/><polygon class="cls-17" points="207.93 639.15 243.66 663.4 254.69 725.74 252.86 767.46 242.38 826.73 191.46 830.27 179.13 843.21 179.13 654.47 207.93 639.15"/><rect class="cls-9" y="978.37" width="629.1" height="45.63"/><rect class="cls-12" y="967.96" width="629.1" height="10.4"/><rect class="cls-12" x="179.14" y="523.3" width="280.26" height="10.4"/><ellipse class="cls-27" cx="321.65" cy="635.39" rx="31.03" ry="29.34"/><rect class="cls-17" x="354.93" y="795.5" width="20.71" height="9.6" transform="translate(-109.15 59.47) rotate(-8.1)"/><path class="cls-17" d="M373.59,795.78l.93,6.54L357,804.81l-.93-6.53,17.53-2.5m2.55-3.39-3,.42-17.53,2.5-3,.42.42,3,.93,6.54.42,3,3-.43,17.53-2.49,3-.42-.42-3-.93-6.54-.42-3Z"/><rect class="cls-17" x="345.59" y="797.58" width="10.1" height="9.6" transform="translate(-109.57 57.42) rotate(-8.1)"/><path class="cls-17" d="M353.69,798.62l.93,6.53-7,1-.93-6.53,7-1m2.55-3.4-3,.43-7,1-3,.42.43,3,.93,6.54.42,3,3-.43,7-1,3-.42-.42-3-.93-6.54-.42-3Z"/><rect class="cls-28" x="356.43" y="797" width="17.71" height="6.6" transform="translate(-109.15 59.48) rotate(-8.1)"/><rect class="cls-8" x="356.19" y="797.02" width="17.71" height="3.19" transform="translate(-108.92 59.42) rotate(-8.1)"/><rect class="cls-29" x="347.09" y="799.08" width="7.1" height="6.6" transform="translate(-109.59 57.43) rotate(-8.1)"/><rect class="cls-30" x="348.38" y="800.29" width="4.51" height="4.19" rx="2.1" ry="2.1" transform="translate(-109.59 57.43) rotate(-8.1)"/><circle class="cls-17" cx="357" cy="666.13" r="7.56"/><circle class="cls-17" cx="284.03" cy="666.13" r="7.56"/><g class="cls-31"><rect class="cls-32" x="579.88" y="654.47" width="36.1" height="188.74"/><rect class="cls-32" x="544.43" y="654.47" width="35.45" height="188.74" transform="translate(1124.31 1497.67) rotate(180)"/><rect class="cls-32" x="544.43" y="654.47" width="17.72" height="188.74" transform="translate(1106.59 1497.67) rotate(180)"/><rect class="cls-32" x="491.56" y="654.47" width="52.88" height="188.74" transform="translate(1035.99 1497.67) rotate(180)"/><rect class="cls-32" x="491.56" y="654.47" width="26.44" height="188.74" transform="translate(1009.55 1497.67) rotate(180)"/><rect class="cls-32" x="460" y="654.47" width="31.56" height="188.74"/><rect class="cls-32" x="460" y="654.47" width="15.78" height="188.74"/><rect class="cls-32" x="24.76" y="654.47" width="36.1" height="188.74" transform="translate(85.62 1497.67) rotate(-180)"/><rect class="cls-32" x="60.86" y="654.47" width="35.45" height="188.74"/><rect class="cls-32" x="78.58" y="654.47" width="17.72" height="188.74"/><rect class="cls-32" x="96.31" y="654.47" width="52.88" height="188.74"/><rect class="cls-32" x="122.75" y="654.47" width="26.44" height="188.74"/><rect class="cls-32" x="149.18" y="654.47" width="31.56" height="188.74" transform="translate(329.93 1497.67) rotate(-180)"/><rect class="cls-32" x="164.96" y="654.47" width="15.78" height="188.74" transform="translate(345.71 1497.67) rotate(-180)"/></g><rect class="cls-12" x="263.77" y="921.21" width="114.67" height="39.33"/><rect class="cls-11" x="401.87" y="727.12" width="52.96" height="32.66" rx="16.33" ry="16.33" transform="translate(856.7 1486.91) rotate(180)"/><circle class="cls-17" cx="418.2" cy="743.45" r="12.94"/><circle class="cls-29" cx="418.2" cy="743.45" r="7.21"/><rect class="cls-33" x="433.87" y="733.49" width="4.62" height="19.92" rx="2.31" ry="2.31"/><rect class="cls-33" x="440.8" y="733.49" width="4.62" height="19.92" rx="2.31" ry="2.31"/><rect class="cls-11" x="271.09" y="926.07" width="98.01" height="29.61" rx="6.74" ry="6.74" transform="translate(640.18 1881.75) rotate(-180)"/><circle class="cls-8" cx="285.89" cy="940.88" r="11.73"/><circle class="cls-12" cx="285.89" cy="940.88" r="6.54"/><rect class="cls-12" x="303.09" y="931.85" width="4.18" height="18.05" rx="2.09" ry="2.09"/><rect class="cls-12" x="310.82" y="931.85" width="4.18" height="18.05" rx="2.09" ry="2.09"/><rect class="cls-12" x="318.54" y="931.85" width="4.18" height="18.05" rx="2.09" ry="2.09"/><rect class="cls-12" x="326.26" y="931.85" width="4.18" height="18.05" rx="2.09" ry="2.09"/><rect class="cls-12" x="333.98" y="931.85" width="4.18" height="18.05" rx="2.09" ry="2.09"/><rect class="cls-12" x="341.7" y="931.85" width="4.18" height="18.05" rx="2.09" ry="2.09"/><rect class="cls-12" x="349.42" y="931.85" width="4.18" height="18.05" rx="2.09" ry="2.09"/><rect class="cls-12" x="357.14" y="931.85" width="4.18" height="18.05" rx="2.09" ry="2.09"/><rect class="cls-17" x="296.83" y="559.62" width="49.65" height="5.51" rx="2.76" ry="2.76"/><rect class="cls-17" x="296.83" y="570.46" width="49.65" height="5.51" rx="2.76" ry="2.76"/><rect class="cls-17" x="296.83" y="581.29" width="49.65" height="5.51" rx="2.76" ry="2.76"/><polygon class="cls-34" points="431.88 642.04 399.08 664.08 385.44 725.74 387.27 767.46 399.61 825.71 448.67 830.27 460 843.21 460 654.47 431.88 642.04"/><polygon class="cls-35" points="207.93 639.15 243.66 663.4 254.69 725.74 252.86 767.46 242.38 826.73 191.46 830.27 179.13 843.21 179.13 654.47 207.93 639.15"/><rect class="cls-12" x="331.7" y="983.42" width="28.84" height="8.61" rx="4.31" ry="4.31"/><rect class="cls-12" x="370.54" y="983.42" width="28.84" height="8.61" rx="4.31" ry="4.31"/><rect class="cls-12" x="283.22" y="983.42" width="28.84" height="8.61" rx="4.31" ry="4.31"/><rect class="cls-12" x="244.38" y="983.42" width="28.84" height="8.61" rx="4.31" ry="4.31"/><rect class="cls-36" x="179.14" y="877.82" width="280.86" height="100.55"/><rect class="cls-37" x="179.14" y="522.94" width="280.86" height="100.55"/><rect class="cls-11" x="826.86" y="134" width="197.14" height="390"/><circle class="cls-17" cx="924.4" cy="205.36" r="5.76"/><circle class="cls-17" cx="924.4" cy="225.1" r="5.76"/><circle class="cls-17" cx="924.4" cy="244.84" r="5.76"/><circle class="cls-17" cx="924.4" cy="379.74" r="5.76"/><circle class="cls-17" cx="924.4" cy="399.48" r="5.76"/><circle class="cls-17" cx="924.4" cy="419.22" r="5.76"/><polygon class="cls-16" points="898.8 200.56 892.44 217.65 892.44 237.81 885.21 252.93 872.45 265.34 859.22 256.63 871.56 243.32 878.56 231.54 879.4 214.87 884.87 199.45 883.75 186.56 881.22 173.81 879.4 168.34 894.56 165.45 896.61 169.66 898.8 200.56"/><polygon class="cls-16" points="898.8 376.96 892.44 394.05 892.44 414.21 885.21 429.33 872.45 441.74 859.22 433.03 871.56 419.72 878.56 407.94 879.4 391.27 884.87 375.85 883.75 362.96 881.22 350.21 879.4 344.74 894.56 341.85 896.61 346.06 898.8 376.96"/><polygon class="cls-16" points="885.9 273.16 900 263.53 945.79 265.34 959.88 277.85 934.52 329.99 888.49 324.82 885.9 273.16"/><polygon class="cls-16" points="886.9 447.49 900.99 437.86 946.79 439.67 960.88 452.18 935.52 504.32 889.49 499.15 886.9 447.49"/></g></g></g></svg>