<svg xmlns="http://www.w3.org/2000/svg" viewBox="0 0 1024 1024"><defs><style>.cls-1{fill:#fee7a3;}.cls-2{fill:#f7931e;}.cls-3{fill:red;}.cls-4{fill:#220f0f;}.cls-5{fill:#c1272d;}.cls-6{fill:#dd2b26;}.cls-7{fill:#fff;}.cls-8{fill:#efd084;}</style></defs><title>animalBaseB</title><g id="Layer_2" data-name="Layer 2"><g id="SkinComplete"><path class="cls-1" d="M393.33,975.5c0,1,0,1.92,0,2.87,0,1.69,0,3.37-.07,5q-.09,4.33-.28,8.61c-.08,1.77-.17,3.52-.27,5.27q-.27,4.8-.68,9.5c-.1,1.26-.21,2.51-.34,3.76-.43,4.55-.94,9-1.54,13.44H250.6c-.6-4.4-1.11-8.89-1.54-13.44-.13-1.25-.24-2.5-.34-3.76q-.41-4.69-.68-9.5-.16-2.67-.27-5.37-.18-4.14-.28-8.34c0-1.73-.06-3.47-.07-5.22v-1.16c0-.57,0-1.14,0-1.71q0-3.79.07-7.54c0-1.44.07-2.87.11-4.3,1-32,6-61.45,13.9-85.84a185.81,185.81,0,0,1,11.07-27.3h0q2.63-5.14,5.44-9.72c1.89-3.06,3.85-5.93,5.87-8.58,10.74-14.09,23.2-22.16,36.5-22.16s25.76,8.07,36.5,22.16a103.33,103.33,0,0,1,5.94,8.7q2.46,4,4.75,8.42h0a185,185,0,0,1,11.68,28.49c7.89,24.39,12.9,53.86,13.9,85.84,0,1.43.08,2.86.11,4.3,0,1.73.05,3.46.06,5.21C393.33,973.94,393.33,974.72,393.33,975.5Z"/><rect class="cls-2" x="2.51" y="490" width="182.97" height="154"/><rect class="cls-2" width="1024" height="1024"/><rect class="cls-1" x="624" y="524" width="400" height="240"/><rect class="cls-2" width="643" height="490"/><rect class="cls-2" y="139.59" width="643" height="350.41"/><path class="cls-1" d="M401.06,325.05c0-38.07-35.48-68.93-79.25-68.93S242.57,287,242.57,325.05h0a173.92,173.92,0,0,0,.54,28.32l12.38,122.91,64.82,5.58h2.74l64.82-5.58,12.55-124.56a175.66,175.66,0,0,0,.71-25Z"/><rect class="cls-2" x="824" y="134" width="200" height="390"/><rect class="cls-2" x="624" y="864.49" width="400" height="159.51"/><rect class="cls-3" x="992" width="32" height="32"/><path class="cls-1" d="M62.68,574.58l23.18-48.09c3.87-8,10.4-8,14.27,0l23.18,48.09c5.89,12.22,1.46,32.29-7.13,32.29H69.81C61.22,606.87,56.79,586.8,62.68,574.58Z"/><path class="cls-1" d="M393.33,950q0,6.88-.18,13.66c0,1.44-.09,2.87-.15,4.3q-.08,2.63-.21,5.22c-.07,1.74-.16,3.47-.26,5.19s-.2,3.38-.32,5c-.19,2.9-.41,5.76-.66,8.61-.15,1.77-.31,3.53-.48,5.27q-.46,4.8-1,9.5c-.15,1.26-.31,2.51-.47,3.76q-.87,6.84-1.93,13.44H253.09q-1.07-6.6-1.93-13.44c-.16-1.25-.32-2.5-.47-3.76q-.56-4.69-1-9.5c-.17-1.74-.33-3.5-.48-5.27q-.37-4.26-.66-8.6c-.12-1.68-.22-3.36-.32-5.06l-.06-1.18q-.26-4.58-.41-9.23c-.06-1.43-.11-2.86-.15-4.3q-.18-6.76-.18-13.66a470.33,470.33,0,0,1,5.4-72.18q1.59-10.26,3.63-19.89h0c1.3-6.24,2.75-12.26,4.31-18,.7-2.61,1.43-5.16,2.18-7.67,13.36-44.54,34.11-73.16,57.43-73.16,16.41,0,31.54,14.16,43.72,38.08.51,1,1,2,1.5,3s1,2.14,1.52,3.23a224.1,224.1,0,0,1,10.69,28.84Q378.94,836,380,840q2.12,7.86,3.93,16.29s0,0,0,0c1.5,6.9,2.83,14.08,4,21.49A470.33,470.33,0,0,1,393.33,950Z"/><path class="cls-4" d="M313.68,258.88l6.22,6.6a2.64,2.64,0,0,0,3.83,0l6.21-6.6a2.62,2.62,0,0,0-1.91-4.43H315.6A2.63,2.63,0,0,0,313.68,258.88Z"/><path class="cls-5" d="M311.27,270c1.64.27,3.5.58,5.23.8s3.51.37,5.23.42a33.56,33.56,0,0,0,5-.27,30.51,30.51,0,0,0,4.78-1.15l.25-.08a2.51,2.51,0,0,1,2.2,4.44,18,18,0,0,1-6,2.77,25,25,0,0,1-6.41.71,29.76,29.76,0,0,1-6.21-.82,28.2,28.2,0,0,1-3-.87,22.08,22.08,0,0,1-2.91-1.28,2.51,2.51,0,0,1,1.57-4.7Z"/><rect class="cls-4" x="348.5" y="213.11" width="19.99" height="30.6" rx="10" ry="10"/><rect class="cls-4" x="275.88" y="213.11" width="19.99" height="30.6" rx="10" ry="10" transform="translate(571.75 456.82) rotate(180)"/><path d="M340.06,268.45v1.39a18.18,18.18,0,0,1-6.23,13.72q-.7.62-1.47,1.17c-.25.17-.49.34-.75.5a17,17,0,0,1-2.34,1.26,18,18,0,0,1-7,1.6h-1a18.11,18.11,0,0,1-7-1.6,17.58,17.58,0,0,1-2.34-1.26c-.25-.16-.49-.33-.73-.51a18.42,18.42,0,0,1-1.48-1.16,18.2,18.2,0,0,1-6.22-13.72v-1.39Z"/><ellipse class="cls-6" cx="321.81" cy="282.81" rx="7.55" ry="5.28"/><path class="cls-7" d="M331.61,285.23a17,17,0,0,1-2.34,1.26,18,18,0,0,1-7,1.6h-1a18.11,18.11,0,0,1-7-1.6,17.58,17.58,0,0,1-2.34-1.26c1.76-1.52,5.5-1.51,9.82-1.51S329.85,283.71,331.61,285.23Z"/><polygon class="cls-7" points="331.87 268.45 335.58 277.53 338.53 268.45 331.87 268.45"/><polygon class="cls-7" points="311.74 268.45 308.03 277.53 305.07 268.45 311.74 268.45"/><rect class="cls-7" x="308.15" y="268.45" width="27.32" height="5.56"/><path class="cls-1" d="M268.66,199.67a6.18,6.18,0,0,1-2.34-11.9c8.08-3.31,15.75-6,27.75-5.42a6.18,6.18,0,0,1-.6,12.35c-10.24-.5-16.45,2.05-22.47,4.51A6.06,6.06,0,0,1,268.66,199.67Z"/><path class="cls-1" d="M373.8,199.67a6.18,6.18,0,0,0,2.35-11.9c-8.09-3.31-15.76-6-27.75-5.42a6.18,6.18,0,1,0,.6,12.35c10.24-.5,16.45,2.05,22.46,4.51A6.06,6.06,0,0,0,373.8,199.67Z"/><path class="cls-7" d="M358.51,220.79a3.66,3.66,0,0,0,3.28,4,3.88,3.88,0,1,0-3.28-4Z"/><path class="cls-7" d="M286.4,220.79a3.67,3.67,0,0,0,3.29,4,3.88,3.88,0,0,0,.47-7.71A3.78,3.78,0,0,0,286.4,220.79Z"/><polygon class="cls-1" points="551.89 567.91 540.58 561.91 529.28 567.91 517.98 561.91 506.68 567.91 495.38 561.91 484.08 567.91 470.56 562.89 471.01 577.35 564.97 577.34 565.41 562.89 551.89 567.91"/><rect class="cls-1" x="471.01" y="577.35" width="93.96" height="59.41"/><rect class="cls-8" x="643" width="381" height="134"/><polygon class="cls-1" points="685.44 264.47 707.95 249.74 745.85 249.74 766.21 270.93 802.62 281.64 772.27 317.95 731.97 325.06 687.32 319.15 647.96 284.21 685.44 264.47"/><polygon class="cls-1" points="685.44 439.39 707.95 424.66 745.85 424.66 766.21 445.84 802.62 456.56 772.27 492.86 731.97 499.98 687.32 494.07 647.96 459.13 685.44 439.39"/><path class="cls-1" d="M654.75,785.69c0,21.1,31.83,38.21,71.09,38.21s71.09-17.11,71.09-38.21Z"/></g></g></svg>