<svg xmlns="http://www.w3.org/2000/svg" xmlns:xlink="http://www.w3.org/1999/xlink" viewBox="0 0 1024 1024"><defs><style>.cls-1{isolation:isolate;}.cls-2{fill:#fff;}.cls-3{fill:#666;}.cls-4{fill:#e6e6e6;}.cls-5{fill:red;}.cls-6{fill:#f7a3a0;}.cls-7{fill:#220f0f;}.cls-8{fill:#002539;}.cls-9{fill:#551c20;}.cls-10{fill:#972c1f;}.cls-11{fill:#7c8d9c;}.cls-12{fill:#687886;}.cls-13{fill:url(#linear-gradient);}.cls-14{fill:#333;}.cls-14,.cls-15{opacity:0.25;}.cls-14,.cls-18,.cls-23,.cls-24{mix-blend-mode:overlay;}.cls-15{fill:#94a3a9;mix-blend-mode:multiply;}.cls-16{fill:none;}.cls-17{fill:#abbfcf;}.cls-18{opacity:0.5;fill:url(#radial-gradient);}.cls-19{fill:#718191;}.cls-20{fill:#98aec2;}.cls-21{fill:#7d8c9b;}.cls-22{fill:lime;}.cls-23,.cls-24{opacity:0.45;}.cls-23{fill:url(#linear-gradient-2);}.cls-24{fill:url(#linear-gradient-3);}</style><linearGradient id="linear-gradient" x1="277.78" y1="992.48" x2="332.56" y2="993.2" gradientUnits="userSpaceOnUse"><stop offset="0" stop-opacity="0"/><stop offset="1"/></linearGradient><radialGradient id="radial-gradient" cx="321.74" cy="891.45" r="88.87" gradientTransform="translate(0 570.08) scale(1 0.36)" gradientUnits="userSpaceOnUse"><stop offset="0"/><stop offset="1" stop-opacity="0"/></radialGradient><linearGradient id="linear-gradient-2" x1="657.77" y1="835.05" x2="657.77" y2="786.3" xlink:href="#linear-gradient"/><linearGradient id="linear-gradient-3" x1="794.72" y1="835.05" x2="794.72" y2="786.3" xlink:href="#linear-gradient"/></defs><title>animalC</title><g class="cls-1"><g id="Layer_2" data-name="Layer 2"><g id="SkinComplete"><path class="cls-2" d="M393.33,975.5c0,1,0,1.92,0,2.87q-.1,14.57-1.3,28.43c-.09,1.17-.2,2.34-.31,3.5q-.66,7-1.57,13.7H250.6q-.91-6.74-1.57-13.7c-.11-1.16-.22-2.33-.31-3.5q-1.18-13.84-1.3-28.43c0-1,0-1.91,0-2.87q0-6,.18-11.84.33-10.23,1.18-20.08c.8-9.29,1.94-18.3,3.4-27s3.17-16.72,5.18-24.51c.38-1.49.77-3,1.18-4.43q2.25-8.16,4.91-15.64,2.32-6.62,5-12.67c7-16.14,15.46-29,24.9-37.56,8.36-7.59,17.5-11.76,27.06-11.76s18.7,4.17,27.06,11.76c9.77,8.85,18.5,22.35,25.65,39.31q2.22,5.25,4.22,10.92c1.85,5.2,3.55,10.67,5.11,16.36.34,1.23.67,2.46,1,3.71.44,1.69.86,3.39,1.27,5.12,1.79,7.52,3.32,15.39,4.58,23.55,1.14,7.37,2.06,15,2.73,22.8q.86,9.84,1.18,20.08Q393.33,969.53,393.33,975.5Z"/><rect class="cls-3" x="2.51" y="490" width="182.97" height="154"/><rect class="cls-3" width="1024" height="1024"/><rect class="cls-3" width="643" height="490"/><rect class="cls-3" y="139.59" width="643" height="350.41"/><path class="cls-4" d="M401.06,325.05c0-38.07-35.48-68.93-79.25-68.93S242.57,287,242.57,325.05h0a173.92,173.92,0,0,0,.54,28.32l12.38,122.91,64.82,5.58h2.74l64.82-5.58,12.55-124.56a175.66,175.66,0,0,0,.71-25Z"/><rect class="cls-3" x="824" y="134" width="200" height="390"/><rect class="cls-3" x="624" y="864.49" width="400" height="159.51"/><rect class="cls-5" x="992" width="32" height="32"/><path class="cls-6" d="M62.68,574.58l23.18-48.09c3.87-8,10.4-8,14.27,0l23.18,48.09c5.89,12.22,1.46,32.29-7.13,32.29H69.81C61.22,606.87,56.79,586.8,62.68,574.58Z"/><path class="cls-4" d="M393.33,950q0,6.88-.18,13.66-.21,7.44-.62,14.71c-.55,9.74-1.39,19.24-2.48,28.43-.14,1.17-.29,2.34-.43,3.5q-.89,7-2,13.7H253.09q-1.08-6.72-2-13.7c-.14-1.16-.29-2.33-.43-3.5-1.09-9.19-1.93-18.69-2.48-28.43q-.42-7.26-.62-14.71-.18-6.76-.18-13.66,0-3.22,0-6.42c.15-11.85.71-23.43,1.66-34.64q.7-8.57,1.72-16.83c.28-2.35.58-4.67.9-7q.92-6.66,2-13.09.78-4.54,1.64-9c2.05-10.45,4.45-20.33,7.17-29.55q1-3.45,2.09-6.76,1.78-5.58,3.76-10.79c6.4-17,14-30.89,22.46-40.68a64.43,64.43,0,0,1,7.55-7.45c6.93-5.71,14.3-8.79,21.95-8.79,8.08,0,15.85,3.43,23.11,9.78a65.55,65.55,0,0,1,7.45,7.73c8.37,10.11,15.87,24.23,22.15,41.43.88,2.38,1.72,4.83,2.55,7.33.49,1.47,1,3,1.43,4.49A333.6,333.6,0,0,1,387,872q.56,3.24,1.07,6.56.58,3.78,1.1,7.65.4,2.91.75,5.86,1.36,11.11,2.19,22.78c.66,9.34,1.07,18.92,1.19,28.69Q393.34,946.78,393.33,950Z"/><ellipse class="cls-4" cx="362.5" cy="228.41" rx="26.3" ry="30.72" transform="translate(-62.17 171.55) rotate(-24.59)"/><rect class="cls-7" x="348.5" y="213.11" width="19.99" height="30.6" rx="10" ry="10"/><rect class="cls-7" x="275.88" y="213.11" width="19.99" height="30.6" rx="10" ry="10" transform="translate(571.75 456.82) rotate(180)"/><path class="cls-7" d="M383.68,216.91a56.87,56.87,0,0,0-39.05,5c-2.36,1.28-3.31-2.1-1.15-4.09a68.17,68.17,0,0,1,24-14.08c6.9-2.37,14.9,3.26,17.84,10.78C385.85,216,385.09,217.1,383.68,216.91Z"/><path class="cls-7" d="M260.84,208A56.82,56.82,0,0,1,300,211.94c2.4,1.21,3.25-2.2,1-4.12a67.82,67.82,0,0,0-24.35-13.38c-7-2.17-14.8,3.68-17.52,11.28C258.65,207.19,259.44,208.26,260.84,208Z"/><path class="cls-3" d="M322.94,281.44a5.84,5.84,0,0,0-3.69,2.09,2.54,2.54,0,0,0,2.36,4.11L326,287a2.55,2.55,0,0,0,1-4.63A5.86,5.86,0,0,0,322.94,281.44Z"/><path class="cls-7" d="M308.87,274.44l-1.83-.12a2.51,2.51,0,0,1,.3-5h0c11.68.82,25.45-.31,27.27-3.3a2,2,0,0,1,3-.67,2.7,2.7,0,0,1,.54,3.46C334.41,275.11,316.62,274.86,308.87,274.44Z"/><path class="cls-7" d="M326.51,245.79h-9.39a7.11,7.11,0,0,0-6.3,3.81h0a7.12,7.12,0,0,0,2.34,9.22l4.7,3.14a7.12,7.12,0,0,0,7.91,0l4.69-3.14a7.11,7.11,0,0,0,2.35-9.22h0A7.13,7.13,0,0,0,326.51,245.79Z"/><path class="cls-2" d="M358.51,220.79a3.66,3.66,0,0,0,3.28,4,3.88,3.88,0,1,0-3.28-4Z"/><path class="cls-2" d="M286.4,220.79a3.67,3.67,0,0,0,3.29,4,3.88,3.88,0,0,0,.47-7.71A3.78,3.78,0,0,0,286.4,220.79Z"/><polygon class="cls-4" points="565.41 562.89 564.97 577.34 564.97 636.76 471.01 636.76 471.01 577.35 470.56 562.89 484.08 567.91 495.38 561.91 506.68 567.91 517.98 561.91 529.28 567.91 540.58 561.91 551.89 567.91 565.41 562.89"/><rect class="cls-8" x="164" y="490" width="296" height="534"/><rect class="cls-9" x="643" width="381" height="134"/><rect class="cls-10" x="643" y="134" width="181" height="390"/><path d="M337.13,726.25l-1.38-.28a21.58,21.58,0,0,0-2.28-.33l-10-.95a21.73,21.73,0,0,0-4.19,0l-10.72,1c-.8.07-1.6.19-2.4.34l-1.31.27c-10,2-17.81,10.36-19.77,21.16h0a28.81,28.81,0,0,0,.4,12.26h0A92.36,92.36,0,0,0,302.1,794l.56.72c10.1,12.94,28.58,12.58,38.23-.76l.48-.67a92.9,92.9,0,0,0,14.86-32.35l.33-1.35a29.15,29.15,0,0,0,.35-12.09v-.09C354.93,736.61,347.09,728.22,337.13,726.25Z"/><path d="M401.13,1010.3H373.08a2088.29,2088.29,0,0,1,0-512.11h28.05A1366.59,1366.59,0,0,0,401.13,1010.3Z"/><path d="M268.41,1010.3H240.36a1366.59,1366.59,0,0,0,0-512.11h28.05A2088.29,2088.29,0,0,1,268.41,1010.3Z"/><rect class="cls-11" x="205.57" y="892.11" width="239.27" height="86.25"/><rect class="cls-12" x="205.57" y="943.58" width="239.27" height="34.78"/><rect class="cls-11" x="205.57" y="517.5" width="239.27" height="92.55"/><rect class="cls-10" x="624" y="764" width="400" height="260"/><rect class="cls-9" x="624" y="975.89" width="400" height="48.11"/><rect class="cls-10" y="978.37" width="629.1" height="28.43"/><rect class="cls-10" x="171.94" y="494.89" width="285.23" height="28.43"/><polygon class="cls-13" points="301.59 978.37 283.81 990.23 303.83 1006.76 266.55 1006.76 271.1 978.37 301.59 978.37"/><path class="cls-10" d="M903.48,653c0,.49-9.11,32.36-9.11,32.36l44.4,34.15L988,692.72s1-34,1-35.15S978.23,635,978.23,635L939.11,623.7l-23.89,4.12Z"/><path class="cls-10" d="M786,653.31c0,.49-9.1,32.37-9.1,32.37l44.39,34.15L870.52,693s1-34,1-35.15-10.79-22.61-10.79-22.61L821.59,624l-23.88,4.12Z"/><path class="cls-14" d="M682.15,786.3a49,49,0,0,1-1.74,13c-7.35,26.73-47,21-47-6.74V786.3Z"/><path class="cls-14" d="M770.35,786.3a48.61,48.61,0,0,0,1.74,13c7.35,26.73,47,21,47-6.74V786.3Z"/><path class="cls-9" d="M798.05,310.06l-.19,20.88-.12,13.64L779,393.74l-11.25,31.05L756,456.55a25.15,25.15,0,0,1-7.8,10.82h0a25.17,25.17,0,0,1-11.82,5.27l-6,1a25.15,25.15,0,0,1-9.7-.34l-4.78-1.11a25.16,25.16,0,0,1-12.13-6.73l-.59-.59a25.08,25.08,0,0,1-5.47-8.21L689.55,437l-11.5-28.5-4-13.8-6-26.11L666.6,353l-.05-36.66H641.67V483.78l61.62,18H797l13-48,15.5-98.48V310.06Z"/><path class="cls-9" d="M798.05,134.59l-.19,20.88-.12,13.64L779,218.27l-11.25,31L756,281.09a25.15,25.15,0,0,1-7.8,10.82h0a25.15,25.15,0,0,1-11.82,5.26l-6,1a25.14,25.14,0,0,1-9.7-.33l-4.78-1.11A25.32,25.32,0,0,1,703.69,290l-.59-.59a25,25,0,0,1-5.47-8.22l-8.08-19.59-11.5-28.5-4-13.8-6-26.1L666.6,177.5l-.05-36.65H641.67V308.31l61.62,18H797l13-48,15.5-98.49V134.59Z"/><rect class="cls-15" x="631.59" y="780.97" width="383.62" height="15.98"/><rect x="212.94" y="610.05" width="220.12" height="12.57"/><rect x="205.57" y="872.04" width="239.27" height="20.07"/><line class="cls-16" x1="205.57" y1="610.05" x2="444.83" y2="610.05"/><rect class="cls-11" x="460" y="654.47" width="31.56" height="188.74"/><polygon class="cls-11" points="445.83 654.47 428.62 681.05 422.17 725.5 423.38 763.65 432.45 812.23 457.05 819.12 460 843.21 460 654.47 445.83 654.47"/><polygon class="cls-12" points="441.84 660.63 427.78 644 398.78 664.83 386.2 725.39 386.2 767.14 399.6 825.41 450.76 834.71 450.76 660.72 441.84 660.63"/><rect class="cls-11" x="149.18" y="654.47" width="31.56" height="188.74"/><polygon class="cls-11" points="194.91 654.47 212.12 681.05 218.57 725.5 217.36 763.65 208.29 812.23 183.69 819.12 180.74 843.21 180.74 654.47 194.91 654.47"/><polygon class="cls-12" points="198.87 660.63 210.93 640 243.93 662.83 254.52 725.39 254.52 767.14 242.11 826.41 189.95 834.71 189.95 660.72 198.87 660.63"/><rect class="cls-10" x="723.65" y="558.05" width="280.26" height="169.06"/><path class="cls-17" d="M351.41,821.81H292.09c-20.27,0-36.7,11.16-36.7,32.35v21.9a66.36,66.36,0,0,0,66.36,66.36h0a66.36,66.36,0,0,0,66.36-66.36v-21.9C388.11,833,371.68,821.81,351.41,821.81Z"/><path class="cls-17" d="M398.38,859.17v25.29a76.64,76.64,0,1,1-153.27,0V859.17c0-24.47,19-37.36,42.39-37.36H356C379.41,821.81,398.38,834.7,398.38,859.17Z"/><path class="cls-18" d="M398.38,859.17v25.29a76.64,76.64,0,1,1-153.27,0V859.17c0-24.47,19-37.36,42.39-37.36H356C379.41,821.81,398.38,834.7,398.38,859.17Z"/><path class="cls-17" d="M398.38,859.17V878c0,21.59-153.27,21.59-153.27,0V859.17c0-24.47,19-37.36,42.39-37.36H356C379.41,821.81,398.38,834.7,398.38,859.17Z"/><rect class="cls-12" x="205.57" y="523.32" width="239.27" height="34.78"/><rect class="cls-8" x="631.59" y="769.25" width="383.62" height="48.93"/><rect class="cls-8" x="631.59" y="818.17" width="383.62" height="73.94"/><rect class="cls-11" x="631.59" y="892.11" width="383.62" height="74.88"/><rect class="cls-12" x="631.59" y="932.59" width="383.62" height="42.92"/><path class="cls-17" d="M788.09,901.16h0a11.74,11.74,0,0,0-2,19.84h0a11.72,11.72,0,0,0,14.35,0h0a11.74,11.74,0,0,0-2-19.84h0A11.72,11.72,0,0,0,788.09,901.16Z"/><path class="cls-17" d="M654.81,901.16h0a11.74,11.74,0,0,0-2,19.84h0a11.72,11.72,0,0,0,14.35,0h0a11.74,11.74,0,0,0-2-19.84h0A11.72,11.72,0,0,0,654.81,901.16Z"/><path class="cls-19" d="M316.54,1004a10.54,10.54,0,0,1-6-1.88l-1.22-.84a10.61,10.61,0,0,1,0-17.46l1.22-.84a10.61,10.61,0,0,1,6-1.87h12.17a10.61,10.61,0,0,1,6,1.87l1.22.84a10.61,10.61,0,0,1,0,17.46l-1.22.84a10.54,10.54,0,0,1-6,1.88Z"/><path class="cls-20" d="M328.71,983.12a8.55,8.55,0,0,1,4.89,1.53l1.22.84a8.61,8.61,0,0,1,0,14.19l-1.22.84a8.55,8.55,0,0,1-4.89,1.53H316.54a8.61,8.61,0,0,1-4.9-1.53l-1.21-.84a8.61,8.61,0,0,1,0-14.19l1.21-.84a8.61,8.61,0,0,1,4.9-1.53h12.17m0-4H316.54a12.6,12.6,0,0,0-7.15,2.23l-1.21.84a12.58,12.58,0,0,0,0,20.72l1.21.84a12.6,12.6,0,0,0,7.15,2.23h12.17a12.62,12.62,0,0,0,7.15-2.23l1.21-.84a12.58,12.58,0,0,0,0-20.72l-1.21-.84a12.62,12.62,0,0,0-7.15-2.23Z"/><rect class="cls-21" x="9.43" y="432.44" width="622.16" height="49.42"/><path class="cls-11" d="M334.8,723.37l-1.18-.21q-1-.18-1.95-.27l-8.57-.75a21.4,21.4,0,0,0-3.58,0l-9.17.76a17.41,17.41,0,0,0-2.05.27l-1.13.2A21.14,21.14,0,0,0,290.25,740h0a21.13,21.13,0,0,0,.35,9.65h0a70.51,70.51,0,0,0,14.23,27l.48.57a21.1,21.1,0,0,0,32.7-.6l.41-.52a70.61,70.61,0,0,0,12.72-25.48l.28-1.06a21.12,21.12,0,0,0,.3-9.52V740A21.12,21.12,0,0,0,334.8,723.37Z"/><rect class="cls-10" x="826.31" y="141.7" width="180.05" height="376.17"/><rect class="cls-9" x="713.32" y="394.74" width="26.58" height="5.41" rx="2.7" ry="2.7"/><rect class="cls-9" x="713.32" y="405.83" width="26.58" height="5.41" rx="2.7" ry="2.7"/><rect class="cls-9" x="713.32" y="383.64" width="26.58" height="5.41" rx="2.7" ry="2.7"/><rect class="cls-9" x="713.32" y="220.15" width="26.58" height="5.41" rx="2.7" ry="2.7"/><rect class="cls-9" x="713.32" y="231.25" width="26.58" height="5.41" rx="2.7" ry="2.7"/><rect class="cls-9" x="713.32" y="209.05" width="26.58" height="5.41" rx="2.7" ry="2.7"/><rect class="cls-22" x="992" width="32" height="32"/><rect class="cls-8" x="624" y="764" width="400" height="109.12"/><rect class="cls-9" x="624" y="864.42" width="400" height="8.7"/><rect class="cls-9" x="624" y="775.88" width="400" height="26.57"/><path class="cls-23" d="M682.15,786.3a48.75,48.75,0,0,1-48.75,48.75V786.3Z"/><path class="cls-24" d="M770.35,786.3a48.75,48.75,0,0,0,48.75,48.75V786.3Z"/></g></g></g></svg>