<svg xmlns="http://www.w3.org/2000/svg" xmlns:xlink="http://www.w3.org/1999/xlink" viewBox="0 0 1024 1024"><defs><style>.cls-1{isolation:isolate;}.cls-2{fill:#fff;}.cls-3{fill:#65342e;}.cls-4{fill:#995f5b;}.cls-5{fill:red;}.cls-6{fill:#e4783e;}.cls-7{fill:#c84649;}.cls-8{fill:#ccdde7;}.cls-9{fill:#5e6b44;}.cls-10{fill:#465033;}.cls-11,.cls-12{opacity:0.45;mix-blend-mode:overlay;}.cls-11{fill:url(#linear-gradient);}.cls-12{fill:url(#linear-gradient-2);}.cls-13{fill:#f7a3a0;}.cls-14{fill:#44211e;}.cls-15{fill:#220f0f;}.cls-16{fill:#dd2b26;}.cls-17{opacity:0.95;}.cls-18{fill:#c7b299;}.cls-19{fill:blue;}</style><linearGradient id="linear-gradient" x1="657.77" y1="835.05" x2="657.77" y2="786.3" gradientUnits="userSpaceOnUse"><stop offset="0" stop-opacity="0"/><stop offset="1"/></linearGradient><linearGradient id="linear-gradient-2" x1="794.72" y1="835.05" x2="794.72" y2="786.3" xlink:href="#linear-gradient"/></defs><title>animalE</title><g class="cls-1"><g id="Layer_2" data-name="Layer 2"><g id="SkinComplete"><path class="cls-2" d="M393.33,975.5a361.92,361.92,0,0,1-3.19,48.5H250.6a361.92,361.92,0,0,1-3.19-48.5q0-6,.18-11.84c2.68-85.86,34.24-153.61,72.78-153.61,18.82,0,36,16.16,48.92,42.69q1.95,4,3.76,8.3c11.43,27.05,18.86,62.9,20.1,102.62Q393.33,969.53,393.33,975.5Z"/><rect class="cls-3" x="2.51" y="490" width="182.97" height="154"/><rect class="cls-3" width="1024" height="1024"/><rect class="cls-3" width="643" height="490"/><rect class="cls-3" y="139.59" width="643" height="350.41"/><path class="cls-4" d="M401.06,325.05c0-38.07-35.48-68.93-79.25-68.93S242.57,287,242.57,325.05h0a173.92,173.92,0,0,0,.54,28.32l12.38,122.91,64.82,5.58h2.74l64.82-5.58,12.55-124.56a175.66,175.66,0,0,0,.71-25Z"/><rect class="cls-3" x="824" y="134" width="200" height="390"/><rect class="cls-3" x="624" y="864.49" width="400" height="159.51"/><rect class="cls-5" x="992" width="32" height="32"/><rect class="cls-6" x="643" width="381" height="134"/><rect class="cls-7" x="643" y="134" width="181" height="390"/><polygon class="cls-2" points="685.44 439.39 707.95 424.66 745.85 424.66 766.21 445.84 763.57 471.33 735.92 484.58 701.16 478.78 685.44 439.39"/><polygon class="cls-2" points="685.44 264.47 707.95 249.74 745.85 249.74 766.21 270.93 763.57 296.42 735.92 309.66 701.16 303.87 685.44 264.47"/><rect class="cls-2" x="713.32" y="395.74" width="26.58" height="5.41" rx="2.7" ry="2.7"/><rect class="cls-2" x="713.32" y="386.11" width="26.58" height="5.41" rx="2.7" ry="2.7"/><rect class="cls-2" x="713.32" y="405.83" width="26.58" height="5.41" rx="2.7" ry="2.7"/><rect class="cls-2" x="713.32" y="221.15" width="26.58" height="5.41" rx="2.7" ry="2.7"/><rect class="cls-2" x="713.32" y="210.84" width="26.58" height="5.41" rx="2.7" ry="2.7"/><rect class="cls-2" x="713.32" y="231.25" width="26.58" height="5.41" rx="2.7" ry="2.7"/><path class="cls-8" d="M806,315.06l-8.41,15.88-.11,13.64L779,393.74l-11.25,31.05L756,456.55a25.15,25.15,0,0,1-7.8,10.82h0a25.17,25.17,0,0,1-11.82,5.27l-6,1a25.15,25.15,0,0,1-9.7-.34l-4.78-1.11a25.16,25.16,0,0,1-12.13-6.73l-.59-.59a25.08,25.08,0,0,1-5.47-8.21L689.55,437l-11.5-28.5-4-13.8-6-26.11L666.6,353l-.05-26.66h-20.5V483.78l57.24,18H797l13-48,10.5-98.48V319.61Z"/><path class="cls-8" d="M806,139.59l-8.17,15.88-.12,13.64L779,218.27l-11.25,31L756,281.09a25.15,25.15,0,0,1-7.8,10.82h0a25.15,25.15,0,0,1-11.82,5.26l-6,1a25.14,25.14,0,0,1-9.7-.33l-4.78-1.11A25.32,25.32,0,0,1,703.69,290l-.59-.59a25,25,0,0,1-5.47-8.22l-8.08-19.59-11.5-28.5-4-13.8-6-26.1L666.6,177.5l-.05-26.65h-20.5V308.31l57.24,18H797l13-48,10.5-98.49V144.14Z"/><path class="cls-2" d="M692.28,330.68l3.64,22.77a23.6,23.6,0,0,0,5.46,11.72l8.31,9.59a23.6,23.6,0,0,0,17.82,8.13h0a23.59,23.59,0,0,0,14.58-5.05l3.43-2.7a23.55,23.55,0,0,0,5.29-5.84l4.8-7.53a23.4,23.4,0,0,0,2.21-4.42L768.42,329H692.28Z"/><path class="cls-2" d="M692.28,154.72l3.64,22.77a23.6,23.6,0,0,0,5.46,11.72l8.31,9.58a23.58,23.58,0,0,0,17.82,8.14h0a23.59,23.59,0,0,0,14.58-5.05l3.43-2.71a23.37,23.37,0,0,0,5.29-5.84l4.8-7.52a23.79,23.79,0,0,0,2.21-4.43L768.42,153H692.28Z"/><rect class="cls-9" x="624" y="764" width="400" height="109.12"/><rect class="cls-10" x="624" y="864.42" width="400" height="8.7"/><rect class="cls-10" x="624" y="775.88" width="400" height="26.57"/><path class="cls-11" d="M682.15,786.3a48.75,48.75,0,0,1-48.75,48.75V786.3Z"/><path class="cls-12" d="M770.35,786.3a48.75,48.75,0,0,0,48.75,48.75V786.3Z"/><path class="cls-13" d="M62.68,574.58l23.18-48.09c3.87-8,10.4-8,14.27,0l23.18,48.09c5.89,12.22,1.46,32.29-7.13,32.29H69.81C61.22,606.87,56.79,586.8,62.68,574.58Z"/><path class="cls-4" d="M393.33,950q0,6.88-.18,13.66a460.73,460.73,0,0,1-5.5,60.34H253.09a460.73,460.73,0,0,1-5.5-60.34q-.18-6.76-.18-13.66c0-33.4,3.28-64.79,9-92.1,1.31-6.25,2.76-12.29,4.33-18.08,13.21-48.87,35-80.77,59.59-80.77,26.48,0,49.67,36.92,62.45,92.17q2.16,9.31,3.9,19.29A463.23,463.23,0,0,1,393.33,950Z"/><rect class="cls-14" x="348.5" y="213.11" width="19.99" height="30.6" rx="10" ry="10"/><rect class="cls-14" x="275.88" y="213.11" width="19.99" height="30.6" rx="10" ry="10"/><path class="cls-15" d="M260.8,207.79a56.86,56.86,0,0,1,39.05,5c2.37,1.29,3.31-2.09,1.15-4.08a67.93,67.93,0,0,0-24-14.08c-6.9-2.37-14.9,3.25-17.83,10.77C258.63,206.88,259.39,208,260.8,207.79Z"/><path class="cls-15" d="M383.64,208a56.8,56.8,0,0,0-39.17,3.91c-2.41,1.21-3.26-2.2-1-4.12a67.94,67.94,0,0,1,24.36-13.38c7-2.17,14.8,3.68,17.51,11.28C385.84,207.19,385,208.26,383.64,208Z"/><path class="cls-3" d="M322.94,281.44a5.84,5.84,0,0,0-3.69,2.09,2.54,2.54,0,0,0,2.36,4.11L326,287a2.55,2.55,0,0,0,1-4.63A5.86,5.86,0,0,0,322.94,281.44Z"/><path class="cls-15" d="M326.51,245.79h-9.39a7.11,7.11,0,0,0-6.3,3.81h0a7.12,7.12,0,0,0,2.34,9.22l4.7,3.14a7.12,7.12,0,0,0,7.91,0l4.69-3.14a7.11,7.11,0,0,0,2.35-9.22h0A7.13,7.13,0,0,0,326.51,245.79Z"/><path class="cls-15" d="M308.71,274.63a2,2,0,0,1-.7-3.88c.57-.21,14.19-5.21,27.56-.53a2,2,0,0,1-1.32,3.78c-12-4.19-24.71.45-24.84.5A1.89,1.89,0,0,1,308.71,274.63Z"/><path d="M299,290.2v-1.74a22.73,22.73,0,0,1,7.79-17.17c.59-.52,1.2-1,1.84-1.47l.93-.62a22.92,22.92,0,0,1,11.66-3.58h1.25a22.92,22.92,0,0,1,11.67,3.58c.31.2.62.41.92.63a23.24,23.24,0,0,1,1.85,1.46,22.76,22.76,0,0,1,7.78,17.17v1.74Z"/><ellipse class="cls-16" cx="321.81" cy="281.75" rx="9.45" ry="6.61"/><path class="cls-2" d="M342.76,290.2a6.66,6.66,0,0,0-6.67-6.66H307.54a6.65,6.65,0,0,0-6.67,6.66Z"/><path class="cls-2" d="M309.53,269.2a22.92,22.92,0,0,1,11.66-3.58h1.25a22.92,22.92,0,0,1,11.67,3.58c-2.2,1.9-6.88,1.89-12.29,1.89S311.74,271.1,309.53,269.2Z"/><polygon class="cls-2" points="328.22 270.17 334.11 276.05 334.11 269.49 334.11 269.2 328.22 270.17"/><polygon class="cls-2" points="315.42 270.17 309.54 276.05 309.54 269.49 309.54 269.2 315.42 270.17"/><path class="cls-2" d="M358.51,220.79a3.66,3.66,0,0,0,3.28,4,3.88,3.88,0,1,0-3.28-4Z"/><path class="cls-2" d="M286.4,220.79a3.67,3.67,0,0,0,3.29,4,3.88,3.88,0,0,0,.47-7.71A3.78,3.78,0,0,0,286.4,220.79Z"/><polygon class="cls-4" points="565.41 562.89 564.97 577.34 564.97 636.76 471.01 636.76 471.01 577.35 470.56 562.89 484.08 567.91 495.38 561.91 506.68 567.91 517.98 561.91 529.28 567.91 540.58 561.91 551.89 567.91 565.41 562.89"/><g class="cls-17"><path class="cls-18" d="M635.24,979.15l8.75-8.23a2.13,2.13,0,0,1,2.81-.11l2.83,2.29a2.13,2.13,0,0,0,2.94-.24l8.1-9.19a2.14,2.14,0,0,1,2.56-.5l6.89,3.44a2.12,2.12,0,0,0,2.52-.46l9.18-9.94a2.14,2.14,0,0,0,.36-2.36l-4-8.57a2.14,2.14,0,0,1,.18-2.14l6.21-8.82a2.14,2.14,0,0,1,3.48,0l6.55,9a2.14,2.14,0,0,1,.32,1.88L692,954.76a2.15,2.15,0,0,0,.08,1.48l4.21,9.69a1.87,1.87,0,0,0,.22.39l8.45,11.93a2.15,2.15,0,0,0,1.75.9H750.4a2.11,2.11,0,0,0,1.26-.41l5.53-4a2.13,2.13,0,0,1,2.69.14l3.43,3.1a2.13,2.13,0,0,0,2.75.1l4.45-3.5a2.14,2.14,0,0,0,0-3.4l-6.63-4.91a2.14,2.14,0,0,1-.44-3l3.62-4.85a2.13,2.13,0,0,1,3.11-.34l3.39,2.92a2.15,2.15,0,0,0,2.77,0l5.41-4.54a2.12,2.12,0,0,1,2.37-.24l5.54,2.95a2.14,2.14,0,0,1,.91,2.84l-2.76,5.51a2.13,2.13,0,0,0,.9,2.83l3.62,1.95a2.14,2.14,0,0,0,3-1l4.1-9.41a2.12,2.12,0,0,0-.26-2.14l-5.46-7.24a2.14,2.14,0,0,1,.82-3.24l9.35-4.21a2.13,2.13,0,0,1,2.81,1l3.22,6.81a2.26,2.26,0,0,1,.19.72l1.54,16.71a2.15,2.15,0,0,1-.05.67l-1.11,4.91a2.14,2.14,0,0,0,1.35,2.47l1.81.67a2.3,2.3,0,0,0,.74.13h13.52a2.18,2.18,0,0,0,1.4-.52l4.29-3.71a2.14,2.14,0,0,1,2.85.05l1.82,1.68a2.1,2.1,0,0,1,.65,1.18l.92,4.94a2.13,2.13,0,0,0,2.53,1.71l4.51-.93a2.14,2.14,0,0,0,1.71-2.1v-4.07a2.12,2.12,0,0,1,.92-1.75l4.79-3.34a2.12,2.12,0,0,0,.92-1.75v-9.08a2.12,2.12,0,0,1,1.89-2.12l6.82-.78a2.12,2.12,0,0,1,2.08,1l3.29,5.51a2.12,2.12,0,0,0,1.83,1h1.43a2.14,2.14,0,0,0,2.07-1.64l1.64-6.81a2.16,2.16,0,0,0-.55-2l-7.71-7.83a2.09,2.09,0,0,0-1.67-.63l-9.78.66a2.13,2.13,0,0,1-2.25-1.76L853,939a2.14,2.14,0,0,1,2.07-2.5l11.36-.23a2.15,2.15,0,0,1,1.47.55l10.46,9.39a2.68,2.68,0,0,1,.28.3l7.07,9.31a2.16,2.16,0,0,1,.39,1.72l-2.63,12.76a2.84,2.84,0,0,1-.17.49l-2.44,5.1a2.14,2.14,0,0,0,.34,2.35l5.69,6.3a2.14,2.14,0,0,0,3,.17l5.59-5a2.11,2.11,0,0,1,1.42-.54h45.49a2.14,2.14,0,0,0,1.6-.72l5.06-5.7a2.14,2.14,0,0,1,2.75-.38l5.25,3.36a2.16,2.16,0,0,1,.68.7l3.34,5.57a2.15,2.15,0,0,1-.11,2.36l-.49.66a2.14,2.14,0,0,0,1.19,3.33l8.91,2.34a2.14,2.14,0,0,0,2.18-.69l3.25-3.85a2.16,2.16,0,0,0,.39-2.07l-3.26-9.52a2.36,2.36,0,0,1-.11-.6l-.5-11.07a2.14,2.14,0,0,1,1.22-2L981,957.4a2.13,2.13,0,0,1,2.78.89l2.42,4.37a2.07,2.07,0,0,1,.24,1.36L985,973.51a2.1,2.1,0,0,0,.25,1.39l2.6,4.61a2.14,2.14,0,0,0,2.32,1l6.64-1.45a2.15,2.15,0,0,0,1.48-1.19h0a2.14,2.14,0,0,1,3.45-.62l.67.67a2.13,2.13,0,0,0,1.51.62h15v42.37H631.59V979.73Z"/><path class="cls-18" d="M669.43,947.5l.57,3.77a2.59,2.59,0,0,1-1.84,2.89l-1.86.54a2.6,2.6,0,0,1-3.13-1.52l-1-2.51a2.6,2.6,0,0,1,.81-3l2.29-1.8a2.63,2.63,0,0,1,3.66.44h0A2.65,2.65,0,0,1,669.43,947.5Z"/><path class="cls-18" d="M767.27,935.46l7.07.53a4.84,4.84,0,0,1,4.48,4.55l.2,3.58a4.84,4.84,0,0,1-4.06,5.06l-5,.8a4.83,4.83,0,0,1-5.16-2.72l-2.31-4.91a4.84,4.84,0,0,1,2.31-6.44h0A4.86,4.86,0,0,1,767.27,935.46Z"/><path class="cls-18" d="M794.43,932.83l-3.64,1.24a2.63,2.63,0,0,0-1.73,3l.38,1.91a2.62,2.62,0,0,0,2.82,2.1l2.72-.25a2.63,2.63,0,0,0,2.34-2.13l.54-2.9a2.63,2.63,0,0,0-2.09-3.07h0A2.65,2.65,0,0,0,794.43,932.83Z"/><path class="cls-18" d="M879.56,937.56,882,940a1.53,1.53,0,0,0,2.23-.09l2.81-3.25a1.53,1.53,0,0,0-1.41-2.51l-5.23.86A1.53,1.53,0,0,0,879.56,937.56Z"/><path class="cls-18" d="M949.81,950.21l-2.32.79a3.06,3.06,0,0,0-1.76,4.25L947.6,959a3.07,3.07,0,0,0,3.77,1.53l.69-.25a3.07,3.07,0,0,1,3.9,1.83l1.62,4.42a3.1,3.1,0,0,1,.18,1.35h0a3.05,3.05,0,0,0,2.94,3.36l1.2,0a3,3,0,0,0,3.15-2.83l.13-1.81a12.59,12.59,0,0,0-5.61-11.4L957.66,954l-5.16-3.45A3.05,3.05,0,0,0,949.81,950.21Z"/><path class="cls-18" d="M994.12,960.79l-3.12,4.9a1.43,1.43,0,0,0,.24,1.82L994,970a1.43,1.43,0,0,0,2-.08l1.4-1.53a1.42,1.42,0,0,0-.75-2.35h0a1.42,1.42,0,0,1-.94-2.1l1-1.71a1.42,1.42,0,0,0-1.58-2.08l-.12,0A1.46,1.46,0,0,0,994.12,960.79Z"/><path class="cls-18" d="M780.63,815.84l-8.06,11.83a5.31,5.31,0,0,0,0,6l3.24,4.79a5.29,5.29,0,0,0,7.72,1.16h0a5.3,5.3,0,0,1,8.22,2.07l.73,1.73a5.25,5.25,0,0,1-.24,4.59l-3.56,6.5a5.3,5.3,0,0,0,6.42,7.54l11.38-4a5.31,5.31,0,0,0,3.53-5V833.81a5.24,5.24,0,0,0-.2-1.42l-5.47-19.59a5.29,5.29,0,0,0-6.73-3.61l-14.22,4.59A5.29,5.29,0,0,0,780.63,815.84Z"/><path class="cls-18" d="M658.22,815.66v14.86a4.47,4.47,0,0,0,2.72,4.11l5,2.14a22.86,22.86,0,0,0,14.93,1l7-1.9a10.2,10.2,0,0,0,7.5-9.84h0a10.2,10.2,0,0,0-5.47-9l-1.06-.55a10.21,10.21,0,0,0-9.14-.16l-4.36,2.1A4.48,4.48,0,0,1,670,817.3l-4-4.57a4.47,4.47,0,0,0-6.84.12h0A4.43,4.43,0,0,0,658.22,815.66Z"/><path class="cls-18" d="M673.09,814.21h0a2.05,2.05,0,0,0,2.32.17l3.2-1.89a2,2,0,0,0,.16-3.41l-1-.72a2,2,0,0,0-2.75.34l-2.2,2.61A2,2,0,0,0,673.09,814.21Z"/><path class="cls-18" d="M663.64,841.67,668,843.2a3.39,3.39,0,0,1,1.58,5.24l-2.16,2.87a3.39,3.39,0,0,1-4.61.76l-3.14-2.14a3.38,3.38,0,0,1-1.22-4.12l1-2.26A3.38,3.38,0,0,1,663.64,841.67Z"/><path class="cls-18" d="M848.08,860.29l9.77,3.46a7.63,7.63,0,0,1,3.56,11.78L856.56,882a7.63,7.63,0,0,1-10.4,1.72l-7.08-4.81a7.64,7.64,0,0,1-2.74-9.28l2.16-5.1A7.63,7.63,0,0,1,848.08,860.29Z"/><path class="cls-18" d="M771.48,843.4l5.74,2.34a2.55,2.55,0,0,1,1.54,2.92l-.74,3.41a2.56,2.56,0,0,1-3.36,1.87l-3.77-1.33a2.55,2.55,0,0,1-1.62-1.73L768,846.46A2.57,2.57,0,0,1,771.48,843.4Z"/><path class="cls-18" d="M936.69,373l-8.06,11.83a5.29,5.29,0,0,0,0,5.95l3.23,4.8a5.31,5.31,0,0,0,7.73,1.15h0a5.3,5.3,0,0,1,8.22,2.07l.73,1.73a5.32,5.32,0,0,1-.24,4.59l-3.56,6.5a5.3,5.3,0,0,0,6.41,7.54l11.38-4a5.3,5.3,0,0,0,3.53-5V391a5.23,5.23,0,0,0-.19-1.42L960.39,370a5.3,5.3,0,0,0-6.74-3.61L939.44,371A5.29,5.29,0,0,0,936.69,373Z"/><path class="cls-18" d="M895.55,219.39h0a2,2,0,0,0,2.31.17l3.2-1.89a2,2,0,0,0,.16-3.4l-1-.73a2,2,0,0,0-2.75.34l-2.2,2.61A2,2,0,0,0,895.55,219.39Z"/><path class="cls-18" d="M890.44,248.39a3.39,3.39,0,0,1,1.57,5.23l-2.15,2.87a3.4,3.4,0,0,1-4.62.76l-3.14-2.14a3.39,3.39,0,0,1-1.21-4.12l1-2.26Z"/><path class="cls-18" d="M927.54,400.58l5.74,2.34a2.55,2.55,0,0,1,1.54,2.92l-.75,3.41a2.56,2.56,0,0,1-3.36,1.87l-3.77-1.33a2.57,2.57,0,0,1-1.62-1.73l-1.22-4.41A2.57,2.57,0,0,1,927.54,400.58Z"/><path class="cls-18" d="M855.15,857.82l-6.12-1a2.56,2.56,0,0,1-2.15-2.51l0-3.49a2.57,2.57,0,0,1,2.86-2.57l4,.46a2.53,2.53,0,0,1,2,1.33l2.18,4A2.57,2.57,0,0,1,855.15,857.82Z"/><path class="cls-18" d="M861.12,887,863,889.7a2.16,2.16,0,0,0,3.28.33l3.57-3.47a2.15,2.15,0,0,0-1.79-3.68l-5.43.73A2.16,2.16,0,0,0,861.12,887Z"/><path class="cls-18" d="M961.31,900.72l.53,6.17a2.56,2.56,0,0,1-1.9,2.7l-3.38.89a2.57,2.57,0,0,1-3.2-2.14l-.52-4a2.56,2.56,0,0,1,.8-2.22l3.38-3.1A2.56,2.56,0,0,1,961.31,900.72Z"/><path class="cls-18" d="M988.1,887.78l2.19-2.49a2.16,2.16,0,0,0-.49-3.26l-4.23-2.61a2.16,2.16,0,0,0-3.13,2.64l2,5.09A2.16,2.16,0,0,0,988.1,887.78Z"/><path class="cls-18" d="M96.67,746.69l10.21-1.82a7.63,7.63,0,0,1,8.91,8.49l-1,8a7.63,7.63,0,0,1-8.19,6.64L98,767.32a7.64,7.64,0,0,1-7-6.72l-.65-5.5A7.64,7.64,0,0,1,96.67,746.69Z"/><path class="cls-18" d="M101.6,741.05l-5.82,2.16a2.57,2.57,0,0,1-3.11-1.12l-1.75-3a2.57,2.57,0,0,1,1.22-3.65l3.68-1.57a2.59,2.59,0,0,1,2.36.19l3.89,2.43A2.57,2.57,0,0,1,101.6,741.05Z"/><path class="cls-18" d="M121.19,763.44l3,1.45a2.15,2.15,0,0,0,3-1.34l1.39-4.77a2.15,2.15,0,0,0-3.37-2.32l-4.37,3.33A2.15,2.15,0,0,0,121.19,763.44Z"/><path class="cls-18" d="M159.41,680.35l-1.27-3.06a2.17,2.17,0,0,0-3.15-1l-4.2,2.67a2.16,2.16,0,0,0,1,4l5.47.39A2.16,2.16,0,0,0,159.41,680.35Z"/><polygon class="cls-18" points="945.57 338.94 951.11 354.33 951.11 366.11 953.88 380.19 953.88 414.05 953.88 431.29 956.35 443.3 966.05 455.31 982.51 439.91 990.83 377.73 979.74 333.57 951.42 328.55 945.57 338.94"/><path class="cls-18" d="M863,219.7l3.83-.56a1.61,1.61,0,0,1,1.64,2.37L867,224a1.58,1.58,0,0,1-1.24.81l-2.49.25a1.6,1.6,0,0,1-1.76-1.64l.05-2.18A1.61,1.61,0,0,1,863,219.7Z"/><path class="cls-18" d="M845.06,170.64l18,1.17,2,7.18-5.66,8.53-1.75,7.16-.27.58,6.64,4.1a3.35,3.35,0,0,1,1.37,1.67l3.13,8.39a3.29,3.29,0,0,1-.88,3.61l-2.68,2.43a3.3,3.3,0,0,1-4.86-.45,3.32,3.32,0,0,0-5.31,0l-.7.94a3.32,3.32,0,0,0-.54,2.83l1.2,4.48a3.32,3.32,0,0,1-5,3.63l-1.52-1-1.95,7.95-3.28,6.93-7.69,5.85-7.71-11.81,4.21-39Z"/><path class="cls-18" d="M897.06,363.67l1.72,10.74a3.5,3.5,0,0,0,3.46,3h.94a3.5,3.5,0,0,0,2.48-1l1.89-1.89a3.51,3.51,0,0,0-1.14-5.72h0a3.51,3.51,0,0,1-2.15-3.62l.2-1.9a3.51,3.51,0,0,0-5.37-3.34l-.45.28A3.52,3.52,0,0,0,897.06,363.67Z"/><path class="cls-18" d="M769.62,696.59l34.73-8.65a11.52,11.52,0,0,0,2.2-.78l4.25-2a11.53,11.53,0,0,1,13.87,3.06h0a11.55,11.55,0,0,0,9.51,4.18l21.2-1.13,2.14,7.51-18.94,17.51L795,714.82Z"/><path class="cls-18" d="M829.26,643.41l-2.35,4.12a4.61,4.61,0,0,0,2.75,6.72h0a4.63,4.63,0,0,0,4.65-1.32l3.07-3.34a4.61,4.61,0,0,0,0-6.24l-.72-.78A4.61,4.61,0,0,0,829.26,643.41Z"/><path class="cls-18" d="M680.56,148.72l-7.3,9.37a3.26,3.26,0,0,0-.15,3.8l7.45,11.36a3.27,3.27,0,0,1,.43,2.62l-3.54,13.47a3.26,3.26,0,0,0,2.45,4l12.81,2.85a3.28,3.28,0,0,1,2.54,2.8l2.28,19.29a3.26,3.26,0,0,0,4.13,2.76L715,217.27a3.26,3.26,0,0,1,3.87,1.8L725,232.78a3.26,3.26,0,0,0,4,1.75l29.36-10.08a3.27,3.27,0,0,0,2.1-3.91l-1.89-7.24a3.28,3.28,0,0,1,1.09-3.35l11.71-9.55a3.27,3.27,0,0,0,1.2-2.53V186.11a3.33,3.33,0,0,1,.78-2.13L782,174a3.26,3.26,0,0,0-1.14-5.1l-4.94-2.22a3.27,3.27,0,0,1-1.24-5l5.25-6.78a3.26,3.26,0,0,0-1.83-5.17l-42.11-10a3.39,3.39,0,0,0-1.23,0l-52.1,7.81A3.24,3.24,0,0,0,680.56,148.72Z"/><path class="cls-18" d="M811.8,143.59l-12.6,5.25a3.24,3.24,0,0,0-2,2.45l-1.38,7.93a3.24,3.24,0,0,0,.07,1.42l3.18,11.55a3.19,3.19,0,0,1,0,1.81l-5.28,17.48a3.29,3.29,0,0,0,.12,2.23l4,9.35a3.26,3.26,0,0,1-1,3.84l-15,12a3.28,3.28,0,0,0-1.22,2.55V239.8a3.27,3.27,0,0,1-1.57,2.79l-17.73,10.8A3.26,3.26,0,0,0,760,257l5,20.59a3.24,3.24,0,0,1-.38,2.47l-6.3,10.38a3.24,3.24,0,0,1-2.05,1.48l-26,6.06a3.27,3.27,0,0,0-2.4,2.31h0a3.27,3.27,0,0,1-5.61,1.28l-11.34-13a3.28,3.28,0,0,0-2.31-1.12l-16.3-.7a3.28,3.28,0,0,1-3.13-3.33l.38-20.05a3.26,3.26,0,0,0-1.41-2.75l-12.39-8.51a3.24,3.24,0,0,1-1.38-2.17l-7.48-46.74a1.5,1.5,0,0,1,0-.2l-1.67-17.09a3.24,3.24,0,0,0-1.28-2.28L657.77,179a3.25,3.25,0,0,1-1.18-3.46l6-22a3.36,3.36,0,0,1,.4-.91l4.15-6.43a3.26,3.26,0,0,0-1.85-4.91l-14.1-4a3.23,3.23,0,0,0-3,.61c-2.75,2.25-2.56,8.25-1.07,8.25,1.92,0-.32,78.23.13,81.43.42,2.89,3.1,55.06,4.57,64.73a3.24,3.24,0,0,0,1.6,2.33l27.17,20.3a2.38,2.38,0,0,0,.51.24l44.42,16.13a3.36,3.36,0,0,0,1.26.19l51.51-2.4a3.28,3.28,0,0,0,2.41-1.24l23.88-30.26a3.3,3.3,0,0,0,.68-1.57l9.14-65.93,9.92-65.57a3.23,3.23,0,0,0-.24-1.79l-5.66-13.05a1.77,1.77,0,0,0-.15-.31L815.9,145A3.27,3.27,0,0,0,811.8,143.59Z"/><path class="cls-18" d="M680.56,328.07l-7.3,9.38a3.25,3.25,0,0,0-.15,3.79l7.45,11.36a3.27,3.27,0,0,1,.43,2.62l-3.54,13.47a3.28,3.28,0,0,0,2.45,4l12.81,2.84a3.28,3.28,0,0,1,2.54,2.81l2.28,19.29a3.26,3.26,0,0,0,4.13,2.75L715,396.62a3.27,3.27,0,0,1,3.87,1.81l6.16,13.7a3.26,3.26,0,0,0,4,1.75l29.36-10.08a3.27,3.27,0,0,0,2.1-3.91l-1.89-7.23a3.29,3.29,0,0,1,1.09-3.36l11.71-9.55a3.27,3.27,0,0,0,1.2-2.53V365.46a3.28,3.28,0,0,1,.78-2.12l8.62-10a3.27,3.27,0,0,0-1.14-5.11L775.91,346a3.26,3.26,0,0,1-1.24-5l5.25-6.79a3.26,3.26,0,0,0-1.83-5.17l-42.11-10a3,3,0,0,0-1.23,0l-52.1,7.8A3.28,3.28,0,0,0,680.56,328.07Z"/><path class="cls-18" d="M811.8,323l-12.6,5.24a3.26,3.26,0,0,0-2,2.45l-1.38,7.93a3.3,3.3,0,0,0,.07,1.43l3.18,11.55a3.19,3.19,0,0,1,0,1.81l-5.28,17.47a3.29,3.29,0,0,0,.12,2.23l4,9.36a3.25,3.25,0,0,1-1,3.83l-15,12a3.28,3.28,0,0,0-1.22,2.55v18.39a3.27,3.27,0,0,1-1.57,2.79l-17.73,10.8A3.26,3.26,0,0,0,760,436.3l5,20.59a3.24,3.24,0,0,1-.38,2.47l-6.3,10.38a3.2,3.2,0,0,1-2.05,1.48l-26,6.07a3.26,3.26,0,0,0-2.4,2.3h0a3.27,3.27,0,0,1-5.61,1.28l-11.34-13a3.27,3.27,0,0,0-2.31-1.11l-16.3-.71a3.27,3.27,0,0,1-3.13-3.32l.38-20.06a3.26,3.26,0,0,0-1.41-2.75l-12.39-8.5a3.28,3.28,0,0,1-1.38-2.18l-7.48-46.74a1.36,1.36,0,0,1,0-.2l-1.67-17.08a3.26,3.26,0,0,0-1.28-2.29l-6.11-4.61a3.27,3.27,0,0,1-1.18-3.47l6-22a3.3,3.3,0,0,1,.4-.9l4.15-6.44a3.25,3.25,0,0,0-1.85-4.9l-14.1-4a3.26,3.26,0,0,0-3,.61c-2.75,2.25-8.67,7.23-7.18,7.23,1.92,0-8.28,79.26-7.83,82.45.41,2.9,8.28,54.62,9.75,64.29a3.25,3.25,0,0,0,1.6,2.33l36.06,20.75a4,4,0,0,0,.51.24l44.42,16.12a3.17,3.17,0,0,0,1.26.19l51.51-2.4a3.24,3.24,0,0,0,2.41-1.24l23.88-30.26a3.26,3.26,0,0,0,.68-1.57l9.14-65.93,9.92-65.57a3.24,3.24,0,0,0-.24-1.79L818.49,329a1.68,1.68,0,0,0-.15-.3l-2.44-4.35A3.26,3.26,0,0,0,811.8,323Z"/><path class="cls-18" d="M723.07,422.29l-12.09,5a4,4,0,0,0-2.43,3.61l0,4.82a20,20,0,0,0,4.22,12.48l3.89,5a9,9,0,0,0,10.54,2.8h0a9,9,0,0,0,5.51-7.5l.09-1a9,9,0,0,0-3-7.49l-3.17-2.85a3.93,3.93,0,0,1-.9-4.68l2.37-4.78a3.93,3.93,0,0,0-2.4-5.52h0A4,4,0,0,0,723.07,422.29Z"/><path class="cls-18" d="M729.27,433.91h0a1.79,1.79,0,0,0,.65,1.94l2.61,2a1.8,1.8,0,0,0,2.83-1l.25-1.06a1.79,1.79,0,0,0-1.2-2.12l-2.87-.92A1.81,1.81,0,0,0,729.27,433.91Z"/><path class="cls-18" d="M703.73,435.47l.22,4a3,3,0,0,1-3.73,3.05l-3.06-.78a3,3,0,0,1-2.18-3.5l.68-3.28a3,3,0,0,1,2.94-2.38l2.17,0A3,3,0,0,1,703.73,435.47Z"/><path class="cls-18" d="M737,255.71h0a1.81,1.81,0,0,0,.64,1.94l2.62,2a1.79,1.79,0,0,0,2.82-1l.25-1.05a1.79,1.79,0,0,0-1.2-2.13l-2.86-.91A1.8,1.8,0,0,0,737,255.71Z"/><path class="cls-18" d="M780.18,193.53h0a1.78,1.78,0,0,0,2-.4l2.27-2.36a1.79,1.79,0,0,0-.67-2.93l-1-.38a1.81,1.81,0,0,0-2.26.94l-1.25,2.74A1.79,1.79,0,0,0,780.18,193.53Z"/><path class="cls-18" d="M728.56,252.49l.29,5.57a4.1,4.1,0,0,1-5.12,4.2l-4.21-1.09a4.09,4.09,0,0,1-3-4.81l.93-4.51a4.11,4.11,0,0,1,4-3.27l3,0A4.11,4.11,0,0,1,728.56,252.49Z"/><path class="cls-18" d="M21,820.15V659.52H62.79v2.62a2.14,2.14,0,0,0,.52,1.39l3.71,4.3a2.15,2.15,0,0,1,0,2.85l-1.69,1.82a2.07,2.07,0,0,1-1.18.65l-4.94.91a2.14,2.14,0,0,0-1.7,2.54l.92,4.51a2.14,2.14,0,0,0,2.1,1.71h4.07a2.12,2.12,0,0,1,1.75.92l3.34,4.79a2.12,2.12,0,0,0,1.75.92h9.08a2.14,2.14,0,0,1,2.13,1.89l.78,6.82a2.15,2.15,0,0,1-1,2.08l-5.51,3.28a2.14,2.14,0,0,0-1,1.84v1.43a2.13,2.13,0,0,0,1.63,2.07l6.81,1.64a2.14,2.14,0,0,0,2-.56l7.83-7.7a2.14,2.14,0,0,0,.64-1.67l-.67-9.78a2.15,2.15,0,0,1,1.76-2.25l7.18-1.26a2.15,2.15,0,0,1,2.51,2.07l.22,11.36a2.15,2.15,0,0,1-.55,1.47l-9.39,10.46a3.83,3.83,0,0,1-.29.28L86.18,720a2.17,2.17,0,0,1-1.73.39l-12.76-2.64a2.16,2.16,0,0,1-.49-.16l-5.1-2.44a2.14,2.14,0,0,0-2.35.34l-6.3,5.69a2.15,2.15,0,0,0-.17,3l5,5.59a2.11,2.11,0,0,1,.54,1.41v15.5a2.1,2.1,0,0,0,.72,1.59l5.7,5.07a2.13,2.13,0,0,1,.38,2.75l-3.36,5.25a2.07,2.07,0,0,1-.7.68L60,765.35a2.13,2.13,0,0,1-2.36-.1l-.66-.49a2.14,2.14,0,0,0-3.33,1.18l-2.34,8.92A2.14,2.14,0,0,0,52,777l3.86,3.25a2.15,2.15,0,0,0,2.07.39l9.51-3.26a2.53,2.53,0,0,1,.6-.11l11.07-.5a2.14,2.14,0,0,1,2,1.22l3.45,7.28a2.13,2.13,0,0,1-.9,2.78l-4.36,2.42a2.11,2.11,0,0,1-1.37.24l-9.49-1.5a2.23,2.23,0,0,0-1.39.25l-4.6,2.61a2.14,2.14,0,0,0-1,2.32l1.45,3.64a2.16,2.16,0,0,0,1.2,1.48,2.13,2.13,0,0,1,.61,3.45l-.66.67a2.09,2.09,0,0,0-.63,1.51v15Z"/><path class="cls-18" d="M295.85,929.79l4.13-13.7a5.29,5.29,0,0,0-1.77-5.68l-4.53-3.6A5.31,5.31,0,0,0,286,908h0a5.3,5.3,0,0,1-8.46.5l-1.21-1.43a5.33,5.33,0,0,1-1.16-4.46l1.45-7.27a5.3,5.3,0,0,0-8.39-5.26l-9.64,7.26a5.31,5.31,0,0,0-1.87,5.82l5.76,18.29a5.35,5.35,0,0,0,.62,1.3l11.1,17a5.31,5.31,0,0,0,7.51,1.43l12.18-8.66A5.27,5.27,0,0,0,295.85,929.79Z"/><path class="cls-18" d="M280.44,880.14l-2-5.87a2.56,2.56,0,0,1,1.21-3.08l3.07-1.67a2.57,2.57,0,0,1,3.61,1.33l1.45,3.72a2.57,2.57,0,0,1-.25,2.36L285,880.74A2.57,2.57,0,0,1,280.44,880.14Z"/><path class="cls-18" d="M373.21,908.52l-6.12-1a2.58,2.58,0,0,1-2.15-2.51l0-3.5a2.56,2.56,0,0,1,2.86-2.57l4,.46a2.59,2.59,0,0,1,2,1.33l2.18,4A2.57,2.57,0,0,1,373.21,908.52Z"/><path class="cls-18" d="M190.05,711h0a6.4,6.4,0,0,0-9.34-2.94h0a6.4,6.4,0,0,0,3,11.79h0A6.4,6.4,0,0,0,190.05,711Z"/><path class="cls-18" d="M173,718.4h0a3.84,3.84,0,0,0-5.61-1.77h0a3.85,3.85,0,0,0,1.78,7.09h0A3.85,3.85,0,0,0,173,718.4Z"/><path class="cls-18" d="M244.23,825.81l16,13.54a6.38,6.38,0,0,1,2.09,6.31l-1.78,7.65a6.36,6.36,0,0,1-5.18,4.85l-3.6.59a6.38,6.38,0,0,1-7.29-5.12L243.29,847a6.36,6.36,0,0,0-6.23-5.2h0a6.37,6.37,0,0,1-5.35-9.8l3-4.76A6.36,6.36,0,0,1,244.23,825.81Z"/><path class="cls-18" d="M257.36,830.09l1.36,1a1.49,1.49,0,0,0,2.36-.93l.32-1.84a1.49,1.49,0,0,0-2.12-1.59l-1.68.82A1.48,1.48,0,0,0,257.36,830.09Z"/><path class="cls-18" d="M392.5,852.41l1.69-.15a1.49,1.49,0,0,0,1.12-2.28l-1-1.58a1.48,1.48,0,0,0-2.63.24l-.7,1.74A1.49,1.49,0,0,0,392.5,852.41Z"/><path class="cls-18" d="M377.74,848.48l5.51,3a5.46,5.46,0,0,1,2.56,3l.15.39a5.5,5.5,0,0,0,6.31,3.51l3.06-.65a5.51,5.51,0,0,1,6.19,3.2h0a5.51,5.51,0,0,1-2.79,7.2l-2.22,1a5.62,5.62,0,0,1-1.6.45l-9.91,1.2a5.52,5.52,0,0,1-5.64-3.12l-1.58-3.36a5.49,5.49,0,0,0-4.08-3.08l-.61-.11a5.5,5.5,0,0,1-4-7.85l1.13-2.31A5.51,5.51,0,0,1,377.74,848.48Z"/><path class="cls-18" d="M371.32,866.14h0a1.85,1.85,0,0,1,2.46,1.41h0a1.86,1.86,0,0,1-3.18,1.61h0A1.86,1.86,0,0,1,371.32,866.14Z"/><path class="cls-18" d="M372.92,635.57,363.3,625a5.3,5.3,0,0,1-.84-5.89l2.55-5.19a5.29,5.29,0,0,1,7.49-2.22h0a5.3,5.3,0,0,0,7.85-3.18l.48-1.82a5.33,5.33,0,0,0-.87-4.52l-4.43-5.94a5.3,5.3,0,0,1,5.31-8.36l11.83,2.41a5.31,5.31,0,0,1,4.19,4.46l2.65,19a5.34,5.34,0,0,1,0,1.44l-2.71,20.16a5.29,5.29,0,0,1-6.16,4.51l-14.72-2.58A5.29,5.29,0,0,1,372.92,635.57Z"/><path class="cls-18" d="M345.74,591.19l5.36-3.11a2.57,2.57,0,0,0,1.12-3.11L351,581.69a2.57,2.57,0,0,0-3.59-1.39l-3.55,1.85a2.56,2.56,0,0,0-1.36,1.94l-.61,4.54A2.58,2.58,0,0,0,345.74,591.19Z"/><path class="cls-18" d="M279.63,631.25l5.09-3.54a2.56,2.56,0,0,0,.86-3.19l-1.47-3.16a2.57,2.57,0,0,0-3.69-1.1L277,622.39a2.56,2.56,0,0,0-1.2,2L275.6,629A2.57,2.57,0,0,0,279.63,631.25Z"/><path class="cls-18" d="M381.81,523.73l-14.7,15a6.36,6.36,0,0,0-1.5,6.48l2.48,7.45a6.39,6.39,0,0,0,5.62,4.35l3.64.24a6.36,6.36,0,0,0,6.77-5.78l.61-6.7a6.38,6.38,0,0,1,5.72-5.76h0a6.38,6.38,0,0,0,4.41-10.26l-3.48-4.45A6.37,6.37,0,0,0,381.81,523.73Z"/><path class="cls-18" d="M369.14,529.22l-1.25,1.15a1.49,1.49,0,0,1-2.44-.71l-.49-1.8a1.49,1.49,0,0,1,2-1.79l1.75.66A1.49,1.49,0,0,1,369.14,529.22Z"/><path class="cls-18" d="M238.09,588.88l-1.59.58a1.48,1.48,0,0,1-2-1.57l.22-1.85a1.49,1.49,0,0,1,2.49-.92l1.37,1.27A1.49,1.49,0,0,1,238.09,588.88Z"/><path class="cls-18" d="M249.73,579l-3.7,5a5.5,5.5,0,0,0-1,3.78l0,.43a5.49,5.49,0,0,1-4.19,5.88l-3,.72a5.5,5.5,0,0,0-4.21,5.55h0a5.5,5.5,0,0,0,5.61,5.31l2.43-.05a5.39,5.39,0,0,0,1.64-.29l9.47-3.18a5.5,5.5,0,0,0,3.74-5.24v-3.71a5.49,5.49,0,0,1,2.35-4.53l.51-.36a5.5,5.5,0,0,0,.26-8.83l-2-1.59A5.51,5.51,0,0,0,249.73,579Z"/><path class="cls-18" d="M263.12,592.17h0a1.85,1.85,0,0,0-1.62,2.33h0a1.86,1.86,0,0,0,3.56.09h0A1.85,1.85,0,0,0,263.12,592.17Z"/></g><rect class="cls-19" x="992" width="32" height="32"/></g></g></g></svg>